<?xml version="1.0" encoding="UTF-8"?>
<svg width="19px" height="19px" viewBox="0 0 19 19" version="1.1" xmlns="http://www.w3.org/2000/svg" xmlns:xlink="http://www.w3.org/1999/xlink">
    <!-- Generator: Sketch 41.2 (35397) - http://www.bohemiancoding.com/sketch -->
    <title>1487926869_refresh</title>
    <desc>Created with Sketch.</desc>
    <defs></defs>
    <g id="Page-1" stroke="none" stroke-width="1" fill="none" fill-rule="evenodd" opacity="0.581408514">
        <g id="Desktop-Landscape" transform="translate(-632.000000, -551.000000)" fill="#fff">
            <g id="1487926869_refresh" transform="translate(632.000000, 551.000000)">
                <g id="Layer_1">
                    <path d="M17.6428571,9.5 C16.8156786,9.5 16.4234643,10.0828929 16.2857143,10.6983571 C15.7896786,12.9132143 13.68475,16.2857143 9.5,16.2857143 C5.75225,16.2857143 2.71428571,13.2470714 2.71428571,9.5 C2.71428571,5.75292857 5.75225,2.71428571 9.5,2.71428571 C11.02,2.71428571 12.4144643,3.22525 13.5442857,4.07142857 L12.2142857,4.07142857 C11.4651429,4.07142857 10.8571429,4.67942857 10.8571429,5.42857143 C10.8571429,6.17771429 11.4651429,6.78571429 12.2142857,6.78571429 L16.2857143,6.78571429 C17.0348571,6.78571429 17.6428571,6.17771429 17.6428571,5.42857143 L17.6428571,1.35714286 C17.6428571,0.608 17.0348571,0 16.2857143,0 C15.5365714,0 14.9285714,0.608 14.9285714,1.35714286 L14.9285714,1.70864286 C13.39025,0.632428571 11.5201071,0 9.5,0 C4.25328571,0 0,4.25328571 0,9.5 C0,14.7467143 4.25328571,19 9.5,19 C16.2714643,19 19,12.5535714 19,10.9419643 C19,9.956 18.2793571,9.5 17.6428571,9.5 Z" id="Shape"></path>
                </g>
            </g>
        </g>
    </g>
</svg>
