<svg xmlns="http://www.w3.org/2000/svg" width="354.7" height="336.1" viewBox="0 0 354.7 336.1"><path fill="#FFF" d="M89.7 171.6c-12.6 3.7-22.8 8-27.2 11.5-1.3 1-2.9 1.6-4.5 1.6-2.1 0-4.2-.9-5.6-2.7-2.5-3.1-1.9-7.6 1.2-10.1 8.1-6.4 23.6-11.6 32.1-14.1 3.8-1.1 7.8 1.1 8.9 4.9 1.1 3.7-1.1 7.7-4.9 8.9zm97.5 47.4c3.7 19 .1 36.3-10.4 50.1-9.2 12.2-23.2 20.6-39.2 23.7-4.4.9-8.9 1.3-13.3 1.3-11.4 0-22.5-2.9-31.9-8.6-14.9-8.8-24.7-23.6-28.4-42.5l-.1-.4c-.6-3.3 1.1-6.6 4.2-8 5.3-2.3 11.2-4.5 17.8-6.7 2.1-.7 4.3-.4 6.1.8 24.8 16 46.9 11.7 63.9-12.4 1.2-1.8 3.2-2.9 5.4-3 6.9-.5 13.2-.6 19-.5 3.4.1 6.2 2.5 6.9 5.8v.4zm-13.3 8.1c-2.6 0-5.4.1-8.3.3-12.8 16.8-28.4 25.3-45.4 25.3-10.6 0-21.8-3.3-33.1-10.1-2.7.9-5.3 1.9-7.8 2.8 8.2 28.5 33.9 37.3 55.5 33.1 21.6-4.1 42.2-21.9 39.1-51.4zm-37.3-64.7c13.1-1.3 24.1-1.1 29.5.5.7.2 1.4.3 2 .3 3.1 0 6-2 6.9-5.2 1.1-3.8-1.1-7.8-4.9-8.9-9.4-2.8-24.2-2.1-35-1-4 .4-6.9 3.9-6.5 7.9.5 3.9 4 6.8 8 6.4zm84.7-91.8h.7c3.7 0 6.8-2.8 7.2-6.5.4-4-2.5-7.5-6.5-7.8-13.1-1.2-23.9-3.5-28.9-6.1-3.5-1.8-7.9-.5-9.7 3.1-1.8 3.5-.4 7.9 3.1 9.7 9.1 4.6 25.3 6.7 34.1 7.6zm49.8 0h.7c10.8-1 25.5-3.2 34.2-7.7 3.5-1.8 4.9-6.2 3.1-9.7-1.8-3.5-6.2-4.9-9.7-3.1-5 2.6-15.8 4.9-28.9 6.1-4 .4-6.9 3.9-6.5 7.8.3 3.8 3.4 6.6 7.1 6.6zm-39.2 140.5c9.8 50.3-25.9 102.7-84.8 124.5-.7.3-1.5.4-2.3.4-1.6 0-3.2.1-4.8.1-60.7 0-111-34.7-120.6-83.7L.2 153.3c-1.9-9.9 7.7-18.9 30.4-28.5 18.4-7.8 43.4-15 70.3-20.3 27-5.2 52.8-8 72.8-7.6 24.6.4 37 5.2 38.9 15.1l19.3 99.1zm-14.1 2.7l-19.2-98.5c-1.8-1.4-9.7-4.2-29.6-4.1-18.3.1-41.5 2.7-65.3 7.4-23.8 4.6-46.3 10.9-63.3 17.7-18.5 7.3-24.7 13-25.9 14.9l19.2 98.4c8.4 43.1 54.4 73.2 109.6 72 51.6-19.5 82.9-64.7 74.5-107.8zM319.4 6.4C299.9 2.3 274 0 246.5 0s-53.4 2.3-72.9 6.4c-24.1 5.1-35.3 12.2-35.3 22.2v44.2c0 4 3.2 7.2 7.2 7.2s7.2-3.2 7.2-7.2V29.3c1.5-1.7 8.7-6 28.2-9.7 18-3.4 41.3-5.2 65.5-5.2s47.5 1.9 65.5 5.2c19.5 3.7 26.7 8 28.2 9.7v100.3c0 40.4-32.9 76.2-81.8 89-3.8 1-6.1 4.9-5.1 8.8.8 3.2 3.8 5.4 7 5.4.6 0 1.2-.1 1.8-.2 26.4-6.9 49.2-20.2 66-38.3 17.4-18.8 26.6-41.2 26.6-64.7v-101c.1-10-11.1-17-35.2-22.2zm-39.2 167.5c.3 0 .6 0 .9-.1 6.8-.8 13.1-1.9 18.7-3.2 3.3-.7 5.6-3.7 5.6-7v-.4c0-18.9-6.6-35-19-46.5-12.7-11.8-30.7-17.7-49.1-16.3-4 .3-6.9 3.8-6.6 7.7s3.8 6.9 7.7 6.6c14.5-1.1 28.4 3.4 38.3 12.5 8.2 7.6 13.1 18.1 14.2 30.4-2.6.5-5.3.9-8.2 1.3-11.5-10.3-23.6-16-36.1-16.9-4-.3-7.4 2.6-7.8 6.6-.3 4 2.6 7.4 6.6 7.8 10 .8 20 6 29.8 15.4 1.4 1.4 3.2 2.1 5 2.1zm0 0"/></svg>