<svg xmlns="http://www.w3.org/2000/svg" width="344.1" height="376" viewBox="0 0 344.1 376"><path fill="#FFF" d="M284.3 128.5h-25v-2c0-3.3-2.7-6-6-6s-6 2.7-6 6v135.1c0 3.3 2.7 6 6 6s6-2.7 6-6v-2h25c15.3 0 27.8-12.5 27.8-27.8v-75.6c0-15.2-12.5-27.7-27.8-27.7zm15.8 103.4c0 8.7-7.1 15.8-15.8 15.8h-25V140.5h25c8.7 0 15.8 7.1 15.8 15.8v75.6zm0 0"/><path fill="#FFF" d="M284.3 96.5h-25V69.7c0-3.3-2.7-6-6-6h-2.8c-3-23-22.7-40.9-46.5-40.9-4.2 0-8.4.6-12.4 1.7C178.2 8.9 159.1 0 138.4 0c-20.7 0-39.8 8.9-53 24.5-4-1.1-8.2-1.7-12.4-1.7-23.8 0-43.5 17.9-46.5 40.9h-2.8c-3.3 0-6 2.7-6 6v244.9C6.9 320.1 0 331.2 0 343.5 0 361.4 14.6 376 32.5 376h211.9c17.9 0 32.5-14.6 32.5-32.5 0-12.3-6.9-23.4-17.6-28.9v-22.9h25.1c33 0 59.8-26.8 59.8-59.8v-75.6c-.1-32.9-26.9-59.8-59.9-59.8zM73 34.8c4.3 0 8.4.8 12.4 2.3 2.5.9 5.3.1 6.9-2 11-14.7 27.8-23.1 46.2-23.1 18.3 0 35.1 8.4 46.2 23.1 1.6 2.1 4.4 3 6.9 2 4-1.5 8.1-2.3 12.4-2.3 17.2 0 31.5 12.5 34.4 28.9H38.6C41.4 47.3 55.8 34.8 73 34.8zm259.1 197.1c0 26.4-21.4 47.8-47.8 47.8h-31c-3.3 0-6 2.7-6 6v32.8c0 2.5 1.6 4.8 4 5.7 8.2 2.9 13.6 10.7 13.6 19.3 0 11.3-9.2 20.5-20.5 20.5H32.5c-11.3 0-20.5-9.2-20.5-20.5 0-8.7 5.5-16.4 13.6-19.3 2.4-.8 4-3.1 4-5.7V75.7h217.6v26.8c0 3.3 2.7 6 6 6h31.1c26.4 0 47.8 21.4 47.8 47.8v75.6zm0 0"/><path fill="#FFF" d="M157.2 312.5H71.6c-9.9 0-18-8.1-18-18v-88c0-3.3-2.7-6-6-6s-6 2.7-6 6v88c0 16.5 13.5 30 30 30h85.6c3.3 0 6-2.7 6-6s-2.7-6-6-6zm72-224.8c-3.3 0-6 2.7-6 6v58.8H53.6V93.7c0-3.3-2.7-6-6-6s-6 2.7-6 6v88.8c0 3.3 2.7 6 6 6s6-2.7 6-6v-18h169.6v130c0 9.9-8.1 18-18 18h-24c-3.3 0-6 2.7-6 6s2.7 6 6 6h24c16.5 0 30-13.5 30-30V93.7c0-3.3-2.7-6-6-6zm0 0"/></svg>