<svg xmlns="http://www.w3.org/2000/svg" width="512" height="469.3" viewBox="0 0 512 469.3"><g fill="#FFF"><path d="M275.6 401.1h159.6V239.8c-2.6-39.3-22.2-75.1-55.5-98.1-34.1-23.9-76.8-31.6-116.9-19.6l-89.6 26.5c-11.9 3.4-23.9 5.1-36.7 5.1h-6c-19.6 0-38.4-5.1-55.5-15.4-10.2-6-17.9-14.5-25.6-27.3-3.4-5.1-8.5-8.5-14.5-8.5-9.4 0-17.1 7.7-17.1 17.1v196.3c0 9.4 7.7 17.1 17.1 17.1 9.4 0 17.1-7.7 17.1-17.1v-17.1c0-33.3 26.5-59.7 59.7-59.7h119.5c11.9 0 23.9 3.4 34.1 9.4 24.7 14.5 37.5 45.2 29.9 75.1l-19.6 77.5zm176.7 17H253.4l24.7-99c6-22.2-3.4-45.2-22.2-56.3-7.7-4.3-17.1-6.8-25.6-6.8H110.9c-23.9 0-42.7 18.8-42.7 42.7v17.1c0 18.8-15.4 34.1-34.1 34.1S0 334.5 0 315.7V119.5c0-18.8 15.4-34.1 34.1-34.1 11.9 0 23 6.8 29.9 17.1 6 10.2 11.9 17.1 19.6 21.3 13.7 8.5 29.9 12.8 46.9 12.8h6c11.1 0 21.3-1.7 31.6-4.3l89.6-26.5c45.2-13.7 93-5.1 132.3 22.2 36.7 26.5 59.7 66.6 62.3 110.9v179.2z"/><path d="M34.1 418.1c-9.4 0-17.1 7.7-17.1 17.1 0 9.4 7.7 17.1 17.1 17.1h443.7c9.4 0 17.1-7.7 17.1-17.1 0-9.4-7.7-17.1-17.1-17.1H34.1zm443.8 51.2H34.1C15.4 469.3 0 454 0 435.2s15.4-34.1 34.1-34.1h443.7c18.8 0 34.1 15.4 34.1 34.1.1 18.8-15.3 34.1-34 34.1zM34.1 384c-5.1 0-8.5-3.4-8.5-8.5v-34.1c0-5.1 3.4-8.5 8.5-8.5s8.5 3.4 8.5 8.5v34.1c.1 5.1-3.3 8.5-8.5 8.5zm273.1-273.1c-5.1 0-8.5-3.4-8.5-8.5V59.7c0-5.1 3.4-8.5 8.5-8.5s8.5 3.4 8.5 8.5v42.7c0 5.1-3.4 8.5-8.5 8.5zm42.7 247.5c0 5.1-3.4 8.5-8.5 8.5s-8.5-3.4-8.5-8.5 3.4-8.5 8.5-8.5 8.5 3.4 8.5 8.5m0-145.1c0 5.1-3.4 8.5-8.5 8.5s-8.5-3.4-8.5-8.5 3.4-8.5 8.5-8.5 8.5 3.4 8.5 8.5M384 358.4c0 5.1-3.4 8.5-8.5 8.5s-8.5-3.4-8.5-8.5 3.4-8.5 8.5-8.5 8.5 3.4 8.5 8.5"/><path d="M298.7 51.2h17.1V17.1h-17.1v34.1zm25.6 17.1h-34.1c-5.1 0-8.5-3.4-8.5-8.5V8.5c0-5.1 3.4-8.5 8.5-8.5h34.1c5.1 0 8.5 3.4 8.5 8.5v51.2c0 5.2-3.4 8.6-8.5 8.6z"/><path d="M341.3 17.1H273c-5.1 0-8.5-3.4-8.5-8.5S267.9.1 273 .1h68.3c5.1 0 8.5 3.4 8.5 8.5s-3.3 8.5-8.5 8.5zm0 51.2H273c-5.1 0-8.5-3.4-8.5-8.5s3.4-8.5 8.5-8.5h68.3c5.1 0 8.5 3.4 8.5 8.5s-3.3 8.5-8.5 8.5zm128 238.9h-25.6c-5.1 0-8.5-3.4-8.5-8.5s3.4-8.5 8.5-8.5h25.6c5.1 0 8.5 3.4 8.5 8.5s-3.3 8.5-8.5 8.5z"/><path d="M486.4 238.9c-5.1 0-8.5 3.4-8.5 8.5v102.4c0 5.1 3.4 8.5 8.5 8.5s8.5-3.4 8.5-8.5V247.5c0-5.2-3.4-8.6-8.5-8.6zm0 136.6c-14.5 0-25.6-11.1-25.6-25.6V247.5c0-14.5 11.1-25.6 25.6-25.6S512 233 512 247.5v102.4c0 14.5-11.1 25.6-25.6 25.6zM341.3 187.7c-14.5 0-25.6 11.1-25.6 25.6 0 14.5 11.1 25.6 25.6 25.6 14.5 0 25.6-11.1 25.6-25.6 0-14.5-11.1-25.6-25.6-25.6zm0 68.3c-23.9 0-42.7-18.8-42.7-42.7 0-23.9 18.8-42.7 42.7-42.7 23.9 0 42.7 18.8 42.7 42.7 0 23.9-18.8 42.7-42.7 42.7zm-170.6-68.3h-51.2c-5.1 0-8.5-3.4-8.5-8.5s3.4-8.5 8.5-8.5h51.2c5.1 0 8.5 3.4 8.5 8.5s-3.4 8.5-8.5 8.5zm34.1 34.2h-85.3c-5.1 0-8.5-3.4-8.5-8.5s3.4-8.5 8.5-8.5h85.3c5.1 0 8.5 3.4 8.5 8.5s-3.4 8.5-8.5 8.5z"/><path d="M469.3 256h34.2v17.1h-34.2V256zm0 34.1h34.2v17.1h-34.2v-17.1zm0 34.2h34.2v17h-34.2v-17z"/></g></svg>