<svg xmlns="http://www.w3.org/2000/svg" width="163" height="157.1" viewBox="0 0 163 157.1"><path fill="#FFF" d="M128.6 14.4c-5.3-.7-10.6-.3-15.8 1.2C105.4 5.8 93.8 0 81.5 0 69.1 0 57.6 5.8 50.1 15.6c-5.2-1.5-10.5-1.9-15.8-1.2C14.9 16.9.2 33.5 0 53c-.2 18.3 12.1 34.1 29.8 38.5 4.2 1 7.3 4.6 7.7 9l2.4 24.7 1.4 14.1c.6 6 8.2 10.2 11.4 11.6.5.2.8.4 1.1.5 8.8 3.7 18.3 5.6 27.8 5.6s18.9-1.9 27.8-5.6c2-.8 11.8-5.2 12.5-12.1l1.3-14.1 2.4-24.7c.4-4.3 3.5-7.9 7.7-9 17.7-4.4 30-20.3 29.8-38.5-.3-19.5-15.1-36.1-34.5-38.6zm-21.5 131.9c-16.3 6.8-34.9 6.8-51.2 0-3.5-1.5-8.8-4.8-9.1-7.5l-.3-3.6c11.1 5.4 22.9 8.1 35 8.1 12.1 0 23.9-2.7 35-8.1l-.4 3.6c-.2 2.7-5.5 6.1-9 7.5zm24.7-60.2c-6.5 1.6-11.3 7.2-12 13.9l-2.7 28.6c-11.2 6.1-23.2 9.1-35.6 9.1-12.4 0-24.4-3.1-35.6-9.1L43.1 100c-.6-6.7-5.4-12.3-11.9-13.9C16 82.3 5.5 68.7 5.6 53.1c.1-16.8 12.8-31 29.5-33.1 1.4-.2 2.8-.3 4.3-.3 3.7 0 7.4.6 11 1.9l2 .7 1.2-1.8A33.6 33.6 0 0 1 81.5 5.7c11.2 0 21.6 5.5 27.9 14.8l1.2 1.8 2-.7c5-1.7 10.1-2.2 15.2-1.6 16.7 2.2 29.3 16.4 29.5 33.1.2 15.6-10.3 29.2-25.5 33zm0 0"/><path fill="#FFF" d="M53 98.6c-1.6.2-2.6 1.6-2.4 3.1l2.8 22.5c.2 1.4 1.4 2.5 2.8 2.5h.3c1.5-.2 2.6-1.6 2.4-3.1L56.2 101c-.2-1.6-1.6-2.6-3.2-2.4zm20.1 5.6c-1.6 0-2.8 1.2-2.8 2.8v22.5c0 1.5 1.3 2.8 2.8 2.8 1.6 0 2.8-1.3 2.8-2.8V107c0-1.6-1.3-2.8-2.8-2.8zm36.8-5.6c-1.5-.2-2.9.9-3.1 2.4l-2.8 22.5c-.2 1.5.9 2.9 2.4 3.1h.4c1.4 0 2.6-1 2.8-2.5l2.8-22.5c.2-1.5-.9-2.9-2.5-3zm-20 5.6c-1.6 0-2.8 1.2-2.8 2.8v22.5c0 1.5 1.2 2.8 2.8 2.8 1.6 0 2.8-1.3 2.8-2.8V107c0-1.6-1.2-2.8-2.8-2.8zM45 31.1C21.5 30.9 17 50 16.9 50.2c-.3 1.5.6 3 2.1 3.3.2.1.4.1.6.1 1.3 0 2.5-.9 2.7-2.2 0-.2 3.4-15 22.5-14.7 1.5-.1 2.8-1.2 2.8-2.8.2-1.5-1.1-2.8-2.6-2.8zm20.7-10.7c-1.2 1-1.5 2.7-.5 4 .9 1.2 2.7 1.4 3.9.5.2-.1 11.9-8.9 24.8.1.5.3 1.1.5 1.6.5.9 0 1.8-.4 2.3-1.2.9-1.3.6-3-.7-3.9-13-9.1-26.2-4-31.4 0zm0 0"/></svg>