<svg xmlns="http://www.w3.org/2000/svg" width="496" height="496" viewBox="0 0 496 496"><path fill="#FFF" d="M480 336H16V48h464v288zm-50.5 144h-31.4l-35.6-128h31.4l35.6 128zm-297.2-64l4.4-16H312v-16H141.2l8.9-32h195.8l8.9 32H328v16h31.3l4.4 16H132.3zm-34.4 64H66.5l35.6-128h31.4L97.9 480zM224 16h48v16h-48V16zm272 16H288V0h-80v32H0v320h85.5l-40 144h64.6l17.8-64h240.3l17.8 64h64.6l-40-144H496V32z"/><path fill="#FFF" d="M304 80c39.7 0 72 32.3 72 72 0 15.9-5.2 31.1-14.8 43.6l-56.9-63.2-59.9 59.9c-8-11.9-12.4-25.8-12.4-40.2 0-39.8 32.3-72.1 72-72.1zm-88 72c0 5.4.5 10.8 1.5 16l-33.6-35.9L34.1 298.6 46 309.3l138.2-153.5 114 121.6 11.7-10.9-56.6-60.4 50.5-50.5L442 309.4l11.9-10.7-81.9-91c12.9-15.7 20-35.2 20-55.7 0-48.5-39.5-88-88-88s-88 39.5-88 88z"/><path fill="#FFF" d="M376 288h16v16h-16v-16zm-32 0h16v16h-16v-16zm-32 0h16v16h-16v-16z"/></svg>