<svg xmlns="http://www.w3.org/2000/svg" width="315.2" height="393.8" viewBox="0 0 315.2 393.8"><path fill="#FFF" stroke="#FFF" stroke-width="2" stroke-miterlimit="10" d="M96.6 95.8c.3 0 27.7-1.7 39 6.9l.1.1c8 6.7 18.4 10.7 29.6 10.7 10.9 0 21.2-3.9 29.2-10.4.1 0 .2-.1.2-.1 12.6-9.2 42.9-7.2 43.2-7.2 1.8.1 3.3-1.1 3.6-2.8 4.9-29-6.1-54-32-72.2C190.7 7.4 170.7 2.4 169.3 2c-1.8-.5-5.2-1-7.4-1-6.7 0-11.2 3.1-14.3 6.4-2.1-.7-4.3-1.1-6.5-1.1-5.3 0-10.3 2-14.1 5.7-1.2 1-11.6 10.1-20.9 24.1-13 19.5-17.5 39.3-12.9 57.2.3 1.6 1.8 2.6 3.4 2.5zm29.1-28.7c0-10.9 4.4-21.2 12.3-28.6 11.9 11.4 36.6 32.1 65.5 39.5-4.8 16.8-20.4 28.8-38.1 28.8-21.9 0-39.7-17.8-39.7-39.7zm5.7-49.9l.2-.2c2.5-2.5 5.9-3.8 9.4-3.8 2.1 0 4 .5 5.9 1.4 1.4.7 3.1.3 4.1-.9 3.5-4.2 6.7-5.9 10.8-5.9 1.4 0 4.2.4 5.7.8h.1c.2 0 19.9 4.9 38 17.7 23 16.2 32.9 37.3 29.6 62.6-5.9-.2-18.9-.2-30.5 2.6 2.3-3.7 4.1-7.7 5.3-12 3.9.7 7.9 1.1 11.9 1.2h.1c1.8 0 3.3-1.5 3.4-3.3 0-1.9-1.4-3.4-3.3-3.5-44.8-1.2-86.1-47.1-86.6-47.5-1.2-1.4-3.4-1.5-4.8-.3s-1.5 3.4-.3 4.8c.2.3 1.1 1.3 2.6 2.8-9.1 8.7-14.2 20.7-14.2 33.4 0 8.8 2.5 17.1 6.8 24.1-10.2-2.5-21.4-2.5-26.6-2.4-7.4-37.6 32-71.3 32.4-71.6zM43.2 32.9c-12-5.3-22.8-1-23.3-.8-1.3.5-2.1 1.8-2.1 3.1v28.5c-1.5-.7-3.2-1.1-5-1.1C6.3 62.6 1 67.8 1 74.4c0 6.5 5.3 11.8 11.8 11.8 6.5 0 11.8-5.3 11.8-11.8V37.7c3.1-.7 9.2-1.5 15.8 1.4 1.7.8 3.7 0 4.5-1.7.8-1.7 0-3.7-1.7-4.5zM12.8 79.4c-2.8 0-5-2.2-5-5s2.2-5 5-5 5 2.2 5 5c0 2.7-2.2 5-5 5zm299.4-29.3c-11.5-5.1-27-3.9-27.6-3.9-1.8.1-3.1 1.6-3.1 3.4v28.5c-1.5-.7-3.2-1.1-5-1.1-6.5 0-11.8 5.3-11.8 11.8 0 6.5 5.3 11.8 11.8 11.8 6.5 0 11.8-5.3 11.8-11.8V52.9c4.4-.1 12.5.2 19.2 2.6v26.2c-1.5-.7-3.2-1.1-5-1.1-6.5 0-11.8 5.3-11.8 11.8 0 6.5 5.3 11.8 11.8 11.8 6.5 0 11.8-5.3 11.8-11.8V53.2c-.1-1.3-.9-2.5-2.1-3.1zm-35.8 43.7c-2.8 0-5-2.2-5-5s2.2-5 5-5 5 2.2 5 5c0 2.7-2.2 5-5 5zm26 3.6c-2.8 0-5-2.2-5-5s2.2-5 5-5 5 2.2 5 5c0 2.7-2.2 5-5 5zM281.6 193l-4.8-46.4v-.1c-1.2-11.2-11.3-19.3-22.5-18.1l-52.2 5.5c-9.7-8.1-22.8-13-36.8-13-8.9 0-17.5 2-25.1 5.5l-40.9 15.4-8.8-24.7c-3.8-10.6-15.6-16.1-26.2-12.3-5.1 1.8-9.2 5.6-11.6 10.5-2.3 4.9-2.6 10.5-.7 15.6l15.7 44c3 8.3 10.9 13.5 19.2 13.5 2.3 0 4.6-.4 6.9-1.2l11.9-4.2-31.6 108.2c-.3 1-.1 2.1.5 3 .6.9 1.6 1.4 2.7 1.4h13.5l-25.5 25.5c-9.1 9.1-9.1 23.9 0 32.9 4.4 4.4 10.2 6.8 16.5 6.8 6.2 0 12.1-2.4 16.5-6.8l58.6-58.5h8.3l7.9 76.3c.6 6.2 3.7 11.8 8.5 15.7 4.2 3.4 9.3 5.2 14.6 5.2.8 0 1.6 0 2.5-.1 12.8-1.3 22.1-12.8 20.8-25.6l-7.7-71.5h41.5c1.1 0 2.1-.5 2.7-1.4.6-.9.8-2 .5-3l-34.7-118.4 16.4-1.7 2.7 26.1c.6 5.4 3.2 10.3 7.5 13.8 3.7 3 8.2 4.5 12.8 4.5.7 0 1.5 0 2.2-.1 5.4-.6 10.3-3.2 13.7-7.5 3.5-4.1 5.1-9.4 4.5-14.8zm-190-12.2c-7 2.5-14.8-1.1-17.4-8.1v-.1c0-.1 0-.1-.1-.2l-15.7-43.8c-1.2-3.4-1.1-7.1.5-10.4 1.5-3.3 4.3-5.8 7.7-7 7.1-2.6 15 1.1 17.5 8.2l10 27.9c.3.9.9 1.6 1.8 1.9.8.4 1.8.4 2.6.1l23.2-8.7c-3.6 4.5-6.3 9.5-7.9 15l-5.7 19.3-16.5 5.9zm1.9 168.4c-3.1 3.1-7.3 4.8-11.7 4.8-4.4 0-8.5-1.7-11.7-4.8-6.4-6.4-6.4-16.9 0-23.3l30.3-30.3h46.8l-53.7 53.6zm119.4 20.4c0 9.1-7.4 16.5-16.5 16.5-5.4 0-10.1-2.6-13.1-6.5-1.9-2.4-3-5.3-3.3-8.3l-7.8-75.6h32.9l7.6 70.8c0 .9.2 2 .2 3.1zm35.9-80.8H81.9l2.7-9.2h161.5l2.7 9.2zm-4.7-16.1H86.6l33.8-115.3c3-10.7 11.4-19.5 22.3-24.7h.1c6.8-3.2 14.5-5.1 22.6-5.1 21.1 0 40 12.6 45 29.9l33.7 115.2zm27.8-69c-2.3 2.8-5.5 4.6-9.1 5-3.6.4-7.2-.7-10.1-3-2.9-2.3-4.6-5.6-5-9.2l-3.1-29.5c-.2-1.9-1.9-3.2-3.7-3l-21 2.2-3.1-10.6c-1.6-5.7-4.5-11-8.4-15.6l46.6-4.9c7.4-.8 14.1 4.6 15 12v.3l4.8 46.3c.4 3.6-.6 7.2-2.9 10z"/></svg>