<svg xmlns="http://www.w3.org/2000/svg" width="265.2" height="267.9" viewBox="0 0 265.2 267.9"><path fill="#FFF" d="M265.2 124.8h-12.9V65.7c0-14.2-11.5-25.7-25.7-25.7h-17.4L191.4 8c-2.7-5-7.9-8-13.5-8-2.6 0-5.2.7-7.5 1.9l-68.4 38H25.7C11.5 40 0 51.5 0 65.7v176.5c0 14.2 11.5 25.7 25.7 25.7h200.9c14.2 0 25.7-11.5 25.7-25.7v-51.8h12.9v-65.6zm-38.5-74.6c7.9 0 14.4 6 15.3 13.7h-19.3L215 50.2h11.7zm-51.2-39.3c2.4-1.4 5.7-.4 7 2l28.4 51H80.1l95.4-53zm66.6 231.3c0 8.5-6.9 15.4-15.4 15.4h-201c-8.5 0-15.4-6.9-15.4-15.4V65.7c0-8.5 6.9-15.4 15.4-15.4h57.9L58.9 64h-30c-2.8 0-5.1 2.3-5.1 5.1s2.3 5.1 5.1 5.1h213.2v50.6h-37.6c-17.5 0-31.7 14.2-31.7 31.7v2.2c0 17.5 14.2 31.7 31.7 31.7h37.6v51.8zm12.8-62.1h-50.5c-11.8 0-21.4-9.6-21.4-21.4v-2.2c0-11.8 9.6-21.4 21.4-21.4h50.5v45zM220.2 158c0 6.3-5.1 11.4-11.4 11.4s-11.4-5.1-11.4-11.4c0-6.3 5.1-11.4 11.4-11.4 6.3 0 11.4 5.1 11.4 11.4zm0 0"/></svg>