<svg xmlns="http://www.w3.org/2000/svg" width="386.6" height="294.2" viewBox="0 0 386.6 294.2"><g fill="#FFF"><path d="M339.4 0H47.3C21.2 0 0 21.2 0 47.3V247c0 26.1 21.2 47.3 47.3 47.3h292.1c26.1 0 47.3-21.2 47.3-47.3V47.4c0-26.1-21.2-47.4-47.3-47.4zm25.7 247c0 14.2-11.5 25.7-25.7 25.7H47.3c-14.2 0-25.7-11.5-25.7-25.7V47.4c0-14.2 11.5-25.7 25.7-25.7h292.1c14.2 0 25.7 11.5 25.7 25.7V247zm0 0"/><path d="M243.8 144.6l94.6-84.8c4.4-4 4.8-10.8.8-15.3-4-4.4-10.8-4.8-15.3-.8l-130.4 117-25.4-22.7-.2-.2c-.6-.6-1.1-1-1.8-1.5L62.6 43.7c-4.5-4-11.3-3.6-15.3.9s-3.6 11.3.9 15.3l95.7 85.5-95.3 89.2c-4.3 4.1-4.6 10.9-.5 15.3 2.2 2.2 5 3.4 7.9 3.4 2.6 0 5.3-1 7.4-2.9l96.7-90.5 26.2 23.4c2.1 1.8 4.6 2.7 7.2 2.7 2.6 0 5.2-1 7.2-2.8l27-24.2 96.2 91.4c2.1 2 4.8 3 7.4 3 2.9 0 5.7-1.1 7.8-3.4 4.1-4.3 3.9-11.2-.4-15.3l-94.9-90.1zm0 0"/></g></svg>