<svg xmlns="http://www.w3.org/2000/svg" width="409.6" height="409.6" viewBox="0 0 409.6 409.6"><path fill="#FFF" d="M375.5 232.1c3.8 0 6.8-3.1 6.8-6.8V198c0-3.8-3.1-6.8-6.8-6.8h-34.1v-6.8c0-3.8-3.1-6.8-6.8-6.8-3.8 0-6.8 3.1-6.8 6.8v6.8H136.5v-6.8c0-3.8-3.1-6.8-6.8-6.8-3.8 0-6.8 3.1-6.8 6.8v6.8H88.7c-3.8 0-6.8 3.1-6.8 6.8v27.3c0 3.8 3.1 6.8 6.8 6.8h286.8zM95.6 218.5v-13.7h273.1v13.7H95.6zm150.2-68.3c-11 0-18.2 8.4-18.9 9.4-2.4 2.9-1.9 7.1 1 9.5 2.9 2.4 7.2 2 9.6-.9 0 0 3.7-4.4 8.4-4.4s8.4 4.3 8.4 4.3c1.4 1.7 3.3 2.5 5.3 2.5 1.5 0 3-.5 4.3-1.5 2.9-2.4 3.4-6.7 1-9.6-1-.9-8.1-9.3-19.1-9.3zm129.7 136.5c3.8 0 6.8-3.1 6.8-6.8v-27.3c0-3.8-3.1-6.8-6.8-6.8h-34.1V239c0-3.8-3.1-6.8-6.8-6.8-3.8 0-6.8 3.1-6.8 6.8v6.8H136.5V239c0-3.8-3.1-6.8-6.8-6.8-3.8 0-6.8 3.1-6.8 6.8v6.8H88.7c-3.8 0-6.8 3.1-6.8 6.8v27.3c0 3.8 3.1 6.8 6.8 6.8h286.8zM95.6 273.1v-13.7h273.1v13.7H95.6zm0 0"/><path fill="#FFF" d="M191.1 157c0 7.6 3.1 14.7 8.8 20 1.3 1.2 3 1.8 4.6 1.8 1.8 0 3.7-.7 5-2.2 2.6-2.8 2.4-7.1-.4-9.7-2.9-2.6-4.4-6.2-4.4-10 0-5.7 3.6-10.8 9-12.8 2.2-.8 3.9-2.7 4.3-5.1.5-2.3-.3-4.7-2-6.3-2.9-2.6-4.4-6.2-4.4-10 0-7.1 5.6-13 12.7-13.5 2.6-.2 4.9-1.8 5.9-4.3 1-2.4.5-5.2-1.3-7.1-2.3-2.6-3.6-5.8-3.6-9.2 0-7.1 5.6-13 12.7-13.5 2.6-.2 4.9-1.8 5.9-4.3 1-2.4.5-5.2-1.3-7.1-2.3-2.6-3.6-5.8-3.6-9.2 0-6.1 4.2-11.5 10.1-13.1 1.9-.5 3.5-1.8 4.3-3.5.9-1.7 1-3.8.2-5.6-.7-1.7-1-3.4-1-5.1 0-7.5 6.1-13.7 13.7-13.7 7.5 0 13.7 6.1 13.7 13.7 0 1.7-.3 3.4-1 5.1-.7 1.8-.6 3.8.2 5.6.9 1.7 2.4 3 4.3 3.5 5.9 1.6 10.1 7 10.1 13.1 0 3.4-1.3 6.6-3.6 9.2a6.64 6.64 0 0 0-1.3 7.1c1 2.4 3.3 4.1 5.9 4.3 7.1.5 12.7 6.4 12.7 13.5 0 3.4-1.3 6.6-3.6 9.2a6.64 6.64 0 0 0-1.3 7.1c1 2.4 3.3 4.1 5.9 4.3 7.1.5 12.7 6.4 12.7 13.5 0 3.8-1.6 7.3-4.4 10-1.7 1.6-2.5 4-2 6.3s2.1 4.2 4.3 5.1c5.4 2 9 7.1 9 12.8 0 3.8 3.1 6.8 6.8 6.8s6.8-3.1 6.8-6.8c0-8.3-3.9-16-10.1-21.1 2.2-3.9 3.3-8.4 3.3-13 0-10.7-6.3-20.1-15.4-24.5 1.2-3.1 1.8-6.3 1.8-9.6 0-10.7-6.3-20.1-15.4-24.5 1.2-3.1 1.8-6.3 1.8-9.6 0-10-5.5-18.9-13.9-23.7.2-1.2.2-2.4.2-3.6 0-15.1-12.2-27.3-27.3-27.3-15.1 0-27.3 12.2-27.3 27.3 0 1.2.1 2.4.2 3.6-8.4 4.8-13.9 13.8-13.9 23.7 0 3.3.6 6.6 1.8 9.6a27.14 27.14 0 0 0-15.4 24.5c0 3.3.6 6.6 1.8 9.6a27.14 27.14 0 0 0-15.4 24.5c0 4.6 1.1 9.1 3.3 13-6.6 5.2-10.5 12.9-10.5 21.2zm0 0"/><path fill="#FFF" d="M256.8 95c3.5 1.4 7.5-.2 8.9-3.7.1-.3.3-.7.5-1 .2.3.4.7.5 1 1.1 2.6 3.6 4.3 6.3 4.3.9 0 1.7-.2 2.6-.5 3.5-1.4 5.2-5.4 3.8-8.9-.8-1.9-4.9-11.1-13.2-11.1-8.2 0-12.4 9.2-13.2 11.1-1.3 3.5.3 7.4 3.8 8.8zm146 300.9H293.5c-3.8 0-6.8 3.1-6.8 6.8 0 3.8 3.1 6.8 6.8 6.8h109.2c3.8 0 6.8-3.1 6.8-6.8.1-3.7-3-6.8-6.7-6.8zm0-95.5h-61.4v-6.8c0-3.8-3.1-6.8-6.8-6.8-3.8 0-6.8 3.1-6.8 6.8v6.8H136.5v-6.8c0-3.8-3.1-6.8-6.8-6.8-3.8 0-6.8 3.1-6.8 6.8v6.8H61.4c-3.8 0-6.8 3.1-6.8 6.8v27.3c0 3.8 3.1 6.8 6.8 6.8h20.5v34.1c0 3.8 3.1 6.8 6.8 6.8 3.8 0 6.8-3.1 6.8-6.8v-34.1h273.1v34.1c0 3.8 3.1 6.8 6.8 6.8 3.8 0 6.8-3.1 6.8-6.8v-34.1h20.5c3.8 0 6.8-3.1 6.8-6.8v-27.3c.1-3.8-3-6.8-6.7-6.8zm-6.9 27.3H68.3V314H396v13.7zm0 0"/><path fill="#FFF" d="M102.4 395.9H41V116.1c0-3.8-3.1-6.8-6.8-6.8-3.8 0-6.8 3.1-6.8 6.8V396H6.8C3 396 0 399.1 0 402.8c0 3.8 3.1 6.8 6.8 6.8h95.6c3.8 0 6.8-3.1 6.8-6.8 0-3.8-3-6.9-6.8-6.9zm163.8 0h-13.7c-3.8 0-6.8 3.1-6.8 6.8 0 3.8 3.1 6.8 6.8 6.8h13.7c3.8 0 6.8-3.1 6.8-6.8.1-3.7-3-6.8-6.8-6.8zm-54.6 0h-68.3c-3.8 0-6.8 3.1-6.8 6.8 0 3.8 3.1 6.8 6.8 6.8h68.3c3.8 0 6.8-3.1 6.8-6.8.1-3.7-3-6.8-6.8-6.8zm69.8-257.1c1.4 1.7 3.3 2.5 5.3 2.5 1.5 0 3-.5 4.3-1.5 2.9-2.4 3.4-6.7 1-9.6-.8-1-7.9-9.4-18.9-9.4s-18.2 8.4-19 9.4c-2.4 2.9-1.9 7.1 1 9.5 2.9 2.4 7.2 2 9.6-.9 0 0 3.7-4.4 8.4-4.4 4.6.1 8.3 4.4 8.3 4.4zM6.9 94.3c.3 3.5 3.3 6.1 6.8 6.1h41c3.5 0 6.4-2.7 6.8-6.1L68.2 26c.2-1.9-.4-3.8-1.7-5.3-1.3-1.4-3.1-2.2-5.1-2.2H41v-6.8c0-3.8-3.1-6.8-6.8-6.8-3.8 0-6.8 3.1-6.8 6.8v6.8H6.8c-1.9 0-3.8.8-5.1 2.2C.5 22.2-.2 24.1 0 26l6.9 68.3zm47-62.2l-5.5 54.6H19.8l-5.5-54.6h39.6zm0 0"/></svg>