<svg xmlns="http://www.w3.org/2000/svg" width="512" height="395.2" viewBox="0 0 512 395.2"><path fill="#FFF" d="M256 336.1c-61 0-110.6-49.6-110.6-110.6 0-61 49.6-110.6 110.6-110.6 61 0 110.6 49.6 110.6 110.6 0 61-49.6 110.6-110.6 110.6zm0-242c-72.5 0-131.5 59-131.5 131.5s59 131.5 131.5 131.5 131.5-59 131.5-131.5S328.5 94.1 256 94.1z"/><path fill="#FFF" d="M256 287.8c-34.3 0-62.2-27.9-62.2-62.2 0-34.3 27.9-62.2 62.2-62.2 34.3 0 62.2 27.9 62.2 62.2 0 34.3-27.9 62.2-62.2 62.2zm0-144.3c-45.2 0-82.1 36.8-82.1 82.1 0 45.2 36.8 82.1 82.1 82.1 45.2 0 82.1-36.8 82.1-82.1s-36.9-82.1-82.1-82.1z"/><path fill="#FFF" d="M478.9 373.2H33.1c-6.1 0-11-4.9-11-11v-28.3h43.7c6.1 0 11-4.9 11-11V128.3c0-6.1-4.9-11-11-11H22V89c0-6.1 4.9-11 11-11h445.9c6.1 0 11 4.9 11 11v28.3h-43.7c-6.1 0-11 4.9-11 11v194.5c0 6.1 4.9 11 11 11H490v28.3c0 6.1-5 11.1-11.1 11.1zM22 139.3h32.6v172.5H22V139.3zm46.3-98.1c0-.3.2-.6.6-.6h31.7c.3 0 .6.2.6.6v14.7H68.3V41.2zm134-15.2c.9-2.4 3.2-4 5.7-4h96c2.5 0 4.8 1.6 5.7 4l11 29.9H191.3l11-29.9zM490 311.8h-32.6V139.3H490v172.5zM478.9 55.9H344.1l-13.8-37.5C326.3 7.4 315.7 0 304 0h-96c-11.7 0-22.4 7.4-26.4 18.4l-13.8 37.5H122V41.2c0-11.8-9.6-21.5-21.5-21.5H68.9c-11.8 0-21.5 9.6-21.5 21.5v14.7H33.1C14.8 55.9 0 70.8 0 89v273.1c0 18.2 14.8 33.1 33.1 33.1H479c18.2 0 33.1-14.8 33.1-33.1V89c-.1-18.2-14.9-33.1-33.2-33.1z"/><path fill="#FFF" d="M256 185c-22.4 0-40.5 18.2-40.5 40.5 0 5.5 4.4 9.9 9.9 9.9s9.9-4.4 9.9-9.9c0-11.4 9.3-20.7 20.7-20.7 5.5 0 9.9-4.4 9.9-9.9 0-5.4-4.4-9.9-9.9-9.9z"/></svg>