<svg xmlns="http://www.w3.org/2000/svg" width="356.7" height="409.6" viewBox="0 0 356.7 409.6"><path fill="#FFF" d="M355.9 124.4l-8.8-19c-15.8-33.9-49.3-56.5-86.4-58.7L251.9 28C240.6 3.8 211.6-6.8 187.4 4.5c-24.2 11.3-34.8 40.1-23.6 64.4l-18.5.1c-2.4-7-7.2-13.1-14-17.1-15-8.7-34.3-3.5-43 11.5-4.1 7.1-5.2 15.3-3.3 23.2l-69.8 121c-.3.5-.5 1-.7 1.6-1.8 1.2-3.6 2.6-5.2 4.2-12.3 12.3-12.3 32.2 0 44.5 4 4 8.8 6.7 14.1 8.1l85.9 85.9h-9.7c-23.9 0-43.3 19.4-43.3 43.3v5.1c0 5.1 4.1 9.3 9.2 9.3h169.8c5.1 0 9.2-4.1 9.2-9.3v-5.1c0-23.9-19.4-43.3-43.3-43.3h-27.5L62.5 240.8c.3-1.7.4-3.4.4-5.2 0-5-1.1-9.7-3.3-14.1l64.8-112.2c7.8-2.3 14.3-7.4 18.3-14.4 1.4-2.4 2.4-4.9 3.1-7.4l26.5-.1.2.4c-22.1 29.9-26.4 70-10.5 103.9l8.8 19c1.6 3.4 4.9 5.3 8.4 5.3 1.3 0 2.6-.3 3.9-.9l43.4-20.2c5.3 7.2 12.6 12.6 21.1 15.7 5.1 1.9 10.4 2.8 15.7 2.8 6.6 0 13.2-1.4 19.4-4.3 11.1-5.2 19.5-14.4 23.7-25.9 3.1-8.6 3.6-17.6 1.5-26.3l43.4-20.2c2.2-1 3.9-2.9 4.8-5.2.9-2.3.8-4.9-.2-7.1zM40.7 244.8c-2.5 2.5-5.7 3.8-9.2 3.8-3.5 0-6.7-1.4-9.2-3.8-5.1-5.1-5.1-13.3 0-18.4 2.5-2.5 5.9-3.8 9.2-3.8 3.3 0 6.6 1.3 9.2 3.8.3.3.6.6.8.9 0 0 0 .1.1.1 4.1 5.1 3.8 12.6-.9 17.4zm160.4 125.6c12.3 0 22.5 9 24.5 20.7H75c2-11.7 12.2-20.7 24.5-20.7h101.6zm-53.6-18.5h-12.1l-88.7-88.7c2.5-1.4 4.8-3.1 6.9-5.2l93.9 93.9zM46.2 207.8c-2.6-1.4-5.4-2.4-8.2-3l58.2-100.7c1.1.9 2.3 1.7 3.5 2.4 1.3.7 2.6 1.4 3.9 1.9l-57.4 99.4zm80.5-122.1c-1.7 3-4.5 5.1-7.9 6-3.4.9-6.8.4-9.9-1.3-2.2-1.3-3.9-3.1-5-5.2-.2-.7-.5-1.4-.9-2.1-.1-.2-.1-.4-.2-.5-.9-3.4-.4-6.8 1.3-9.9 2.4-4.2 6.8-6.5 11.3-6.5 2.2 0 4.4.6 6.5 1.7 6.3 3.6 8.4 11.6 4.8 17.8zm148.2 106.7c-6.6 3.1-14.1 3.4-20.9.9-3.9-1.4-7.3-3.6-10.1-6.4l46.7-21.8c1 11.1-4.9 22.3-15.7 27.3zm-91.2 2.1l-4.9-10.6c-13.6-29.2-9.1-64.2 11.7-88.9 2.3-2.8 2.8-6.6 1.3-9.8l-11.1-23.8c-7-15-.5-33 14.5-40 4.1-1.9 8.4-2.8 12.7-2.8 11.3 0 22.2 6.4 27.3 17.4l11.1 23.8c1.5 3.3 4.8 5.3 8.4 5.3 32.3.1 62 19 75.6 48.2l4.9 10.6-151.5 70.6zm0 0"/><path fill="#FFF" d="M308.4 109.2c-13.1-18-34.1-28.7-56.3-28.8-5.1 0-9.2 4.1-9.2 9.2s4.1 9.3 9.2 9.3c16.3 0 31.8 7.9 41.4 21.2 1.8 2.5 4.6 3.8 7.5 3.8 1.9 0 3.8-.6 5.4-1.8 4.1-3 5-8.8 2-12.9zm0 0"/></svg>