<svg xmlns="http://www.w3.org/2000/svg" width="334.5" height="353.6" viewBox="0 0 334.5 353.6"><path fill="#FFF" d="M322.9 90.2c-11.1 11.1-14.9 29.2-18.6 46.6-3.3 15.5-6.6 31.6-14.9 39.8l-26.8 26c-2.7 2.7-2.7 7 0 9.7 1.3 1.3 3.1 2 4.8 2 1.7 0 3.5-.7 4.8-2l26.8-26c11.1-11.1 14.9-29.1 18.6-46.6 3.3-15.5 6.7-31.6 14.9-39.8 2.7-2.7 2.7-7 0-9.7-2.7-2.7-7-2.7-9.6 0zm0 0"/><path fill="#FFF" d="M212.2 147.7c-2.7-2.7-7-2.7-9.7 0-2.7 2.7-2.7 7 0 9.7l72.4 72.4c5.3 5.3 5.3 14 0 19.3-5.3 5.3-14 5.3-19.3 0l-72.4-72.4c-2.7-2.7-7-2.7-9.7 0-2.7 2.7-2.7 7 0 9.7l91.7 91.7c5.3 5.3 5.3 14 0 19.3-5.3 5.3-14 5.3-19.3 0L159 210.5c-2.7-2.7-7-2.7-9.7 0-2.7 2.7-2.7 7 0 9.7l77.2 77.2c5.3 5.3 5.3 14 0 19.3-5.2 5.2-14.1 5.2-19.3 0l-9.7-9.7-62.7-62.7c-2.7-2.7-7-2.7-9.7 0-2.7 2.7-2.7 7 0 9.7l62.8 62.8c2.6 2.6 4 6 4 9.7 0 3.6-1.4 7.1-4 9.7-5.3 5.3-14 5.3-19.3 0l-116.1-116c-17.7-17.7-21.5-40-24.9-59.7-2.9-16.6-5.6-32.2-16-42.7-2.7-2.7-7-2.7-9.7 0-2.7 2.7-2.7 7 0 9.7 7.4 7.4 9.6 20.4 12.2 35.4 3.5 20.6 8 46.3 28.7 67l116.1 116c5.3 5.3 12.3 8 19.3 8s14-2.7 19.3-8c3.9-3.9 6.4-8.7 7.5-14 10 4.8 23 2.8 31.1-5.3 3.9-3.9 6.5-8.7 7.5-14 10.2 4.9 22.7 3.1 31.1-5.3 10.6-10.6 10.6-28 0-38.6l-2.6-2.6c4.5-1.2 8.7-3.6 12.2-7.1 10.6-10.6 10.6-28 0-38.6l-72.1-72.7zm0 0"/><path fill="#FFF" d="M63.1 132.3c0 3.7 1.4 7.1 4 9.7l4.8 4.8c6.5 6.4 15 10 24.1 10 9.1 0 17.7-3.5 24.1-10l34-34c13.5 11.3 30.3 17.4 48 17.4 20.1 0 38.9-7.8 53.2-22.1 2.7-2.7 2.7-7 0-9.7-2.7-2.7-7-2.7-9.7 0-11.6 11.6-27.1 18.1-43.5 18.1s-31.8-6.4-43.4-18c-2.7-2.7-7-2.7-9.7 0l-38.6 38.6c-7.7 7.7-21.2 7.7-29 0l-4.8-4.8 82.1-82.1c7.7-7.7 14.9-7.7 24.1-7.7 9.9 0 22.1 0 33.8-11.7l19.3-19.3c2.7-2.7 2.7-7 0-9.7-2.7-2.7-7-2.7-9.7 0l-19.3 19.3C199.4 29 192.2 29 183 29c-9.9 0-22.1 0-33.8 11.7l-82.1 82.1c-2.6 2.5-4 5.9-4 9.5zm0 0"/><path fill="#FFF" d="M81.6 40.6l36.7 36.7c1.3 1.3 3.1 2 4.8 2 1.8 0 3.5-.7 4.8-2 2.7-2.7 2.7-7 0-9.7L91.2 31c-2.7-2.7-7-2.7-9.7 0-2.6 2.6-2.6 7 .1 9.6zm56.9 284.1c-3.8 2-10.3 2.2-16.1-3.6-5.9-5.9-5.8-12.7-3.9-15.6 1.9-2.9 1.3-6.8-1.5-9-2.7-2.2-6.6-2-9.1.5-5.3 5.3-14 5.3-19.3 0-5.3-5.3-5.3-14 0-19.3 1.3-1.3 2-3.1 2-4.8 0-1.7-.7-3.5-2-4.8-2.7-2.7-7-2.7-9.7 0l-4.8 4.8c-5.3 5.3-14 5.3-19.3 0-5.3-5.3-5.3-14 0-19.3l4.8-4.8c2.4-2.4 2.7-6.3.6-9s-5.9-3.5-8.8-1.8c-3.7 2.1-10.2 1.9-15.9-3.7-6-6-6-12.6-4-15.4 2.1-3.1 1.4-7.4-1.7-9.5-3.1-2.1-7.4-1.4-9.5 1.7-5.5 8-5.4 21.9 5.6 32.8 4.3 4.3 9 6.9 13.7 8.1-1.6 3.5-2.4 7.3-2.4 11.2 0 7.3 2.8 14.2 8 19.3 7 7 16.9 9.4 25.9 7.2.5 6.2 3.2 12.2 7.9 17 6.8 6.8 16.3 9.2 25 7.4.8 5.7 3.6 11.6 8.8 16.8 6.3 6.3 13.7 8.8 20.4 8.8 4.3 0 8.4-1 11.7-2.8 3.3-1.7 4.6-5.9 2.9-9.2-1.8-3.5-5.9-4.8-9.3-3zm0 0"/><path fill="#FFF" d="M20.2 211s6-8 9.8-9 6 10.2 6 10.2-4.9 6.7-5.2 7.6-10.6-8.8-10.6-8.8z"/></svg>