<svg xmlns="http://www.w3.org/2000/svg" width="370.1" height="118.9" viewBox="0 0 370.1 118.9"><g fill="#2E2241"><path d="M111.7 68.4c0 7 .1 23 .1 30H81.6c-16.6 0-30-13.5-30-30 0-16.6 13.5-30.1 30-30.1 16.6.1 30.1 13.5 30.1 30.1z"/><path d="M81.6 99c-16.8 0-30.5-13.7-30.5-30.5s13.7-30.6 30.5-30.6 30.6 13.7 30.6 30.6c0 3.5 0 9.2.1 15 0 5.8.1 11.5.1 15v.5H81.6zm0-60.1c-16.3 0-29.5 13.3-29.5 29.6C52.1 84.7 65.3 98 81.6 98h29.7c0-3.5 0-9-.1-14.5 0-5.8-.1-11.5-.1-15 .1-16.4-13.2-29.6-29.5-29.6zm101-18h-8.3v27c-5.5-5.8-13.2-9.5-21.9-9.5-16.6 0-30.1 13.5-30.1 30.1s13.5 30 30.1 30h30.2c0-5.8-.1-17.8-.1-25.7h.1V20.9z"/><path d="M152.4 99c-16.8 0-30.6-13.7-30.6-30.5s13.7-30.6 30.6-30.6c8.1 0 15.6 3.1 21.4 8.7V20.4h9.3v52.9h-.1v10.2c0 5.8.1 11.5.1 15v.5h-30.7zm0-60.1c-16.3 0-29.6 13.3-29.6 29.6S136.1 98 152.4 98h29.7c0-3.5 0-9-.1-14.5V72.3h.1V21.4h-7.3v27.7l-.9-.9c-5.6-6-13.3-9.3-21.5-9.3z"/><circle cx="225.7" cy="68.3" r="30"/><path d="M225.7 98.8c-16.8 0-30.5-13.7-30.5-30.5s13.7-30.5 30.5-30.5 30.5 13.7 30.5 30.5-13.7 30.5-30.5 30.5zm0-59.9c-16.2 0-29.5 13.2-29.5 29.5s13.2 29.5 29.5 29.5c16.2 0 29.5-13.2 29.5-29.5s-13.3-29.5-29.5-29.5zm143.9 27.6V37.7h-59.8v28.7h.1c-.1.8-.1 1.6-.1 2.5 0 16.5 13.4 30 30 30 9.7 0 18.3-4.6 23.8-11.8-3.5 2.7-7.9 4.3-12.6 4.3-11.6 0-20.9-9.4-20.9-20.9 0-1.4.1-2.7.4-4h39.1z"/><path d="M339.7 99.4c-16.8 0-30.5-13.7-30.5-30.5 0-.7 0-1.3.1-2h-.1V37.2H370V67h-39.3c-.2 1.2-.3 2.4-.3 3.5 0 11.3 9.2 20.4 20.4 20.4 4.5 0 8.7-1.4 12.3-4.2l.7.7c-5.8 7.7-14.6 12-24.1 12zM310.2 66h.2v.5c-.1.8-.1 1.6-.1 2.4 0 16.2 13.2 29.5 29.5 29.5 8.1 0 15.6-3.2 21.1-9-3.1 1.6-6.5 2.5-10 2.5-11.8 0-21.4-9.6-21.4-21.4 0-1.4.1-2.7.4-4.1l.1-.4h39.2V38.2h-58.8V66h-.2zM22.1 18.5h10.1v99.9H3.8v-10.1h18.3z"/><path d="M32.7 118.9H3.3v-11.1h18.2V18h11.1v100.9h.1zm-28.4-1h27.4V19h-9.1v89.8H4.3v9.1zM22.1 3.8h10.1v10.1H22.1z"/><path d="M32.7 14.4H21.6V3.3h11.1v11.1zm-10.1-1h9.1V4.3h-9.1v9.1zM281 99.6h-14.2V60.3c0-13.9 11.3-25.3 25.3-25.3h6.2v14.2H292c-6.1 0-11 5-11 11v39.4zM51.6 15.4V3.8h-8.9V23z"/><path d="M42.2 24.1V3.3H52v12.4l-9.8 8.4zm1-19.8V22l7.8-6.7v-11h-7.8z"/></g><path d="M109.9 65.7c0-17.1-13.9-31.1-31.1-31.1-17.1 0-31.1 13.9-31.1 31.1 0 17.1 13.9 31.1 31.1 31.1H110v-1c0-3.5 0-9.3-.1-15.1.1-5.8 0-11.5 0-15zm60.6-23.1c-5.7-5.2-13-8-20.8-8-17.1 0-31.1 13.9-31.1 31.1 0 17.1 13.9 31.1 31.1 31.1h31.2v-1c0-3.5 0-9.3-.1-15.1v-9.5h.1v-54h-10.4v25.4zm52.4-8c-17.1 0-31 13.9-31 31s13.9 31 31 31 31-13.9 31-31-13.9-31-31-31zm144.9 30.2V34h-61.9v29.8l.1.6c0 .6-.1 1.2-.1 1.9 0 17.1 13.9 31 31 31 9.7 0 18.6-4.4 24.6-12.2l-1.5-1.5c-3.5 2.7-7.6 4.1-12 4.1-11 0-19.9-8.9-19.9-19.9 0-1 .1-2 .2-3h39.5zM18.2 104.5H0v12.2h30.5v-102H18.2zM18.2 0h12.2v12.2H18.2zM265 58.6v39.3h14.2V58.6c0-6.1 5-11 11-11h6.2V33.3h-6.2c-13.9 0-25.2 11.3-25.2 25.3zM49.8 0H38.9v22.5l10.9-9.3z" fill="#FFF"/></svg>