<svg xmlns="http://www.w3.org/2000/svg" width="409.6" height="409.6" viewBox="0 0 409.6 409.6"><path fill="#FFF" d="M238.9 116.1c1 0 2.1-.2 3.1-.7.4-.2 40.6-20.6 60.4-26.9 3.6-1.1 5.6-5 4.4-8.6-1.1-3.6-4.9-5.6-8.6-4.5-20.9 6.6-60.8 26.9-62.5 27.7-3.4 1.7-4.7 5.8-3 9.2 1.4 2.4 3.8 3.8 6.2 3.8zm0 0"/><path fill="#FFF" d="M402.8 102.4c-3.8 0-6.8 3.1-6.8 6.8v266.2c0 11.3-9.2 20.5-20.5 20.5H211.6v-15.7c10-3.5 35.9-11.6 61.4-11.6 59.5 0 99.8 13.2 100.2 13.3 2.1.7 4.3.3 6.1-.9 1.8-1.3 2.8-3.3 2.8-5.5V75.1c0-3.2-2.2-6-5.3-6.7 0 0-5.4-1.2-14.5-2.9-3.7-.7-7.3 1.8-7.9 5.5-.7 3.7 1.8 7.3 5.5 8 3.5.6 6.4 1.2 8.7 1.7v285.8c-15.5-4.1-49.8-11.4-95.6-11.4-29.7 0-59 9.8-68 13.1-8-3.6-32.3-13.1-61.7-13.1-47 0-85.8 7.8-102.4 11.7V80.4c13.7-3.4 54-12.1 102.5-12.1 24.9 0 46.2 7.8 54.6 11.2v268.6c0 2.5 1.3 4.7 3.5 5.9 2.1 1.2 4.8 1.2 6.9-.1.7-.4 68.3-40.8 128.3-60.8 2.8-.9 4.7-3.5 4.7-6.5V6.8c0-2.2-1.1-4.3-2.9-5.6-1.8-1.3-4.2-1.6-6.3-.8-54.6 20.5-109.9 54.9-110.4 55.2-3.2 2-4.2 6.2-2.2 9.4s6.2 4.2 9.4 2.2c.5-.3 48.6-30.2 98.8-50.4v265c-46.6 16.2-95.3 42.6-116.1 54.5V75.1c0-2.6-1.5-4.9-3.8-6.1-1.2-.6-29.2-14.4-64.5-14.4C81.7 54.6 34.2 68 32.3 68.5c-2.9.8-4.9 3.5-4.9 6.6v300.4c0 2.1 1 4.2 2.7 5.4 1.2.9 2.6 1.4 4.1 1.4.6 0 1.3-.1 1.9-.3.5-.1 47.7-13.4 107.4-13.4 25 0 46.3 7.8 54.6 11.3v16h-164c-11.3 0-20.5-9.2-20.5-20.5V109.2c0-3.8-3.1-6.8-6.8-6.8-3.8 0-6.8 3.1-6.8 6.8v266.2c0 18.8 15.3 34.1 34.1 34.1h341.3c18.8 0 34.1-15.3 34.1-34.1V109.2c.1-3.7-3-6.8-6.7-6.8zm0 0"/><path fill="#FFF" d="M233.8 192.2c1.2 2.4 3.6 3.7 6.1 3.7 1 0 2.1-.2 3.1-.7.4-.2 40.6-20.6 60.4-26.9 3.6-1.1 5.6-5 4.4-8.6-1.1-3.6-4.9-5.6-8.6-4.5-20.9 6.6-60.8 26.9-62.5 27.7-3.2 1.9-4.6 6-2.9 9.3zm0-40.9c1.2 2.4 3.6 3.7 6.1 3.7 1 0 2.1-.2 3.1-.7.4-.2 40.6-20.6 60.4-26.9 3.6-1.1 5.6-5 4.4-8.6-1.1-3.6-4.9-5.6-8.6-4.5-20.9 6.6-60.8 26.9-62.5 27.7-3.2 1.8-4.6 5.9-2.9 9.3zm0 81.9c1.2 2.4 3.6 3.7 6.1 3.7 1 0 2.1-.2 3.1-.7.4-.2 40.6-20.6 60.4-26.9 3.6-1.1 5.6-5 4.4-8.6-1.1-3.6-4.9-5.6-8.6-4.5-20.9 6.6-60.8 26.9-62.5 27.7-3.2 1.8-4.6 5.9-2.9 9.3zm-67.4-108.5c-42.2-9.9-90.1 2.7-92.1 3.2-3.6 1-5.8 4.7-4.8 8.4.8 3 3.6 5.1 6.6 5.1.6 0 1.2-.1 1.8-.2.5-.1 46.6-12.3 85.4-3.1 3.7.9 7.3-1.4 8.2-5.1.9-3.8-1.4-7.4-5.1-8.3zm0 41c-42.2-9.9-90.1 2.7-92.1 3.2-3.6 1-5.8 4.7-4.8 8.4.8 3.1 3.6 5.1 6.6 5.1.6 0 1.2-.1 1.8-.2.5-.1 46.6-12.3 85.4-3.1 3.7.9 7.3-1.4 8.2-5.1.9-3.8-1.4-7.5-5.1-8.3zm67.4 108.5c1.2 2.4 3.6 3.7 6.1 3.7 1 0 2.1-.2 3.1-.7.4-.2 40.6-20.6 60.4-26.9 3.6-1.1 5.6-5 4.4-8.6-1.1-3.6-4.9-5.6-8.6-4.5-20.9 6.6-60.8 26.9-62.5 27.7-3.2 1.8-4.6 5.9-2.9 9.3zm-67.4-67.6c-42.2-9.9-90.1 2.7-92.1 3.2-3.6 1-5.8 4.7-4.8 8.4.8 3.1 3.6 5.1 6.6 5.1.6 0 1.2-.1 1.8-.2.5-.1 46.6-12.3 85.4-3.1 3.7.9 7.3-1.4 8.2-5.1.9-3.8-1.4-7.4-5.1-8.3zm0 81.9c-42.2-9.9-90.1 2.7-92.1 3.2-3.6 1-5.8 4.7-4.8 8.4.8 3.1 3.6 5.1 6.6 5.1.6 0 1.2-.1 1.8-.2.5-.1 46.6-12.3 85.4-3.1 3.7.8 7.3-1.4 8.2-5.1.9-3.7-1.4-7.4-5.1-8.3zm0-40.9c-42.2-9.9-90.1 2.7-92.1 3.2-3.6 1-5.8 4.7-4.8 8.4.8 3 3.6 5.1 6.6 5.1.6 0 1.2-.1 1.8-.2.5-.1 46.6-12.3 85.4-3.1 3.7.9 7.3-1.4 8.2-5.1.9-3.8-1.4-7.5-5.1-8.3zm0 0"/></svg>