<svg xmlns="http://www.w3.org/2000/svg" width="74" height="94" viewBox="0 0 74 93.8"><path d="M37 0C16.6 0 0 16.6 0 37.1c0 2.5.2 5 .7 7.4 0 .2.1.3.1.6 4.1 18.3 32.8 45.8 34 47 .6.6 1.4.9 2.2.9.8 0 1.6-.3 2.2-.9C40.4 90.9 69 63.5 73 45.5c0-.2.1-.3.1-.5.6-2.6.8-5.2.8-7.8C74.1 16.6 57.4 0 37 0zm29.8 43.8v.2c-3 13.3-23 34.2-29.8 41-6.8-6.8-26.8-27.8-29.8-41.4 0-.2 0-.2-.1-.4-.4-2.1-.6-4.2-.6-6.2C6.5 20.2 20.2 6.5 37 6.5s30.6 13.7 30.6 30.6c-.1 2.3-.3 4.5-.8 6.7zm0 0"/><path d="M37 20.9c-6.9 0-12.4 5.6-12.4 12.4 0 6.8 5.6 12.4 12.4 12.4 6.8 0 12.4-5.5 12.4-12.4S43.9 20.9 37 20.9zm0 18.3c-3.3 0-5.9-2.6-5.9-5.9 0-3.3 2.6-5.9 5.9-5.9 3.3 0 5.9 2.6 5.9 5.9.1 3.3-2.6 5.9-5.9 5.9zm0 0"/></svg>