<svg xmlns="http://www.w3.org/2000/svg" width="718.8" height="172.6" viewBox="0 0 718.8 172.6"><path opacity=".85" fill="#EE2978" d="M125.7 152.5h71.2v18h-71.2z"/><path fill="#EBCC1A" d="M125.7 22.4h19.2v53.2h-19.2z"/><path fill="#17BEE6" d="M147.6 172.1h-21.9v-86h21.9l-1.5 72.3 3 10.2z"/><path fill="#F15822" d="M125.7.2h71.2v22.2h-71.2z"/><path opacity=".85" fill="#37B5E8" d="M125.7 75.2h71.2v22.2h-71.2z"/><path fill="#F15822" d="M133.8 8.6h13.8V14l-6.9 2.6-.7 25.6-6.2-19.8z"/><path fill="#EBCC1A" d="M133.8 75.2h5.6v8.4h8.2l1.5 5.4h-9.7l.8 29.3-6.4-20.9z"/><path fill="#000101" d="M133.8 164.2h63.1v8.2h-71.2V.2h71.2v8.4h-63.1v155.6zm63.1-141.8h-49.3v52.8h49.3v8.4h-57.5V14h57.5v8.4zm0 75h-49.3v53h49.3v8.2h-57.5V89h57.5v8.4z"/><path fill="#17BEE6" d="M22 172.1H0V0l22 11.7z"/><path fill="#EBCC1A" d="M61.7 167.4l-14.3 3.1L1.9 4.1l16.3-1.8z"/><path fill="#EE2978" d="M44.3 159.6l17.4 10.9L106 4.6 89.8 2.3z"/><path fill="#38B54B" d="M105.3 172.1H87.7L89.5 3.2 106 4.6z"/><path fill="#F15822" d="M4.9 6.8l10.4.7 7.4 28-.7 3.7V59l-8.2-6.6L8.2 31z"/><path fill="#7151A1" d="M103.2 6.8l-10.4.7-7.4 28 .8 3.7V59l8.1-6.6L99.9 31z"/><path fill="#38B54B" d="M50.1 137l-2.7 10.4 6.8 23.8 6.7-23.4-2.8-10.5-3.9 13.8"/><path fill="#000101" d="M103.7 0h4.4v172.1H100V8.4h-4.9L54.2 151.1 13.1 8.4H8.2v163.7H0V0h19.4l34.8 121.2L88.8 0h14.9zM13.8 30.6l40.4 140.6L94.4 30.6v141.5h-8.2V89.7l-23.8 82.5H45.8L22 89.7v82.5h-8.2V30.6z"/><path fill="#EE2978" d="M421.8.3v126.4c0 14.3-3.1 25.3-9.3 32.9-2.3 3.1-5.8 6-10.5 8.8-4.7 2.7-10.9 4.1-18.7 4.1-7.8 0-14-1.4-18.7-4.1-4.7-2.7-8.2-5.6-10.5-8.8-6.2-7.6-9.3-18.6-9.3-32.9V.3h8.2l7.6 125.8c0 12.3 3.8 19.5 8.9 25.7 5.1 6.5 3.9 4.5 13.9 4.5 10.1 0 11.7-3.1 16.7-9.6 5.1-6.2 5.5-7.9 5.5-20.2L413.8.4h8zm-55.1 0v126.4c0 5.9.6 10.5 1.8 13.8 1.2 3.3 2.6 5.6 4.3 7.1 1.7 1.5 3.5 2.3 5.4 2.6 1.9.2 3.6.4 5.1.4 1.6 0 3.3-.1 5.1-.4 1.9-.2 3.7-1.1 5.4-2.6 1.7-1.5 3.2-3.9 4.3-7.1 1.2-3.3 1.8-7.9 1.8-13.8V.3h8.2v126.4c0 11.1-2.1 19.2-6.3 24.5-3.9 5-10 7.5-18.5 7.5-8.3 0-14.4-2.5-18.5-7.5-4.2-5.3-6.3-13.5-6.3-24.5V.3h8.2z"/><path fill="#EBCC1A" d="M383.2 164.4s15.3-4.9 19.1-14.4c3.9-9.5 2.6-72.4 2.6-72.4l.2-12 13.6 2.2-1.6 54-.8 18.4-11.6 22.3s-17.2 6.3-17.8 6.2c-.6-.1-3.7-3.2-3.7-3.2"/><path fill="#37B5E8" d="M366.7.3v126.4c0 5.9.6 10.5 1.8 13.8 1.2 3.3 2.6 5.6 4.3 7.1 1.7 1.5 3.5 2.3 5.4 2.6 1.9.2 3.6.4 5.1.4 1.6 0 3.3-.1 5.1-.4 1.9-.2 3.7-1.1 5.4-2.6 1.7-1.5 3.2-3.9 4.3-7.1 1.2-3.3 1.8-7.9 1.8-13.8V.3h8.2v126.4c0 11.1-2.1 19.2-6.3 24.5-3.9 5-10 7.5-18.5 7.5-8.3 0-14.4-2.5-18.5-7.5-4.2-5.3-6.3-13.5-6.3-24.5V.3h8.2z"/><path fill="#37B5E8" d="M364.6 168.3c-4.7-2.7-8.2-5.6-10.5-8.8-6.2-7.6-9.3-18.6-9.3-32.9V.3h22l-5.6 95.1-8.2 31.3c0 12.3 2.6 21.6 7.7 27.8 5 6.5 8.5 16.6 3.9 13.8z"/><path fill="#7E52A1" d="M416.1 104.7l-8.2-36.1L400.4.2l18.4.2.7 69.1c0 .1-3.4 47.5-3.4 35.2z"/><path fill="#000101" d="M421.8.4v126.4c0 14.3-3.1 25.3-9.3 32.9-2.3 3.1-5.8 6-10.5 8.8-4.7 2.7-10.9 4.1-18.7 4.1-7.8 0-14-1.4-18.7-4.1-4.7-2.7-8.2-5.6-10.5-8.8-6.2-7.6-9.3-18.6-9.3-32.9V.4h8.2v126.4c0 12.3 2.6 21.6 7.7 27.8 5.1 6.5 12.7 9.8 22.7 9.8 10.1 0 17.7-3.3 22.7-9.8 5.1-6.2 7.7-15.5 7.7-27.8V.4h8zm-55.1 0v126.4c0 5.9.6 10.5 1.8 13.8 1.2 3.3 2.6 5.7 4.3 7.1 1.7 1.5 3.5 2.3 5.4 2.6 1.9.2 3.6.4 5.1.4 1.6 0 3.3-.1 5.1-.4 1.9-.2 3.7-1.1 5.4-2.6 1.7-1.5 3.2-3.9 4.3-7.1 1.2-3.3 1.8-7.9 1.8-13.8V.4h8.2v126.4c0 11.1-2.1 19.2-6.3 24.5-3.9 5-10 7.5-18.4 7.5-8.3 0-14.4-2.5-18.5-7.5-4.2-5.3-6.3-13.5-6.3-24.5V.4h8.1z"/><path fill="#37B5E8" d="M678.8 5l39.9 167.6-17-.2-13-51.4-37.5 1.2-11.8 50.4-18.1.1L661.2 5h17.6z"/><path fill="#EBCC1A" d="M670 50.4l-14.3 52.8 29.4 3.3z"/><path fill="#EE2978" d="M623.6 172.6l17.6-.2 10.5-48.1 10.1-5.1 3.3-12.4-9.4-3.6 11.4-45.7 3.9-29.4L667.8 5z"/><path fill="#EBCC1A" d="M659.2 34.7l6 15.7 4.9-11.7 8.3-19.1 2.4-3-4.5-13.9L664.9 5z"/><path fill="#000101" d="M678.9.4l39.9 172.1h-8.6L672.6 10.3h-5.1l-37.6 162.3h-8.4L661.3.4h17.6zm-30.4 115.9h43l13.1 56.3h-8.4L685 124.7h-30l-11 47.9h-8.6l13.1-56.3zm1.2-5.4L670 23.8l20.1 87.1h-40.4zm30.1-8.4l-9.8-42-9.8 42h19.6z"/><path fill="#F15822" d="M453.3 84.3c-9.3-9-14-20.6-14-34.6 0-7.3 1-14 2.9-20.1 1.9-6.1 4.7-11.2 8.4-15.5 3.7-4.3 8-7.6 13.1-10 5.1-2.4 10.6-3.6 16.7-3.6 8.4 0 15.1 1.5 20 4.4 4.9 3 8.6 6 11.1 9.1 6.7 8.6 10 20.5 10 35.7v11h-8.4v-11c0-13.7-2.7-23.8-8.2-30.4-5.5-7-13.6-10.5-24.5-10.5-10.6 0-18.8 4.1-24.8 12.1-5.5 7.3-8.2 16.9-8.2 28.7 0 6.7 1.1 12.4 3.4 17.1 2.3 4.7 5 8.5 8.2 11.6 3.2 3 6.5 5.4 9.9 7.1 3.4 1.7 6.2 3 8.4 4l4 1.9c2 .8 4.5 1.9 7.5 3.3s5.8 3.4 8.6 6 5.2 5.8 7.2 9.8c2 4 11.4 9.4 11.4 15.1 0 10.7-5.7 24.7-10.5 30.7-4.8 5.9-16.6 10.9-25.2 10.9-9.2 0-22.1-4.6-26.5-10.1-4.7-5.8-9.2-19.8-9.2-31.9l-5.4-12.3h22v11c0 10.1 1.8 17.4 5.4 21.7.8 1.1 2.2 2.2 4.2 3.4 2 1.2 5.2 1.8 9.6 1.8 4.2 0 7.6-.9 10-2.7 2.5-1.8 4.4-4 5.7-6.5 1.3-2.6 2.2-5.4 2.6-8.4.4-3 .6-5.7.6-8.1 0-4-.6-7.5-1.9-10.3-1.2-2.8-2.9-5.2-4.9-7.1-2-1.9-4.3-3.6-6.8-4.9-2.5-1.3-5-2.5-7.5-3.6l-4.2-1.9c-2.5-1.1-5.6-2.6-9.5-4.6-3.7-2-7.4-4.7-11.2-8.3zm53.7 6.3c9.7 8.9 14.5 20.3 14.5 34.3 0 13.2-3.3 24.2-9.8 32.9-7.6 9.8-18.1 14.7-31.3 14.7-13.7 0-24.1-4.4-31.1-13.3-6.7-8.3-10-20.1-10-35.5v-11h8.2v11c0 13.4 2.7 23.5 8.2 30.4 5.6 6.9 13.9 10.3 24.8 10.3 5.1 0 9.8-1 14-2.9 4.2-1.9 7.7-4.9 10.5-8.8 2.6-3.4 4.7-7.5 6.1-12.3 1.4-4.7 2.1-9.9 2.1-15.5 0-6.7-1.2-12.3-3.5-16.9-2.3-4.6-5.1-8.4-8.3-11.3-3.2-3-6.5-5.3-9.8-6.9-3.3-1.6-6-2.8-8.1-3.6l-3.7-1.6c-2.2-.9-4.8-2.2-7.8-3.7-3-1.6-6-3.7-8.8-6.4-2.8-2.7-5.2-6.1-7.1-10-1.9-4-2.9-8.8-2.9-14.6 0-4 .5-8.2 1.4-12.4.9-4.2 2.5-8 4.7-11.4 2.2-3.4 5-6.2 8.5-8.4s7.7-3.3 12.7-3.3c9 0 15.8 2.8 20.3 8.4 4.7 5.9 7 14.9 7 27.1v11h-8.4v-11c0-6.7-.7-11.9-2-15.6-1.3-3.7-3-6.4-5-8.1-2-1.6-4.1-2.6-6.3-2.9-2.2-.3-4.1-.5-5.6-.5-4.5 0-8 1.1-10.5 3.3-2.5 2.2-4.4 4.8-5.7 7.8-1.3 3-2.1 6.1-2.5 9.1-.3 3-.5 5.3-.5 6.9 0 4 .6 7.5 1.9 10.4 1.2 2.9 2.9 5.4 4.9 7.5 2 2.1 4.3 3.9 6.9 5.4 2.6 1.5 5.3 2.8 8.1 3.9l3.7 1.6c2.2.9 5.2 2.3 9 4.1 3.7 1.5 7.5 4.2 11.2 7.8z"/><path fill="#EBCC1A" d="M456.5 112.7h-12l.3 2.9 12 24.5z"/><path fill="#37B5E8" d="M444.3 39.2l12.3 4.4 1.4 12.9 5.6 12 10.4 8.2 15.6 9.8 7.3 1.9 12.3 7.9 4 13.1 3.6 10.1-5.4 1.6-5.3-11.5-11.7-7.7-15.7-5.6-19.3-14.6-12.9-16-3.9-19.5z"/><path fill="#37B5E8" d="M514.3 103.6h-12.1l.3 2.8 12.1 24.5z"/><path fill="#EE2978" d="M453.3 84.3c-9.3-9-14-20.6-14-34.6 0-7.3 1-14 2.9-20.1 1.9-6.1 4.7-11.2 8.4-15.5 3.7-4.3 8-7.6 13.1-10 5.1-2.4 10.6-3.6 16.7-3.6 8.4 0 15.1 1.5 20 4.4 4.9 3 8.6 6 11.1 9.1 6.7 8.6 10 20.5 10 35.7v11h-8.4v-11c0-13.7-2.7-23.8-8.2-30.4-5.5-7-13.6-10.5-24.5-10.5-10.6 0-18.8 4.1-24.8 12.1-5.5 7.3-8.2 16.9-8.2 28.7 0 6.7 1.1 12.4 3.4 17.1 2.3 4.7 5 8.5 8.2 11.6 3.2 3 6.5 5.4 9.9 7.1 3.4 1.7 6.2 3 8.4 4l4 1.9c2 .8 4.5 1.9 7.5 3.3s5.8 3.4 8.6 6 5.2 5.8 7.2 9.8c2 4 3 8.8 3 14.6 0 10.7-2.4 19.1-7.2 25-4.8 5.9-11.5 8.9-20.1 8.9-9.2 0-16-2.7-20.3-8.2-4.7-5.8-7-14.7-7-26.9v-11h8.2v11c0 10.1 1.8 17.4 5.4 21.7.8 1.1 2.2 2.2 4.2 3.4 2 1.2 5.2 1.8 9.6 1.8 4.2 0 7.6-.9 10-2.7 2.5-1.8 4.4-4 5.7-6.5 1.3-2.6 2.2-5.4 2.6-8.4.4-3 .6-5.7.6-8.1 0-4-.6-7.5-1.9-10.3-1.2-2.8-2.9-5.2-4.9-7.1-2-1.9-4.3-3.6-6.8-4.9-2.5-1.3-5-2.5-7.5-3.6l-4.2-1.9c-2.5-1.1-5.6-2.6-9.5-4.6-3.7-2-7.4-4.7-11.2-8.3zm68.2-23.6h-22.2v-11c0-6.7-.7-11.9-2-15.6-1.3-3.7-3-6.4-5-8.1-2-1.6-4.1-2.6-6.3-2.9-2.2-.3-4.1-.5-5.6-.5-4.5 0-8 1.1-10.5 3.3-2.5 2.2-4.4 4.8-5.7 7.8-1.3 3-2.1 6.1-2.5 9.1-.3 3-.5 5.3-.5 6.9 0 4 .6 7.5 1.9 10.4 1.2 2.9 2.9 5.4 4.9 7.5 2 2.1 4.3 3.9 6.9 5.4 2.6 1.5 5.3 2.8 8.1 3.9l3.7 1.6c2.2.9 5.2 2.3 9 4.1 3.8 1.8 7.6 4.5 11.3 8.1 9.7 8.9 14.5 20.3 14.5 34.3 0 13.2-3.3 24.2-9.8 32.9-7.6 9.8-18.1 14.7-31.3 14.7-13.7 0-24.1-4.4-31.1-13.3-6.7-8.3-10-20.1-10-35.5v-11h8.2v11c0 13.4 2.7 23.5 8.2 30.4 5.6 6.9 13.9 10.3 24.8 10.3 5.1 0 9.8-1 14-2.9 4.2-1.9 7.7-4.9 10.5-8.8 2.6-3.4 4.7-7.5 6.1-12.3 1.4-4.7 2.1-9.9 2.1-15.5 0-6.7-1.2-12.3-3.5-16.9-2.3-4.6-5.1-8.4-8.3-11.3-3.2-3-6.5-5.3-9.8-6.9-3.3-1.6-6-2.8-8.1-3.6l-3.7-1.6c-2.2-.9-4.8-2.2-7.8-3.7-3-1.6-6-3.7-8.8-6.4-2.8-2.7-5.2-6.1-7.1-10-1.9-4-2.9-8.8-2.9-14.6 0-4-8.5-6.5-7.5-10.8.9-4.2 3.3-13.4 5.5-16.8 2.2-3.4 6.2-6.6 9.7-8.8 3.5-2.2 14.7-7.6 19.7-7.6 9 0 25.7 7.4 30.2 13"/><path fill="#38B54B" d="M503.6 60.7h12.1l-.3-2.9-12-24.4z"/><path fill="#37B5E8" d="M447.4 63.8h12l-.3-2.9-12-24.5z"/><path fill="#37B5E8" d="M453.3 84.3c-9.3-9-14-20.6-14-34.6 0-7.3 1-14 2.9-20.1 1.9-6.1 4.7-11.2 8.4-15.5 3.7-4.3 8-7.6 13.1-10 5.1-2.4 10.6-3.6 16.7-3.6 8.4 0 15.1 1.5 20 4.4 4.9 3 8.6 6 11.1 9.1 6.7 8.6 10 20.5 10 35.7v11h-8.4v-11c0-13.7-2.7-23.8-8.2-30.4-5.5-7-13.6-10.5-24.5-10.5-10.6 0-18.8 4.1-24.8 12.1-5.5 7.3-8.2 16.9-8.2 28.7 0 6.7 1.1 12.4 3.4 17.1 2.3 4.7 5 8.5 8.2 11.6 3.2 3 6.5 5.4 9.9 7.1 3.4 1.7 6.2 3 8.4 4l4 1.9c2 .8 4.5 1.9 7.5 3.3s5.8 3.4 8.6 6 5.2 5.8 7.2 9.8c2 4 3 8.8 3 14.6 0 10.7-2.4 19.1-7.2 25-4.8 5.9-11.5 8.9-20.1 8.9-9.2 0-16-2.7-20.3-8.2-4.7-5.8-7-14.7-7-26.9v-11h8.2v11c0 10.1 1.8 17.4 5.4 21.7.8 1.1 2.2 2.2 4.2 3.4 2 1.2 5.2 1.8 9.6 1.8 4.2 0 7.6-.9 10-2.7 2.5-1.8 4.4-4 5.7-6.5 1.3-2.6 2.2-5.4 2.6-8.4.4-3 .6-5.7.6-8.1 0-4-.6-7.5-1.9-10.3-1.2-2.8-2.9-5.2-4.9-7.1-2-1.9-4.3-3.6-6.8-4.9-2.5-1.3-5-2.5-7.5-3.6l-4.2-1.9c-2.5-1.1-5.6-2.6-9.5-4.6-3.7-2-7.4-4.7-11.2-8.3zm27.1 11.1"/><path fill="#000101" d="M453.3 84.3c-9.3-9-14-20.6-14-34.6 0-7.3 1-14 2.9-20.1 1.9-6.1 4.7-11.2 8.4-15.5 3.7-4.3 8-7.6 13.1-10 5.1-2.4 10.6-3.6 16.7-3.6 8.4 0 15.1 1.5 20 4.4 4.9 3 8.6 6 11.1 9.1 6.7 8.6 10 20.5 10 35.7v11h-8.4v-11c0-13.7-2.7-23.8-8.2-30.4-5.5-7-13.6-10.5-24.5-10.5-10.6 0-18.8 4.1-24.8 12.1-5.5 7.3-8.2 16.9-8.2 28.7 0 6.7 1.1 12.4 3.4 17.1 2.3 4.7 5 8.5 8.2 11.6 3.2 3 6.5 5.4 9.9 7.1 3.4 1.7 6.2 3 8.4 4l4 1.9c2 .8 4.5 1.9 7.5 3.3s5.8 3.4 8.6 6 5.2 5.8 7.2 9.8c2 4 3 8.8 3 14.6 0 10.7-2.4 19.1-7.2 25-4.8 5.9-11.5 8.9-20.1 8.9-9.2 0-16-2.7-20.3-8.2-4.7-5.8-7-14.7-7-26.9v-11h8.2v11c0 10.1 1.8 17.4 5.4 21.7.8 1.1 2.2 2.2 4.2 3.4 2 1.2 5.2 1.8 9.6 1.8 4.2 0 7.6-.9 10-2.7 2.5-1.8 4.4-4 5.7-6.5 1.3-2.6 2.2-5.4 2.6-8.4.4-3 .6-5.7.6-8.1 0-4-.6-7.5-1.9-10.3-1.2-2.8-2.9-5.2-4.9-7.1-2-1.9-4.3-3.6-6.8-4.9-2.5-1.3-5-2.5-7.5-3.6l-4.2-1.9c-2.5-1.1-5.6-2.6-9.5-4.6-3.7-2-7.4-4.7-11.2-8.3zm54.4-23.6h-8.4v-11c0-6.7-.7-11.9-2-15.6-1.3-3.7-3-6.4-5-8.1-2-1.6-4.1-2.6-6.3-2.9-2.2-.3-4.1-.5-5.6-.5-4.5 0-8 1.1-10.5 3.3-2.5 2.2-4.4 4.8-5.7 7.8-1.3 3-2.1 6.1-2.5 9.1-.3 3-.5 5.3-.5 6.9 0 4 .6 7.5 1.9 10.4 1.2 2.9 2.9 5.4 4.9 7.5 2 2.1 4.3 3.9 6.9 5.4 2.6 1.5 5.3 2.8 8.1 3.9l3.7 1.6c2.2.9 5.2 2.3 9 4.1 3.8 1.8 7.6 4.5 11.3 8.1 9.7 8.9 14.5 20.3 14.5 34.3 0 13.2-3.3 24.2-9.8 32.9-7.6 9.8-18.1 14.7-31.3 14.7-13.7 0-24.1-4.4-31.1-13.3-6.7-8.3-10-20.1-10-35.5v-11h8.2v11c0 13.4 2.7 23.5 8.2 30.4 5.6 6.9 13.9 10.3 24.8 10.3 5.1 0 9.8-1 14-2.9 4.2-1.9 7.7-4.9 10.5-8.8 2.6-3.4 4.7-7.5 6.1-12.3 1.4-4.7 2.1-9.9 2.1-15.5 0-6.7-1.2-12.3-3.5-16.9-2.3-4.6-5.1-8.4-8.3-11.3-3.2-3-6.5-5.3-9.8-6.9-3.3-1.6-6-2.8-8.1-3.6l-3.7-1.6c-2.2-.9-4.8-2.2-7.8-3.7-3-1.6-6-3.7-8.8-6.4-2.8-2.7-5.2-6.1-7.1-10-1.9-4-2.9-8.8-2.9-14.6 0-4 .5-8.2 1.4-12.4.9-4.2 2.5-8 4.7-11.4 2.2-3.4 5-6.2 8.5-8.4s7.7-3.3 12.7-3.3c9 0 15.8 2.8 20.3 8.4 4.7 5.9 7 14.9 7 27.1v10.7z"/><path fill="#7E52A1" d="M254.4 121.9l9.9 5 7 21.9 17.1 5.2 13.6-4.5 8.2-13.1 14.3-30.5-2.6 45.9-10.4 12.1s-23.6 7-25.9 6.7c-2.3-.3-18.7-6.5-18.7-6.5l-9.7-19.3-2.8-22.9z"/><path fill="#F15822" d="M248.7 40.1l5.7-17.5 11.8-11.1 12.6-7.3h11.5L305.8 7l12.1 10.5 6 15.6 2.3 9.7-11.5 2.8-2.9-7.8-2.7-10.2-4.4-5-7.9-3.9-7.7-4.7-7.7 1.7-12.6 11.9-2.6 14.6-11.8 8.4z"/><path fill="#17BEE6" d="M325.7 60H308V49c0-6.2-.5-11.1-1.6-14.6s-2.5-6.1-4.3-7.9c-1.8-1.8-3.8-2.9-6.1-3.4s-4.6-.7-6.9-.7-4.6.2-6.9.7c-2.3.5-4.3 1.6-6.1 3.4-1.8 1.8-3.2 4.4-4.3 7.9-1.1 3.5-1.6 8.4-1.6 14.6v74.3c0 6.9.7 12.1 2 15.8 1.3 3.7 3 6.3 5 7.9 2 1.6 4.1 2.6 6.2 2.9 2.1.3 4 .5 5.7.5 1.7 0 3.7-.2 5.8-.5 2.2-.3 4.2-1.3 6.2-2.9 1.9-1.6 13-2.5 8.3 3.2-4.2 5.6-11 8.4-20.3 8.4-9.2 0-15.9-2.8-20.1-8.4-4.7-5.6-12.6-14.6-12.6-26.9l-2-70.9c0-16.9 9.9-24.4 14.6-30 4.4-5.6 11.2-4.8 20.2-4.8s12.1 1.7 16.6 7.3"/><path fill="#EBCC1A" d="M330.2 110L314 131.4l-1.9-21.4h-30.7V88.3h48.8z"/><path fill="#38B54B" d="M323.9 60s4.6-21-12.1-32.4c0 0 3.8 17.3 3.2 32.4h8.9z"/><path fill="#000101" d="M308 60V49c0-6.2-.5-11.1-1.6-14.6s-2.5-6.1-4.3-7.9c-1.8-1.8-3.8-2.9-6.1-3.4s-4.6-.7-6.9-.7-4.6.2-6.9.7c-2.3.5-4.3 1.6-6.1 3.4-1.8 1.8-3.2 4.4-4.3 7.9-1.1 3.5-1.6 8.4-1.6 14.6v74.3c0 6.9.7 12.1 2 15.8 1.3 3.7 3 6.3 5 7.9 2 1.6 4.1 2.6 6.2 2.9 2.1.3 4 .5 5.7.5 1.7 0 3.7-.2 5.8-.5 2.2-.3 4.2-1.3 6.2-2.9 1.9-1.6 3.6-4.3 4.9-7.9 1.3-3.7 2-8.9 2-15.8v-13.1h-26.6V102h35v21.3c0 12.3-2.3 21.3-7 26.9-4.2 5.6-11 8.4-20.3 8.4-9.2 0-15.9-2.8-20.1-8.4-4.7-5.6-7-14.6-7-26.9V49c0-12.1 2.3-21 7-26.6 4.4-5.6 11.1-8.4 20.1-8.4 9 0 15.8 2.8 20.3 8.4 4.7 5.6 7 14.5 7 26.6v11H308zm14.1 0V49c0-13.2-2.7-23.3-8.2-30.1-5.5-6.8-13.7-10.3-24.8-10.3-10.9 0-19.1 3.4-24.5 10.3-5.5 6.9-8.2 16.9-8.2 30.1v74.3c0 13.4 2.7 23.5 8.2 30.4 5.6 7 13.8 10.5 24.5 10.5 10.9 0 19.2-3.5 24.8-10.5 5.5-6.8 8.2-17 8.2-30.4V96.4h-40.6v-8.2h48.8v35c0 15.4-3.3 27.2-10 35.5-2.5 3.1-6.2 6.2-11.1 9.1-4.9 3-11.6 4.4-20 4.4s-15-1.5-19.9-4.4c-4.8-3-8.5-6-11-9.1-6.7-8.3-10-20.1-10-35.5V49c0-15.3 3.3-27 10-35.3 7-9 17.3-13.5 30.8-13.5 13.7 0 24.1 4.5 31.1 13.5 6.7 8.3 10 20 10 35.3v11h-8.1z"/><path fill="#17BEE6" d="M529.7.4h97.4v22.2h-97.4z"/><path fill="#7151A1" d="M569.9 2.7h17v169.6h-17z"/><path fill="#000101" d="M575.7 8.9h-46V.4h97.4v8.4h-51.4zm0 163.7h-8.4v-150h-37.6v-8.4h46v158.4zm5.4-158.4h46v8.4h-37.6v150h-8.4V14.2z"/><path fill="#EBCC1A" d="M529.7 8.9v5.3h46V62l5.4 17.6V14.2h26l-16.8-5.3z"/><path fill="#17BEE6" d="M575.7 146.1l5.4 17.7v8.8h-5.4z"/></svg>