<svg xmlns="http://www.w3.org/2000/svg" width="246.4" height="374.7" viewBox="0 0 246.4 374.7"><g fill="#FFF"><path d="M231.8 100.5s-2.1-73.7-2.2-74.6c-.1-1.4-.5-2.7-1.1-4-1.5-3.3-4.1-5.8-7.5-7.1l-21.8-8.5c-3.4-1.3-7-1.2-10.3.2-3.3 1.5-5.8 4.1-7.1 7.5l-15 38.6c-2.3-.6-4.6-1-6.9-1.4V36.6c0-20.2-16.4-36.6-36.6-36.6S86.6 16.4 86.6 36.6v14.6c-2.3.4-4.7.9-7 1.4L64.6 14c-1.3-3.4-3.8-6-7.1-7.5s-7-1.5-10.3-.2l-21.8 8.5c-3.4 1.3-6 3.8-7.5 7.1-.5 1.2-.9 2.6-1.1 3.9-.1.9-2.2 74.8-2.2 74.8C5.3 116.1 0 134.3 0 153.6V352c0 12.5 10.2 22.7 22.7 22.7h200.9c12.5 0 22.7-10.2 22.7-22.7V153.6c.1-19.4-5.2-37.5-14.5-53.1zm-12.5-16.8c-2.4-2.6-4.9-5.1-7.6-7.5l6.8-17.5.8 25zM193 18.3c.3-.8 1.2-1.1 1.9-.8l21.8 8.5c.5.2.7.5.8.8.1.3.2.7 0 1.1l-15.7 40.5c-7.2-5.1-15.1-9.2-23.5-12.3L193 18.3zM123.2 12c12.3 0 22.4 9 24.3 20.7-6.5-5.8-15.1-9.3-24.3-9.3-9.1 0-17.6 3.3-24.3 9.2C100.8 21 111 12 123.2 12zm22.4 37.8h-44.8c1.2-2.6 2.9-5.1 5-7.2 4.7-4.7 10.8-7.2 17.4-7.2 9.8 0 18.5 5.9 22.4 14.4zm-116.8-23c.1-.3.4-.6.8-.8l21.8-8.5c.8-.3 1.6.1 1.9.8L68 56.1c-8.4 3.1-16.3 7.3-23.5 12.3L28.8 27.9c-.2-.5-.1-.9 0-1.1zm-.9 31.9l6.8 17.6c-2.6 2.4-5.2 4.9-7.6 7.5l.8-25.1zM234.4 352c0 5.9-4.8 10.7-10.7 10.7h-201c-5.9 0-10.7-4.8-10.7-10.7V153.6c0-50.7 41.2-91.9 91.9-91.9h38.6c50.7 0 91.9 41.2 91.9 91.9V352zm0 0"/><path d="M41.8 203c-9.7 0-17.6 7.9-17.6 17.6v113.1c0 9.7 7.9 17.6 17.6 17.6h162.8c9.7 0 17.6-7.9 17.6-17.6V220.5c0-9.7-7.9-17.6-17.6-17.6H41.8zm162.8 136.2H41.8c-3.1 0-5.6-2.5-5.6-5.6v-75.4h151v13.6h12v-13.6h10.9v75.4c.1 3.1-2.4 5.6-5.5 5.6zm5.6-118.7v25.7h-174v-25.7c0-3.1 2.5-5.6 5.6-5.6h162.8c3.1.1 5.6 2.6 5.6 5.6zM161.3 86.4H85.1v34.3h76.2V86.4zm-12 22.3H97.1V98.4h52.2v10.3zm0 0"/></g></svg>