<svg xmlns="http://www.w3.org/2000/svg" width="390.4" height="390.4" viewBox="0 0 390.4 390.4"><g fill="#FFF"><path d="M388.1 124.3c-1.5-1.5-3.5-2.3-5.7-2.3l-103.5.1L237.5 5.4c-1.1-3.2-4.1-5.3-7.4-5.4-3.4-.1-6.4 2-7.6 5.1l-44.6 116.8H8c-4.4 0-8 3.6-8 8v121.9c0 4.4 3.6 8 8 8h154.8v97c0 2.2 1 4.4 2.6 5.9l28.1 25.6c1.4 1.4 3.4 2.1 5.4 2.1h56.7c2 0 3.8-.7 5.4-2l28.6-25.6c1.7-1.5 2.6-3.7 2.6-5.9l.3-96.9h89.8c4.4 0 8-3.6 8-8V130.1c.1-2.3-.8-4.3-2.2-5.8zm-224.7 35.8c-.1.2-.1.3-.2.5 0 .1-.1.2-.1.3 0 .2-.1.2-.1.4 0 .1-.1.2-.1.3 0 .2 0 .2-.1.4v82.1h-16.4v-15.9c0-4.4-3.6-8-8-8s-8 3.6-8 8V244h-16.9v-40.2c0-4.4-3.6-8-8-8s-8 3.6-8 8V244H81.3v-15.8c0-4.4-3.6-8-8-8s-8 3.6-8 8V244H16V138h155.8l-8.4 22.1zm66.3-128.9l14.9 42h-31l16.1-42zm-34.6 337l-16.3-14.9V179l16.3 12.3v176.9zm48.8 6.2h-32.8V190.6l16.4-16.4 16.4 16.4v183.8zm8.8-197.7l-19.5-19.5c-3.1-3.1-8.2-3.1-11.3 0l-19.4 19.4-22-16.6 27.1-71h42.7l25.1 70.8-22.7 16.9zm23.5 176.5l-16.3 14.6V191.3l16.9-12.5-.6 174.4zm81.2-109.3v-40.2c0-4.4-3.6-8-8-8s-8 3.6-8 8v40.2h-16.3v-15.8c0-4.4-3.6-8-8-8s-8 3.6-8 8v15.8h-16.6l.2-81v-.9c0-.2 0-.2-.1-.4 0-.1-.1-.2-.1-.3 0-.2-.1-.2-.1-.4 0-.1-.1-.2-.1-.3 0-.2-.1-.2-.2-.4l-7.8-22.2 89.8-.1v106h.1-16.8zm0 0"/><path d="M56.8 203.2c13.4 0 24.5-11 24.5-24.5 0-13.1-11-23.8-24.5-23.8-12.9 0-23.8 10.9-23.8 23.8 0 13.5 10.7 24.5 23.8 24.5zm0-32.3c4.6 0 8.5 3.6 8.5 7.8 0 4.8-3.8 8.5-8.5 8.5-4.2 0-7.8-3.9-7.8-8.5 0-4.1 3.7-7.8 7.8-7.8zm0 0"/></g></svg>