<svg xmlns="http://www.w3.org/2000/svg" width="31.2" height="48" viewBox="0 0 31.2 48"><g fill="#FFF"><path d="M21.6 18.4h-.8c-.4-4.5-4.2-8-8.8-8v-.8h1.6c.4 0 .8-.4.8-.8V4c0-.4-.4-.8-.8-.8H8.8c-.4 0-.8.4-.8.8v4.8c0 .4.4.8.8.8h1.6v.8c-4.6 0-8.4 3.5-8.8 8H.8c-.4 0-.8.4-.8.8v28c0 .4.4.8.8.8h20.8c.4 0 .8-.4.8-.8v-28c0-.4-.4-.8-.8-.8zM9.6 4.8h3.2v.8H12c-.4 0-.8.4-.8.8s.4.8.8.8h.8V8H9.6V4.8zm.8 7.2H12c3.7 0 6.8 2.8 7.2 6.4h-16c.4-3.6 3.5-6.4 7.2-6.4zM1.6 46.4V20h19.2v4.8h-12c-.4 0-.8.4-.8.8v15.2c0 .4.4.8.8.8h12v4.8H1.6zM20.8 40H9.6V26.4h11.2V40zm-4-32.8h.8c.4 0 .8-.4.8-.8s-.4-.8-.8-.8h-.8c-.4 0-.8.4-.8.8s.4.8.8.8zm4-1.6H20c-.4 0-.8.4-.8.8s.4.8.8.8h.8c.4 0 .8-.4.8-.8s-.4-.8-.8-.8zm6.4 0h-.8c-.4 0-.8.4-.8.8s.4.8.8.8h.8c.4 0 .8-.4.8-.8s-.4-.8-.8-.8zm-3.2 0h-.8c-.4 0-.8.4-.8.8s.4.8.8.8h.8c.4 0 .8-.4.8-.8s-.4-.8-.8-.8zm6.4 0h-.8c-.4 0-.8.4-.8.8s.4.8.8.8h.8c.4 0 .8-.4.8-.8s-.4-.8-.8-.8zM19.8 3.8h.3l.8-.2c.4-.1.6-.6.5-1-.1-.4-.6-.6-1-.5l-.8.3c-.4.1-.6.6-.5 1 .1.2.4.4.7.4zm-3 1h.3l.8-.3c.4-.1.6-.6.5-1-.1-.4-.6-.6-1-.5l-.8.3c-.4.1-.6.6-.5 1 .1.3.4.5.7.5zm6.1-2h.3l.8-.2c.4-.1.6-.6.5-1-.1-.4-.6-.6-1-.5l-.8.3c-.4.1-.6.6-.5 1 0 .2.3.4.7.4zm3-1h.3l.5-.2c.4-.1.6-.6.5-1-.1-.4-.6-.6-1-.5l-.5.2c-.4.1-.6.6-.5 1 .1.3.4.5.7.5zm-6.3 8.8l.8.3h.3c.3 0 .6-.2.8-.5.1-.4-.1-.9-.5-1l-.8-.2c-.4-.1-.9.1-1 .5-.3.3 0 .7.4.9zm7.1.6l-.5-.2c-.4-.1-.9.1-1 .5-.1.4.1.9.5 1l.5.2h.2c.3 0 .6-.2.8-.5.1-.4-.1-.8-.5-1zm-2.8-.9l-.8-.2c-.4-.1-.9.1-1 .5-.1.4.1.9.5 1l.8.2h.2c.3 0 .6-.2.8-.6.1-.3-.1-.7-.5-.9zm0 0"/><path d="M17.8 8.3l-.7-.3c-.4-.1-.9.1-1 .5-.1.4.1.9.5 1l.8.3h.3c.3 0 .6-.2.8-.6 0-.3-.3-.8-.7-.9zm0 0"/></g></svg>