<svg xmlns="http://www.w3.org/2000/svg" width="409.6" height="409.5" viewBox="0 0 409.6 409.5"><path fill="#FFF" d="M107 347.9l-45.3-45.3c-2.7-2.7-7.2-2.7-9.9 0s-2.7 7.2 0 9.9L97 357.9c1.4 1.4 3.2 2.1 5 2.1 1.8 0 3.6-.7 5-2.1 2.7-2.8 2.7-7.2 0-10zm0 0"/><path fill="#FFF" d="M407.5 62.6l-3.8-3.8c3.1-4.2 3.9-9.8 2.1-14.8l-8.2-22.5c-1.6-4.4-5.1-7.9-9.5-9.5l-22.5-8.2c-5-1.8-10.6-1-14.8 2.1L347 2.1c-2.7-2.7-7.2-2.7-9.9 0s-2.7 7.2 0 9.9l3.6 3.6-5.4 5.4-3.6-3.6c-2.7-2.7-7.2-2.7-9.9 0s-2.7 7.2 0 9.9l3.6 3.6-5.4 5.4-3.6-3.6c-2.7-2.7-7.2-2.7-9.9 0s-2.7 7.2 0 9.9l3.7 3.7c-4.3 5.2-5.2 12.2-2.9 18.2l-83.8 80.1c-32.4-17.7-69.4-14.7-92.3 8.2-7 7-12.2 15.4-15.5 24.9-6.6 18.8-23.5 32.3-43.3 34.5-19 2.1-35.9 10-48.7 22.8C6.2 252.4-2 276.5.4 303.1c2.4 26.1 14.7 51.4 34.7 71.4 23.1 23.1 52.6 35 80.3 35 22.2 0 43.3-7.7 59-23.3 12.8-12.8 20.7-29.7 22.8-48.7 2.2-19.7 15.7-36.7 34.5-43.3 9.5-3.3 17.9-8.5 24.9-15.5 22.9-22.9 25.9-59.9 8.2-92.4l80.2-83.8c2.1.8 4.3 1.2 6.6 1.2 4.1 0 8.3-1.4 11.7-4.2l3.7 3.7c1.4 1.4 3.2 2.1 5 2.1 1.8 0 3.6-.7 5-2.1 2.7-2.7 2.7-7.2 0-9.9l-3.6-3.6 5.4-5.4 3.6 3.6c1.4 1.4 3.2 2.1 5 2.1 1.8 0 3.6-.7 5-2.1 2.7-2.7 2.7-7.2 0-9.9l-3.6-3.6 5.4-5.4 3.6 3.6c1.4 1.4 3.2 2.1 5 2.1 1.8 0 3.6-.7 5-2.1 2.5-2.8 2.5-7.2-.3-10zM246.6 268.8c-5.5 5.5-12.1 9.6-19.6 12.2-23.9 8.3-41.1 29.9-43.8 55-1.8 15.8-8.3 29.8-18.8 40.3-13 13-30.4 19.3-49.1 19.3-24.1 0-50-10.6-70.4-30.9-17.7-17.7-28.5-40-30.6-62.8-2-22.3 4.7-42.4 18.9-56.7 10.5-10.5 24.5-17 40.3-18.8 25.1-2.8 46.7-20 55-43.8 2.6-7.5 6.7-14.1 12.2-19.5 17.5-17.5 45.8-20.3 71.7-7.9l-38.3 36.6c-10.4.5-20.1 4.8-27.5 12.2-16.3 16.3-16.3 42.8 0 59.1 7.9 7.9 18.4 12.2 29.5 12.2 11.2 0 21.6-4.3 29.5-12.2 7.4-7.4 11.7-17.1 12.2-27.5l36.6-38.3c12.5 25.7 9.8 53.9-7.8 71.5zm-70.4-63.1c7.4 0 14.4 2.9 19.6 8.1 5.2 5.2 8.1 12.2 8.1 19.6 0 7.4-2.9 14.4-8.1 19.6-5.2 5.2-12.2 8.1-19.6 8.1s-14.4-2.9-19.6-8.1c-10.8-10.8-10.8-28.4 0-39.2 5.2-5.2 12.2-8.1 19.6-8.1zm38.8 12.4c-2.1-5.2-5.2-10.1-9.3-14.2-4.1-4.1-8.9-7.2-14.2-9.3L315.8 75.7l18.1 18.1L215 218.1zM392.2 50.9l-37.6 37.6c-1.7 1.7-4.5 1.7-6.2 0l-27.2-27.2c-1.7-1.7-1.7-4.5 0-6.2l37.6-37.6c.4-.4.9-.6 1.4-.6.2 0 .4 0 .7.1l22.5 8.2c.5.2 1 .6 1.1 1.1l8.2 22.5c.2.7 0 1.5-.5 2.1zm0 0"/></svg>