<svg xmlns="http://www.w3.org/2000/svg" xmlns:xlink="http://www.w3.org/1999/xlink" width="464.9" height="340.1" viewBox="0 0 464.9 340.1"><defs><path id="a" d="M0 0h464.9v340.1H0z"/></defs><clipPath id="b"><use xlink:href="#a" overflow="visible"/></clipPath><path clip-path="url(#b)" fill="#1D1D1B" d="M457.2 89.2c-2.8-47.1-43.6-85.9-91-86.6l-63.8-.9C262.4 1.1 197 1 157 1.6l-65.2 1C44.4 3.3 4 42.2 1.7 89.4l-.2 3.8c-2 40.1-2 105.3 0 145.4l.2 3.9c2.3 47.1 42.7 86.2 90.1 87.1l65.3 1.3c19.9.3 46.1.6 72.4.6 26.5 0 53-.2 73.1-.6l63.7-1.3c47.3-.9 88.1-39.9 90.9-87l.2-3.9c2.4-40.2 2.4-105.5 0-145.7l-.2-3.8zm-28.7 147.9l-.2 4c-1.9 31.8-30.5 59.2-62.5 59.8l-63.7 1.2c-39.7.8-104.6.8-144.3 0l-65.3-1.2c-32.5-.6-60.2-27.4-61.8-59.7l-.2-3.9c-1.9-39.3-1.9-103.3 0-142.7l.2-3.8C32.3 58.5 60 31.9 92.4 31.4l65.2-.9c19.6-.3 45.4-.5 71.3-.5 26.5 0 53.1.2 73.2.5l63.8.9c32.6.5 60.6 27.2 62.5 59.5l.2 3.9c2.2 39.2 2.2 103.1-.1 142.3zm0 0"/><path fill="#1D1D1B" d="M306.6 148.9L191.9 88.8c-4.5-2.4-9.9-2.2-14.2.4-4.3 2.6-7 7.3-7 12.3v120.3c0 5 2.7 9.7 7 12.4 2.3 1.4 4.9 2.1 7.5 2.1 2.3 0 4.7-.6 6.8-1.7l114.7-60.2c4.8-2.5 7.7-7.4 7.7-12.8-.1-5.2-3-10.2-7.8-12.7zM199.7 198v-72.5l69.1 36.3-69.1 36.2zm0 0"/></svg>