<svg xmlns="http://www.w3.org/2000/svg" width="324.068" height="119.448" viewBox="0 0 324.068 119.448">
  <path d="M27.648 2.664c0 .288-.108.612-.324.972-.216.36-.48.696-.792 1.008a7.805 7.805 0 0 1-.972.828c-.336.241-.625.36-.864.36-4.752.048-8.424.048-11.016 0-2.592-.047-4.5-.036-5.724.036-1.224.072-1.944.277-2.16.612-.216.336-.324.912-.324 1.728v5.328c0 1.44.011 2.677.036 3.708.023 1.033.036 1.908.036 2.628v1.872H24.48c.671 0 1.248.349 1.728 1.044.479.696.72 1.308.72 1.836 0 .385-.228.816-.684 1.296-.457.48-.924.745-1.404.792H5.544c-.048 5.04-.072 9.457-.072 13.248 0 3.744-.061 6.876-.18 9.396-.121 2.52-.36 4.416-.72 5.688-.36 1.271-.925 1.908-1.692 1.908h-.288c-.576 0-1.092-.241-1.548-.72A5.492 5.492 0 0 1 0 54.72V4.608c0-.767.096-1.416.288-1.944.191-.528.6-.96 1.224-1.296.624-.335 1.548-.576 2.772-.72C5.508.504 7.176.432 9.288.432a817.2 817.2 0 0 0 7.056-.036c2.832-.024 6.12.012 9.864.108l.216.216c.288.336.563.684.828 1.044.263.36.396.66.396.9zM60.191 43.56c0 .624-.277 1.2-.828 1.728-.552.528-1.141.792-1.764.792l-13.032.072c-4.225 0-7.261-.119-9.108-.36-1.849-.24-2.772-1.032-2.772-2.376 0-1.68.648-3.359 1.944-5.04a49.446 49.446 0 0 1 4.464-5.004 986.94 986.94 0 0 0 5.04-5.004c1.68-1.68 2.88-3.384 3.6-5.112-.097-.335-.277-.731-.54-1.188-.264-.456-.828-1.235-1.692-2.34-.864-1.104-2.172-2.688-3.924-4.752a5381.63 5381.63 0 0 0-7.236-8.496c-.241-.24-.432-.672-.576-1.296-.144-.624-.216-1.104-.216-1.44 0-.527.072-.947.216-1.26.144-.312.324-.563.54-.756.216-.191.479-.372.792-.54.312-.168.66-.396 1.044-.684l21.6.072c.528.336 1.02.637 1.476.9.456.264.78.756.972 1.476-.192.72-.444 1.272-.756 1.656-.313.385-.781.66-1.404.828-.625.168-1.44.276-2.448.324a80.978 80.978 0 0 1-3.744.072c-1.92 0-3.648.036-5.184.108-1.537.072-2.833.229-3.888.468h.072c-.241.097-.408.313-.504.648-.097.336-.121.601-.072.792.047.385.432.984 1.152 1.8.72.817 1.584 1.74 2.592 2.772a162.148 162.148 0 0 1 3.168 3.348c1.104 1.2 2.04 2.376 2.808 3.528.767 1.152 1.296 2.232 1.584 3.24.288 1.008.144 1.849-.432 2.52a92.44 92.44 0 0 1-2.196 2.7c-.984 1.177-2.052 2.412-3.204 3.708s-2.28 2.545-3.384 3.744c-1.105 1.2-2.016 2.113-2.736 2.736-.048.048-.072.097-.072.144v.216c0 .336.096.709.288 1.116.191.408.479.708.864.9 1.152.097 2.495.144 4.032.144h8.28c1.104 0 1.775.025 2.016.072l-.072-.072c.816.241 1.56.565 2.232.972.672.408 1.008 1.116 1.008 2.124zm13.247 1.656c0 .288-.097.565-.288.828a2.55 2.55 0 0 1-.684.648 4.859 4.859 0 0 1-.756.396c-.241.096-.432.144-.576.144a2.4 2.4 0 0 1-1.44-.468 4.924 4.924 0 0 1-1.152-1.188 454.107 454.107 0 0 1-.432-19.728c0-3.935-.036-7.884-.108-11.844-.072-3.96.012-7.979.252-12.06.047-.528.324-.936.828-1.224.504-.288.947-.432 1.332-.432.768 0 1.487.288 2.16.864.671.576 1.008 1.272 1.008 2.088l-.144 41.976zm42.264-1.008c0 .529-.288 1.02-.864 1.476-.576.457-1.128.684-1.656.684a1.82 1.82 0 0 1-1.08-.36 6.386 6.386 0 0 1-.972-.864 31.516 31.516 0 0 1-.9-1.008 30.822 30.822 0 0 1-.72-.864 239.776 239.776 0 0 1-9.432-10.296 111.662 111.662 0 0 1-1.584-1.764 35.024 35.024 0 0 1-1.512-1.836 39.205 39.205 0 0 0-4.752 0 52.98 52.98 0 0 1-4.752.072 717.422 717.422 0 0 0 0 14.4c.047 4.224-.12 7.728-.504 10.512-.097.959-.421 1.559-.972 1.8a5.444 5.444 0 0 1-1.764.432c-.144 0-.324-.012-.54-.036-.216-.024-.408-.18-.576-.468-.168-.288-.336-.732-.504-1.332-.169-.601-.3-1.476-.396-2.628a230.69 230.69 0 0 1-.18-7.668c-.024-2.808-.036-6.131-.036-9.972 0-3.888.011-8.399.036-13.536.024-5.135.036-11.184.036-18.144.432-.527 1.02-.972 1.764-1.332.744-.36 1.548-.648 2.412-.864a19.565 19.565 0 0 1 2.628-.468A22.628 22.628 0 0 1 91.294 0c2.736 0 5.411.504 8.028 1.512a19.8 19.8 0 0 1 6.948 4.536c1.104 1.105 1.896 2.293 2.376 3.564.479 1.272.72 2.725.72 4.356 0 1.44-.229 2.689-.684 3.744a13.322 13.322 0 0 1-1.62 2.808 14.448 14.448 0 0 1-2.016 2.16 36.606 36.606 0 0 0-1.872 1.728c-.529.529-.9 1.021-1.116 1.476-.216.457-.133.948.252 1.476.288.432.947 1.26 1.98 2.484a503.88 503.88 0 0 1 3.564 4.284 300.47 300.47 0 0 1 4.14 5.148c1.415 1.8 2.652 3.445 3.708 4.932zM87.478 24.696c.864-.24 1.812-.371 2.844-.396 1.032-.023 2.052-.06 3.06-.108a15.647 15.647 0 0 0 2.88-.396c.911-.216 1.656-.612 2.232-1.188a21.466 21.466 0 0 0 3.024-2.88c.911-1.056 1.608-2.148 2.088-3.276a6.636 6.636 0 0 0 .504-3.456c-.144-1.176-.697-2.292-1.656-3.348-1.104-1.199-2.473-2.208-4.104-3.024-1.633-.816-3.265-1.224-4.896-1.224-1.872 0-3.625.36-5.256 1.08l-.792 1.08c.047.672.072 1.416.072 2.232v14.904zm77.543 17.64c.096.288.145.48.145.576 0 .385-.145.792-.433 1.224s-.624.828-1.008 1.188c-.385.36-.792.673-1.224.936-.433.263-.817.396-1.152.396-.48 0-1.044-.587-1.691-1.764-.648-1.176-1.285-2.58-1.908-4.212a117.119 117.119 0 0 1-1.764-4.932 313.993 313.993 0 0 0-1.332-3.924 299.53 299.53 0 0 0-2.088-5.904 103.594 103.594 0 0 0-2.304-5.76 61.548 61.548 0 0 0-2.628-5.328 34.28 34.28 0 0 0-3.06-4.608c-.288-.239-.493-.443-.612-.612-.121-.167-.349-.252-.684-.252-.529 0-.913.252-1.152.756a4.52 4.52 0 0 1-.864 1.26 2123.217 2123.217 0 0 1-7.092 16.452 2143.906 2143.906 0 0 0-7.092 16.452c-.864 1.537-1.872 2.304-3.024 2.304-.576 0-1.152-.18-1.728-.54-.576-.36-.864-.924-.864-1.692v-.504c.479-.767 1.08-1.98 1.8-3.636a320.42 320.42 0 0 0 2.412-5.724c.888-2.16 1.836-4.5 2.844-7.02 1.008-2.52 2.04-5.04 3.096-7.56a312.151 312.151 0 0 1 3.168-7.308 111.321 111.321 0 0 1 3.024-6.264c.96-1.824 1.86-3.312 2.7-4.464C141.345.72 142.077.097 142.702 0h.36c.912 0 1.883.54 2.916 1.62 1.032 1.08 2.1 2.533 3.204 4.356 1.104 1.825 2.196 3.9 3.276 6.228a234.122 234.122 0 0 1 3.204 7.236 250.494 250.494 0 0 1 3.024 7.488 1341.6 1341.6 0 0 0 2.664 6.876 233.984 233.984 0 0 0 2.16 5.364c.623 1.488 1.127 2.52 1.512 3.096v.072zM58.896 115.92c0 .288-.061.637-.18 1.044-.12.408-.288.792-.504 1.152a3.73 3.73 0 0 1-.792.936 1.585 1.585 0 0 1-1.044.396c-.48 0-1.057-.229-1.728-.684-.673-.457-1.152-.947-1.44-1.476-.097-.24-.288-1.152-.576-2.736l-1.044-5.724c-.408-2.232-.853-4.631-1.332-7.2-.48-2.567-.972-4.968-1.476-7.2s-1.008-4.151-1.512-5.76c-.504-1.608-.949-2.556-1.332-2.844-.432 0-.84.169-1.224.504a170.595 170.595 0 0 0-5.652 11.88 8358.94 8358.94 0 0 1-5.724 13.248c0 .432-.144.84-.432 1.224-.288.385-.625.72-1.008 1.008a6.401 6.401 0 0 1-1.116.684c-.36.168-.588.276-.684.324-1.681 0-2.952-.767-3.816-2.304v.072l-.18-.36a38.835 38.835 0 0 1-.468-1.008c-.241-.527-.588-1.307-1.044-2.34-.457-1.032-1.092-2.459-1.908-4.284a3020.477 3020.477 0 0 1-7.632-17.208l.072.072a12.241 12.241 0 0 0-1.116-1.116c-.408-.36-.9-.54-1.476-.54-.048 0-.216.048-.504.144h.072c-.241.529-.564 1.561-.972 3.096-.409 1.537-.84 3.312-1.296 5.328-.457 2.016-.936 4.152-1.44 6.408a599.867 599.867 0 0 0-1.404 6.444l-1.152 5.436a220.807 220.807 0 0 1-.72 3.312v-.072c-.192.72-.444 1.476-.756 2.268-.313.792-.828 1.188-1.548 1.188-.624 0-1.188-.18-1.692-.54s-.877-.828-1.116-1.404c.047-1.296.216-2.904.504-4.824.288-1.919.659-4.032 1.116-6.336.456-2.304.972-4.728 1.548-7.272.576-2.544 1.163-5.1 1.764-7.668.6-2.567 1.188-5.076 1.764-7.524.576-2.448 1.104-4.704 1.584-6.768.191-.864.551-1.716 1.08-2.556.528-.839 1.415-1.26 2.664-1.26.144 0 .407.084.792.252.384.168.671.3.864.396.384.192.731.457 1.044.792.312.336.672.864 1.08 1.584.407.72.9 1.704 1.476 2.952a226.381 226.381 0 0 1 2.196 4.968 5009.95 5009.95 0 0 1 3.24 7.56c1.271 2.977 2.819 6.552 4.644 10.728.288.529.671.984 1.152 1.368.479.385 1.055.576 1.728.576a4.276 4.276 0 0 0 1.152-.144c1.68-3.264 3.204-6.54 4.572-9.828a315.148 315.148 0 0 1 4.356-9.972l3.024-6.696c.096-.191.252-.551.468-1.08a8.825 8.825 0 0 1 .828-1.548 6.584 6.584 0 0 1 1.224-1.368c.479-.407 1.055-.612 1.728-.612.576 0 1.14.385 1.692 1.152.551.769 1.044 1.681 1.476 2.736a25.643 25.643 0 0 1 1.08 3.24c.288 1.105.479 2.016.576 2.736l6.48 33.048zm34.199-.36c0 .624-.277 1.2-.828 1.728-.552.528-1.141.792-1.764.792l-13.032.072c-4.225 0-7.261-.119-9.108-.36-1.849-.24-2.772-1.032-2.772-2.376 0-1.68.648-3.359 1.944-5.04a49.446 49.446 0 0 1 4.464-5.004 986.94 986.94 0 0 0 5.04-5.004c1.68-1.68 2.88-3.384 3.6-5.112-.097-.335-.277-.731-.54-1.188-.264-.456-.828-1.235-1.692-2.34-.864-1.104-2.172-2.688-3.924-4.752a5381.63 5381.63 0 0 0-7.236-8.496c-.241-.24-.432-.672-.576-1.296-.144-.624-.216-1.104-.216-1.44 0-.527.072-.947.216-1.26.144-.312.324-.563.54-.756.216-.191.479-.372.792-.54.312-.168.66-.396 1.044-.684l21.6.072c.528.336 1.02.637 1.476.9.456.264.78.756.972 1.476-.192.72-.444 1.272-.756 1.656-.313.385-.781.66-1.404.828-.625.168-1.44.276-2.448.324a80.978 80.978 0 0 1-3.744.072c-1.92 0-3.648.036-5.184.108-1.537.072-2.833.229-3.888.468h.072c-.241.097-.408.313-.504.648-.097.336-.121.601-.072.792.047.385.432.984 1.152 1.8.72.817 1.584 1.74 2.592 2.772a162.148 162.148 0 0 1 3.168 3.348c1.104 1.2 2.04 2.376 2.808 3.528.767 1.152 1.296 2.232 1.584 3.24.288 1.008.144 1.849-.432 2.52a92.44 92.44 0 0 1-2.196 2.7c-.984 1.177-2.052 2.412-3.204 3.708s-2.28 2.545-3.384 3.744c-1.105 1.2-2.016 2.113-2.736 2.736-.048.048-.072.097-.072.144v.216c0 .336.096.709.288 1.116.191.408.479.708.864.9 1.152.097 2.495.144 4.032.144h8.28c1.104 0 1.775.025 2.016.072l-.072-.072c.816.241 1.56.565 2.232.972.672.408 1.008 1.116 1.008 2.124zm69.839-21.96c.432.192.815.48 1.151.864.336.385.504.817.504 1.296-.048 1.681-.061 3.6-.035 5.76.023 2.16.023 4.248 0 6.264-.025 2.016-.121 3.792-.288 5.328-.169 1.537-.469 2.473-.9 2.808-.049.576-.421 1.033-1.116 1.368-.696.336-1.596.588-2.7.756s-2.328.263-3.671.288a109.51 109.51 0 0 1-3.888 0 45.624 45.624 0 0 1-3.384-.18c-1.008-.096-1.753-.191-2.232-.288a60.212 60.212 0 0 1-4.68-1.152 27.226 27.226 0 0 1-4.248-1.62 21.113 21.113 0 0 1-3.78-2.34c-1.177-.911-2.268-2.063-3.276-3.456a19.787 19.787 0 0 1-3.024-6.084 23.445 23.445 0 0 1-1.008-6.804c0-.911.06-1.991.18-3.24.12-1.248.299-2.496.54-3.744.24-1.248.54-2.448.9-3.6.36-1.152.803-2.135 1.332-2.952 2.016-3.264 4.547-5.616 7.596-7.056 3.048-1.44 6.635-2.448 10.764-3.024a50.759 50.759 0 0 1 3.564-.252l2.088-.072a56.68 56.68 0 0 1 1.836-.036c.959 0 1.812.133 2.556.396.744.265 1.308.853 1.692 1.764 0 .288-.049.637-.144 1.044a5.5 5.5 0 0 1-.433 1.188c-.192.385-.421.72-.684 1.008-.265.288-.54.457-.828.504-.529.048-.984.072-1.368.072-.336 0-.66-.023-.972-.072a7.034 7.034 0 0 0-1.044-.072c-.336 0-.768.025-1.296.072-3.456.048-6.433.385-8.928 1.008-2.497.625-4.572 1.632-6.228 3.024-1.656 1.393-2.893 3.24-3.708 5.544-.817 2.304-1.249 5.161-1.296 8.568-.048 3.265.587 5.94 1.908 8.028 1.32 2.088 3.035 3.733 5.148 4.932 2.112 1.2 4.452 2.028 7.02 2.484 2.567.457 5.1.684 7.596.684.671 0 1.536-.036 2.592-.108 1.056-.072 1.919-.204 2.592-.396 0-.768.012-1.667.036-2.7.023-1.032.036-2.099.036-3.204v-6.84l-2.088-.072c-2.545-.047-4.356-.083-5.436-.108-1.08-.023-1.789-.299-2.124-.828-.144-.191-.229-.551-.252-1.08-.025-.528 0-1.055.072-1.584a6.27 6.27 0 0 1 .36-1.44c.167-.432.371-.648.612-.648h12.384zm9.647 3.384c0-3.935-.013-7.692-.036-11.268-.025-3.575.083-7.38.323-11.412.048-.527.324-.936.828-1.224.504-.288.947-.432 1.332-.432.768 0 1.428.288 1.98.864.551.576.828 1.272.828 2.088v24.12c0 .192.011.373.036.54.023.169.035.349.035.54-.048 1.105.264 2.365.937 3.78.672 1.416 1.631 2.761 2.88 4.032 1.248 1.272 2.747 2.353 4.5 3.24 1.752.889 3.708 1.332 5.868 1.332 1.872 0 3.636-.348 5.292-1.044 1.656-.695 3.107-1.607 4.355-2.736 1.248-1.127 2.22-2.412 2.916-3.852.695-1.44 1.02-2.927.973-4.464l.071-4.464V85.392c0-3.6.12-7.416.36-11.448.047-.528.324-.936.828-1.224s.947-.432 1.332-.432c.768 0 1.464.288 2.088.864.623.576.937 1.272.937 2.088l-.072 24.192c.047 3.456-.408 6.397-1.368 8.82-.961 2.424-2.316 4.392-4.068 5.904-1.753 1.512-3.815 2.617-6.191 3.312s-4.908 1.044-7.597 1.044c-2.112 0-4.283-.336-6.516-1.008-2.232-.672-4.284-1.764-6.156-3.276-1.872-1.512-3.42-3.444-4.644-5.796-1.225-2.351-1.861-5.231-1.908-8.64l-.143-2.808zm66.526-8.712c.145.097.36.408.648.936.288.529.384 1.344.288 2.448l-2.16 3.168a45.025 45.025 0 0 1 3.636 2.34 19.153 19.153 0 0 1 3.097 2.736 11.532 11.532 0 0 1 2.088 3.276c.504 1.201.731 2.52.684 3.96-.144 3.697-1.548 6.564-4.212 8.604-2.664 2.041-6.516 3.06-11.556 3.06-1.104 0-2.113-.108-3.024-.324a18.635 18.635 0 0 1-2.556-.792 21.884 21.884 0 0 1-2.269-1.044 46.22 46.22 0 0 0-2.159-1.08 17.552 17.552 0 0 1-.792-1.224c-.288-.479-.409-.947-.36-1.404.047-.456.348-.852.9-1.188.551-.335 1.571-.551 3.06-.648 1.248.673 2.472 1.177 3.672 1.512 1.199.336 2.711.504 4.536.504 2.64 0 4.824-.576 6.552-1.728 1.729-1.152 2.64-2.736 2.736-4.752.047-1.487-.624-2.795-2.016-3.924-1.394-1.127-3.121-2.22-5.185-3.276a60.137 60.137 0 0 0-1.836 2.196c-.553.696-1.08 1.272-1.584 1.728-.504.457-.972.745-1.404.864-.432.121-.863.013-1.296-.324-.192-.144-.385-.372-.576-.684a6.677 6.677 0 0 1-.504-1.008 3.5 3.5 0 0 1-.252-1.08c-.024-.36.036-.636.181-.828l2.088-3.528a45.476 45.476 0 0 1-3.96-2.448 18.726 18.726 0 0 1-3.349-2.952 12.622 12.622 0 0 1-2.304-3.708c-.553-1.368-.781-2.916-.684-4.644a8.07 8.07 0 0 1 1.224-4.032c.768-1.248 1.775-2.328 3.024-3.24 1.247-.911 2.688-1.644 4.319-2.196a17.554 17.554 0 0 1 5.185-.9c1.392-.047 2.628-.011 3.708.108 1.08.121 2.039.277 2.88.468a16.13 16.13 0 0 1 2.268.684c.672.265 1.296.54 1.872.828 1.248 1.105 1.991 2.005 2.232 2.7.239.696.155 1.224-.252 1.584-.409.36-1.069.54-1.98.54a8.818 8.818 0 0 1-2.664-.432c-.336-.432-.948-.816-1.836-1.152-.889-.335-1.908-.576-3.06-.72a18.313 18.313 0 0 0-3.637-.072c-1.272.097-2.447.385-3.527.864a7.025 7.025 0 0 0-2.7 2.088c-.72.913-1.104 2.088-1.152 3.528a4.74 4.74 0 0 0 .54 2.52c.407.768.96 1.488 1.656 2.16a16.32 16.32 0 0 0 2.484 1.944 37.218 37.218 0 0 0 3.096 1.8l3.168-4.032c.384-.239.9-.335 1.548-.288.649.048 1.14.216 1.476.504zm46.584-14.184c0 1.537-.421 2.545-1.26 3.024-.841.48-1.933.72-3.276.72-1.248 0-2.424-.024-3.527-.072-1.105-.047-2.077-.023-2.916.072-.841.097-1.513.312-2.017.648s-.78.889-.828 1.656v37.224c0 .48-.312.947-.936 1.404-.624.456-1.104.684-1.44.684-.672 0-1.2-.133-1.584-.396-.385-.264-.672-.792-.863-1.584-.192-.792-.313-1.908-.36-3.348-.048-1.44-.072-3.335-.072-5.688V86.184c0-2.063-.048-3.66-.144-4.788-.097-1.127-.396-1.944-.9-2.448s-1.296-.792-2.376-.864c-1.08-.072-2.604-.108-4.571-.108-.433 0-.984-.024-1.656-.072a8.563 8.563 0 0 1-1.944-.36 4.27 4.27 0 0 1-1.62-.9c-.456-.407-.684-.947-.684-1.62 0-.288.107-.587.324-.9.216-.312.479-.612.792-.9.312-.288.636-.527.972-.72.335-.191.648-.288.936-.288h28.009c.239 0 .504.133.792.396.288.265.551.517.792.756v-.072c.096.097.167.18.216.252.047.072.096.133.144.18v.36zm38.233 40.248c.096.288.145.48.145.576 0 .385-.145.792-.433 1.224s-.624.828-1.008 1.188c-.385.36-.792.673-1.224.936-.433.263-.817.396-1.152.396-.48 0-1.044-.587-1.691-1.764-.648-1.176-1.285-2.58-1.908-4.212a118.563 118.563 0 0 1-1.765-4.932 298.234 298.234 0 0 0-1.332-3.924 287.126 287.126 0 0 0-2.088-5.904 102.823 102.823 0 0 0-2.304-5.76 61.261 61.261 0 0 0-2.628-5.328 34.185 34.185 0 0 0-3.06-4.608c-.288-.239-.493-.443-.612-.612-.12-.167-.349-.252-.685-.252-.528 0-.912.252-1.151.756a4.52 4.52 0 0 1-.864 1.26 2123.217 2123.217 0 0 1-7.092 16.452 2002.516 2002.516 0 0 0-3.636 8.388 1775.77 1775.77 0 0 0-3.456 8.064c-.864 1.537-1.872 2.304-3.024 2.304-.576 0-1.152-.18-1.728-.54-.576-.36-.864-.924-.864-1.692v-.504c.479-.767 1.08-1.98 1.8-3.636a320.42 320.42 0 0 0 2.412-5.724c.888-2.16 1.836-4.5 2.844-7.02s2.04-5.04 3.096-7.56 2.112-4.956 3.169-7.308a111.359 111.359 0 0 1 3.023-6.264c.96-1.824 1.859-3.312 2.7-4.464.839-1.152 1.571-1.775 2.196-1.872h.359c.911 0 1.884.54 2.916 1.62s2.1 2.533 3.204 4.356c1.104 1.825 2.196 3.9 3.276 6.228a236.547 236.547 0 0 1 3.204 7.236 250.458 250.458 0 0 1 3.023 7.488 1341.6 1341.6 0 0 0 2.664 6.876 233.984 233.984 0 0 0 2.16 5.364c.623 1.488 1.127 2.52 1.512 3.096v.072z" fill="#3B2858"/>
</svg>
