<svg xmlns="http://www.w3.org/2000/svg" width="273.445" height="62.189" viewBox="0 0 273.445 62.189"><g fill="#8CD7F3"><path d="M7.524 31.834c-2.6.56-6.759.28-7.398-2.76-.76-3.719 2.04-5.479 5.279-6.119 4.599-.84 11.118 3.439 14.518 5.799-3 .641-8.559 2.321-12.399 3.08zm.52-15.517c-2.439-1.08-5.639-3.799-4.359-6.559 1.6-3.52 4.839-3.2 7.879-1.84 4.159 1.92 6.879 9.358 8.278 13.198-2.759-1.28-8.278-3.079-11.798-4.799zm4.959 31.835c-2.759 1.919-5.839 2.68-8.079-.48-1.799-2.56 1.08-5.719 3.2-7.199 3.239-2.24 8.278-5.039 10.838-6.759-.639 4.039-2.199 11.878-5.959 14.438zm39.319-23.716c0 10.079-8.719 27.996-20.477 27.996-2.12 0-4.879-.64-4.879-3.359 0-.76.16-1.56.44-2.4l.16-.12c1.12.16 2.2.36 3.199.879-.12.52-.6 1.04-.44 1.64.96-.2 1.96-.52 2.76-1.16.12-11.318-.48-22.476-.48-33.834.96-.28 1.959-.28 2.959-.4.6 1.56.88 3.239 1.32 4.799 2.76-3.279 5.159-7.159 10.118-7.159 4.96 0 5.32 9.678 5.32 13.118zm-7.719-8.199c-2.72 2.399-4.879 5.519-6.919 8.559-.04 3.679.12 7.358 0 11.078-.12 2.879-.64 5.919-.6 8.798 7.119-6.039 10.358-17.717 10.358-26.676 0-1.24-.16-2.439-.28-3.679-.759.681-1.799 1.24-2.559 1.92zm11.202 34.794c-1.72-.76-1.88-6.239-1.88-7.839 0-2.56.04-5.279.16-8.198.12-2.92.4-7.359.92-13.438.52-5.999 1-8.958 1.479-8.838.52.12 1.44.08 2.76-.12 1.36-.24 2.52-.4 3.52-.48 2.04-.2 4.079-.28 4.879-.28l.88.04c0 .4-.36 1.839-.68 2.04-2.04.44-4.04.44-6.079.44 0 5.319-.76 10.198-1.36 15.478.84-.28 1.76-.16 2.6-.16l2.68.04v.6c0 .28-.6 1-.8 1.2-1.44.28-2.88.4-4.319.36l-.28.24c-.28 5.159-1.08 10.559-1.08 15.718 0 .32 0 .68.12.959 2.56-.44 4.999-.84 7.559-.84.92 0 .84.08.84.12l-.68 1.76c-.68.52-8.119.68-8.639 1.2h-2.6zm30.837-7.478c0-7.519.88-15.038 2.28-22.396-3.199 4.319-5.599 9.159-8.639 13.638-.48 0-1 .32-1.32.32-.56 0-2.879-5.319-3.079-5.839 0 4-.4 16.677-1.84 19.917l-.52.12-.32-.12c-.6 0-1.08.56-1.68.56-1.52 0-1.64-8.479-1.64-9.718 0-5.119.56-23.556 2.799-27.875.16-.28.24-.64.68-.64.52 0 1.08.2 1.6.32.32.96 4.119 16.997 4.759 19.317C83.801 25.278 85.561 18.279 90.84 13h.08c.52 0 1.44.16 2.04.28.44 1.56.64 3.199.64 4.799.04 5.599-.36 29.995-3.839 33.115l-.72.04c-.84 0-1.72-.12-2.2-.88a131.133 131.133 0 0 1-.199-6.801zm13.962 7.358c-1.32-.2-2.6-.959-3.52-1.919-.6-.8-1.48-2.16-1.68-3.12-.32-1.16-.6-1.919-.72-4.239l-.2-1.76.36-1.72c.32-2.56.6-3.279 1.12-4.879.6-1.92 1.68-4.439 2.759-6.359.56-1 1.88-2.92 2.4-3.68.959-1.36 2.56-3.119 3.519-3.879l.36-.4.2.2c.36.2.76.4.76.56 0 .24-.96 2.84-2.04 6.399-1.16 3.12-2.28 6.599-2.6 7.959-.32 1.4-.6 2.319-1.12 4.439-.2 1.8-.16 1.72-.36 3.68v2.719c.2 2.44.76 3.839 1.68 4.279.16.16.36.16.52.16.44 0 .56-.12.76-.56.2-.2.52-.72 1.12-1.16.6-.8.68-1.16 1.28-2.12 1.68-2.52 2.08-3.52 3.679-9.119.96-3.519 1.28-5.039 1.48-7.159.2-.6.2-1.16.2-2.919 0-1.72 0-2.12-.2-3.279-.16-2.2-.32-3.32-.92-4.479-.92-2.399-2.76-4.239-4.799-4.439-.16-.2-.68-.2-1.28-.2h-.92l-.76.4c-1.879.52-2.439.96-3.119 1.56-.6.36-.92.96-1.12 1.32 0 .28.08.4.2.4h.16c0 .2-.92.8-.92.96-.2 0-.72-.36-.919-.56-.36-.439-.36-.56-.36-1.16 0-.44 0-.6.16-.8.2-.6.4-.92.92-1.52.76-.8 1.32-1.16 2.799-1.76.76-.44.72-.36 2.2-.56 2.56-.64 3.879-.4 5.919.36 3.04.96 5.359 3.439 6.679 6.799.36.76.48 1.52.919 3.28l.16 1.359v5.6c-.36 2.4-1.08 5.439-1.84 7.559-1.2 2.879-2.759 6.438-4.239 8.358-.2.36-.72.92-1.32 1.52-.52.8-.879 1.16-1.64 1.76-.36.44-.92.96-1.12.96-.76.6-1.84.96-2.76 1.16h-1.837zm31.078-39.753c.52.16 1 .64 1 1.24-6.679 3.039-10.519 17.037-10.519 23.876v4.959c0 2.72.8 5.119 2.6 7.079.32.16.8.2 1.16.16 1.479-1.08 3.799-4.079 3.799-5.959 0-.16-.4 0-.52.12-.04-.28-.16-.48-.16-.76 0-1.16 1.12-1.52 2.04-1.52 1.08 0 1.24 2.08 1.24 2.76 0 3.719-3.64 7.838-7.519 7.838-6.719 0-8.678-8.519-8.678-13.797 0-8.439 5.718-24.876 15.557-25.996z"/><path d="M149.001 11.758c1.76 0 3.04.76 3.959 1.88.92 1.16 1.28 2.239 1.56 3.799.2 1.32 0 2.279-.88 4.559-.4 1.16-.72 1.76-1.56 3.24-2.679 3.959-7.039 6.639-11.478 6.639-.24.12-.44.16-.6.16-.12.04-.2.04-.28 0l.84 1.16c.48.68 1.12 1.6 1.8 2.439.92 1.16 1.8 2.439 2.24 3.04 1.08 1.52 4.159 6.079 4.599 6.639 1.12 1.72 6.839 9.279 10.158 13.078l.24.56h.44c.2 0 .44-.16.88-.76.2-.36.16-.76.439-1.68.2-.6.16-.56.44-.56h1.56v1.68c-.28.959-.68 1.72-1.36 2.479l-.28.4-.16.16c0 .2-.44.76-.64.96-.44.36-.88.56-1.56.56-.64 0-.88 0-1.08-.2-1.56-.36-2.88-1.32-5.079-3.04-1.64-1.319-2.16-2.08-4.2-4.519-1.6-1.919-2.479-3-4.399-6.079-1.6-2.04-3.359-5.319-4.439-7.758-.12-.28-.16-.6-.28-.8l-.16-.36c0-.2 0 0-.2 1.16 0 1.479-.24 4.159-.44 5.479-.28 1.56-.44 2.839-.88 3.799-.24.56-.6.92-1.12 1.12-.44.2-1.56.6-1.56.4l.16-.36c.12-.2.16-.48.28-.8v-.36l-.12.12c-.04.16-.08.24-.08.24-.439.2-.68.2-.879.2-.28 0-.24-.16-.24-.76 0-.2 0-.72-.2-1.32 0-.76-.24-2.479-.44-5.519 0-1.32-.24-3-.24-4.159-.2-1.72-.24-4.519-.44-6.799v-.96l-.44-.4c-1.56-.76-2.64-1.52-2.839-2.439-.12-.04-.16-.16-.2-.36-.04-.04-.04-.12-.04-.24.16-.04.32-.08.52-.2l1.04-.36.44-.16.2.16c.28.2.44.4.88.56l.44.2v-1.68c0-2.16.24-6.239.24-7.399 0-.96.44-4.039.44-4.559v-.4h.64c.28-.16.68-.16.88-.16l.44-.2.24.959c.44.92.68 1.68 1.12 2.64 0 .12.04.24.08.4l.12.16.16-.12.28-.24c.44-.56 2.24-2.04 2.88-2.68.919-.6 1.479-.92 2.879-1.52.84-.36 1.08-.56 2.2-.76 1.32-.36 2.2-.36 2.839-.36h.24zm-3.079 3.799c-2.72 1.12-4.879 2.439-6.639 4.159-1.08.96-1.08.96-1.08 1.16l.08.48c.04.28.12.64.12 1 .28 1.72.68 3.399.68 5.119l.2 1.36h1.12c.44 0 1.04-.2 1.32-.2 1.08-.2 1.959-.52 2.879-.96.44-.36 1.52-1.08 1.959-1.68 1.28-1.48 3.799-5.159 4.439-6.639.2-1.16.44-2.679 0-3.439 0-.36-.44-.76-.88-.919-.48-.2-.48-.4-1.12-.2-.679-.001-1.758.16-3.078.759z"/><path d="M169.842 11.998c2.359.879 5.399 30.794 5.399 34.514-.44.16-1.08.4-1.52.4h-.52c-.64-.88-1.2-6.479-1.32-7.519-.44-2.879-1.08-5.679-1.36-8.559v-.24c-1.72 0-3.439.32-5.079.48-3.719 7.199-5.279 15.757-9.758 22.716-.48.12-1 .28-1.48.28-1.479 0-1.839-1.2-1.839-2.479 0-6.559 12.917-39.713 15.797-39.713.36 0 1.36 0 1.68.12zm-6.159-.48c0 .6-.56.6-1.16 0-1.16-1.04 0-4.919 3.479-7.679.52-1.08 1.72-1.6 2.319-2.2.52-.52 2.36-1.64 2.88-1.64 0 .08.04.16.08.28.08.2.24.28.52.28l.56.52-1.16 1.12c-1.68 1.6-5.839 6.639-6.359 7.679-.32.28-.4.56-.52.76-.04.16-.08.28-.08.36l-.559.52zm4.959 8.119c0 .32-2.2 8.198-2.52 9.278.08.04.16.04.28.04.6 0 1.08-.12 1.6-.16.64-.04 1.36-.12 2-.12.08 0 .12 0 .12-.04 0-.12-.04-.24-.12-.36 0-2.08-.68-4.319-1-6.399 0-.28-.16-2-.36-2.12v-.119zm13.761-4.76c-2.24-.04-4.799-.2-6.919-.68 0-.64.24-1.28.52-1.879 1.88-.96 9.559-.92 11.878-.92 1.68 0 6.039-.04 7.519.48.2.12.32.08.28.36l-.52 2.08c-3.359.68-6.519.72-9.918.72.96 4.16 1.56 8.999 1.56 13.318v12.438c0 2.68.32 9.999-3.2 9.999-.76 0-.92-1.08-1.04-1.6-1.08-5.159-1.16-10.558-1.16-15.837 0-6.121-.08-12.399 1-18.479zm11.64 35.915l.36-2.4c.8-.44 1.8-.24 2.6-.68v-.44c0-2.24-.44-4.559-.44-6.839 0-6.399.8-19.637 3.2-25.396l-2.84.32c-.52-.32-.88-1.52-1.08-2.16.44-1.08 7.679-1.72 8.679-1.72.36 0 .919 0 1.2.28l-.6 2.08c-.28.28-2.399.88-2.6.76 0 10.918-2.399 21.836-2.399 32.795.44 0 1.919-.08 1.8.44l-.24 1.959c-1.24.72-4.679 1.04-6.079 1.04l-1.561-.039zm26.198-39.634c.52.16 1 .64 1 1.24-6.679 3.039-10.519 17.037-10.519 23.876v4.959c0 2.72.8 5.119 2.6 7.079.32.16.8.2 1.16.16 1.479-1.08 3.799-4.079 3.799-5.959 0-.16-.4 0-.52.12-.04-.28-.16-.48-.16-.76 0-1.16 1.12-1.52 2.04-1.52 1.08 0 1.24 2.08 1.24 2.76 0 3.719-3.64 7.838-7.519 7.838-6.719 0-8.678-8.519-8.678-13.797 0-8.439 5.718-24.876 15.557-25.996zm17.28.84c2.359.879 5.399 30.794 5.399 34.514-.44.16-1.08.4-1.52.4h-.52c-.64-.88-1.2-6.479-1.32-7.519-.44-2.879-1.08-5.679-1.36-8.559v-.24c-1.72 0-3.439.32-5.079.48-3.719 7.199-5.279 15.757-9.758 22.716-.48.12-1 .28-1.48.28-1.479 0-1.839-1.2-1.839-2.479 0-6.559 12.917-39.713 15.797-39.713.36 0 1.36 0 1.68.12zm-1.2 7.639c0 .32-2.2 8.198-2.52 9.278.08.04.16.04.28.04.6 0 1.08-.12 1.6-.16.64-.04 1.36-.12 2-.12.08 0 .12 0 .12-.04 0-.12-.04-.24-.12-.36 0-2.08-.68-4.319-1-6.399 0-.28-.16-2-.36-2.12v-.119zm31.719 3.319c3.24.64 6.039 2.399 5.279 6.119-.64 3.04-4.799 3.32-7.399 2.76-3.839-.76-9.398-2.439-12.398-3.08 3.4-2.359 9.919-6.639 14.518-5.799zm-6.159-15.038c2.959-1.36 6.279-1.64 7.878 1.84 1.28 2.799-2 5.479-4.359 6.559-3.56 1.72-9.119 3.52-11.798 4.799 1.4-3.839 4.12-11.278 8.279-13.198zm3.44 32.555c2.12 1.479 4.999 4.639 3.199 7.199-2.24 3.08-5.319 2.439-8.079.48-3.759-2.56-5.319-10.398-5.959-14.438 2.56 1.72 7.599 4.519 10.839 6.759z"/></g></svg>