<svg xmlns="http://www.w3.org/2000/svg" width="287.486" height="55.227" viewBox="0 0 287.486 55.227"><g fill="#8CD7F3"><path d="M7.524 24.872c-2.6.56-6.759.28-7.398-2.759-.76-3.72 2.04-5.479 5.279-6.119 4.599-.84 11.118 3.439 14.518 5.799-3 .639-8.559 2.319-12.399 3.079zm.52-15.518c-2.439-1.08-5.639-3.799-4.359-6.559 1.6-3.52 4.839-3.2 7.879-1.84 4.159 1.92 6.879 9.358 8.278 13.198-2.759-1.279-8.278-3.079-11.798-4.799zm4.959 31.835c-2.759 1.919-5.839 2.679-8.079-.48-1.799-2.56 1.08-5.719 3.2-7.199 3.239-2.24 8.278-5.039 10.838-6.759-.639 4.04-2.199 11.878-5.959 14.438zm39.319-23.716c0 10.079-8.719 27.996-20.477 27.996-2.12 0-4.879-.64-4.879-3.359 0-.76.16-1.56.44-2.4l.16-.12c1.12.16 2.2.36 3.199.879-.12.52-.6 1.04-.44 1.64.96-.2 1.96-.52 2.76-1.16.12-11.318-.48-22.476-.48-33.834.96-.28 1.959-.28 2.959-.4.6 1.56.88 3.239 1.32 4.799 2.76-3.279 5.159-7.159 10.118-7.159 4.96 0 5.32 9.678 5.32 13.118zm-7.719-8.199c-2.72 2.399-4.879 5.519-6.919 8.559-.04 3.679.12 7.358 0 11.078-.12 2.879-.64 5.919-.6 8.798 7.119-6.039 10.358-17.717 10.358-26.676 0-1.24-.16-2.439-.28-3.679-.759.68-1.799 1.24-2.559 1.92zm8.562 34.555l.36-2.4c.8-.44 1.8-.24 2.6-.68v-.44c0-2.24-.44-4.559-.44-6.839 0-6.399.8-19.637 3.2-25.396l-2.84.32c-.52-.32-.88-1.52-1.08-2.16.44-1.08 7.679-1.72 8.679-1.72.36 0 .919 0 1.2.28l-.6 2.08c-.28.28-2.399.88-2.6.76 0 10.918-2.399 21.836-2.399 32.795.44 0 1.919-.08 1.8.44l-.24 1.959c-1.24.72-4.679 1.04-6.079 1.04l-1.561-.039z"/><path d="M70.124 43.988c-4-9.278-6.359-26.556-6.359-36.754 0-1-.12-2.839.28-3.759l1.56-.16c2.76 3.279 6.199 27.755 7.119 32.994 1.76-4.319 5.639-18.637 6.918-23.436.52-1.919 1.04-3.799 1.8-5.679l.12-.28c.16 0 .92.08 1.04.2-1.08 11.718-5.479 22.476-8.599 33.714l.2.2c-.12.36-1 1.48-.8 1.68l-.28.6c-.56.24-2.2.76-2.76.76l-.239-.08zm15.161.08c-1.72-.76-1.88-6.239-1.88-7.839 0-2.56.04-5.279.16-8.198.12-2.92.4-7.359.92-13.438.52-5.999 1-8.958 1.479-8.838.52.12 1.44.08 2.76-.12 1.36-.24 2.52-.4 3.52-.48 2.04-.2 4.079-.28 4.879-.28l.88.04c0 .4-.36 1.84-.68 2.04-2.04.44-4.04.44-6.079.44 0 5.319-.76 10.198-1.36 15.478.84-.28 1.76-.16 2.6-.16l2.68.04v.6c0 .28-.6 1-.8 1.2-1.44.28-2.88.4-4.319.36l-.28.24c-.28 5.159-1.08 10.559-1.08 15.718 0 .32 0 .68.12.959 2.56-.44 4.999-.84 7.559-.84.92 0 .84.08.84.12l-.68 1.76c-.68.52-8.119.68-8.639 1.2h-2.6z"/><path d="M115.242 4.795c1.76 0 3.04.76 3.959 1.88.92 1.16 1.28 2.239 1.56 3.799.2 1.32 0 2.279-.88 4.559-.4 1.16-.72 1.76-1.56 3.239-2.679 3.959-7.039 6.639-11.478 6.639-.24.12-.44.16-.6.16-.12.04-.2.04-.28 0l.84 1.16c.48.68 1.12 1.6 1.8 2.439.92 1.16 1.8 2.439 2.24 3.04 1.08 1.52 4.159 6.079 4.599 6.639 1.12 1.72 6.839 9.279 10.158 13.078l.24.56h.44c.2 0 .44-.16.88-.76.2-.36.16-.76.439-1.68.2-.6.16-.56.44-.56h1.56v1.68c-.28.959-.68 1.72-1.36 2.479l-.28.4-.16.16c0 .2-.44.76-.64.96-.44.36-.88.56-1.56.56-.64 0-.88 0-1.08-.2-1.56-.36-2.88-1.32-5.079-3.04-1.64-1.319-2.16-2.08-4.2-4.519-1.6-1.919-2.479-3-4.399-6.079-1.6-2.04-3.359-5.319-4.439-7.759-.12-.28-.16-.6-.28-.8l-.16-.36c0-.2 0 0-.2 1.16 0 1.48-.24 4.16-.44 5.479-.28 1.56-.44 2.839-.88 3.799-.24.56-.6.92-1.12 1.12-.44.2-1.56.6-1.56.4l.16-.36c.12-.2.16-.48.28-.8v-.36l-.12.12c-.04.16-.08.24-.08.24-.439.2-.68.2-.879.2-.28 0-.24-.16-.24-.76 0-.2 0-.72-.2-1.32 0-.76-.24-2.479-.44-5.519 0-1.32-.24-3-.24-4.159-.2-1.72-.24-4.519-.44-6.799v-.96l-.44-.4c-1.56-.76-2.64-1.52-2.839-2.439-.12-.04-.16-.16-.2-.36-.04-.04-.04-.12-.04-.24.16-.04.32-.08.52-.2l1.04-.36.44-.16.2.16c.28.2.44.4.88.56l.44.2v-1.68c0-2.16.24-6.239.24-7.399 0-.96.44-4.039.44-4.559v-.4h.64c.28-.16.68-.16.88-.16l.44-.2.24.959c.44.92.68 1.68 1.12 2.64 0 .12.04.24.08.4l.12.16.16-.12.28-.24c.44-.56 2.24-2.04 2.88-2.68.919-.6 1.479-.92 2.879-1.52.84-.36 1.08-.56 2.2-.76 1.32-.36 2.2-.36 2.839-.36h.24zm-3.079 3.799c-2.72 1.12-4.879 2.439-6.639 4.159-1.08.96-1.08.96-1.08 1.16l.08.48c.04.28.12.64.12 1 .28 1.72.68 3.399.68 5.119l.2 1.36h1.12c.44 0 1.04-.2 1.32-.2 1.08-.2 1.959-.52 2.879-.96.44-.36 1.52-1.08 1.959-1.68 1.28-1.48 3.799-5.159 4.439-6.639.2-1.16.44-2.679 0-3.439 0-.36-.44-.76-.88-.92-.48-.2-.48-.4-1.12-.2-.679 0-1.758.161-3.078.76z"/><path d="M121.246 37.229c.68.44 1.28.88 1.759 1.56-.32.36-.52.88-.64 1.32 5.039-2.04 9.918-5.199 15.038-6.918-.64-1.6-14.958-9.559-14.958-19.117 0-4.879 2.16-9.718 7.759-9.718 4.599 0 7.878 5.319 8.638 9.318-.36.36-.92.72-1.439.72-2.12-2.64-4.04-6.639-7.959-6.639-1.879 0-3.119 4.719-3.119 6.119 0 8.599 13.158 12.758 13.158 18.677 0 5.239-12.278 11.558-16.917 11.558-1.64 0-3.439.04-3.439-2.08-.002-.88 1.478-4.8 2.119-4.8zm19.039 6.6l.36-2.4c.8-.44 1.8-.24 2.6-.68v-.44c0-2.24-.44-4.559-.44-6.839 0-6.399.8-19.637 3.2-25.396l-2.84.32c-.52-.32-.88-1.52-1.08-2.16.44-1.08 7.679-1.72 8.679-1.72.36 0 .919 0 1.2.28l-.6 2.08c-.28.28-2.399.88-2.6.76 0 10.918-2.399 21.836-2.399 32.795.44 0 1.919-.08 1.8.44l-.24 1.959c-1.24.72-4.679 1.04-6.079 1.04l-1.561-.039zm12.32.039c-1.96 0-1.52-3.559-1.52-4.959 0-3.12 2.84-34.034 3.6-34.794.76-.16 1.919-.64 2.6-.64v.24l.76 1.68h.16c1.479 0 3.039-.48 4.679-.48 1.16 0 2.359-.04 3.519.16.36.36.84 2.44.84 2.92-2.919.44-5.759.32-8.798.32v.12c0 4.079.92 8.079.92 12.238.44-.04.84-.16 1.28-.16h3.52c.28.28.76 2.479.76 2.919-.76.32-4.639.4-5.719.4l-.16.2c0 2.839-1.76 20.557-4.2 20.557-.16 0-1.839-.68-1.919-.84l-.322.119zm14.52-.039l.36-2.4c.8-.44 1.8-.24 2.6-.68v-.44c0-2.24-.44-4.559-.44-6.839 0-6.399.8-19.637 3.2-25.396l-2.84.32c-.52-.32-.88-1.52-1.08-2.16.44-1.08 7.679-1.72 8.679-1.72.36 0 .919 0 1.2.28l-.6 2.08c-.28.28-2.399.88-2.6.76 0 10.918-2.399 21.836-2.399 32.795.44 0 1.919-.08 1.8.44l-.24 1.959c-1.24.72-4.679 1.04-6.079 1.04l-1.561-.039zm26.197-39.634c.52.16 1 .64 1 1.24-6.679 3.039-10.519 17.037-10.519 23.876v4.959c0 2.72.8 5.119 2.6 7.079.32.16.8.2 1.16.16 1.479-1.08 3.799-4.079 3.799-5.959 0-.16-.4 0-.52.12-.04-.28-.16-.48-.16-.76 0-1.16 1.12-1.52 2.04-1.52 1.08 0 1.24 2.08 1.24 2.76 0 3.719-3.64 7.838-7.519 7.838-6.719 0-8.678-8.519-8.678-13.797 0-8.439 5.719-24.876 15.557-25.996zm17.32.84c2.359.879 5.399 30.794 5.399 34.514-.44.16-1.08.4-1.52.4h-.52c-.64-.88-1.2-6.479-1.32-7.519-.44-2.879-1.08-5.679-1.36-8.559v-.24c-1.72 0-3.439.32-5.079.48-3.719 7.199-5.279 15.757-9.758 22.716-.48.12-1 .28-1.48.28-1.479 0-1.839-1.2-1.839-2.479 0-6.559 12.917-39.713 15.797-39.713.36 0 1.36 0 1.68.12zm-1.2 7.639c0 .32-2.2 8.198-2.52 9.278.08.04.16.04.28.04.6 0 1.08-.12 1.6-.16.64-.04 1.36-.12 2-.12.08 0 .12 0 .12-.04 0-.12-.04-.24-.12-.36 0-2.08-.68-4.319-1-6.399 0-.28-.16-2-.36-2.12v-.119z"/><path d="M238.241 17.473c0 10.079-8.719 27.996-20.477 27.996-2.12 0-4.879-.64-4.879-3.359 0-.76.16-1.56.44-2.4l.16-.12c1.12.16 2.2.36 3.199.879-.12.52-.6 1.04-.44 1.64.96-.2 1.96-.52 2.76-1.16.12-11.318-.48-22.476-.48-33.834.96-.28 1.959-.28 2.959-.4.6 1.56.88 3.239 1.32 4.799 2.76-3.279 5.159-7.159 10.118-7.159 4.96 0 5.32 9.678 5.32 13.118zm-7.719-8.199c-2.72 2.399-4.879 5.519-6.919 8.559-.04 3.679.12 7.358 0 11.078-.12 2.879-.64 5.919-.6 8.798 7.119-6.039 10.358-17.717 10.358-26.676 0-1.24-.16-2.439-.28-3.679-.759.68-1.799 1.24-2.559 1.92zm21.04-4.239c2.359.879 5.399 30.794 5.399 34.514-.44.16-1.08.4-1.52.4h-.52c-.64-.88-1.2-6.479-1.32-7.519-.44-2.879-1.08-5.679-1.36-8.559v-.24c-1.72 0-3.439.32-5.079.48-3.719 7.199-5.279 15.757-9.758 22.716-.48.12-1 .28-1.48.28-1.479 0-1.839-1.2-1.839-2.479 0-6.559 12.917-39.713 15.797-39.713.36 0 1.36 0 1.68.12zm-1.2 7.639c0 .32-2.2 8.198-2.52 9.278.08.04.16.04.28.04.6 0 1.08-.12 1.6-.16.64-.04 1.36-.12 2-.12.08 0 .12 0 .12-.04 0-.12-.04-.24-.12-.36 0-2.08-.68-4.319-1-6.399 0-.28-.16-2-.36-2.12v-.119zm31.719 3.319c3.24.64 6.039 2.399 5.279 6.119-.64 3.039-4.799 3.319-7.399 2.759-3.839-.76-9.398-2.439-12.398-3.08 3.399-2.358 9.918-6.638 14.518-5.798zM275.922.956c2.959-1.36 6.279-1.64 7.878 1.84 1.28 2.799-2 5.479-4.359 6.559-3.56 1.72-9.119 3.52-11.798 4.799 1.4-3.84 4.12-11.279 8.279-13.198zm3.439 32.554c2.12 1.479 4.999 4.639 3.199 7.199-2.24 3.08-5.319 2.439-8.079.48-3.759-2.56-5.319-10.398-5.959-14.438 2.561 1.72 7.6 4.52 10.839 6.759z"/></g></svg>