<svg xmlns="http://www.w3.org/2000/svg" width="349.347" height="38.16" viewBox="0 0 349.347 38.16"><path d="M13.875.384c2.08 0 4 .4 5.76 1.2 1.759.8 3.288 1.889 4.584 3.264 1.296 1.376 2.312 2.993 3.048 4.848.736 1.856 1.104 3.84 1.104 5.952 0 1.792-.272 3.592-.816 5.4-.544 1.808-1.457 3.624-2.736 5.448-.032.032.079.232.336.6.255.368.535.768.84 1.2.304.432.583.833.84 1.2.256.368.384.584.384.648-.064.864-.224 1.44-.48 1.728a1.043 1.043 0 0 1-.96.36c-.384-.048-.8-.225-1.248-.528a12.444 12.444 0 0 1-1.272-.984 35.96 35.96 0 0 1-1.08-.984c-.32-.304-.544-.472-.672-.504-.128-.064-.336.048-.624.336-.288.288-.544.464-.768.528-1.024.449-2.112.768-3.264.96s-2.336.304-3.552.336c-.8 0-1.688-.104-2.664-.312a12.985 12.985 0 0 1-2.952-1.032c-.992-.48-1.952-1.128-2.88-1.944-.929-.816-1.752-1.832-2.472-3.048s-1.296-2.64-1.728-4.272-.632-3.52-.6-5.664c0-.64.096-1.416.288-2.328.192-.912.472-1.848.84-2.808.368-.96.8-1.887 1.297-2.784.496-.896 1.032-1.632 1.608-2.208.703-.895 1.464-1.639 2.279-2.232a11.213 11.213 0 0 1 2.52-1.392 13.072 13.072 0 0 1 2.592-.72c.865-.144 1.68-.231 2.448-.264zm1.009 3.504c-1.121 0-2.088.096-2.904.288s-1.536.464-2.16.816a7.782 7.782 0 0 0-1.68 1.272 17.068 17.068 0 0 0-1.416 1.608c-1.056 1.409-1.816 2.88-2.28 4.416-.464 1.536-.681 3.048-.648 4.536.032 1.488.312 2.896.84 4.224a11.505 11.505 0 0 0 2.16 3.504 9.525 9.525 0 0 0 3.288 2.352c1.28.56 2.704.824 4.272.792a10.764 10.764 0 0 0 2.328-.36 5.805 5.805 0 0 0 2.184-1.128 2.922 2.922 0 0 0-.216-.672 30.494 30.494 0 0 1-.648-1.584 1.956 1.956 0 0 1-.144-.672c0-.448.223-.84.672-1.176.448-.336.816-.504 1.104-.504.223 0 .448.104.672.312.224.208.432.432.624.672.192.24.384.464.576.672.192.208.399.312.624.312.384 0 .735-.288 1.056-.864.32-.576.6-1.248.84-2.016s.423-1.527.552-2.28c.127-.751.192-1.304.192-1.656 0-1.471-.24-2.967-.72-4.488a15.38 15.38 0 0 0-2.016-4.152 11.08 11.08 0 0 0-3.12-3.048 7.292 7.292 0 0 0-4.032-1.176zm18.815 13.2c0-2.624-.008-5.128-.024-7.512-.017-2.383.056-4.92.216-7.608.031-.352.216-.624.552-.816.336-.192.631-.288.888-.288.511 0 .952.192 1.32.576.368.384.552.848.552 1.392v16.08c0 .128.007.249.024.36.016.113.024.233.024.36-.032.736.175 1.576.624 2.52.448.944 1.087 1.84 1.92 2.688.832.848 1.832 1.568 3 2.16 1.168.593 2.472.888 3.912.888 1.248 0 2.424-.232 3.528-.696s2.072-1.072 2.904-1.824a8.335 8.335 0 0 0 1.944-2.568c.463-.96.679-1.952.648-2.976l.048-2.976V9.36c0-2.4.08-4.944.24-7.632.031-.352.216-.624.552-.816s.632-.288.888-.288c.511 0 .976.192 1.392.576.416.384.624.848.624 1.392l-.048 16.128c.032 2.304-.272 4.265-.912 5.88-.641 1.616-1.544 2.928-2.712 3.936-1.168 1.008-2.544 1.745-4.128 2.208s-3.272.696-5.064.696c-1.408 0-2.856-.225-4.344-.672a11.98 11.98 0 0 1-4.104-2.184c-1.248-1.008-2.28-2.295-3.096-3.864-.816-1.567-1.24-3.487-1.272-5.76l-.096-1.872zm48.288 12.384c0 .417-.185.8-.552 1.152-.368.353-.761.528-1.176.528l-8.688.048c-2.816 0-4.84-.08-6.072-.24-1.232-.16-1.848-.688-1.848-1.584 0-1.12.432-2.239 1.296-3.36a32.924 32.924 0 0 1 2.976-3.336c1.12-1.104 2.24-2.215 3.36-3.336 1.12-1.12 1.92-2.256 2.4-3.408a3.731 3.731 0 0 0-.36-.792c-.176-.304-.552-.823-1.128-1.56a113.464 113.464 0 0 0-2.616-3.168 3956.047 3956.047 0 0 0-4.824-5.664c-.161-.16-.288-.447-.384-.864-.096-.416-.144-.736-.144-.96 0-.352.048-.631.144-.84.096-.208.216-.376.36-.504.144-.127.319-.247.528-.36.208-.112.439-.264.696-.456l14.4.048c.352.224.68.424.984.6.304.176.52.504.648.984-.128.48-.296.848-.504 1.104-.208.256-.521.44-.936.552-.416.112-.96.185-1.632.216-.672.033-1.504.048-2.496.048-1.28 0-2.432.024-3.456.072-1.024.048-1.889.152-2.592.312h.048c-.161.064-.272.208-.336.432s-.08.4-.048.528c.031.257.288.656.768 1.2.48.544 1.056 1.16 1.728 1.848.672.688 1.375 1.432 2.112 2.232.736.8 1.36 1.584 1.872 2.352.511.768.864 1.488 1.056 2.16.192.672.096 1.232-.288 1.68-.32.416-.808 1.016-1.464 1.8-.656.785-1.368 1.608-2.136 2.472s-1.521 1.696-2.256 2.496c-.736.8-1.344 1.408-1.824 1.824-.032.032-.048.064-.048.096v.144c0 .224.063.473.192.744.127.272.319.472.576.6a32.84 32.84 0 0 0 2.688.096h5.52c.736 0 1.184.017 1.344.048l-.048-.048a6.327 6.327 0 0 1 1.488.648c.448.273.672.744.672 1.416zm33.984 2.16c-.672 0-1.08-.225-1.224-.672s-.296-.943-.456-1.488l.048.048c-.096-.255-.161-.799-.192-1.632-.032-.832-.056-1.824-.072-2.976a252.084 252.084 0 0 1-.024-3.696c0-1.344.007-2.616.024-3.816.016-1.2.031-2.272.048-3.216.016-.943.024-1.624.024-2.04V9.792c0-.735.016-1.375.048-1.92-.225-.511-.561-.768-1.008-.768h-.144c-.032 0-.064.017-.096.048-.544.384-1.232 1.056-2.064 2.016-.833.96-1.68 1.977-2.544 3.048a299.626 299.626 0 0 1-2.448 3c-.768.928-1.36 1.552-1.776 1.872a8.15 8.15 0 0 0-.888.384 1.7 1.7 0 0 0-.36.24v-.048l-.048.048-.48.096c-.384-.096-.857-.416-1.416-.96a25.066 25.066 0 0 1-1.8-1.968 123.247 123.247 0 0 1-1.968-2.424 70.857 70.857 0 0 0-1.968-2.376 19.588 19.588 0 0 0-1.776-1.824c-.544-.48-.992-.72-1.344-.72-.128 0-.296.024-.504.072-.208.048-.344.152-.408.312v-.048c-.064.225-.104.768-.12 1.632a511.34 511.34 0 0 0-.048 3.096c-.017 1.2-.024 2.504-.024 3.912 0 1.376.007 2.696.024 3.96.016 1.265.024 2.393.024 3.384v2.112c0 1.024-.017 1.864-.048 2.52-.033.656-.104 1.192-.216 1.608-.112.416-.296.728-.552.936-.257.208-.624.375-1.104.504-.48-.128-.849-.343-1.104-.648a8.8 8.8 0 0 1-.72-.984V2.976c.192-.223.352-.448.48-.672.127-.224.264-.408.408-.552.144-.144.319-.264.528-.36.208-.096.487-.144.84-.144.224 0 .544.048.96.144.416.096.704.224.864.384 2.4 2.081 4.304 3.833 5.712 5.256 1.408 1.424 2.512 2.592 3.312 3.504.799.912 1.368 1.584 1.704 2.016s.616.68.84.744c.607-.544 1.248-1.24 1.92-2.088.672-.847 1.375-1.744 2.112-2.688.736-.943 1.488-1.879 2.256-2.808a29.746 29.746 0 0 1 2.328-2.52c.784-.751 1.56-1.36 2.328-1.824.768-.463 1.536-.696 2.304-.696.896 0 1.423.616 1.584 1.848.16 1.232.24 3.257.24 6.072v21.312c0 .416-.232.809-.696 1.176-.465.368-.905.552-1.32.552zM140.209 3.12c.16-.16.319-.439.48-.84.16-.4.352-.68.576-.84h.048c0-.032.016-.048.048-.048A9.253 9.253 0 0 1 143.833.36c.912-.24 1.735-.36 2.472-.36 1.824 0 3.607.249 5.352.744 1.744.497 3.288 1.416 4.632 2.76.736.736 1.264 1.664 1.584 2.784.319 1.121.48 2.225.48 3.312 0 1.409-.224 2.537-.672 3.384a5.492 5.492 0 0 1-1.824 2.04c-.768.512-1.648.928-2.64 1.248-.993.32-2.033.641-3.12.96a26.136 26.136 0 0 0-3.168 0c-1.121.064-2.177.08-3.168.048 0 1.984-.008 3.665-.024 5.04-.016 1.376-.04 2.552-.072 3.528-.032.977-.08 1.808-.144 2.496a19.517 19.517 0 0 1-.288 1.992c-.064.32-.144.544-.24.672a.732.732 0 0 1-.36.264c-.144.048-.304.064-.48.048a5.757 5.757 0 0 0-.552-.024c-.096 0-.208-.017-.336-.048-.128-.032-.24-.144-.336-.336-.096-.192-.192-.496-.288-.912-.096-.416-.176-1.008-.24-1.776a112.332 112.332 0 0 1-.216-5.136 598.05 598.05 0 0 1-.048-2.784 237.064 237.064 0 0 1-.024-3.792c0-1.536.007-3.384.024-5.544.016-2.16.04-4.776.072-7.848zm3.504 1.728l.048 9.264c.607-.096 1.344-.151 2.208-.168.864-.016 1.735-.04 2.616-.072.88-.031 1.704-.112 2.472-.24.768-.127 1.375-.368 1.824-.72 1.056-.896 1.696-1.927 1.92-3.096.223-1.168-.128-2.472-1.056-3.912a3.802 3.802 0 0 0-1.128-1.128 6.262 6.262 0 0 0-1.512-.72 8.633 8.633 0 0 0-1.68-.36 15.214 15.214 0 0 0-1.68-.096 8.58 8.58 0 0 0-3.504.72l-.528.528zm41.712 23.808c.063.192.097.32.097.384 0 .257-.097.528-.289.816a4.476 4.476 0 0 1-.672.792c-.256.24-.527.448-.816.624-.287.176-.544.264-.768.264-.32 0-.695-.392-1.128-1.176-.432-.784-.856-1.72-1.272-2.808a79.832 79.832 0 0 1-1.176-3.288 182.01 182.01 0 0 0-.888-2.616 192.585 192.585 0 0 0-1.392-3.936 68.549 68.549 0 0 0-1.536-3.84 40.888 40.888 0 0 0-1.752-3.552 22.748 22.748 0 0 0-2.04-3.072 2.336 2.336 0 0 1-.408-.408c-.08-.112-.232-.168-.456-.168-.353 0-.608.168-.768.504s-.353.616-.576.84a1446.936 1446.936 0 0 1-4.728 10.968 1340.894 1340.894 0 0 0-4.728 10.968c-.576 1.024-1.248 1.536-2.016 1.536-.384 0-.768-.12-1.152-.36-.384-.24-.576-.616-.576-1.128v-.336c.319-.511.72-1.32 1.2-2.424s1.015-2.376 1.608-3.816c.592-1.44 1.224-3 1.896-4.68s1.36-3.36 2.064-5.04c.704-1.68 1.408-3.304 2.112-4.872a74.9 74.9 0 0 1 2.016-4.176c.64-1.216 1.24-2.208 1.8-2.976.559-.768 1.047-1.184 1.464-1.248h.24c.607 0 1.256.36 1.944 1.08.688.72 1.399 1.688 2.136 2.904a43.41 43.41 0 0 1 2.184 4.152c.721 1.552 1.432 3.16 2.137 4.824a170.284 170.284 0 0 1 2.016 4.992c.639 1.664 1.23 3.192 1.775 4.584a155.696 155.696 0 0 0 1.44 3.576c.415.992.751 1.68 1.008 2.064v.048zm26.736 1.248c0 .353-.191.68-.575.984-.384.305-.753.456-1.104.456-.256 0-.496-.08-.72-.24a4.24 4.24 0 0 1-.647-.576 22.718 22.718 0 0 1-1.08-1.248 162.765 162.765 0 0 1-6.289-6.864 73.29 73.29 0 0 1-1.055-1.176c-.354-.4-.689-.808-1.009-1.224a26.55 26.55 0 0 0-3.168 0c-1.12.064-2.177.081-3.168.048-.032 3.584-.032 6.785 0 9.6s-.08 5.152-.336 7.008c-.064.64-.28 1.04-.647 1.2-.369.16-.762.256-1.176.288-.097 0-.217-.008-.361-.024-.144-.017-.271-.12-.383-.312-.113-.192-.225-.488-.336-.888-.113-.4-.201-.984-.265-1.752-.064-1.536-.104-3.24-.12-5.112a755.444 755.444 0 0 1-.023-6.648c0-2.592.007-5.6.023-9.024.016-3.424.023-7.456.023-12.096.289-.352.68-.648 1.177-.888.495-.24 1.032-.432 1.608-.576s1.159-.248 1.752-.312a15.068 15.068 0 0 1 1.607-.096c1.824 0 3.607.336 5.352 1.008a13.204 13.204 0 0 1 4.633 3.024c.735.736 1.264 1.528 1.584 2.376.319.848.48 1.816.48 2.904 0 .96-.152 1.792-.457 2.496a8.867 8.867 0 0 1-1.08 1.872 9.612 9.612 0 0 1-1.344 1.44c-.48.416-.896.8-1.248 1.152-.352.353-.6.68-.744.984-.144.305-.088.632.168.984.192.288.632.84 1.32 1.656.688.816 1.48 1.769 2.376 2.856a206.898 206.898 0 0 1 2.761 3.432 84.794 84.794 0 0 1 2.471 3.288zm-18.816-13.008a7.796 7.796 0 0 1 1.896-.264c.688-.016 1.369-.04 2.041-.072.672-.031 1.312-.12 1.92-.264.607-.144 1.104-.408 1.488-.792a14.42 14.42 0 0 0 2.016-1.92 8.4 8.4 0 0 0 1.392-2.184c.319-.751.433-1.52.336-2.304-.096-.784-.464-1.528-1.104-2.232-.736-.8-1.648-1.472-2.735-2.016-1.089-.543-2.177-.816-3.265-.816-1.247 0-2.416.24-3.504.72l-.527.72c.031.449.048.944.048 1.488v9.936zM232.37 1.824c0 1.024-.28 1.696-.84 2.016-.561.32-1.289.48-2.184.48-.833 0-1.617-.016-2.353-.048a12.654 12.654 0 0 0-1.944.048c-.56.064-1.008.208-1.344.432-.336.225-.521.593-.552 1.104v24.816c0 .32-.208.631-.624.936-.416.304-.736.456-.96.456-.448 0-.8-.088-1.056-.264-.257-.176-.449-.528-.576-1.056-.129-.528-.209-1.272-.24-2.232-.032-.96-.048-2.224-.048-3.792V9.888c0-1.375-.032-2.44-.097-3.192-.064-.751-.264-1.296-.6-1.632-.336-.336-.863-.528-1.584-.576-.72-.048-1.736-.072-3.048-.072-.288 0-.656-.016-1.104-.048a5.732 5.732 0 0 1-1.295-.24 2.84 2.84 0 0 1-1.08-.6c-.305-.271-.457-.632-.457-1.08 0-.192.072-.392.217-.6.144-.208.319-.408.527-.6.208-.192.424-.352.648-.48.224-.127.432-.192.624-.192h18.672c.159 0 .336.088.528.264.191.176.367.344.527.504v-.048c.064.064.112.12.145.168a.681.681 0 0 0 .096.12v.24zm8.832 28.752a.925.925 0 0 1-.192.552 1.7 1.7 0 0 1-.456.432c-.176.112-.344.2-.504.264-.16.064-.288.096-.384.096a1.6 1.6 0 0 1-.96-.312 3.277 3.277 0 0 1-.768-.792 302.77 302.77 0 0 1-.289-13.152c0-2.624-.023-5.256-.071-7.896-.048-2.64.007-5.32.168-8.04.031-.352.216-.624.552-.816s.632-.288.889-.288c.511 0 .99.192 1.439.576.447.384.672.848.672 1.392l-.096 27.984zM263.809.288c.352 0 .696.081 1.032.24.336.16.583.416.744.768-.032.64-.048 1.152-.048 1.536v1.632c0 1.056-.185 1.888-.553 2.496-.367.608-1.16.912-2.375.912-1.505 0-2.969.137-4.393.408-1.424.272-2.688.744-3.792 1.416s-2 1.56-2.688 2.664c-.688 1.104-1.031 2.456-1.031 4.056 0 2.304.863 4.161 2.592 5.568 1.729 1.408 4.176 2.224 7.344 2.448.703.064 1.416.176 2.137.336.72.161 1.352.393 1.896.696.544.304.991.704 1.345 1.2.352.497.527 1.112.527 1.848l-.096 2.976h-.049c-.064.256-.264.543-.6.864-.336.32-.76.48-1.271.48-.609 0-1.017-.256-1.225-.768-.209-.512-.312-.976-.312-1.392v-1.488c0-.352-.224-.616-.672-.792-.447-.175-1.039-.336-1.775-.48s-1.584-.295-2.544-.456c-.96-.16-1.944-.375-2.952-.648-1.008-.271-2-.648-2.977-1.128s-1.855-1.111-2.639-1.896c-.785-.784-1.434-1.759-1.945-2.928-.512-1.167-.815-2.568-.912-4.2-.064-1.28.064-2.616.385-4.008.319-1.392 1.023-2.68 2.111-3.864 1.088-1.184 2.664-2.176 4.729-2.976 2.064-.799 4.808-1.231 8.232-1.296l.144-1.44c0-.192.008-.448.024-.768.016-.319.072-.631.168-.936.096-.304.256-.56.479-.768.224-.207.544-.312.96-.312zm11.568 30.288a.92.92 0 0 1-.193.552 1.682 1.682 0 0 1-.455.432c-.176.112-.345.2-.504.264a1.11 1.11 0 0 1-.385.096c-.352 0-.672-.104-.959-.312a3.28 3.28 0 0 1-.769-.792 302.76 302.76 0 0 1-.288-13.152c0-2.624-.023-5.256-.072-7.896-.048-2.64.008-5.32.168-8.04.031-.352.217-.624.553-.816s.631-.288.888-.288c.511 0 .991.192 1.44.576.447.384.672.848.672 1.392l-.096 27.984zm5.711-27.456c.159-.16.318-.439.479-.84.159-.4.353-.68.576-.84h.048c0-.032.016-.048.048-.048A9.239 9.239 0 0 1 284.711.36c.912-.24 1.736-.36 2.473-.36 1.824 0 3.607.249 5.352.744 1.744.497 3.288 1.416 4.633 2.76.735.736 1.264 1.664 1.584 2.784.318 1.121.479 2.225.479 3.312 0 1.409-.224 2.537-.672 3.384a5.483 5.483 0 0 1-1.824 2.04c-.769.512-1.648.928-2.64 1.248-.992.32-2.033.641-3.12.96a26.136 26.136 0 0 0-3.168 0c-1.12.064-2.177.08-3.168.048 0 1.984-.009 3.665-.024 5.04-.016 1.376-.04 2.552-.072 3.528-.031.977-.08 1.808-.144 2.496a19.517 19.517 0 0 1-.288 1.992c-.064.32-.145.544-.24.672a.734.734 0 0 1-.359.264 1.174 1.174 0 0 1-.48.048 5.742 5.742 0 0 0-.552-.024c-.097 0-.208-.017-.336-.048-.128-.032-.24-.144-.336-.336-.097-.192-.192-.496-.288-.912-.096-.416-.176-1.008-.24-1.776a134.143 134.143 0 0 1-.145-2.712c-.031-.784-.056-1.591-.071-2.424a598.05 598.05 0 0 1-.048-2.784 238.57 238.57 0 0 1-.023-3.792c0-1.536.007-3.384.023-5.544.015-2.16.038-4.776.071-7.848zm3.504 1.728l.048 9.264c.607-.096 1.344-.151 2.208-.168.863-.016 1.735-.04 2.615-.072a19.15 19.15 0 0 0 2.473-.24c.768-.127 1.375-.368 1.824-.72 1.056-.896 1.695-1.927 1.92-3.096.223-1.168-.129-2.472-1.057-3.912a3.787 3.787 0 0 0-1.127-1.128 6.286 6.286 0 0 0-1.513-.72 8.627 8.627 0 0 0-1.681-.36 15.2 15.2 0 0 0-1.68-.096c-1.248 0-2.416.24-3.504.72l-.526.528zm41.712 23.808c.063.192.097.32.097.384 0 .257-.097.528-.289.816a4.476 4.476 0 0 1-.672.792c-.256.24-.527.448-.816.624-.287.176-.544.264-.768.264-.32 0-.695-.392-1.128-1.176-.432-.784-.856-1.72-1.272-2.808a79.832 79.832 0 0 1-1.176-3.288 182.01 182.01 0 0 0-.888-2.616A192.585 192.585 0 0 0 318 17.712c-.48-1.312-.992-2.592-1.536-3.84s-1.128-2.431-1.752-3.552a22.748 22.748 0 0 0-2.04-3.072 2.372 2.372 0 0 1-.408-.408c-.08-.112-.232-.168-.456-.168-.353 0-.608.168-.769.504s-.352.616-.575.84c-.737 1.728-1.505 3.521-2.304 5.376-.801 1.856-1.608 3.72-2.424 5.592a1489.586 1489.586 0 0 0-4.729 10.968c-.576 1.024-1.248 1.536-2.016 1.536-.385 0-.769-.12-1.152-.36-.385-.24-.576-.616-.576-1.128v-.336c.319-.511.721-1.32 1.2-2.424s1.015-2.376 1.608-3.816c.592-1.44 1.224-3 1.896-4.68s1.36-3.36 2.063-5.04c.704-1.68 1.408-3.304 2.112-4.872a74.861 74.861 0 0 1 2.017-4.176c.639-1.216 1.239-2.208 1.8-2.976.56-.768 1.048-1.184 1.464-1.248h.24c.607 0 1.256.36 1.943 1.08s1.4 1.688 2.137 2.904a43.638 43.638 0 0 1 2.184 4.152c.721 1.552 1.432 3.16 2.137 4.824a170.284 170.284 0 0 1 2.016 4.992c.639 1.664 1.23 3.192 1.775 4.584a155.696 155.696 0 0 0 1.44 3.576c.415.992.751 1.68 1.008 2.064v.048zM340.176.864c1.215.032 2.383.232 3.504.6 1.119.368 2.104.856 2.951 1.464a7.185 7.185 0 0 1 2.017 2.16c.495.833.728 1.728.696 2.688-.033 1.664-.408 3.008-1.129 4.032a9.192 9.192 0 0 1-2.64 2.52 15.753 15.753 0 0 1-3.312 1.584c-1.169.4-2.225.792-3.168 1.176-.945.384-1.688.833-2.232 1.344-.545.512-.721 1.2-.527 2.064.127.512.007.905-.361 1.176-.367.272-.8.424-1.295.456a2.491 2.491 0 0 1-1.369-.288c-.416-.224-.623-.56-.623-1.008.031-1.279.359-2.344.984-3.192a8.454 8.454 0 0 1 2.352-2.16 20.289 20.289 0 0 1 3.048-1.56 36.277 36.277 0 0 0 3.048-1.416c.943-.496 1.729-1.08 2.352-1.752.625-.672.937-1.519.937-2.544 0-.96-.232-1.744-.696-2.352a4.55 4.55 0 0 0-1.752-1.392c-.704-.32-1.488-.512-2.352-.576a12.912 12.912 0 0 0-2.496.048c-.801.096-1.504.257-2.112.48-.608.225-1.008.48-1.2.768a6.356 6.356 0 0 1-1.824.288c-.575 0-1-.12-1.271-.36-.271-.24-.328-.592-.168-1.056.16-.463.656-1.063 1.488-1.8.799-.384 1.72-.72 2.76-1.008 1.037-.288 2.502-.415 4.39-.384zM337.2 28.848c.064.641-.185 1.2-.744 1.68-.561.48-1.145.72-1.752.72-.353 0-.672-.087-.96-.264a2.298 2.298 0 0 1-.72-.696c-.192-.288-.344-.6-.456-.936s-.185-.648-.216-.936c.096-.288.199-.583.312-.888a4.51 4.51 0 0 1 .408-.84c.159-.255.368-.472.624-.648.256-.175.56-.264.912-.264.319 0 .648.104.984.312.336.208.631.464.888.768.255.305.456.632.6.984.143.353.184.689.12 1.008z" fill="#3B2858"/></svg>