<svg xmlns="http://www.w3.org/2000/svg" width="29.072" height="49.102" viewBox="0 0 29.072 49.102"><path d="M.039 1.259c.064-.064.128-.177.193-.339C.296.758.374.646.464.581h.019c0-.013.006-.019.02-.019.297-.181.63-.32.998-.416S2.201 0 2.499 0c.736 0 1.456.101 2.16.3a4.259 4.259 0 0 1 1.869 1.114c.297.297.51.671.639 1.124s.193.897.193 1.336c0 .568-.09 1.023-.271 1.365a2.202 2.202 0 0 1-.736.823c-.31.208-.665.376-1.065.504-.4.129-.82.258-1.259.387-.4-.026-.826-.026-1.278 0s-.878.032-1.278.02c0 .801-.003 1.479-.009 2.034-.007.555-.017 1.03-.029 1.423-.013.394-.032.729-.058 1.007s-.065.545-.116.804a.701.701 0 0 1-.097.271.297.297 0 0 1-.146.107.485.485 0 0 1-.193.019 2.652 2.652 0 0 0-.223-.01.552.552 0 0 1-.135-.019c-.052-.013-.097-.058-.136-.136s-.078-.2-.116-.368a5.34 5.34 0 0 1-.097-.716 50.488 50.488 0 0 1-.089-2.073C.022 8.981.016 8.606.01 8.193A93.53 93.53 0 0 1 0 6.663a716.661 716.661 0 0 1 .039-5.404zm1.414.698l.019 3.738c.245-.039.542-.062.891-.068s.7-.016 1.056-.029c.355-.013.688-.045.998-.097.309-.051.554-.148.735-.291.426-.361.684-.778.775-1.25.09-.47-.052-.996-.427-1.577a1.533 1.533 0 0 0-.455-.456 2.575 2.575 0 0 0-.61-.291c-.22-.07-.445-.118-.678-.144s-.458-.039-.677-.039c-.504 0-.975.097-1.414.291l-.213.213zm16.831 9.606a.675.675 0 0 1 .039.155c0 .104-.039.213-.116.329s-.168.223-.271.32a2.018 2.018 0 0 1-.33.252.613.613 0 0 1-.31.106c-.129 0-.281-.158-.456-.475s-.345-.694-.513-1.133a32.173 32.173 0 0 1-.475-1.327 97.819 97.819 0 0 0-.92-2.644c-.194-.529-.4-1.046-.62-1.55-.22-.503-.455-.981-.707-1.433a9.232 9.232 0 0 0-.823-1.24.935.935 0 0 1-.165-.165c-.032-.045-.094-.068-.184-.068-.142 0-.246.068-.31.204a1.207 1.207 0 0 1-.232.339 545.154 545.154 0 0 1-1.908 4.425l-.977 2.259c-.323.749-.633 1.472-.93 2.169-.232.413-.503.62-.813.62a.863.863 0 0 1-.465-.146c-.155-.097-.232-.248-.232-.455v-.135c.129-.207.291-.533.484-.979.193-.445.41-.958.649-1.54.239-.581.494-1.21.765-1.889.271-.676.549-1.354.833-2.032.284-.678.568-1.333.852-1.966.284-.632.555-1.194.813-1.685s.5-.891.727-1.201c.226-.31.423-.478.591-.504h.097c.245 0 .507.146.785.436.277.291.564.681.862 1.172.297.491.591 1.049.881 1.675a65.222 65.222 0 0 1 1.675 3.961c.258.671.497 1.288.717 1.85.219.562.413 1.043.581 1.443.167.4.303.678.407.833v.019zm10.788.504c0 .142-.078.274-.232.397-.155.123-.304.184-.445.184a.489.489 0 0 1-.291-.097 1.697 1.697 0 0 1-.262-.232 8.428 8.428 0 0 1-.435-.503 62.907 62.907 0 0 1-2.538-2.769 29.035 29.035 0 0 1-.426-.475 8.954 8.954 0 0 1-.407-.494 10.47 10.47 0 0 0-1.278 0 14.24 14.24 0 0 1-1.278.019 191.72 191.72 0 0 0 0 3.874c.013 1.136-.033 2.079-.136 2.828-.026.258-.113.419-.261.484a1.484 1.484 0 0 1-.475.116c-.039 0-.087-.003-.146-.01-.058-.007-.11-.048-.155-.126s-.09-.197-.136-.358-.081-.397-.106-.707a61.149 61.149 0 0 1-.048-2.062c-.007-.755-.01-1.649-.01-2.683 0-1.046.003-2.259.01-3.641.006-1.382.01-3.009.01-4.881.116-.142.274-.261.475-.358.2-.097.416-.174.648-.232s.468-.1.707-.126.455-.039.649-.039c.736 0 1.456.136 2.16.407a5.322 5.322 0 0 1 1.869 1.22c.297.297.51.617.639.959.129.342.193.733.193 1.172 0 .387-.061.723-.184 1.007a3.599 3.599 0 0 1-.436.755c-.168.22-.349.413-.542.581-.193.168-.361.323-.503.465s-.242.274-.3.397-.036.255.068.397c.078.116.255.339.533.668.277.33.597.714.958 1.153s.733.9 1.114 1.385c.381.482.713.925.997 1.325zM21.48 6.818c.232-.064.487-.1.765-.106.277-.006.552-.016.823-.029.271-.013.529-.049.775-.107.245-.058.445-.165.601-.319.297-.232.568-.491.813-.775.245-.284.432-.578.562-.881.129-.303.174-.613.136-.93-.039-.316-.188-.616-.446-.9-.297-.323-.665-.594-1.104-.813s-.878-.33-1.317-.33c-.503 0-.975.097-1.414.291l-.214.289c.013.181.02.381.02.601v4.009zM8.909 17.588c0 .413-.113.685-.339.813s-.52.193-.881.193c-.336 0-.652-.006-.949-.019a5.16 5.16 0 0 0-.785.019 1.224 1.224 0 0 0-.542.174c-.136.091-.21.239-.223.446v10.014c0 .129-.084.255-.251.377-.168.123-.297.184-.388.184-.181 0-.323-.036-.426-.106-.104-.071-.181-.213-.232-.426a4.675 4.675 0 0 1-.097-.9 47.953 47.953 0 0 1-.019-1.53v-5.985c0-.555-.013-.984-.039-1.288-.026-.303-.106-.523-.242-.659-.136-.135-.349-.213-.639-.232a20.083 20.083 0 0 0-1.23-.029c-.116 0-.265-.006-.446-.02-.181-.012-.355-.045-.523-.096s-.313-.132-.436-.242a.554.554 0 0 1-.184-.436c0-.077.029-.158.087-.242s.129-.165.213-.242c.084-.078.171-.142.261-.194a.52.52 0 0 1 .252-.078h7.534c.064 0 .136.036.213.107.077.071.148.139.213.203v-.02a.492.492 0 0 1 .058.068c.013.02.026.036.039.048v.098zm3.564 11.601a.377.377 0 0 1-.077.223.694.694 0 0 1-.184.175 1.25 1.25 0 0 1-.204.106.463.463 0 0 1-.155.039c-.142 0-.271-.042-.387-.126s-.22-.19-.31-.319a121.343 121.343 0 0 1-.116-5.307c0-1.059-.01-2.121-.029-3.186-.02-1.065.003-2.147.067-3.245a.408.408 0 0 1 .223-.329.734.734 0 0 1 .358-.116c.207 0 .4.078.581.232s.271.342.271.562l-.038 11.291zm9.123-12.221c.142 0 .281.033.417.097s.235.168.3.31c-.013.259-.02.465-.02.62v.658c0 .426-.074.762-.223 1.007-.148.246-.468.368-.959.368-.607 0-1.198.055-1.772.165a4.57 4.57 0 0 0-1.53.571 3.248 3.248 0 0 0-1.084 1.075c-.278.445-.417.991-.417 1.637 0 .93.349 1.679 1.046 2.247.697.568 1.685.897 2.963.988.284.026.571.071.862.136s.545.158.765.281c.219.123.4.284.542.484.142.201.213.449.213.746l-.039 1.201h-.02c-.026.103-.106.219-.242.349a.715.715 0 0 1-.513.194c-.246 0-.41-.104-.494-.31a1.512 1.512 0 0 1-.126-.562v-.601c0-.142-.091-.249-.271-.32a4.245 4.245 0 0 0-.716-.193 39.455 39.455 0 0 0-1.027-.184 12.205 12.205 0 0 1-1.191-.262 6.553 6.553 0 0 1-1.201-.455 3.947 3.947 0 0 1-1.065-.765c-.316-.316-.578-.71-.785-1.181s-.329-1.036-.368-1.695a5.85 5.85 0 0 1 .155-1.617c.129-.562.413-1.082.852-1.559.439-.478 1.075-.878 1.908-1.201.833-.323 1.939-.497 3.321-.523l.058-.581a5.9 5.9 0 0 1 .01-.31c.006-.129.029-.254.068-.377a.7.7 0 0 1 .194-.31c.091-.086.221-.128.389-.128zm4.667 12.221a.377.377 0 0 1-.077.223.694.694 0 0 1-.184.175 1.25 1.25 0 0 1-.204.106.463.463 0 0 1-.155.039c-.142 0-.271-.042-.387-.126s-.22-.19-.31-.319a121.343 121.343 0 0 1-.116-5.307c0-1.059-.01-2.121-.029-3.186-.02-1.065.003-2.147.067-3.245a.408.408 0 0 1 .223-.329.734.734 0 0 1 .358-.116c.207 0 .4.078.581.232s.271.342.271.562l-.038 11.291zM.039 34.963c.064-.064.129-.177.194-.339.064-.162.142-.274.232-.339h.019c0-.013.006-.019.02-.019.297-.181.629-.32.998-.417s.7-.146.998-.146c.736 0 1.456.101 2.16.3a4.259 4.259 0 0 1 1.869 1.114c.297.297.51.671.639 1.124s.194.897.194 1.336c0 .568-.09 1.023-.271 1.365a2.21 2.21 0 0 1-.736.823c-.31.207-.665.375-1.065.504-.4.129-.82.258-1.259.387-.4-.026-.826-.026-1.278 0s-.878.032-1.278.02c0 .801-.003 1.479-.009 2.034-.007.555-.017 1.03-.029 1.423-.013.394-.032.729-.058 1.007s-.065.545-.116.804a.701.701 0 0 1-.097.271.297.297 0 0 1-.146.107.485.485 0 0 1-.193.019 2.652 2.652 0 0 0-.223-.01.552.552 0 0 1-.135-.019c-.052-.013-.097-.058-.136-.136s-.078-.2-.116-.368a5.34 5.34 0 0 1-.097-.716 42.037 42.037 0 0 1-.087-2.073l-.019-1.123A60.403 60.403 0 0 1 0 40.367a716.661 716.661 0 0 1 .039-5.404zm1.414.697l.019 3.738c.245-.039.542-.062.891-.068s.7-.016 1.056-.029c.355-.013.688-.045.998-.097.31-.051.555-.148.736-.291.426-.361.684-.778.775-1.25.09-.471-.052-.997-.426-1.578a1.533 1.533 0 0 0-.455-.456 2.575 2.575 0 0 0-.61-.291c-.22-.071-.445-.119-.678-.145s-.458-.039-.678-.039c-.504 0-.975.097-1.414.291l-.214.215zm16.831 9.607a.675.675 0 0 1 .039.155c0 .104-.039.213-.116.329s-.168.223-.271.32a2.018 2.018 0 0 1-.33.252.613.613 0 0 1-.31.106c-.129 0-.281-.158-.456-.475s-.345-.694-.513-1.133a32.173 32.173 0 0 1-.475-1.327 97.819 97.819 0 0 0-.92-2.644c-.194-.529-.4-1.046-.62-1.55-.22-.503-.455-.981-.707-1.433a9.232 9.232 0 0 0-.823-1.24.935.935 0 0 1-.165-.165c-.032-.045-.094-.068-.184-.068-.142 0-.246.068-.31.204a1.207 1.207 0 0 1-.232.339 545.154 545.154 0 0 1-1.908 4.425 740.72 740.72 0 0 0-1.908 4.425c-.232.413-.503.62-.813.62a.863.863 0 0 1-.465-.146c-.155-.097-.232-.248-.232-.455v-.135c.129-.207.291-.533.484-.979.193-.445.41-.958.649-1.54.239-.581.494-1.21.765-1.889.271-.678.549-1.355.833-2.034.284-.678.568-1.333.852-1.966.284-.632.555-1.194.813-1.685s.5-.891.727-1.201c.226-.31.423-.478.591-.504h.097c.245 0 .507.146.785.436.277.291.564.681.862 1.172.297.491.591 1.049.881 1.675a65.222 65.222 0 0 1 1.675 3.961c.258.671.497 1.288.717 1.85.219.562.413 1.043.581 1.443.167.4.303.678.407.833v.024zm10.788.504c0 .142-.078.274-.232.397-.155.123-.304.184-.445.184a.489.489 0 0 1-.291-.097 1.697 1.697 0 0 1-.262-.232 8.428 8.428 0 0 1-.435-.503 62.907 62.907 0 0 1-2.538-2.769 29.035 29.035 0 0 1-.426-.475 8.954 8.954 0 0 1-.407-.494 10.47 10.47 0 0 0-1.278 0 14.24 14.24 0 0 1-1.278.019 191.72 191.72 0 0 0 0 3.874c.013 1.136-.033 2.079-.136 2.828-.026.258-.113.419-.261.484a1.484 1.484 0 0 1-.475.116c-.039 0-.087-.003-.146-.01-.058-.007-.11-.048-.155-.126s-.09-.197-.136-.358-.081-.397-.106-.707a61.149 61.149 0 0 1-.048-2.062c-.007-.755-.01-1.649-.01-2.683 0-1.046.003-2.259.01-3.641.006-1.382.01-3.009.01-4.881.116-.142.274-.261.475-.358.2-.097.416-.174.648-.232s.468-.1.707-.126.455-.039.649-.039c.736 0 1.456.136 2.16.407a5.322 5.322 0 0 1 1.869 1.22c.297.297.51.617.639.959.129.342.193.733.193 1.172 0 .387-.061.723-.184 1.007a3.599 3.599 0 0 1-.436.755c-.168.22-.349.413-.542.581-.193.168-.361.323-.503.465s-.242.274-.3.397-.036.255.068.397c.078.116.255.339.533.668.277.33.597.714.958 1.153s.733.9 1.114 1.385c.381.482.713.925.997 1.325zm-7.592-5.25c.232-.064.487-.1.765-.106.277-.006.552-.016.823-.029.271-.013.529-.049.775-.107.245-.058.445-.165.601-.319.297-.232.568-.491.813-.775.245-.284.432-.578.562-.881.129-.303.174-.613.136-.93-.039-.316-.188-.616-.446-.9-.297-.323-.665-.594-1.104-.813s-.878-.33-1.317-.33c-.503 0-.975.097-1.414.291l-.213.291c.013.181.02.381.02.601v4.007z" fill="#7151A2"/></svg>