<svg xmlns="http://www.w3.org/2000/svg" width="310.289" height="57.24" viewBox="0 0 310.289 57.24"><path d="M.126 4.68c.239-.24.479-.659.72-1.26.24-.6.528-1.02.864-1.26h.072c0-.047.024-.072.072-.072C2.958 1.416 4.194.9 5.562.54 6.93.18 8.165 0 9.27 0c2.736 0 5.411.372 8.028 1.116 2.616.745 4.932 2.124 6.948 4.14 1.104 1.104 1.896 2.496 2.376 4.176.479 1.681.72 3.337.72 4.968 0 2.113-.336 3.805-1.008 5.076-.673 1.272-1.584 2.293-2.736 3.06-1.152.769-2.473 1.393-3.96 1.872-1.488.48-3.049.961-4.68 1.44a39.205 39.205 0 0 0-4.752 0 52.61 52.61 0 0 1-4.752.072c0 2.977-.012 5.497-.036 7.56a270.807 270.807 0 0 1-.108 5.292 65.738 65.738 0 0 1-.216 3.744 29.374 29.374 0 0 1-.432 2.988c-.097.48-.216.816-.36 1.008a1.099 1.099 0 0 1-.54.396 1.758 1.758 0 0 1-.72.072 8.816 8.816 0 0 0-.828-.036 2.16 2.16 0 0 1-.504-.072c-.192-.048-.36-.216-.504-.504C1.062 46.08.918 45.624.774 45c-.144-.624-.265-1.512-.36-2.664a178.57 178.57 0 0 1-.216-4.068 168.402 168.402 0 0 1-.108-3.636 969.442 969.442 0 0 1-.072-4.176 374.088 374.088 0 0 1-.036-5.688c0-2.304.011-5.076.036-8.316.024-3.24.06-7.164.108-11.772zm5.256 2.592l.072 13.896c.912-.144 2.016-.228 3.312-.252a220.16 220.16 0 0 0 3.924-.108 28.657 28.657 0 0 0 3.708-.36c1.152-.191 2.063-.551 2.736-1.08 1.584-1.343 2.543-2.891 2.88-4.644.335-1.751-.192-3.708-1.584-5.868a5.71 5.71 0 0 0-1.692-1.692 9.43 9.43 0 0 0-2.268-1.08 12.82 12.82 0 0 0-2.52-.54 22.822 22.822 0 0 0-2.52-.144c-1.872 0-3.625.36-5.256 1.08l-.792.792zM67.95 42.984c.095.288.144.48.144.576 0 .385-.144.792-.432 1.224s-.625.828-1.008 1.188c-.385.36-.792.673-1.224.936-.432.263-.817.396-1.152.396-.48 0-1.044-.587-1.692-1.764-.648-1.176-1.285-2.58-1.908-4.212a117.119 117.119 0 0 1-1.764-4.932 313.993 313.993 0 0 0-1.332-3.924 299.53 299.53 0 0 0-2.088-5.904 103.594 103.594 0 0 0-2.304-5.76 61.548 61.548 0 0 0-2.628-5.328 34.28 34.28 0 0 0-3.06-4.608c-.288-.239-.493-.443-.612-.612-.121-.167-.349-.252-.684-.252-.529 0-.913.252-1.152.756a4.52 4.52 0 0 1-.864 1.26 2123.217 2123.217 0 0 1-7.092 16.452 2143.906 2143.906 0 0 0-7.092 16.452c-.864 1.537-1.872 2.304-3.024 2.304-.576 0-1.152-.18-1.728-.54-.576-.36-.864-.924-.864-1.692v-.504c.479-.767 1.08-1.98 1.8-3.636a320.42 320.42 0 0 0 2.412-5.724c.888-2.16 1.836-4.5 2.844-7.02 1.008-2.52 2.04-5.04 3.096-7.56a312.151 312.151 0 0 1 3.168-7.308 111.321 111.321 0 0 1 3.024-6.264c.96-1.824 1.86-3.312 2.7-4.464.839-1.152 1.571-1.775 2.196-1.872h.36c.912 0 1.883.54 2.916 1.62 1.032 1.08 2.1 2.533 3.204 4.356 1.104 1.825 2.196 3.9 3.276 6.228a234.122 234.122 0 0 1 3.204 7.236 250.494 250.494 0 0 1 3.024 7.488 1341.6 1341.6 0 0 0 2.664 6.876 238.66 238.66 0 0 0 2.16 5.364c.623 1.488 1.127 2.52 1.512 3.096v.072zm40.104 1.872c0 .529-.288 1.02-.864 1.476-.576.457-1.128.684-1.656.684a1.82 1.82 0 0 1-1.08-.36 6.386 6.386 0 0 1-.972-.864 31.516 31.516 0 0 1-.9-1.008 30.822 30.822 0 0 1-.72-.864 239.776 239.776 0 0 1-9.432-10.296 111.662 111.662 0 0 1-1.584-1.764 35.024 35.024 0 0 1-1.512-1.836 39.205 39.205 0 0 0-4.752 0 52.98 52.98 0 0 1-4.752.072 717.422 717.422 0 0 0 0 14.4c.047 4.224-.12 7.728-.504 10.512-.097.959-.421 1.559-.972 1.8a5.444 5.444 0 0 1-1.764.432c-.144 0-.324-.012-.54-.036-.216-.024-.408-.18-.576-.468-.168-.288-.336-.732-.504-1.332-.169-.601-.3-1.476-.396-2.628a230.69 230.69 0 0 1-.18-7.668c-.024-2.808-.036-6.131-.036-9.972 0-3.888.011-8.399.036-13.536.024-5.135.036-11.184.036-18.144.432-.527 1.02-.972 1.764-1.332.744-.36 1.548-.648 2.412-.864a19.565 19.565 0 0 1 2.628-.468 22.628 22.628 0 0 1 2.412-.144c2.736 0 5.411.504 8.028 1.512a19.8 19.8 0 0 1 6.948 4.536c1.104 1.105 1.896 2.293 2.376 3.564.479 1.272.72 2.725.72 4.356 0 1.44-.229 2.689-.684 3.744a13.322 13.322 0 0 1-1.62 2.808 14.448 14.448 0 0 1-2.016 2.16 36.606 36.606 0 0 0-1.872 1.728c-.529.529-.9 1.021-1.116 1.476-.216.457-.133.948.252 1.476.288.432.947 1.26 1.98 2.484a503.88 503.88 0 0 1 3.564 4.284 300.47 300.47 0 0 1 4.14 5.148c1.415 1.8 2.652 3.445 3.708 4.932zM79.83 25.344c.864-.24 1.812-.371 2.844-.396 1.032-.023 2.052-.06 3.06-.108a15.647 15.647 0 0 0 2.88-.396c.911-.216 1.656-.612 2.232-1.188a21.466 21.466 0 0 0 3.024-2.88c.911-1.056 1.608-2.148 2.088-3.276a6.636 6.636 0 0 0 .504-3.456c-.144-1.176-.697-2.292-1.656-3.348-1.104-1.199-2.473-2.208-4.104-3.024-1.632-.816-3.265-1.224-4.896-1.224-1.872 0-3.625.36-5.256 1.08l-.792 1.08c.047.672.072 1.416.072 2.232v14.904zM134.694.432c.527 0 1.044.121 1.548.36a2.28 2.28 0 0 1 1.116 1.152 48.495 48.495 0 0 0-.072 2.304v2.448c0 1.584-.277 2.833-.828 3.744-.553.912-1.741 1.368-3.564 1.368-2.256 0-4.453.205-6.588.612-2.136.408-4.032 1.116-5.688 2.124a12.11 12.11 0 0 0-4.032 3.996c-1.033 1.656-1.548 3.684-1.548 6.084 0 3.456 1.296 6.24 3.888 8.352 2.592 2.113 6.264 3.337 11.016 3.672 1.055.097 2.124.264 3.204.504 1.08.241 2.027.588 2.844 1.044a6.094 6.094 0 0 1 2.016 1.8c.527.745.792 1.668.792 2.772l-.144 4.464h-.072c-.097.383-.396.815-.9 1.296-.504.479-1.141.72-1.908.72-.913 0-1.524-.385-1.836-1.152-.313-.768-.468-1.463-.468-2.088v-2.232c0-.528-.336-.924-1.008-1.188-.673-.263-1.561-.504-2.664-.72a144.625 144.625 0 0 0-3.816-.684 45.5 45.5 0 0 1-4.428-.972c-1.512-.407-3-.972-4.464-1.692a14.764 14.764 0 0 1-3.96-2.844c-1.177-1.176-2.149-2.639-2.916-4.392-.769-1.751-1.224-3.852-1.368-6.3-.097-1.919.096-3.924.576-6.012.479-2.088 1.536-4.02 3.168-5.796 1.631-1.775 3.996-3.264 7.092-4.464 3.096-1.199 7.211-1.847 12.348-1.944l.216-2.16c0-.288.011-.672.036-1.152.023-.479.108-.947.252-1.404.144-.456.384-.839.72-1.152.335-.312.816-.468 1.44-.468zm39.528 43.776c0 .624-.277 1.2-.828 1.728-.552.528-1.141.792-1.764.792l-13.032.072c-4.225 0-7.261-.119-9.108-.36-1.849-.24-2.772-1.032-2.772-2.376 0-1.68.648-3.359 1.944-5.04a49.446 49.446 0 0 1 4.464-5.004 986.94 986.94 0 0 0 5.04-5.004c1.68-1.68 2.88-3.384 3.6-5.112-.097-.335-.277-.731-.54-1.188-.264-.456-.828-1.235-1.692-2.34-.864-1.104-2.172-2.688-3.924-4.752a5381.63 5381.63 0 0 0-7.236-8.496c-.241-.24-.432-.672-.576-1.296-.144-.624-.216-1.104-.216-1.44 0-.527.072-.947.216-1.26.144-.312.324-.563.54-.756.216-.191.479-.372.792-.54.312-.168.66-.396 1.044-.684l21.6.072c.528.336 1.02.637 1.476.9.456.264.78.756.972 1.476-.192.72-.444 1.272-.756 1.656-.313.385-.781.66-1.404.828-.625.168-1.44.276-2.448.324a80.978 80.978 0 0 1-3.744.072c-1.92 0-3.648.036-5.184.108-1.537.072-2.833.229-3.888.468h.072c-.241.097-.408.313-.504.648-.097.336-.121.601-.072.792.047.385.432.984 1.152 1.8.72.817 1.584 1.74 2.592 2.772a162.148 162.148 0 0 1 3.168 3.348c1.104 1.2 2.04 2.376 2.808 3.528.767 1.152 1.296 2.232 1.584 3.24.288 1.008.144 1.849-.432 2.52a92.44 92.44 0 0 1-2.196 2.7c-.984 1.177-2.052 2.412-3.204 3.708s-2.28 2.545-3.384 3.744c-1.105 1.2-2.016 2.113-2.736 2.736-.048.048-.072.097-.072.144v.216c0 .336.096.709.288 1.116.191.408.479.708.864.9 1.152.097 2.495.144 4.032.144h8.28c1.104 0 1.775.025 2.016.072l-.072-.072c.816.241 1.56.565 2.232.972.671.408 1.008 1.116 1.008 2.124zm13.246 1.656c0 .288-.097.565-.288.828a2.55 2.55 0 0 1-.684.648 4.859 4.859 0 0 1-.756.396c-.241.096-.432.144-.576.144a2.4 2.4 0 0 1-1.44-.468 4.924 4.924 0 0 1-1.152-1.188 454.107 454.107 0 0 1-.432-19.728c0-3.935-.036-7.884-.108-11.844-.072-3.96.012-7.979.252-12.06.047-.528.324-.936.828-1.224.504-.288.947-.432 1.332-.432.768 0 1.487.288 2.16.864.671.576 1.008 1.272 1.008 2.088l-.144 41.976zm42.264-1.008c0 .529-.288 1.02-.864 1.476-.576.457-1.128.684-1.656.684a1.82 1.82 0 0 1-1.08-.36 6.386 6.386 0 0 1-.972-.864 31.516 31.516 0 0 1-.9-1.008 30.822 30.822 0 0 1-.72-.864 239.776 239.776 0 0 1-9.432-10.296 111.662 111.662 0 0 1-1.584-1.764 35.024 35.024 0 0 1-1.512-1.836 39.205 39.205 0 0 0-4.752 0 52.98 52.98 0 0 1-4.752.072 717.422 717.422 0 0 0 0 14.4c.047 4.224-.12 7.728-.504 10.512-.097.959-.421 1.559-.972 1.8a5.444 5.444 0 0 1-1.764.432c-.144 0-.324-.012-.54-.036-.216-.024-.408-.18-.576-.468-.168-.288-.336-.732-.504-1.332-.169-.601-.3-1.476-.396-2.628a230.69 230.69 0 0 1-.18-7.668c-.024-2.808-.036-6.131-.036-9.972 0-3.888.011-8.399.036-13.536.024-5.135.036-11.184.036-18.144.432-.527 1.02-.972 1.764-1.332.744-.36 1.548-.648 2.412-.864a19.565 19.565 0 0 1 2.628-.468 22.628 22.628 0 0 1 2.412-.144c2.736 0 5.411.504 8.028 1.512a19.8 19.8 0 0 1 6.948 4.536c1.104 1.105 1.896 2.293 2.376 3.564.479 1.272.72 2.725.72 4.356 0 1.44-.229 2.689-.684 3.744a13.322 13.322 0 0 1-1.62 2.808 14.448 14.448 0 0 1-2.016 2.16 36.606 36.606 0 0 0-1.872 1.728c-.529.529-.9 1.021-1.116 1.476-.216.457-.133.948.252 1.476.288.432.947 1.26 1.98 2.484a503.88 503.88 0 0 1 3.564 4.284 300.47 300.47 0 0 1 4.14 5.148c1.415 1.8 2.652 3.445 3.708 4.932zm-28.224-19.512c.864-.24 1.812-.371 2.844-.396 1.032-.023 2.052-.06 3.06-.108a15.647 15.647 0 0 0 2.88-.396c.911-.216 1.656-.612 2.232-1.188a21.466 21.466 0 0 0 3.024-2.88c.911-1.056 1.608-2.148 2.088-3.276a6.636 6.636 0 0 0 .504-3.456c-.144-1.176-.697-2.292-1.656-3.348-1.104-1.199-2.473-2.208-4.104-3.024-1.632-.816-3.265-1.224-4.896-1.224-1.872 0-3.625.36-5.256 1.08l-.792 1.08c.047.672.072 1.416.072 2.232v14.904zM255.365.648c1.537 0 3.156.18 4.861.54 1.703.36 3.42.948 5.146 1.764a1.86 1.86 0 0 0 1.189-.432c.359-.288.684-.6.971-.936.289-.335.576-.648.865-.936.287-.288.6-.432.936-.432.672 0 1.176.072 1.512.216s.576.324.721.54c.143.216.215.444.215.684v.576c0 .241-.096.54-.287.9-.193.36-.422.745-.684 1.152a9.042 9.042 0 0 0-.686 1.26c-.191.432-.287.816-.287 1.152.863.864 1.668 2.005 2.412 3.42a32.562 32.562 0 0 1 1.908 4.392 37.977 37.977 0 0 1 1.26 4.428c.312 1.44.469 2.617.469 3.528.047 4.8-.625 8.772-2.018 11.916-1.393 3.145-3.096 5.628-5.111 7.452-2.016 1.825-4.176 3.096-6.48 3.816-2.303.72-4.344 1.08-6.12 1.08a37.511 37.511 0 0 1-5.292-.504 18.76 18.76 0 0 1-4.86-1.512 1.846 1.846 0 0 1-.504-.288 13.513 13.513 0 0 0-.612-.432 18.434 18.434 0 0 1-.576-.396c-.169-.119-.277-.155-.324-.108a9.5 9.5 0 0 0-2.484 1.188c-.745.504-1.861 1.165-3.348 1.98-.144-.24-.3-.371-.468-.396a2.568 2.568 0 0 1-.468-.108.875.875 0 0 1-.36-.216c-.097-.096-.144-.335-.144-.72 0-.096.12-.443.36-1.044.239-.6.504-1.235.792-1.908.288-.671.551-1.296.792-1.872.239-.576.36-.911.36-1.008-1.872-2.736-3.216-5.436-4.032-8.1a27.273 27.273 0 0 1-1.224-8.028c0-3.12.551-6.048 1.656-8.784 1.104-2.736 2.616-5.136 4.536-7.2 1.919-2.063 4.2-3.684 6.84-4.86 2.639-1.176 5.495-1.764 8.568-1.764zm-1.512 5.328c-2.208 0-4.225.576-6.048 1.728-1.825 1.152-3.384 2.641-4.68 4.464-1.296 1.825-2.304 3.864-3.024 6.12-.72 2.257-1.08 4.489-1.08 6.696 0 .529.119 1.393.36 2.592.24 1.201.551 2.412.936 3.636.384 1.224.839 2.316 1.368 3.276.527.961 1.08 1.44 1.656 1.44.288 0 .636-.155 1.044-.468.407-.312.828-.648 1.26-1.008.432-.36.864-.695 1.296-1.008.432-.312.839-.468 1.224-.468.384 0 .684.108.9.324s.324.66.324 1.332c0 .288-.072.625-.216 1.008-.144.385-.312.781-.504 1.188-.192.409-.36.805-.504 1.188-.144.385-.241.72-.288 1.008 2.063 1.584 4.32 2.329 6.768 2.232 1.824-.047 3.684-.371 5.581-.972a15.17 15.17 0 0 0 5.146-2.808c1.537-1.271 2.773-2.916 3.709-4.932.936-2.016 1.355-4.464 1.26-7.344.096-2.304-.049-4.308-.432-6.012-.385-1.704-.854-3.107-1.404-4.212-.553-1.104-1.115-1.919-1.691-2.448-.576-.528-1.008-.792-1.297-.792-.432 0-.84.084-1.223.252a6.758 6.758 0 0 0-1.01.54 7.227 7.227 0 0 0-.756.576c-.215.192-.371.312-.467.36a4.417 4.417 0 0 0-.828.54c-.266.216-.518.336-.756.36-.242.025-.48-.096-.721-.36-.24-.263-.457-.803-.648-1.62 0-.335.109-.744.324-1.224.217-.479.443-.947.684-1.404.24-.456.469-.888.686-1.296.215-.407.322-.731.322-.972v-.144c-1.248-.671-2.508-1.067-3.779-1.188a37.785 37.785 0 0 0-3.492-.18zm48.168 10.944c.145.097.36.408.648.936.288.529.384 1.344.288 2.448l-2.16 3.168a45.025 45.025 0 0 1 3.636 2.34 19.153 19.153 0 0 1 3.097 2.736 11.532 11.532 0 0 1 2.088 3.276c.504 1.201.731 2.52.684 3.96-.144 3.697-1.548 6.564-4.212 8.604-2.664 2.041-6.516 3.06-11.556 3.06-1.104 0-2.113-.108-3.024-.324a18.635 18.635 0 0 1-2.556-.792 21.884 21.884 0 0 1-2.269-1.044 46.22 46.22 0 0 0-2.159-1.08 17.552 17.552 0 0 1-.792-1.224c-.288-.479-.409-.947-.36-1.404.047-.456.348-.852.9-1.188.551-.335 1.571-.551 3.06-.648 1.248.673 2.472 1.177 3.672 1.512 1.199.336 2.711.504 4.536.504 2.64 0 4.824-.576 6.552-1.728 1.729-1.152 2.64-2.736 2.736-4.752.047-1.487-.624-2.795-2.016-3.924-1.394-1.127-3.121-2.22-5.185-3.276a60.137 60.137 0 0 0-1.836 2.196c-.553.696-1.08 1.272-1.584 1.728-.504.457-.972.745-1.404.864-.432.121-.863.013-1.296-.324-.192-.144-.385-.372-.576-.684a6.677 6.677 0 0 1-.504-1.008 3.5 3.5 0 0 1-.252-1.08c-.024-.36.036-.636.181-.828l2.088-3.528a45.476 45.476 0 0 1-3.96-2.448 18.726 18.726 0 0 1-3.349-2.952 12.622 12.622 0 0 1-2.304-3.708c-.553-1.368-.781-2.916-.684-4.644a8.07 8.07 0 0 1 1.224-4.032c.768-1.248 1.775-2.328 3.024-3.24 1.247-.911 2.688-1.644 4.319-2.196a17.554 17.554 0 0 1 5.185-.9c1.392-.047 2.628-.011 3.708.108 1.08.121 2.039.277 2.88.468a16.13 16.13 0 0 1 2.268.684c.672.265 1.296.54 1.872.828 1.248 1.105 1.991 2.005 2.232 2.7.239.696.155 1.224-.252 1.584-.409.36-1.069.54-1.98.54a8.818 8.818 0 0 1-2.664-.432c-.336-.432-.948-.816-1.836-1.152-.889-.335-1.908-.576-3.06-.72a18.313 18.313 0 0 0-3.637-.072c-1.272.097-2.447.385-3.527.864a7.025 7.025 0 0 0-2.7 2.088c-.72.913-1.104 2.088-1.152 3.528a4.74 4.74 0 0 0 .54 2.52c.407.768.96 1.488 1.656 2.16a16.32 16.32 0 0 0 2.484 1.944 37.218 37.218 0 0 0 3.096 1.8l3.168-4.032c.384-.239.9-.335 1.548-.288.648.048 1.14.216 1.476.504z" fill="#22612C"/></svg>