<svg xmlns="http://www.w3.org/2000/svg" width="486.084" height="349.216" viewBox="0 0 486.084 349.216"><path d="M42.66 44.226c-.252.693-.735 1.208-1.449 1.543-.715.335-1.429.378-2.142.126-.715-.252-1.239-.734-1.575-1.449l-4.977-10.71H19.854c-.798 0-1.46-.262-1.985-.787-.525-.525-.788-1.187-.788-1.985 0-.756.262-1.407.788-1.953.525-.545 1.187-.819 1.985-.819h10.017l-8.82-18.9L5.49 44.383c-.252.546-.609.956-1.071 1.229-.463.274-.967.41-1.512.41-.378 0-.756-.063-1.134-.189-.715-.336-1.208-.86-1.48-1.575-.273-.713-.241-1.427.094-2.142L18.468 1.48A2.539 2.539 0 0 1 19.476.283a2.77 2.77 0 0 1 1.512-.441c.545 0 1.049.137 1.512.41.461.274.797.662 1.008 1.166l19.026 40.698c.336.714.378 1.417.126 2.11zm43.217 2.11c-1.219 0-2.3-.168-3.245-.504-.945-.336-1.943-1.112-2.993-2.331-.462-.504-1.082-1.333-1.858-2.488a691.356 691.356 0 0 0-2.803-4.126 261.47 261.47 0 0 0-1.607-2.268 29.66 29.66 0 0 1-1.039-1.512l-.252-.378c-.546-.714-1.029-1.229-1.449-1.543-.42-.315-1.113-.473-2.079-.473a2.84 2.84 0 0 1-2.047-.819c-.567-.545-.851-1.218-.851-2.016 0-.797.284-1.48.851-2.047s1.249-.851 2.047-.851a9.371 9.371 0 0 0 3.812-.788 10.11 10.11 0 0 0 3.119-2.11 10.203 10.203 0 0 0 2.11-3.087 9.163 9.163 0 0 0 .788-3.78 9.391 9.391 0 0 0-.788-3.812 10.11 10.11 0 0 0-2.11-3.118 10.112 10.112 0 0 0-3.119-2.111 9.404 9.404 0 0 0-3.812-.787h-13.23v38.115c0 .798-.273 1.471-.819 2.016-.546.545-1.219.819-2.016.819-.798 0-1.48-.273-2.047-.819s-.851-1.218-.851-2.016V2.488c0-.797.284-1.469.851-2.016a2.849 2.849 0 0 1 2.047-.819h16.065c2.142 0 4.158.41 6.048 1.229a15.838 15.838 0 0 1 4.946 3.339c1.407 1.407 2.52 3.055 3.339 4.945s1.229 3.906 1.229 6.048c0 2.898-.725 5.534-2.173 7.907-1.449 2.373-3.371 4.232-5.765 5.575.126.168.272.378.441.63l.252.315c.293.378.693.924 1.197 1.638a115.87 115.87 0 0 1 1.638 2.394c.378.546.777 1.134 1.197 1.764.419.63.829 1.229 1.229 1.795.398.567.756 1.082 1.071 1.543.315.463.577.798.788 1.008.378.42.64.661.788.724.146.063.514.095 1.103.095.797 0 1.47.284 2.016.851a2.85 2.85 0 0 1 .819 2.047c0 .798-.274 1.471-.819 2.016-.549.547-1.221.82-2.019.82zM126.795.567c.524.526.788 1.188.788 1.984 0 .756-.263 1.408-.788 1.953-.526.546-1.188.819-1.985.819h-13.545v37.8c0 .798-.266 1.46-.796 1.984-.531.526-1.2.788-2.007.788a2.766 2.766 0 0 1-1.976-.788c-.552-.524-.828-1.186-.828-1.984v-37.8H92.113c-.756 0-1.408-.273-1.953-.819-.546-.545-.819-1.197-.819-1.953 0-.797.272-1.458.819-1.984a2.723 2.723 0 0 1 1.953-.788h32.697c.797 0 1.459.263 1.985.788zm36.508 40.509c.545.525.82 1.187.82 1.984 0 .756-.275 1.408-.82 1.953-.547.546-1.197.819-1.953.819h-23.782a2.709 2.709 0 0 1-1.976-.819c-.552-.545-.828-1.197-.828-1.953V2.488c0-.756.275-1.406.828-1.953a2.717 2.717 0 0 1 1.976-.819h23.782c.756 0 1.406.274 1.953.819.545.546.82 1.197.82 1.953 0 .798-.275 1.46-.82 1.985a2.721 2.721 0 0 1-1.953.787h-20.979v14.742h8.254c.756 0 1.406.274 1.953.819.545.546.818 1.197.818 1.953s-.273 1.408-.818 1.953c-.547.546-1.197.819-1.953.819h-8.254v14.742h20.979a2.728 2.728 0 0 1 1.953.788zM44.235 121.805a2.63 2.63 0 0 1-1.669-.567c-.483-.378-.809-.882-.977-1.512l-7.182-30.429-7.875 30.429a2.997 2.997 0 0 1-.945 1.48 2.34 2.34 0 0 1-1.575.599 2.77 2.77 0 0 1-1.638-.536 2.879 2.879 0 0 1-1.071-1.417l-9.387-30.996-6.552 30.807c-.168.715-.567 1.282-1.197 1.701-.63.419-1.303.545-2.016.378a2.76 2.76 0 0 1-1.701-1.166 2.395 2.395 0 0 1-.378-1.984L8.829 77.39a2.823 2.823 0 0 1 .945-1.449 2.813 2.813 0 0 1 1.638-.63 2.464 2.464 0 0 1 1.638.473c.504.357.86.83 1.071 1.417l9.576 31.878 8.19-31.815c.167-.587.493-1.06.977-1.417a2.74 2.74 0 0 1 1.669-.536h.063c.588 0 1.123.189 1.606.567.482.378.808.861.977 1.449l9.639 41.202c.209.714.115 1.376-.284 1.984-.399.609-.977 1.019-1.732 1.229-.085.041-.274.063-.567.063zm33.956 0c-3.192 0-6.196-.608-9.009-1.827-2.814-1.217-5.282-2.876-7.402-4.977-2.121-2.1-3.791-4.557-5.008-7.371-1.219-2.813-1.827-5.837-1.827-9.072 0-3.191.608-6.206 1.827-9.041 1.217-2.835 2.887-5.302 5.008-7.402 2.121-2.1 4.588-3.758 7.402-4.977 2.813-1.218 5.817-1.827 9.009-1.827 3.191 0 6.206.609 9.041 1.827 2.835 1.219 5.312 2.877 7.434 4.977 2.12 2.101 3.79 4.567 5.008 7.402s1.827 5.849 1.827 9.041c0 3.235-.609 6.259-1.827 9.072-1.219 2.814-2.888 5.271-5.008 7.371-2.122 2.101-4.599 3.76-7.434 4.977-2.835 1.218-5.849 1.827-9.041 1.827zm.032-40.951c-2.431 0-4.717.463-6.855 1.386a17.93 17.93 0 0 0-5.629 3.812 17.945 17.945 0 0 0-3.804 5.639c-.922 2.142-1.383 4.432-1.383 6.867 0 2.437.461 4.725 1.383 6.867s2.19 4.022 3.804 5.638a17.913 17.913 0 0 0 5.629 3.812c2.138.924 4.424 1.386 6.855 1.386 2.432 0 4.716-.462 6.854-1.386a17.932 17.932 0 0 0 9.433-9.45c.923-2.142 1.384-4.431 1.384-6.867 0-2.435-.462-4.725-1.384-6.867a17.943 17.943 0 0 0-3.805-5.639 17.948 17.948 0 0 0-5.628-3.812c-2.138-.923-4.423-1.386-6.854-1.386zm12.757 36.478c-.882 0-1.597-.335-2.142-1.008L62.819 84.698c-.463-.588-.662-1.27-.599-2.047.063-.777.388-1.396.977-1.859.588-.504 1.27-.713 2.047-.63.777.085 1.417.42 1.922 1.008l25.956 31.626c.504.588.713 1.271.63 2.047-.085.778-.42 1.397-1.008 1.858-.462.421-1.05.631-1.764.631zm30.24 4.536a2.702 2.702 0 0 1-1.953-.796c-.546-.53-.819-1.2-.819-2.007 0-.765.272-1.413.819-1.944a2.702 2.702 0 0 1 1.953-.796c2.435 0 4.725-.461 6.867-1.383 2.142-.922 4.011-2.18 5.607-3.773s2.855-3.459 3.78-5.597c.923-2.138 1.386-4.424 1.386-6.855 0-2.432-.462-4.706-1.383-6.823a17.882 17.882 0 0 0-3.77-5.566c-1.593-1.592-3.457-2.851-5.593-3.773s-4.42-1.384-6.849-1.384h-7.164v37.926c0 .798-.276 1.46-.829 1.984a2.764 2.764 0 0 1-1.975.788 2.765 2.765 0 0 1-1.976-.788c-.552-.524-.828-1.186-.828-1.984V78.398c0-.756.272-1.407.819-1.953.545-.545 1.197-.819 1.953-.819h9.954c3.191 0 6.195.609 9.009 1.827 2.813 1.219 5.261 2.877 7.34 4.977 2.079 2.101 3.727 4.547 4.945 7.339 1.217 2.794 1.826 5.786 1.826 8.978s-.609 6.196-1.826 9.009c-1.219 2.814-2.867 5.26-4.945 7.339-2.079 2.079-4.526 3.728-7.34 4.945-2.813 1.219-5.817 1.828-9.008 1.828zm73.332-1.922c-.252.693-.735 1.208-1.449 1.543-.715.335-1.429.378-2.143.126s-1.239-.734-1.574-1.449l-4.978-10.71h-12.663c-.798 0-1.46-.262-1.984-.787-.525-.525-.787-1.187-.787-1.985 0-.756.262-1.407.787-1.953.524-.545 1.187-.819 1.984-.819h10.018l-8.82-18.9-15.561 35.091c-.253.546-.609.956-1.071 1.229-.463.274-.967.41-1.512.41-.379 0-.757-.063-1.135-.189-.714-.336-1.208-.86-1.48-1.575-.272-.713-.241-1.427.095-2.142l18.081-40.635c.21-.504.545-.903 1.008-1.197.462-.293.966-.441 1.512-.441s1.05.137 1.513.41a2.39 2.39 0 0 1 1.008 1.166l19.026 40.698c.334.713.377 1.416.125 2.109zM44.235 197.524a2.63 2.63 0 0 1-1.669-.567c-.483-.378-.809-.882-.977-1.512l-7.182-30.429-7.875 30.429a2.997 2.997 0 0 1-.945 1.48 2.34 2.34 0 0 1-1.575.599 2.77 2.77 0 0 1-1.638-.536 2.879 2.879 0 0 1-1.071-1.417l-9.387-30.996-6.552 30.807c-.168.715-.567 1.282-1.197 1.701-.63.419-1.303.545-2.016.378a2.76 2.76 0 0 1-1.701-1.166 2.395 2.395 0 0 1-.378-1.984l8.757-41.202a2.823 2.823 0 0 1 .945-1.449 2.813 2.813 0 0 1 1.638-.63 2.464 2.464 0 0 1 1.638.473c.504.357.86.83 1.071 1.417l9.576 31.878 8.19-31.815c.167-.587.493-1.06.977-1.417a2.74 2.74 0 0 1 1.669-.536h.063c.588 0 1.123.189 1.606.567.482.378.808.861.977 1.449l9.639 41.202c.209.714.115 1.376-.284 1.984-.399.609-.977 1.019-1.732 1.229-.085.042-.274.063-.567.063zm27.656-.189H70.82c-1.975 0-3.928-.325-5.859-.977a16.234 16.234 0 0 1-5.166-2.835 14.243 14.243 0 0 1-3.654-4.536c-.924-1.785-1.386-3.812-1.386-6.08V153.99c0-.756.262-1.406.788-1.953.524-.545 1.186-.819 1.984-.819.714 0 1.333.273 1.858.818.525.545.788 1.195.788 1.95v28.872c0 1.551.347 2.883 1.04 3.995s1.564 2.034 2.614 2.768a11.492 11.492 0 0 0 3.434 1.635c1.238.356 2.426.535 3.56.535h1.071c1.092 0 2.205-.188 3.339-.566a11.283 11.283 0 0 0 3.055-1.541 8.946 8.946 0 0 0 2.237-2.297c.587-.88.882-1.824.882-2.831v-26.984c0-.67.095-1.373.284-2.107s.493-1.416.914-2.044a5.778 5.778 0 0 1 1.543-1.573c.608-.419 1.354-.629 2.236-.629.756 0 1.407.274 1.953.819.545.546.819 1.197.819 1.953 0 .589-.2 1.125-.599 1.607a2.921 2.921 0 0 1-1.48.976 2.858 2.858 0 0 0-.189 1.008v27.027c0 1.89-.452 3.613-1.354 5.166a13.857 13.857 0 0 1-3.497 4 16.994 16.994 0 0 1-4.819 2.615c-1.787.631-3.561.945-5.325.945zm41.046.63h-1.073a20.09 20.09 0 0 1-5.871-.882 16.268 16.268 0 0 1-5.239-2.678c-1.557-1.197-2.819-2.719-3.787-4.567-.969-1.848-1.452-4.032-1.452-6.552 0-.756.272-1.407.819-1.953.545-.545 1.218-.819 2.016-.819.756 0 1.407.273 1.953.819.545.546.819 1.197.819 1.953 0 1.471.241 2.72.725 3.749.482 1.029 1.092 1.88 1.827 2.551a8.72 8.72 0 0 0 2.394 1.575c.86.378 1.69.661 2.489.85.797.189 1.501.305 2.11.347.608.042.997.063 1.166.063h1.071c1.134 0 2.268-.189 3.402-.567a11.27 11.27 0 0 0 3.087-1.575 8.958 8.958 0 0 0 2.268-2.362 5.274 5.274 0 0 0 .882-2.93c0-1.679-.809-3.139-2.425-4.378-1.617-1.238-4.358-2.467-8.222-3.686l-1.134-.378c-1.764-.63-3.56-1.301-5.387-2.016-1.827-.713-3.465-1.596-4.914-2.646a13.686 13.686 0 0 1-3.56-3.749c-.924-1.449-1.386-3.223-1.386-5.323 0-1.764.389-3.391 1.167-4.883.779-1.49 1.862-2.782 3.251-3.875 1.388-1.091 3.029-1.942 4.923-2.551 1.894-.608 3.935-.914 6.123-.914 1.136 0 2.368.063 3.692.189 1.325.126 2.651.4 3.977.819a16.145 16.145 0 0 1 3.851 1.827c1.241.798 2.346 1.87 3.313 3.213.252.378.526.841.821 1.386.294.546.546 1.113.757 1.701.21.588.389 1.155.537 1.701.147.546.221 1.03.221 1.449 0 .756-.266 1.408-.796 1.953-.531.546-1.2.819-2.007.819a2.714 2.714 0 0 1-1.976-.819c-.552-.545-.828-1.197-.828-1.953-.042-.21-.2-.662-.472-1.354-.274-.693-.558-1.249-.851-1.669-1.723-2.478-5.146-3.717-10.269-3.717-1.219 0-2.405.148-3.56.441a11.673 11.673 0 0 0-3.15 1.292c-.945.567-1.701 1.26-2.268 2.079-.567.819-.851 1.775-.851 2.867 0 1.05.263 1.964.79 2.74.525.778 1.284 1.492 2.273 2.142.989.652 2.2 1.25 3.631 1.795a232.25 232.25 0 0 0 4.799 1.764l1.074.378c1.262.42 2.725.935 4.389 1.543a21.161 21.161 0 0 1 4.736 2.457 14.552 14.552 0 0 1 3.789 3.812c1.032 1.512 1.547 3.361 1.547 5.544 0 1.89-.453 3.633-1.357 5.229a14.102 14.102 0 0 1-3.535 4.126 16.494 16.494 0 0 1-4.893 2.678c-1.808.63-3.617.945-5.426.945zm24.914-.315c-.798 0-1.471-.272-2.016-.819-.546-.545-.819-1.218-.819-2.016v-40.95c0-.756.272-1.406.819-1.953.545-.545 1.218-.819 2.016-.819.756 0 1.407.274 1.953.819.545.546.819 1.197.819 1.953v40.95c0 .798-.273 1.471-.819 2.016-.547.547-1.198.819-1.953.819zm33.83 0c-3.234 0-6.268-.618-9.104-1.855-2.835-1.237-5.313-2.915-7.434-5.033-2.121-2.118-3.802-4.593-5.04-7.424-1.239-2.831-1.858-5.862-1.858-9.091 0-3.229.619-6.26 1.858-9.091 1.238-2.831 2.919-5.306 5.04-7.424 2.12-2.118 4.599-3.795 7.434-5.033 2.836-1.237 5.869-1.856 9.104-1.856 4.158 0 8.043 1.018 11.655 3.053.714.374 1.166.924 1.354 1.652.189.729.095 1.428-.283 2.1-.378.714-.945 1.166-1.701 1.354s-1.471.094-2.142-.284a16.05 16.05 0 0 0-4.253-1.764 18.774 18.774 0 0 0-4.631-.567c-2.479 0-4.799.473-6.961 1.417-2.164.945-4.043 2.216-5.639 3.812-1.597 1.597-2.866 3.487-3.812 5.67a17.268 17.268 0 0 0-1.417 6.93c0 2.479.472 4.799 1.417 6.961.945 2.164 2.215 4.054 3.812 5.67 1.596 1.618 3.475 2.898 5.639 3.843 2.162.945 4.482 1.417 6.961 1.417 1.722 0 3.392-.241 5.009-.725a18.998 18.998 0 0 0 4.567-2.047c.672-.462 1.387-.608 2.143-.441.756.168 1.344.588 1.764 1.26.419.672.545 1.376.378 2.111-.168.735-.589 1.333-1.26 1.795-3.865 2.394-8.064 3.59-12.6 3.59zm60.922-1.984c-.252.693-.735 1.208-1.449 1.543-.715.335-1.429.378-2.143.126s-1.239-.734-1.574-1.449l-4.978-10.71h-12.663c-.798 0-1.46-.262-1.984-.787-.525-.525-.787-1.187-.787-1.985 0-.756.262-1.407.787-1.953.524-.545 1.187-.819 1.984-.819h10.018l-8.82-18.9-15.561 35.091c-.253.546-.609.956-1.071 1.229-.463.274-.967.41-1.512.41-.379 0-.757-.063-1.135-.189-.714-.336-1.208-.86-1.48-1.575-.272-.713-.241-1.427.095-2.142l18.081-40.635c.21-.504.545-.903 1.008-1.197.462-.293.966-.441 1.512-.441s1.05.137 1.513.41a2.39 2.39 0 0 1 1.008 1.166l19.026 40.698c.334.713.376 1.416.125 2.109zM23.571 273.749c-3.235 0-6.269-.619-9.104-1.855-2.835-1.237-5.313-2.915-7.434-5.033-2.121-2.118-3.802-4.593-5.04-7.424-1.239-2.831-1.858-5.862-1.858-9.092 0-3.229.619-6.27 1.858-9.122 1.238-2.853 2.919-5.338 5.04-7.456 2.121-2.118 4.599-3.796 7.434-5.033s5.869-1.856 9.104-1.856c1.092 0 2.079.053 2.961.155.882.104 1.711.271 2.489.499.776.228 1.521.52 2.236.872.713.353 1.49.758 2.331 1.214a2.693 2.693 0 0 1 1.323 1.683c.21.748.126 1.458-.252 2.129-.42.673-.998 1.113-1.732 1.323-.735.211-1.439.105-2.11-.314a26.235 26.235 0 0 0-1.827-.945 13.167 13.167 0 0 0-1.638-.63 9.128 9.128 0 0 0-1.701-.347 20.115 20.115 0 0 0-2.079-.095c-2.479 0-4.799.474-6.961 1.421-2.164.946-4.043 2.229-5.639 3.85-1.597 1.62-2.866 3.514-3.812 5.68-.945 2.167-1.417 4.491-1.417 6.974s.473 4.808 1.417 6.975c.945 2.166 2.215 4.05 3.812 5.647 1.596 1.599 3.475 2.872 5.639 3.819 2.163.946 4.483 1.419 6.961 1.419a17.82 17.82 0 0 0 8.316-2.025v-10.386h-6.3c-.798 0-1.471-.27-2.016-.809-.546-.54-.819-1.205-.819-1.995 0-.747.272-1.391.819-1.93.545-.54 1.218-.811 2.016-.811h9.072c.797 0 1.47.272 2.016.817.545.545.819 1.193.819 1.947v14.766c0 1.006-.441 1.78-1.323 2.325-3.866 2.428-8.065 3.643-12.601 3.643zm63.818-2.363c-.252.693-.735 1.208-1.449 1.543-.715.336-1.429.379-2.142.126-.715-.252-1.239-.733-1.575-1.448l-4.977-10.71H64.583c-.798 0-1.46-.262-1.985-.788-.525-.524-.788-1.186-.788-1.984 0-.756.262-1.406.788-1.953.525-.545 1.187-.818 1.985-.818H74.6l-8.82-18.9-15.561 35.091c-.252.547-.609.956-1.071 1.229-.463.273-.967.41-1.512.41-.378 0-.756-.063-1.134-.189-.715-.336-1.208-.86-1.48-1.575-.273-.714-.241-1.427.094-2.142l18.081-40.635a2.534 2.534 0 0 1 1.008-1.197 2.762 2.762 0 0 1 1.512-.441c.545 0 1.049.137 1.512.41a2.39 2.39 0 0 1 1.008 1.165l19.026 40.698c.336.713.378 1.415.126 2.108zm24.351 2.3h-1.073c-1.979 0-3.936-.295-5.871-.883a16.266 16.266 0 0 1-5.239-2.677c-1.557-1.197-2.819-2.719-3.787-4.567-.969-1.848-1.452-4.032-1.452-6.553 0-.756.272-1.406.819-1.953.545-.545 1.218-.818 2.016-.818.756 0 1.407.273 1.953.818.545.547.819 1.197.819 1.953 0 1.471.241 2.72.725 3.749.482 1.029 1.092 1.88 1.827 2.552a8.717 8.717 0 0 0 2.394 1.574c.86.378 1.69.662 2.489.851.797.189 1.501.306 2.11.347.608.042.997.063 1.166.063h1.071c1.134 0 2.268-.189 3.402-.567a11.242 11.242 0 0 0 3.087-1.575 8.973 8.973 0 0 0 2.268-2.362 5.272 5.272 0 0 0 .882-2.93c0-1.68-.809-3.139-2.425-4.378-1.617-1.239-4.358-2.467-8.222-3.686l-1.134-.378a194.933 194.933 0 0 1-5.387-2.017c-1.827-.714-3.465-1.596-4.914-2.646a13.714 13.714 0 0 1-3.56-3.749c-.924-1.449-1.386-3.223-1.386-5.323 0-1.764.389-3.392 1.167-4.883.779-1.49 1.862-2.781 3.251-3.874 1.388-1.092 3.029-1.942 4.923-2.552 1.894-.608 3.935-.913 6.123-.913 1.136 0 2.368.062 3.692.188a19.15 19.15 0 0 1 3.977.819 16.145 16.145 0 0 1 3.851 1.827c1.241.798 2.346 1.869 3.313 3.213.252.378.526.841.821 1.386.294.546.546 1.113.757 1.701.21.589.389 1.155.537 1.701.147.546.221 1.029.221 1.448 0 .757-.266 1.408-.796 1.953-.531.547-1.2.819-2.007.819a2.71 2.71 0 0 1-1.976-.819c-.552-.545-.828-1.196-.828-1.953-.042-.209-.2-.661-.472-1.354-.274-.692-.558-1.249-.851-1.669-1.723-2.478-5.146-3.717-10.269-3.717-1.219 0-2.405.147-3.56.44a11.705 11.705 0 0 0-3.15 1.292c-.945.566-1.701 1.26-2.268 2.079-.567.818-.851 1.774-.851 2.866 0 1.05.263 1.964.79 2.74.525.778 1.284 1.491 2.273 2.143s2.2 1.25 3.631 1.795c1.431.547 3.031 1.134 4.799 1.765l1.074.378c1.262.42 2.725.935 4.389 1.543a21.203 21.203 0 0 1 4.736 2.457c1.494 1.029 2.757 2.3 3.789 3.812s1.547 3.36 1.547 5.544c0 1.89-.453 3.634-1.357 5.229a14.102 14.102 0 0 1-3.535 4.126 16.494 16.494 0 0 1-4.893 2.678c-1.808.632-3.617.947-5.426.947zm59.406-45.959c.525.525.787 1.188.787 1.984 0 .756-.262 1.408-.787 1.953-.525.547-1.188.819-1.984.819h-13.545v37.8c0 .798-.266 1.46-.797 1.984-.531.525-1.199.787-2.008.787a2.769 2.769 0 0 1-1.975-.787c-.553-.524-.828-1.187-.828-1.984v-37.8h-13.545a2.66 2.66 0 0 1-1.953-.819c-.546-.545-.819-1.197-.819-1.953 0-.797.272-1.459.819-1.984a2.722 2.722 0 0 1 1.953-.787h32.697c.798 0 1.46.263 1.985.787zm44.068 45.77c-1.219 0-2.299-.168-3.244-.504s-1.943-1.112-2.992-2.331c-.463-.504-1.082-1.333-1.858-2.488a727.81 727.81 0 0 0-2.804-4.127c-.589-.84-1.124-1.596-1.606-2.268a31.522 31.522 0 0 1-1.04-1.512l-.252-.379c-.546-.713-1.029-1.229-1.449-1.543-.42-.315-1.113-.473-2.078-.473-.799 0-1.48-.272-2.048-.819-.567-.545-.851-1.217-.851-2.016 0-.797.283-1.48.851-2.048a2.794 2.794 0 0 1 2.048-.85 9.395 9.395 0 0 0 3.812-.788c1.196-.524 2.236-1.229 3.118-2.11s1.585-1.911 2.11-3.087a9.182 9.182 0 0 0 .787-3.78 9.407 9.407 0 0 0-.787-3.812c-.525-1.197-1.229-2.236-2.11-3.118s-1.922-1.585-3.118-2.11a9.391 9.391 0 0 0-3.812-.788h-13.23v38.115c0 .799-.273 1.471-.819 2.016-.546.546-1.219.819-2.016.819-.798 0-1.48-.273-2.048-.819a2.69 2.69 0 0 1-.851-2.016v-41.013c0-.798.284-1.47.851-2.017a2.85 2.85 0 0 1 2.048-.818h16.065c2.142 0 4.157.409 6.048 1.229a15.8 15.8 0 0 1 4.945 3.339c1.406 1.407 2.52 3.056 3.339 4.945s1.229 3.906 1.229 6.048c0 2.898-.725 5.534-2.174 7.906-1.448 2.374-3.37 4.232-5.764 5.576.126.168.272.378.44.63l.252.314c.294.378.693.925 1.197 1.639a115.87 115.87 0 0 1 1.638 2.394c.378.547.777 1.134 1.197 1.764.419.631.829 1.229 1.229 1.796.398.567.756 1.082 1.071 1.544.314.462.576.798.787 1.008.378.42.64.661.787.725.147.062.515.094 1.103.094.798 0 1.47.284 2.017.851.545.567.818 1.251.818 2.048 0 .799-.273 1.471-.818 2.016-.548.544-1.22.818-2.018.818zm31.878-.252c-3.192 0-6.195-.608-9.009-1.827-2.814-1.218-5.282-2.876-7.402-4.977-2.122-2.1-3.791-4.557-5.009-7.371-1.219-2.813-1.827-5.838-1.827-9.072 0-3.191.608-6.205 1.827-9.04 1.218-2.835 2.887-5.302 5.009-7.403 2.12-2.1 4.588-3.758 7.402-4.977 2.813-1.218 5.816-1.827 9.009-1.827 3.191 0 6.205.609 9.04 1.827 2.835 1.219 5.313 2.877 7.435 4.977 2.12 2.102 3.79 4.568 5.009 7.403 1.217 2.835 1.826 5.849 1.826 9.04 0 3.234-.609 6.259-1.826 9.072-1.219 2.814-2.889 5.271-5.009 7.371-2.121 2.101-4.6 3.759-7.435 4.977-2.835 1.218-5.849 1.827-9.04 1.827zm.031-40.951c-2.432 0-4.717.463-6.855 1.386a17.93 17.93 0 0 0-5.628 3.812 17.96 17.96 0 0 0-3.805 5.639c-.923 2.143-1.383 4.432-1.383 6.867 0 2.437.46 4.725 1.383 6.867a17.914 17.914 0 0 0 9.433 9.451c2.139.924 4.424 1.386 6.855 1.386s4.717-.462 6.854-1.386a17.913 17.913 0 0 0 9.434-9.451c.922-2.143 1.384-4.431 1.384-6.867s-.462-4.725-1.384-6.867a17.96 17.96 0 0 0-3.805-5.639 17.952 17.952 0 0 0-5.629-3.812c-2.137-.923-4.422-1.386-6.854-1.386zm12.758 36.478c-.882 0-1.597-.336-2.143-1.009l-26.019-31.626c-.463-.587-.661-1.27-.599-2.047.063-.776.388-1.396.977-1.858a2.593 2.593 0 0 1 2.048-.63c.776.084 1.417.42 1.921 1.008l25.956 31.626c.504.589.714 1.271.63 2.047-.084.778-.42 1.397-1.008 1.859-.462.42-1.049.63-1.763.63zm51.344 4.473c-.925 0-1.638-.356-2.142-1.071l-26.271-34.523v32.886a2.62 2.62 0 0 1-.787 1.922 2.617 2.617 0 0 1-1.922.787c-.715 0-1.345-.262-1.89-.787a2.562 2.562 0 0 1-.819-1.922V229.65c0-.588.167-1.112.504-1.575.336-.462.798-.776 1.386-.945a2.45 2.45 0 0 1 1.639-.062 2.851 2.851 0 0 1 1.386.944l26.208 34.587v-32.948c0-.714.262-1.344.787-1.891.525-.545 1.166-.818 1.922-.818s1.396.273 1.922.818c.524.547.787 1.177.787 1.891v40.887c0 .589-.168 1.113-.504 1.575a2.874 2.874 0 0 1-1.323 1.008c-.421.082-.716.124-.883.124zm33.831 0c-3.192 0-6.195-.608-9.009-1.827-2.814-1.218-5.282-2.876-7.402-4.977-2.122-2.1-3.791-4.557-5.009-7.371-1.219-2.813-1.827-5.838-1.827-9.072 0-3.191.608-6.205 1.827-9.04 1.218-2.835 2.887-5.302 5.009-7.403 2.12-2.1 4.588-3.758 7.402-4.977 2.813-1.218 5.816-1.827 9.009-1.827 3.191 0 6.205.609 9.04 1.827 2.835 1.219 5.313 2.877 7.435 4.977 2.12 2.102 3.79 4.568 5.009 7.403 1.217 2.835 1.826 5.849 1.826 9.04 0 3.234-.609 6.259-1.826 9.072-1.219 2.814-2.889 5.271-5.009 7.371-2.121 2.101-4.6 3.759-7.435 4.977-2.835 1.218-5.849 1.827-9.04 1.827zm.031-40.951c-2.432 0-4.717.463-6.855 1.386a17.93 17.93 0 0 0-5.628 3.812 17.96 17.96 0 0 0-3.805 5.639c-.923 2.143-1.383 4.432-1.383 6.867 0 2.437.46 4.725 1.383 6.867a17.914 17.914 0 0 0 9.433 9.451c2.139.924 4.424 1.386 6.855 1.386s4.717-.462 6.854-1.386a17.913 17.913 0 0 0 9.434-9.451c.922-2.143 1.384-4.431 1.384-6.867s-.462-4.725-1.384-6.867a17.96 17.96 0 0 0-3.805-5.639 17.952 17.952 0 0 0-5.629-3.812c-2.137-.923-4.422-1.386-6.854-1.386zm12.758 36.478c-.882 0-1.597-.336-2.143-1.009l-26.019-31.626c-.463-.587-.661-1.27-.599-2.047.063-.776.388-1.396.977-1.858a2.593 2.593 0 0 1 2.048-.63c.776.084 1.417.42 1.921 1.008l25.956 31.626c.504.589.714 1.271.63 2.047-.084.778-.42 1.397-1.008 1.859-.462.42-1.049.63-1.763.63zm61.613 4.473a2.63 2.63 0 0 1-1.669-.567 2.76 2.76 0 0 1-.977-1.512l-7.182-30.429-7.875 30.429a3.004 3.004 0 0 1-.945 1.48 2.346 2.346 0 0 1-1.575.599 2.774 2.774 0 0 1-1.638-.535 2.877 2.877 0 0 1-1.071-1.418l-9.387-30.996-6.553 30.808c-.168.714-.566 1.281-1.196 1.7-.63.42-1.303.546-2.017.379a2.77 2.77 0 0 1-1.7-1.166 2.392 2.392 0 0 1-.379-1.984l8.758-41.202a2.823 2.823 0 0 1 2.583-2.079 2.466 2.466 0 0 1 1.638.473c.504.357.86.83 1.071 1.418l9.575 31.878 8.19-31.815a2.588 2.588 0 0 1 .977-1.417 2.738 2.738 0 0 1 1.67-.536h.062c.588 0 1.123.189 1.606.567.482.378.809.861.977 1.449l9.639 41.201c.21.715.115 1.377-.283 1.985-.399.608-.977 1.019-1.732 1.229-.085.039-.273.061-.567.061zm13.544.126c-.798 0-1.471-.272-2.016-.819-.547-.545-.819-1.218-.819-2.016v-40.95c0-.756.272-1.406.819-1.953.545-.545 1.218-.818 2.016-.818.756 0 1.406.273 1.953.818.545.547.819 1.197.819 1.953v40.95c0 .798-.274 1.471-.819 2.016-.547.546-1.197.819-1.953.819zm52.92-1.985c-.252.693-.735 1.208-1.449 1.543-.715.336-1.429.379-2.143.126-.714-.252-1.239-.733-1.574-1.448l-4.978-10.71h-12.663c-.798 0-1.46-.262-1.984-.788-.525-.524-.787-1.186-.787-1.984 0-.756.262-1.406.787-1.953.524-.545 1.187-.818 1.984-.818h10.018l-8.82-18.9-15.561 35.091c-.253.547-.609.956-1.071 1.229-.463.273-.967.41-1.512.41-.379 0-.757-.063-1.135-.189-.714-.336-1.208-.86-1.48-1.575-.272-.714-.241-1.427.095-2.142l18.081-40.635a2.54 2.54 0 0 1 1.008-1.197c.462-.294.966-.441 1.512-.441s1.05.137 1.513.41c.462.273.797.661 1.008 1.165l19.026 40.698c.334.713.377 1.415.125 2.108zM19.287 349.154c-.588 0-1.103-.148-1.543-.441s-.767-.714-.977-1.26L.324 305.809c-.293-.713-.293-1.406 0-2.079.293-.671.797-1.154 1.512-1.448.713-.252 1.407-.23 2.079.062.671.295 1.155.799 1.449 1.512l13.923 35.218 14.049-35.28c.293-.714.776-1.207 1.449-1.48.671-.272 1.364-.283 2.079-.031.714.294 1.218.777 1.512 1.448.293.673.293 1.366 0 2.079l-16.569 41.644c-.463 1.132-1.303 1.7-2.52 1.7zm69.488-2.048c-.252.693-.735 1.208-1.449 1.543-.715.336-1.429.379-2.142.126-.715-.252-1.239-.733-1.575-1.448l-4.977-10.71H65.969c-.798 0-1.46-.262-1.985-.788-.525-.524-.788-1.186-.788-1.984 0-.756.262-1.406.788-1.953.525-.545 1.187-.818 1.985-.818h10.017l-8.82-18.9-15.561 35.091c-.252.547-.609.956-1.071 1.229-.463.273-.967.41-1.512.41-.378 0-.756-.063-1.134-.189-.715-.336-1.208-.86-1.48-1.575-.273-.714-.241-1.427.094-2.142l18.081-40.635a2.534 2.534 0 0 1 1.008-1.197 2.762 2.762 0 0 1 1.512-.441c.545 0 1.049.137 1.512.41a2.39 2.39 0 0 1 1.008 1.165l19.026 40.698c.336.712.378 1.415.126 2.108zm43.218 2.11c-1.219 0-2.3-.168-3.245-.504s-1.943-1.112-2.993-2.331c-.462-.504-1.082-1.333-1.858-2.488a721.917 721.917 0 0 0-2.803-4.127 261.47 261.47 0 0 0-1.607-2.268 30.597 30.597 0 0 1-1.039-1.512l-.252-.379c-.546-.713-1.029-1.229-1.449-1.543-.42-.315-1.113-.473-2.079-.473a2.84 2.84 0 0 1-2.047-.819c-.567-.545-.851-1.217-.851-2.016 0-.797.284-1.48.851-2.048a2.793 2.793 0 0 1 2.047-.85 9.388 9.388 0 0 0 3.812-.788 10.11 10.11 0 0 0 3.119-2.11 10.203 10.203 0 0 0 2.11-3.087 9.167 9.167 0 0 0 .788-3.78 9.391 9.391 0 0 0-.788-3.812 10.11 10.11 0 0 0-2.11-3.118 10.085 10.085 0 0 0-3.119-2.11 9.388 9.388 0 0 0-3.812-.788h-13.23v38.115c0 .799-.273 1.471-.819 2.016-.546.546-1.219.819-2.016.819-.798 0-1.48-.273-2.047-.819-.567-.545-.851-1.217-.851-2.016v-41.013c0-.798.284-1.47.851-2.017a2.848 2.848 0 0 1 2.047-.818h16.065c2.142 0 4.158.409 6.048 1.229a15.804 15.804 0 0 1 4.946 3.339c1.407 1.407 2.52 3.056 3.339 4.945s1.229 3.906 1.229 6.048c0 2.898-.725 5.534-2.173 7.906-1.449 2.374-3.371 4.232-5.765 5.576.126.168.272.378.441.63l.252.314c.293.378.693.925 1.197 1.639a115.87 115.87 0 0 1 1.638 2.394c.378.547.777 1.134 1.197 1.764.419.631.829 1.229 1.229 1.796.398.567.756 1.082 1.071 1.544s.577.798.788 1.008c.378.42.64.661.788.725.146.062.514.094 1.103.094.797 0 1.47.284 2.016.851.545.567.819 1.251.819 2.048 0 .799-.274 1.471-.819 2.016-.55.545-1.222.818-2.019.818zm11.465-.126c-.798 0-1.471-.272-2.016-.819-.546-.545-.819-1.218-.819-2.016v-40.95c0-.756.272-1.406.819-1.953.545-.545 1.218-.818 2.016-.818.756 0 1.406.273 1.953.818.545.547.819 1.197.819 1.953v40.95c0 .798-.274 1.471-.819 2.016-.547.547-1.197.819-1.953.819zm38.934-5.134c.545.526.819 1.188.819 1.984 0 .757-.274 1.408-.819 1.953-.547.547-1.197.819-1.953.819h-23.782a2.709 2.709 0 0 1-1.976-.819c-.553-.545-.828-1.196-.828-1.953v-40.571c0-.756.275-1.407.828-1.953a2.713 2.713 0 0 1 1.976-.819h23.782c.756 0 1.406.273 1.953.819.545.546.819 1.197.819 1.953 0 .798-.274 1.46-.819 1.984a2.721 2.721 0 0 1-1.953.787H159.46v14.742h8.253c.756 0 1.406.273 1.953.819.545.546.818 1.196.818 1.953 0 .756-.273 1.407-.818 1.952-.547.547-1.197.819-1.953.819h-8.253v14.742h20.979a2.729 2.729 0 0 1 1.953.789zm22.048 5.072a2.7 2.7 0 0 1-1.952-.797c-.547-.53-.819-1.2-.819-2.007 0-.765.272-1.413.819-1.944a2.705 2.705 0 0 1 1.952-.797c2.436 0 4.726-.46 6.867-1.383 2.143-.922 4.011-2.18 5.607-3.772 1.596-1.593 2.855-3.46 3.78-5.598.923-2.138 1.386-4.424 1.386-6.855s-.462-4.705-1.383-6.822a17.897 17.897 0 0 0-3.771-5.565 17.797 17.797 0 0 0-5.594-3.773c-2.136-.922-4.419-1.384-6.849-1.384h-7.163v37.926c0 .798-.277 1.46-.829 1.984a2.77 2.77 0 0 1-1.975.788 2.769 2.769 0 0 1-1.976-.788c-.553-.524-.828-1.187-.828-1.984v-40.698c0-.756.272-1.406.819-1.953.545-.545 1.196-.818 1.953-.818h9.953c3.191 0 6.195.609 9.01 1.827 2.813 1.218 5.26 2.877 7.339 4.977 2.079 2.101 3.728 4.547 4.945 7.34s1.827 5.786 1.827 8.978-.609 6.195-1.827 9.009-2.866 5.261-4.945 7.339c-2.079 2.079-4.525 3.729-7.339 4.946-2.811 1.215-5.815 1.824-9.007 1.824zm73.332-1.922c-.252.693-.735 1.208-1.449 1.543-.715.336-1.429.379-2.143.126-.714-.252-1.239-.733-1.574-1.448l-4.978-10.71h-12.663c-.798 0-1.46-.262-1.984-.788-.525-.524-.787-1.186-.787-1.984 0-.756.262-1.406.787-1.953.524-.545 1.187-.818 1.984-.818h10.018l-8.82-18.9-15.561 35.091c-.253.547-.609.956-1.071 1.229-.463.273-.967.41-1.512.41-.379 0-.757-.063-1.135-.189-.714-.336-1.208-.86-1.48-1.575-.272-.714-.241-1.427.095-2.142l18.081-40.635a2.54 2.54 0 0 1 1.008-1.197c.462-.294.966-.441 1.512-.441s1.05.137 1.513.41c.462.273.797.661 1.008 1.165l19.026 40.698c.334.712.377 1.415.125 2.108zm19.844 1.922a2.7 2.7 0 0 1-1.952-.797c-.547-.53-.819-1.2-.819-2.007 0-.765.272-1.413.819-1.944a2.705 2.705 0 0 1 1.952-.797c2.436 0 4.726-.46 6.867-1.383 2.143-.922 4.011-2.18 5.607-3.772 1.596-1.593 2.855-3.46 3.78-5.598.923-2.138 1.386-4.424 1.386-6.855s-.462-4.705-1.383-6.822a17.897 17.897 0 0 0-3.771-5.565 17.797 17.797 0 0 0-5.594-3.773c-2.136-.922-4.419-1.384-6.849-1.384h-7.163v37.926c0 .798-.277 1.46-.829 1.984a2.77 2.77 0 0 1-1.975.788 2.769 2.769 0 0 1-1.976-.788c-.553-.524-.828-1.187-.828-1.984v-40.698c0-.756.272-1.406.819-1.953.545-.545 1.196-.818 1.953-.818h9.953c3.191 0 6.195.609 9.01 1.827 2.813 1.218 5.26 2.877 7.339 4.977 2.079 2.101 3.728 4.547 4.945 7.34s1.827 5.786 1.827 8.978-.609 6.195-1.827 9.009-2.866 5.261-4.945 7.339c-2.079 2.079-4.525 3.729-7.339 4.946-2.811 1.215-5.815 1.824-9.007 1.824zm59.346-5.072c.545.526.819 1.188.819 1.984 0 .757-.274 1.408-.819 1.953-.547.547-1.197.819-1.953.819h-23.782a2.709 2.709 0 0 1-1.976-.819c-.553-.545-.828-1.196-.828-1.953v-40.571c0-.756.275-1.407.828-1.953a2.713 2.713 0 0 1 1.976-.819h23.782c.756 0 1.406.273 1.953.819.545.546.819 1.197.819 1.953 0 .798-.274 1.46-.819 1.984a2.721 2.721 0 0 1-1.953.787H334.03v14.742h8.253c.756 0 1.406.273 1.953.819.545.546.818 1.196.818 1.953 0 .756-.273 1.407-.818 1.952-.547.547-1.197.819-1.953.819h-8.253v14.742h20.979a2.727 2.727 0 0 1 1.953.789zm26.557 5.45h-1.073a20.08 20.08 0 0 1-5.87-.883 16.256 16.256 0 0 1-5.239-2.677c-1.558-1.197-2.819-2.719-3.787-4.567-.969-1.848-1.452-4.032-1.452-6.553 0-.756.273-1.406.819-1.953.546-.545 1.218-.818 2.017-.818.756 0 1.406.273 1.952.818.546.547.819 1.197.819 1.953 0 1.471.241 2.72.725 3.749.482 1.029 1.092 1.88 1.827 2.552a8.717 8.717 0 0 0 2.394 1.574c.86.378 1.69.662 2.488.851.798.189 1.502.306 2.111.347.608.042.997.063 1.165.063h1.071c1.134 0 2.268-.189 3.401-.567a11.248 11.248 0 0 0 3.088-1.575 8.973 8.973 0 0 0 2.268-2.362 5.264 5.264 0 0 0 .882-2.93c0-1.68-.809-3.139-2.426-4.378s-4.357-2.467-8.221-3.686l-1.135-.378a193.688 193.688 0 0 1-5.386-2.017c-1.827-.714-3.466-1.596-4.914-2.646a13.7 13.7 0 0 1-3.56-3.749c-.925-1.449-1.387-3.223-1.387-5.323 0-1.764.39-3.392 1.168-4.883.778-1.49 1.862-2.781 3.251-3.874 1.389-1.092 3.029-1.942 4.923-2.552 1.895-.608 3.935-.913 6.123-.913 1.136 0 2.367.062 3.692.188s2.651.399 3.977.819 2.609 1.029 3.852 1.827c1.241.798 2.346 1.869 3.313 3.213.252.378.525.841.82 1.386.295.546.547 1.113.758 1.701.21.589.389 1.155.536 1.701s.222 1.029.222 1.448c0 .757-.266 1.408-.797 1.953-.531.547-1.2.819-2.007.819a2.709 2.709 0 0 1-1.976-.819c-.553-.545-.828-1.196-.828-1.953-.042-.209-.2-.661-.473-1.354-.273-.692-.557-1.249-.851-1.669-1.723-2.478-5.145-3.717-10.269-3.717-1.219 0-2.405.147-3.56.44a11.719 11.719 0 0 0-3.15 1.292c-.944.566-1.7 1.26-2.268 2.079-.567.818-.851 1.774-.851 2.866 0 1.05.263 1.964.789 2.74.526.778 1.284 1.491 2.273 2.143s2.2 1.25 3.631 1.795c1.432.547 3.031 1.134 4.799 1.765l1.074.378c1.262.42 2.725.935 4.389 1.543a21.196 21.196 0 0 1 4.735 2.457c1.494 1.029 2.758 2.3 3.789 3.812s1.548 3.36 1.548 5.544c0 1.89-.453 3.634-1.357 5.229a14.117 14.117 0 0 1-3.535 4.126c-1.452 1.156-3.083 2.048-4.893 2.678s-3.615.947-5.424.947z" fill="#FFF"/></svg>