<svg xmlns="http://www.w3.org/2000/svg" width="484.549" height="269.61" viewBox="0 0 484.549 269.61"><text transform="translate(1611.51 81.018)" fill="#FFF" font-family="'LostinWild-Regular'" font-size="44.264">Edições</text><ellipse fill="none" cx="1753.045" cy="362.793" rx="356.232" ry="179.206"/><text transform="rotate(-19.627 1406.747 -4321.792)"><tspan x="0" y="0" fill="#FFF" font-family="'Onyx'" font-size="96">a</tspan><tspan x="47.04" y=".882" fill="#FFF" font-family="'Onyx'" font-size="96" rotate="5.343">n</tspan><tspan x="94.243" y="6.016" fill="#FFF" font-family="'Onyx'" font-size="96" rotate="10.125">t</tspan><tspan x="144.331" y="15.746" fill="#FFF" font-family="'Onyx'" font-size="96" rotate="14.425">e</tspan><tspan x="189.899" y="28.026" fill="#FFF" font-family="'Onyx'" font-size="96" rotate="18.573">r</tspan><tspan x="241.106" y="46.129" fill="#FFF" font-family="'Onyx'" font-size="96" rotate="22.205">i</tspan><tspan x="274.87" y="60.311" fill="#FFF" font-family="'Onyx'" font-size="96" rotate="25.734">o</tspan><tspan x="317.8" y="81.622" fill="#FFF" font-family="'Onyx'" font-size="96" rotate="30.295">r</tspan><tspan x="363.889" y="109.578" fill="#FFF" font-family="'Onyx'" font-size="96" rotate="35.381">e</tspan><tspan x="401.589" y="137.336" fill="#FFF" font-family="'Onyx'" font-size="96" rotate="40.897">s</tspan></text><g fill="#1FBFE9"><path d="M1762.977 259.913c-6.094 0-11.052-4.958-11.052-11.052 0-6.095 4.958-11.053 11.052-11.053s11.053 4.958 11.053 11.053c-.001 6.094-4.96 11.052-11.053 11.052zm0-24.199c-7.248 0-13.145 5.897-13.145 13.146 0 7.247 5.896 13.145 13.145 13.145s13.146-5.897 13.146-13.145c0-7.248-5.897-13.146-13.146-13.146z"/><path d="M1762.977 255.081a6.226 6.226 0 0 1-6.219-6.22c0-3.43 2.789-6.221 6.219-6.221s6.221 2.791 6.221 6.221a6.23 6.23 0 0 1-6.221 6.22zm0-14.422c-4.521 0-8.202 3.678-8.202 8.202 0 4.522 3.681 8.201 8.202 8.201 4.523 0 8.204-3.679 8.204-8.201 0-4.524-3.681-8.202-8.204-8.202z"/><path d="M1785.263 263.614h-44.57a1.103 1.103 0 0 1-1.102-1.102v-2.828h4.363c.61 0 1.104-.494 1.104-1.103v-19.442c0-.608-.493-1.103-1.104-1.103h-4.363v-2.828c0-.607.493-1.103 1.102-1.103h30.318l.008.001.008-.001h14.236c.607 0 1.102.495 1.102 1.103v2.828H1782c-.608 0-1.102.494-1.102 1.103v19.442c0 .608.493 1.103 1.102 1.103h4.365v2.828a1.105 1.105 0 0 1-1.102 1.102zm-45.672-23.373h3.263v17.239h-3.263v-17.239zm4.624-9.807c0-.03.024-.055.055-.055h3.172c.028 0 .054.024.054.055v1.47h-3.28v-1.47h-.001zm13.397-1.52a.609.609 0 0 1 .57-.398h9.588a.61.61 0 0 1 .571.398l1.099 2.99h-12.926l1.098-2.99zm28.752 28.566h-3.263v-17.239h3.263v17.239zm-1.101-25.576h-13.476l-1.376-3.749a2.821 2.821 0 0 0-2.641-1.843h-9.587c-1.174 0-2.234.74-2.64 1.843l-1.377 3.749h-4.578v-1.47a2.15 2.15 0 0 0-2.147-2.148h-3.172a2.152 2.152 0 0 0-2.148 2.148v1.47h-1.429a3.307 3.307 0 0 0-3.305 3.305v27.304a3.306 3.306 0 0 0 3.305 3.304h44.57a3.308 3.308 0 0 0 3.305-3.304v-27.304a3.308 3.308 0 0 0-3.304-3.305z"/><path d="M1762.977 244.807a4.058 4.058 0 0 0-4.053 4.054.991.991 0 1 0 1.984 0c0-1.143.929-2.07 2.068-2.07a.99.99 0 0 0 .992-.992.99.99 0 0 0-.991-.992zm160.896 4.997a.945.945 0 0 1-.945.945h-110.234a.945.945 0 0 1 0-1.889h110.234c.522 0 .945.423.945.944zm-209.666 0a.946.946 0 0 1-.945.945h-110.234a.944.944 0 1 1 0-1.889h110.234c.521 0 .945.423.945.944z"/></g><g fill="#FFF"><path d="M106.053 47.409c-1.947-.679-3.762-1.461-5.444-2.346s-3.084-1.962-4.205-3.231c-1.122-1.268-1.903-2.766-2.347-4.493-.441-1.726-.398-3.785.133-6.175.266-1.121.664-2.095 1.195-2.921.531-.826 1.151-1.431 1.859-1.815.709-.383 1.505-.509 2.391-.376.885.133 1.814.598 2.789 1.394.766.62 1.562 1.292 2.39 2.014.825.724 1.667 1.468 2.522 2.235a58.333 58.333 0 0 0 6.375 4.293 59.161 59.161 0 0 0 7.126 3.542c2.479 1.033 5.017 1.925 7.613 2.678s5.224 1.321 7.879 1.704c-.442-2.154-.458-4.433-.044-6.839a27.056 27.056 0 0 1 2.258-7.06 32.165 32.165 0 0 1 4.183-6.573 29.327 29.327 0 0 1 5.71-5.378 24.964 24.964 0 0 1 6.861-3.453 19.038 19.038 0 0 1 7.635-.841c1.445.148 2.833.48 4.161.996a12.828 12.828 0 0 1 3.585 2.103 12.416 12.416 0 0 1 2.7 3.165c.737 1.225 1.239 2.619 1.505 4.183.295 2.272.141 4.345-.465 6.219s-1.534 3.578-2.788 5.112c-1.255 1.535-2.767 2.915-4.537 4.139a38.463 38.463 0 0 1-5.644 3.231 50.073 50.073 0 0 1-6.152 2.391 77.884 77.884 0 0 1-6.087 1.66c.295.502.841 1.062 1.638 1.682s1.667 1.122 2.611 1.505c.648.266 1.312.487 1.992.664.679.177 1.283.347 1.814.509.531.163.975.31 1.328.443.354.133.546.288.576.465.059.325-.111.649-.51.974a21.53 21.53 0 0 1-1.549 1.129c-.635.428-1.336.922-2.103 1.483a15.326 15.326 0 0 0-2.214 1.992c-.855.945-1.542 2.058-2.058 3.342a16.807 16.807 0 0 0-1.062 4.117 21.4 21.4 0 0 0-.11 4.471c.117 1.52.398 2.973.841 4.36.648 2.066 1.586 3.689 2.811 4.869 1.224 1.181 2.612 1.985 4.161 2.412 1.549.428 3.18.509 4.891.244s3.379-.804 5.002-1.616a19.824 19.824 0 0 0 4.537-3.143 16.816 16.816 0 0 0 3.431-4.36c.501-.089.907-.089 1.218 0 .309.088.545.221.707.398a.964.964 0 0 1 .266.598c.016.222-.021.421-.11.598-2.272 3.984-4.641 7.237-7.104 9.76s-4.928 4.441-7.392 5.754c-2.464 1.312-4.892 2.073-7.281 2.279-2.391.206-4.634-.022-6.729-.686a17.076 17.076 0 0 1-5.71-3.098 18.242 18.242 0 0 1-4.249-5.002c-1.122-1.933-1.896-4.065-2.324-6.396s-.421-4.751.022-7.259c.442-2.508 1.379-5.053 2.811-7.636 1.432-2.582 3.459-5.068 6.086-7.458-1.445-.59-2.699-1.284-3.762-2.081a14.623 14.623 0 0 1-2.744-2.656 53.52 53.52 0 0 1-8.057 1.107 62.652 62.652 0 0 1-8.477-.044 69.625 69.625 0 0 1-8.432-1.129 56.949 56.949 0 0 1-7.923-2.149zm62.324-17.617c.028-.915-.148-1.711-.531-2.39-.385-.679-.967-1.166-1.749-1.461-.782-.294-1.756-.346-2.921-.155-1.166.192-2.517.701-4.051 1.527-1.535.856-3.031 1.918-4.492 3.187a26.705 26.705 0 0 0-3.852 4.117c-1.106 1.476-1.963 3.01-2.566 4.604-.605 1.593-.805 3.143-.598 4.648 2.418-.266 4.604-.715 6.551-1.35 1.947-.634 3.688-1.373 5.223-2.213 1.534-.841 2.855-1.749 3.962-2.722s2.028-1.94 2.767-2.899c.736-.958 1.291-1.866 1.66-2.722.367-.858.567-1.58.597-2.171z"/><path d="M199.67 66.796c.029 1.24.125 2.118.288 2.634.162.517.376.775.642.775s.561-.199.886-.598c.324-.398.679-.892 1.062-1.483.561-1.033 1.174-2.169 1.838-3.408s1.328-2.508 1.992-3.807a967.009 967.009 0 0 0 1.947-3.829 148.638 148.638 0 0 0 1.704-3.475c.177-.088.36-.133.554-.133.191 0 .375.038.553.111a.945.945 0 0 1 .42.332.712.712 0 0 1 .111.531c-.443.974-.951 2.081-1.527 3.32a209.882 209.882 0 0 1-1.837 3.851 344.293 344.293 0 0 1-2.014 4.05 134.242 134.242 0 0 1-2.059 3.917 75.418 75.418 0 0 1-2.014 3.563c-.636 1.048-1.38 1.896-2.235 2.545-1.446 1.151-2.805 1.106-4.072-.133a8.552 8.552 0 0 1-1.992-3.253 23.421 23.421 0 0 1-.93-3.74c-.797 1.003-1.578 1.992-2.346 2.965-.768.974-1.586 1.793-2.457 2.457a7.12 7.12 0 0 1-2.877 1.328c-1.048.221-2.25.082-3.607-.42a7.894 7.894 0 0 1-3.076-2.589c-.812-1.136-1.424-2.435-1.837-3.896-.413-1.46-.642-3.024-.687-4.692-.044-1.667.082-3.342.377-5.024s.73-3.305 1.305-4.869c.576-1.563 1.277-2.965 2.104-4.205.826-1.239 1.763-2.272 2.811-3.098 1.047-.826 2.191-1.328 3.43-1.505.709-.088 1.446-.11 2.214-.066.767.044 1.505.155 2.214.332.707.177 1.35.428 1.925.752.575.325 1.024.724 1.351 1.195.176-.737.398-1.733.664-2.988.266-1.254.567-2.626.906-4.117.34-1.49.693-3.046 1.062-4.669a383.653 383.653 0 0 1 2.08-8.698c.311-1.224.583-2.191.819-2.899a59.568 59.568 0 0 1-8.765-2.723 186.376 186.376 0 0 1-8.52-3.629 905.463 905.463 0 0 0-8.521-3.829c-2.861-1.269-5.783-2.391-8.764-3.364s-6.049-1.711-9.207-2.213c-3.158-.501-6.447-.62-9.871-.354-1.652.148-3.193.473-4.625.974a12.436 12.436 0 0 0-3.874 2.191c-1.151.959-2.14 2.176-2.966 3.652s-1.431 3.246-1.814 5.312a12.59 12.59 0 0 0-.486 2.678c-.06.871-.185 1.601-.377 2.191-.191.59-.538.996-1.04 1.217-.501.221-1.328.125-2.479-.288-1.209-.442-2.131-1.135-2.766-2.08-.635-.944-1.041-2.029-1.217-3.253-.178-1.224-.162-2.53.043-3.917a20.18 20.18 0 0 1 1.041-4.05c.486-1.312 1.077-2.545 1.771-3.696s1.454-2.109 2.279-2.877a18.137 18.137 0 0 1 4.116-2.877 25.296 25.296 0 0 1 4.736-1.837 29.355 29.355 0 0 1 5.047-.93 34.056 34.056 0 0 1 5.046-.11c2.509.088 5.098.472 7.769 1.151a76.23 76.23 0 0 1 8.012 2.523c2.67 1.003 5.305 2.11 7.9 3.32a469.15 469.15 0 0 1 7.437 3.541 419.7 419.7 0 0 1 7.437 3.762 956.265 956.265 0 0 0 5.555 2.877c1.608.826 3.039 1.542 4.294 2.146a40.67 40.67 0 0 0 3.696 1.572 18.108 18.108 0 0 1 2.059-3.431c.781-1.018 1.607-1.874 2.479-2.567.869-.693 1.74-1.209 2.611-1.549.87-.339 1.689-.494 2.457-.465.973.03 1.902.185 2.788.465.886.281 1.711.73 2.479 1.35.619.531 1.076 1.284 1.371 2.257.295.974.414 1.978.355 3.01a7.273 7.273 0 0 1-.775 2.899c-.457.9-1.145 1.527-2.059 1.881-.619.237-1.276.428-1.97.576-.693.148-1.365.243-2.014.288-.649.044-1.255.038-1.815-.022-.561-.059-1.018-.162-1.371-.31a931.509 931.509 0 0 0-2.479 9.871c-.856 3.482-1.638 7.016-2.346 10.601s-1.284 7.164-1.727 10.734c-.444 3.57-.651 6.993-.622 10.268zm-6.551-10.269c.059-1.091.125-2.184.199-3.275.074-1.091.155-2.169.244-3.231-.65-1.239-1.344-1.91-2.081-2.014s-1.476.207-2.213.929c-.738.724-1.438 1.771-2.103 3.143-.664 1.372-1.24 2.914-1.727 4.625s-.855 3.497-1.106 5.356a28.827 28.827 0 0 0-.243 5.356c.117 1.387.368 2.383.752 2.988.383.605.848.929 1.395.974.546.044 1.136-.118 1.771-.487a9.551 9.551 0 0 0 1.858-1.438 15.641 15.641 0 0 0 1.66-1.903c.502-.679.9-1.284 1.195-1.815-.059-1.594-.029-3.165.089-4.714s.222-3.047.31-4.494zm14.475-33.994c.768.531 1.638.79 2.611.774.975-.014 1.814-.228 2.523-.642.708-.413 1.165-.981 1.372-1.704.206-.723-.074-1.527-.841-2.413-.354-.413-.805-.634-1.351-.664s-1.1.118-1.659.442c-.562.325-1.085.841-1.572 1.549-.486.71-.847 1.595-1.083 2.658z"/><path d="M207.637 57.545c.03-.797.104-1.63.223-2.501.117-.87.242-1.852.375-2.943s.251-2.309.355-3.652a61.89 61.89 0 0 0 .154-4.67c.531-.413 1.188-.634 1.97-.664a5.4 5.4 0 0 1 2.323.443 5.673 5.673 0 0 1 2.037 1.483c.59.664.958 1.498 1.106 2.501a351.653 351.653 0 0 1-.62 5.267c-.236 1.889-.436 3.807-.598 5.754s-.236 3.866-.221 5.754c.014 1.889.184 3.645.509 5.268.266.649.612.782 1.04.398.428-.383.922-1.002 1.482-1.859a626.677 626.677 0 0 0 1.837-3.408 221.21 221.21 0 0 0 1.992-3.807 1127.05 1127.05 0 0 0 1.948-3.829 148.638 148.638 0 0 0 1.704-3.475c.177-.088.36-.133.553-.133.191 0 .376.038.554.111a.95.95 0 0 1 .42.332c.104.148.14.325.111.531-.443.974-.952 2.081-1.527 3.32a209.882 209.882 0 0 1-1.837 3.851 344.293 344.293 0 0 1-2.014 4.05 134.242 134.242 0 0 1-2.059 3.917 74.499 74.499 0 0 1-2.015 3.563c-.635 1.048-1.379 1.896-2.234 2.545-1.447 1.151-2.805 1.106-4.072-.133-.945-1.062-1.668-2.361-2.17-3.896a26.672 26.672 0 0 1-1.084-4.803 37.685 37.685 0 0 1-.332-4.958c.002-1.634.031-3.088.09-4.357zm8.499-24.832c.236.649.259 1.284.066 1.903s-.509 1.166-.951 1.638a4.407 4.407 0 0 1-1.594 1.084c-.62.251-1.232.325-1.837.222-.605-.104-1.158-.413-1.66-.93-.502-.516-.871-1.306-1.106-2.368-.442-2.036-.568-3.548-.376-4.537.191-.988.553-1.63 1.084-1.925.473-.266 1.025-.295 1.66-.089.635.207 1.262.561 1.881 1.062.62.502 1.188 1.1 1.705 1.792a7.43 7.43 0 0 1 1.128 2.148z"/><path d="M219.986 91.053a2.516 2.516 0 0 1-.841-.774c-.206-.31-.332-.598-.377-.863-.044-.266.008-.487.155-.664.148-.177.384-.236.708-.177.738.089 1.623.074 2.656-.044a13.94 13.94 0 0 0 3.01-.686c.974-.34 1.821-.797 2.545-1.373.723-.575 1.129-1.291 1.218-2.146.059-.649.021-1.372-.111-2.169s-.28-1.601-.442-2.413c-.162-.811-.295-1.593-.398-2.346s-.096-1.431.022-2.036c.117-.604.391-1.091.818-1.461.428-.369 1.085-.568 1.97-.598 1.771-.059 3.077.392 3.918 1.35.841.959 1.129 2.324.863 4.095-.148.974-.429 2.007-.842 3.098a17.828 17.828 0 0 1-1.593 3.187 17.123 17.123 0 0 1-2.302 2.899c-.886.9-1.889 1.645-3.01 2.235-1.122.59-2.347.98-3.674 1.173-1.327.193-2.758.097-4.293-.287zm20.76-42.449c0-.266-.008-.568-.022-.907a5.257 5.257 0 0 0-.133-.974 2.194 2.194 0 0 0-.354-.797.89.89 0 0 0-.643-.376c-.531-.059-1.106.273-1.726.996-.62.724-1.239 1.697-1.859 2.921-.62 1.225-1.218 2.634-1.793 4.227a57.554 57.554 0 0 0-1.526 4.914c-.443 1.682-.79 3.342-1.041 4.979s-.369 3.114-.354 4.426c.015 1.313.191 2.398.531 3.253.339.856.892 1.343 1.659 1.461 1.003.148 2.021-.051 3.055-.598 1.032-.545 2.051-1.32 3.054-2.324 1.003-1.003 1.97-2.162 2.899-3.475s1.808-2.663 2.634-4.05c.826-1.387 1.586-2.751 2.279-4.094s1.291-2.538 1.793-3.585c.502-1.047.907-1.881 1.218-2.501.31-.62.493-.9.553-.841a.952.952 0 0 1 .819.31c.221.236.272.649.154 1.239a59.24 59.24 0 0 1-1.128 2.634 92.123 92.123 0 0 1-1.704 3.541 112.94 112.94 0 0 1-2.147 4.028 77.92 77.92 0 0 1-2.435 4.072 48.829 48.829 0 0 1-2.589 3.674c-.886 1.136-1.742 2.073-2.567 2.811-1.948 1.682-3.829 2.76-5.644 3.231-1.815.472-3.475.42-4.98-.155-1.505-.576-2.788-1.645-3.851-3.209-1.062-1.563-1.814-3.526-2.258-5.887-.354-1.977-.435-4.043-.243-6.197a30.856 30.856 0 0 1 1.239-6.33 33.714 33.714 0 0 1 2.413-5.865c.974-1.844 2.072-3.423 3.297-4.736s2.523-2.302 3.896-2.966 2.767-.863 4.183-.598c.886.177 1.623.502 2.214.974a5.865 5.865 0 0 1 1.416 1.616c.354.605.604 1.24.753 1.903.147.664.214 1.262.199 1.793-.016.531-.089.967-.222 1.306-.133.34-.303.495-.509.465a.785.785 0 0 1-.31-.111 2.133 2.133 0 0 1-.22-.198z"/><path d="M245.748 68.877c-.206-.708-.377-1.623-.51-2.744-.133-1.121-.191-2.375-.177-3.763.016-1.387.11-2.855.288-4.404.177-1.549.472-3.098.885-4.647a29.787 29.787 0 0 1 1.616-4.537 18.5 18.5 0 0 1 2.456-4.028c.679-.826 1.401-1.417 2.169-1.771a5.27 5.27 0 0 1 2.324-.509 6.077 6.077 0 0 1 2.302.509c.752.325 1.468.738 2.146 1.24.561.442.93.871 1.106 1.284.178.414.236.826.178 1.239-.06.414-.192.856-.398 1.328-.207.473-.414.989-.62 1.549a134.02 134.02 0 0 0-1.926 5.688c-.486 1.579-.849 2.951-1.084 4.117-.236 1.166-.384 2.169-.442 3.01-.06.841-.06 1.631 0 2.368.088 1.564.302 2.981.642 4.25.339 1.269.774 2.235 1.306 2.899.531.664 1.129.952 1.793.863s1.364-.693 2.103-1.815a18.347 18.347 0 0 0 2.302-5.112 29.66 29.66 0 0 0 .974-5.644c-1.062.088-1.934-.125-2.611-.642-.68-.516-1.195-1.195-1.55-2.036a7.944 7.944 0 0 1-.598-2.744c-.044-.988.022-1.925.199-2.811.118-.443.258-.893.421-1.35.162-.458.368-.87.619-1.24a3.32 3.32 0 0 1 .908-.907c.354-.236.796-.354 1.327-.354 1.151 0 1.992.317 2.523.952.531.635.886 1.432 1.062 2.39.177.959.25 2.014.221 3.165s-.044 2.228-.044 3.231c.59.06 1.202-.147 1.837-.62a14.154 14.154 0 0 0 1.815-1.616 21.624 21.624 0 0 0 1.505-1.748c.427-.561.73-.9.907-1.018.235 0 .531.082.885.243.354.163.531.362.531.598a40.393 40.393 0 0 1-1.571 1.992 18.536 18.536 0 0 1-1.748 1.815 11.9 11.9 0 0 1-1.992 1.461 7.742 7.742 0 0 1-2.302.885 32.504 32.504 0 0 1-1.195 6.02c-.59 1.978-1.432 3.955-2.522 5.932a15.912 15.912 0 0 1-2.191 3.099c-.812.885-1.712 1.549-2.7 1.992-.989.442-2.096.627-3.319.553-1.226-.073-2.575-.465-4.051-1.173a10.9 10.9 0 0 1-3.541-2.833c-1.004-1.212-1.756-2.747-2.258-4.606zm18.944-41.033c.502-.117 1.062-.25 1.683-.398a5.566 5.566 0 0 1 1.837-.132 3.455 3.455 0 0 1 1.704.664c.531.384.958 1.048 1.283 1.992.029.088.015.133-.044.133-.974 0-2.007.162-3.099.487a48.314 48.314 0 0 0-3.386 1.151 171.78 171.78 0 0 1-3.563 1.306 22.213 22.213 0 0 1-3.586.952 12.394 12.394 0 0 1-3.452.133c-1.122-.118-2.198-.516-3.231-1.195-.561-.354-1.018-.855-1.372-1.505-.354-.648-.605-1.593-.752-2.833-.06-.088-.045-.133.044-.133.059 0 .324.089.797.266a51.39 51.39 0 0 0 1.771.62c1.209.442 2.396.664 3.563.664 1.165 0 2.301-.117 3.408-.354 1.106-.236 2.19-.531 3.253-.885s2.109-.667 3.142-.933zm-.708 23.947c-.089.384-.192.923-.31 1.616a9.693 9.693 0 0 0-.133 2.058c.029.679.169 1.277.42 1.793.251.517.701.79 1.351.819.059-.767.11-1.601.154-2.501.045-.9.052-2.043.022-3.43 0-.383-.044-.723-.133-1.018-.088-.295-.207-.487-.354-.576-.148-.088-.311-.044-.487.133s-.353.546-.53 1.106z"/><path d="M291.604 53.164a8.754 8.754 0 0 1-1.814 2.279 14.788 14.788 0 0 1-2.479 1.793c-.915.531-1.889.981-2.921 1.35-1.033.37-2.066.672-3.099.908a56.008 56.008 0 0 0-.841 4.692c-.207 1.535-.296 2.921-.266 4.161.028 1.24.206 2.258.531 3.054.324.797.855 1.24 1.593 1.328 1.003.148 2.021-.051 3.055-.598 1.032-.545 2.051-1.32 3.054-2.324 1.003-1.003 1.97-2.162 2.899-3.475s1.808-2.663 2.634-4.05c.826-1.387 1.586-2.751 2.279-4.094s1.291-2.538 1.793-3.585c.502-1.047.907-1.881 1.218-2.501.31-.62.493-.9.553-.841a.952.952 0 0 1 .819.31c.221.236.272.649.154 1.239a59.24 59.24 0 0 1-1.128 2.634 92.123 92.123 0 0 1-1.704 3.541 112.94 112.94 0 0 1-2.147 4.028 77.92 77.92 0 0 1-2.435 4.072 48.829 48.829 0 0 1-2.589 3.674c-.886 1.136-1.742 2.073-2.567 2.811-1.948 1.682-3.829 2.76-5.644 3.231-1.815.472-3.475.42-4.98-.155-1.505-.576-2.788-1.645-3.851-3.209-1.062-1.563-1.814-3.526-2.258-5.887-.354-1.977-.435-4.028-.243-6.153a30.506 30.506 0 0 1 1.218-6.219 30.286 30.286 0 0 1 2.412-5.732c.988-1.8 2.087-3.364 3.298-4.692 1.209-1.328 2.508-2.346 3.895-3.054 1.387-.708 2.789-.989 4.205-.841 1.357.148 2.538.635 3.542 1.461a7.819 7.819 0 0 1 2.257 3.01c.502 1.181.73 2.464.687 3.851-.046 1.386-.422 2.714-1.13 3.983zm-9.738 4.072a29.106 29.106 0 0 0 3.099-1.018 11.795 11.795 0 0 0 2.877-1.594 8.799 8.799 0 0 0 2.146-2.346c.576-.914.893-2.006.952-3.275.117-1.799-.724-2.95-2.523-3.453-.472-.117-.995.133-1.571.752-.575.62-1.158 1.476-1.748 2.567-.591 1.092-1.166 2.368-1.727 3.829a53.129 53.129 0 0 0-1.505 4.538z"/><path d="M315.861 74.72c2.626.827 5.362 1.918 8.211 3.276a322.038 322.038 0 0 1 8.742 4.337c2.98 1.535 5.99 3.069 9.029 4.604a117.33 117.33 0 0 0 9.074 4.117c3.01 1.209 5.976 2.154 8.897 2.833 2.921.678 5.739.929 8.454.752 1.771-.118 3.548-.561 5.334-1.328 1.785-.768 3.431-1.837 4.936-3.209s2.795-3.018 3.873-4.936c1.077-1.918 1.807-4.101 2.19-6.551.089-.472.199-.9.332-1.284.133-.383.332-.679.598-.885.266-.206.627-.31 1.085-.31.457 0 1.04.133 1.748.398 1.18.443 2.095 1.136 2.744 2.081.649.945 1.062 2.029 1.24 3.253.177 1.225.161 2.53-.045 3.917a21.186 21.186 0 0 1-1.018 4.05 19.878 19.878 0 0 1-1.771 3.696c-.709 1.15-1.477 2.109-2.302 2.877-2.744 2.538-5.577 4.316-8.499 5.334a24.844 24.844 0 0 1-8.963 1.394c-3.055-.088-6.139-.642-9.252-1.66s-6.234-2.302-9.361-3.851a126.792 126.792 0 0 1-9.34-5.135 3924.076 3924.076 0 0 0-9.141-5.511c-2.995-1.8-5.924-3.475-8.786-5.024s-5.622-2.767-8.277-3.652c-.354 1.889-.967 3.541-1.837 4.958-.871 1.417-1.896 2.538-3.076 3.364-1.181.826-2.457 1.32-3.829 1.483-1.372.162-2.737-.066-4.095-.687-1.858-.856-3.202-1.985-4.027-3.386-.827-1.401-1.195-2.87-1.107-4.404.06-.915.266-1.8.62-2.656s.848-1.63 1.482-2.324a8.001 8.001 0 0 1 2.302-1.726c.9-.457 1.926-.759 3.077-.908a7.731 7.731 0 0 1 1.748.022c.575.074 1.084.17 1.527.288a62.485 62.485 0 0 0-1.372-6.994 235.457 235.457 0 0 0-1.771-6.529c-.591-2.051-1.1-3.932-1.527-5.644-.429-1.711-.642-3.158-.642-4.338 0-.207-.016-.325-.045-.354a.669.669 0 0 0-.11.244.744.744 0 0 1-.11.244c-.325.708-.649 1.402-.975 2.08a31.974 31.974 0 0 1-1.704 3.143c-.221.354-.376.546-.465.575-.236.148-.546.251-.929.31-.384.059-.709.059-.975 0a104.84 104.84 0 0 0 3.542-6.972c.412-.9.774-1.711 1.084-2.435.31-.723.582-1.379.819-1.97l.133-.443c.442-2.508 1.15-4.404 2.124-5.688.974-1.284 2.081-1.719 3.32-1.306.294.089.479.34.553.752.073.414.052.752-.066 1.018-.442 1.062-.604 2.42-.486 4.072.117 1.653.398 3.497.841 5.533s.988 4.213 1.638 6.529a759.89 759.89 0 0 1 1.926 7.016 147.41 147.41 0 0 1 1.704 7.016c.504 2.322.828 4.498.976 6.534zm-7.347.797c-1.062-.737-2.096-1.099-3.099-1.084-1.004.015-1.903.259-2.7.73a5.844 5.844 0 0 0-1.97 1.925c-.517.812-.834 1.646-.952 2.501a3.577 3.577 0 0 0 .199 1.815c.222.561.531 1.055.93 1.483s.863.768 1.395 1.018a5.02 5.02 0 0 0 1.638.464c.886.089 1.616-.022 2.191-.332a3.652 3.652 0 0 0 1.372-1.262 5.52 5.52 0 0 0 .73-1.837c.147-.693.243-1.387.287-2.081a16.72 16.72 0 0 0 .022-1.925 30.102 30.102 0 0 1-.043-1.415z"/></g><path d="M0 155.584l4.869-1.737 30.828 61.566 1.987-.709c.395.084.622.209.683.379s-.035.412-.289.726l-13.289 4.739a.48.48 0 0 1-.406-.022c-.124-.068-.216-.187-.276-.356s-.064-.319-.011-.45a.474.474 0 0 1 .299-.275l2.12-.756-5.634-12.174-8.11 2.892 1.618 7.434c.107.394.234.796.381 1.208.463 1.296 1.055 2.188 1.779 2.677s1.542.653 2.453.494l.788-.032c.16.076.272.201.335.378s.061.335-.006.475a.534.534 0 0 1-.319.288l-7.55 2.692a.535.535 0 0 1-.431-.021c-.14-.065-.241-.188-.304-.364a.753.753 0 0 1-.025-.488l.467-.366c.812-.421 1.338-1.04 1.578-1.856.338-1.281.23-3.167-.326-5.656L0 155.584zm4.729 16.876l7.78 35.745 7.761-2.768L4.729 172.46zm58.427-30.756c-.354-1.393-.791-2.346-1.309-2.859-.518-.513-1.186-.794-2.004-.844l-2 .316c-.167-.022-.285-.169-.354-.442-.062-.242-.066-.418-.014-.529.052-.11.23-.204.533-.281l8.04-2.047a.36.36 0 0 1 .336.083.672.672 0 0 1 .213.357c.038.152.028.275-.027.37-.057.095-.289.291-.697.588-.846.603-1.375 1.245-1.589 1.928-.213.683-.161 1.837.156 3.464l15.868 62.328-7.026 1.789-27.169-59.35 14.352 56.374c.394 1.545.836 2.585 1.326 3.12.492.537 1.146.83 1.966.879l2.091-.339c.174.053.296.215.365.487.062.243.064.412.008.506-.057.096-.236.182-.539.259l-8.04 2.047a.376.376 0 0 1-.33-.062c-.099-.071-.167-.183-.206-.334s-.029-.274.027-.37c.056-.095.288-.291.696-.588.846-.603 1.37-1.236 1.571-1.9.202-.663.137-1.84-.196-3.529l-15.579-61.188-2.543.648a.537.537 0 0 1-.427-.061.597.597 0 0 1-.269-.391.532.532 0 0 1 .061-.426.534.534 0 0 1 .346-.257l11.765-2.996 21.897 47.632-11.299-44.382zm39.198-12.695l-.972.163a2.613 2.613 0 0 0-1.648.94c-.631.77-1.116 2.322-1.454 4.656-.548 3.729-.81 8.131-.784 13.204.025 5.073.148 8.271.37 9.594l.178 1.062c.041.247.011.449-.089.608s-.227.251-.381.277c-.186.031-.334-.007-.447-.115a.932.932 0 0 1-.332-.562l-4.905-29.311 30.005-5.021 4.898 29.266a.786.786 0 0 1-.097.562.607.607 0 0 1-.428.285.551.551 0 0 1-.45-.138.773.773 0 0 1-.273-.5l-.301-1.797c-.294-1.751-1.279-4.941-2.957-9.572-1.678-4.63-3.36-8.478-5.045-11.544-1.09-1.965-1.91-3.123-2.459-3.473-.551-.35-1.041-.489-1.472-.417l-1.479.248 11.242 67.175 3.606-.604c.374.151.575.315.605.493s-.106.399-.41.663l-17.108 2.864c-.154.025-.285-.005-.396-.094s-.179-.222-.209-.399-.007-.326.068-.445a.476.476 0 0 1 .344-.218l4.022-.673-11.242-67.177zm48.193-6.833l-3.027.275c-.336-.188-.51-.361-.525-.517-.02-.217.117-.434.413-.649l26.562-2.418 2.367 26.002c-.151.328-.316.5-.494.516-.18.017-.312-.026-.396-.128s-.177-.54-.277-1.314c-.688-5.137-1.938-9.863-3.747-14.177s-3.424-7.001-4.843-8.062c-.744-.559-1.928-.764-3.553-.616l-2.904.264 2.987 32.817c1.757-.348 3.119-1.414 4.087-3.196 1.287-2.408 1.717-5.961 1.289-10.661l-.332-3.641a.542.542 0 0 1 .127-.412.544.544 0 0 1 .383-.199c.154-.014.284.029.388.129s.162.229.177.384l3.156 34.685a.586.586 0 0 1-.104.41.467.467 0 0 1-.358.197.54.54 0 0 1-.411-.127.538.538 0 0 1-.2-.382l-.306-3.361c-.42-4.605-1.593-8.186-3.52-10.741-1.139-1.465-2.252-2.148-3.34-2.049-.281.025-.49.139-.629.339-.166.235-.229.586-.186 1.053l2.961 32.537 1.494-.136c1.275-.116 2.492-.705 3.651-1.768 1.158-1.062 2.175-2.818 3.051-5.267.876-2.449 1.482-5.084 1.821-7.909.557-4.569.721-8.114.492-10.635l-.281-3.081c.187-.362.373-.552.561-.569a.664.664 0 0 1 .456.1.469.469 0 0 1 .197.358l2.626 28.85-26.516 2.414c-.218.02-.395-.024-.529-.133a.55.55 0 0 1-.224-.387.528.528 0 0 1 .147-.443c.115-.116.281-.185.5-.204l2.987-.272-6.178-67.876zm51.976-3.727l-2.766.051c-.348-.181-.523-.381-.527-.6-.003-.188.165-.378.505-.572l14.739-.271c3.649-.067 6.844 1.43 9.584 4.491s4.159 7.281 4.259 12.658c.057 3.095-.406 5.856-1.39 8.282-.984 2.427-2.473 4.44-4.468 6.04-1.198.96-3.065 1.901-5.604 2.824 2.869.791 4.869 1.566 6 2.326 1.916 1.277 3.348 2.828 4.297 4.653s1.45 4.206 1.505 7.141l.315 17.143c.014.781.148 1.325.405 1.633a1.2 1.2 0 0 0 .992.45c.625-.011 1.18-.412 1.666-1.203.789-1.264 1.263-3.523 1.422-6.777.021-.563.101-.939.237-1.129.138-.19.283-.287.44-.29.188-.003.346.104.475.319.16.248.247.715.26 1.402.064 3.468-.72 6.163-2.352 8.083-1.632 1.921-3.709 2.905-6.232 2.951-2.243.042-3.951-.506-5.125-1.64-1.174-1.135-1.78-2.764-1.82-4.89l-.456-24.792c-.039-2.125-.592-3.536-1.659-4.236-.628-.394-2.089-.571-4.383-.529l.635 34.447 2.296-.042c.25-.005.446.052.589.169.144.118.216.252.219.402.003.151-.065.287-.203.41-.139.123-.333.187-.583.191l-14.763.271a.703.703 0 0 1-.472-.148c-.128-.104-.192-.245-.195-.425s.056-.323.18-.431a.706.706 0 0 1 .466-.167l2.766-.051-1.254-68.144zm9.702-.131l.598 32.432 2.278-.042c1.085-.02 1.961-.411 2.63-1.174.668-.762.989-1.862.963-3.299l-.448-24.324c-.025-1.406-.292-2.37-.797-2.892-.507-.521-1.487-.77-2.944-.743l-2.28.042zm48.907.281l-2.81-.126a.468.468 0 0 1-.367-.181.588.588 0 0 1-.122-.404c.008-.188.062-.333.16-.438a.47.47 0 0 1 .382-.147l15.22.686a.549.549 0 0 1 .391.182.55.55 0 0 1 .146.406.608.608 0 0 1-.184.438.546.546 0 0 1-.405.146l-2.81-.127-3.066 68.087 2.81.126c.303.225.45.427.442.606-.01.211-.175.398-.495.564l-15.594-.702c-.334-.226-.496-.429-.488-.608.008-.18.188-.367.541-.562l3.185.144 3.064-68.09zm62.172 31.115l-1.84 17.199c-1.061 9.913-3.404 16.984-7.031 21.216-2.515 2.937-5.402 4.23-8.665 3.882-2.207-.236-4.157-1.247-5.852-3.031-1.695-1.784-2.906-4.271-3.634-7.46-1.181-5.124-1.447-10.699-.803-16.727l2.154-20.135c1.004-9.384 3.317-16.176 6.941-20.377 2.511-2.906 5.367-4.188 8.567-3.845 1.554.166 2.945.668 4.176 1.507s2.286 1.989 3.167 3.45 1.613 3.348 2.199 5.657c.585 2.31.921 4.68 1.008 7.108.124 4.131-.004 7.983-.387 11.556zm-19.935 34.308c-.26 2.424-.074 4.22.555 5.387.477.837 1.118 1.298 1.927 1.384.776.083 1.497-.193 2.163-.829.664-.636 1.067-1.606 1.207-2.912l6.394-59.752c.179-1.678-.066-3.055-.736-4.133-.453-.771-1.082-1.2-1.89-1.286-.716-.077-1.373.199-1.975.826-.814.856-1.316 2.169-1.506 3.94l-6.139 57.375zm51.67-56.083l-2.718-.512c-.304-.248-.435-.479-.394-.694.034-.184.237-.337.609-.458l14.487 2.729c3.587.676 6.41 2.791 8.472 6.345 2.061 3.554 2.594 7.974 1.598 13.259-.573 3.042-1.588 5.651-3.043 7.827-1.456 2.176-3.323 3.845-5.602 5.006-1.368.697-3.388 1.239-6.06 1.627 2.647 1.357 4.449 2.522 5.402 3.496 1.616 1.64 2.703 3.449 3.262 5.429.558 1.98.565 4.413.021 7.298l-3.174 16.85c-.145.767-.123 1.328.065 1.681s.48.567.88.642c.614.116 1.239-.164 1.876-.839 1.029-1.078 1.952-3.193 2.77-6.347.134-.547.289-.899.462-1.058s.335-.223.489-.194c.185.035.317.171.4.409.106.275.097.75-.03 1.425-.643 3.409-1.958 5.888-3.945 7.437-1.988 1.55-4.222 2.091-6.702 1.624-2.205-.416-3.766-1.298-4.686-2.647-.919-1.349-1.182-3.068-.788-5.157l4.591-24.369c.394-2.088.139-3.583-.765-4.484-.534-.514-1.929-.983-4.184-1.408l-6.378 33.857 2.258.425c.245.046.426.142.542.286s.16.29.133.438c-.028.148-.122.268-.283.359-.16.092-.363.115-.608.069l-14.511-2.733a.7.7 0 0 1-.432-.242c-.104-.127-.139-.279-.104-.456.033-.177.12-.305.263-.386s.306-.104.49-.069l2.718.512 12.619-66.977zm9.526 1.843l-6.005 31.877 2.24.422c1.066.201 2.004-.004 2.813-.615.809-.611 1.347-1.622 1.612-3.035l4.504-23.908c.261-1.382.195-2.379-.193-2.994-.39-.614-1.3-1.056-2.731-1.325l-2.24-.422zm49.277 10.772l-2.926-.826c-.246-.296-.348-.52-.305-.67.06-.21.265-.364.617-.459l25.669 7.241-7.089 25.129c-.258.252-.473.354-.646.305-.174-.049-.281-.136-.324-.261-.042-.125.028-.568.212-1.327 1.194-5.043 1.718-9.903 1.57-14.579s-.693-7.763-1.64-9.261c-.494-.788-1.527-1.403-3.097-1.846l-2.807-.792-8.947 31.715c1.766.303 3.418-.205 4.959-1.523 2.063-1.788 3.735-4.953 5.017-9.495l.992-3.519a.545.545 0 0 1 .267-.339c.135-.076.277-.092.428-.05s.256.129.316.26a.59.59 0 0 1 .027.421l-9.456 33.52a.592.592 0 0 1-.243.345c-.12.081-.256.099-.406.056s-.264-.131-.339-.266a.542.542 0 0 1-.05-.428l.917-3.249c1.255-4.451 1.44-8.214.555-11.289-.539-1.775-1.334-2.812-2.387-3.108-.271-.076-.507-.045-.708.093-.24.16-.423.465-.551.916l-8.87 31.444 1.443.407c1.233.348 2.58.233 4.043-.345 1.461-.578 3.038-1.854 4.732-3.828 1.692-1.974 3.202-4.218 4.529-6.734 2.153-4.068 3.575-7.32 4.262-9.756l.841-2.978c.303-.271.546-.382.727-.331.18.051.31.136.39.256s.099.255.057.405l-7.865 27.881-25.625-7.229c-.211-.06-.36-.164-.447-.314a.546.546 0 0 1-.07-.441.523.523 0 0 1 .297-.359c.148-.068.328-.072.539-.014l2.887.815 18.505-65.593zm30.514 77.989c-1.263.313-2.612.786-4.048 1.417-1.437.632-2.271.901-2.504.812-.087-.034-.144-.106-.167-.217-.025-.11.02-.311.134-.602l10.679-27.432a.404.404 0 0 1 .224-.24.384.384 0 0 1 .293-.012c.151.059.254.199.308.421.11.345.104.678-.021.998l-.731 1.878c-1.417 3.641-2.467 8.01-3.147 13.111-.682 5.1-.493 8.996.565 11.688.514 1.341 1.366 2.242 2.557 2.706 1.365.531 2.808.347 4.328-.554 1.52-.9 2.791-2.661 3.812-5.282.975-2.504 1.54-5.336 1.696-8.494.229-4.203-.156-11.228-1.152-21.072-.626-6.146-.851-10.5-.674-13.064.176-2.564.684-4.923 1.523-7.078 1.666-4.281 3.979-7.236 6.94-8.868 2.96-1.63 5.733-1.943 8.32-.936 2.209.86 3.74 2.814 4.595 5.863a26.287 26.287 0 0 0 5.368-1.28c.623-.227 1.008-.312 1.153-.255.059.022.105.075.141.155.013.139-.038.354-.15.646l-9.234 23.719c-.125.321-.3.554-.523.702a.443.443 0 0 1-.416.039.46.46 0 0 1-.308-.371c-.031-.18.203-1.295.702-3.349 2.335-9.52 3.088-16.135 2.259-19.845-.504-2.141-1.496-3.5-2.977-4.076-1.104-.43-2.255-.307-3.452.366-1.199.674-2.172 1.972-2.92 3.894-1.35 3.466-1.585 9.93-.708 19.392l.834 9.228c.575 6.361.69 11.277.346 14.747-.346 3.471-1 6.444-1.963 8.919-1.678 4.311-4.057 7.274-7.134 8.893-3.079 1.619-6.045 1.873-8.898.762-3.089-1.201-4.972-3.644-5.65-7.329z" fill="#FFF"/><path fill="#1FBFE9" d="M241.23 263.707c-6.094 0-11.052-4.958-11.052-11.052 0-6.095 4.958-11.053 11.052-11.053s11.053 4.958 11.053 11.053c0 6.094-4.959 11.052-11.053 11.052zm0-24.199c-7.248 0-13.145 5.897-13.145 13.146 0 7.247 5.896 13.145 13.145 13.145s13.146-5.897 13.146-13.145c.001-7.248-5.897-13.146-13.146-13.146z"/><path fill="#1FBFE9" d="M241.23 258.875a6.226 6.226 0 0 1-6.219-6.22c0-3.43 2.789-6.221 6.219-6.221s6.221 2.791 6.221 6.221a6.229 6.229 0 0 1-6.221 6.22zm0-14.422c-4.521 0-8.202 3.678-8.202 8.202 0 4.522 3.681 8.201 8.202 8.201 4.523 0 8.204-3.679 8.204-8.201.001-4.524-3.68-8.202-8.204-8.202z"/><path fill="#1FBFE9" d="M263.517 267.408h-44.57a1.103 1.103 0 0 1-1.102-1.102v-2.828h4.363c.61 0 1.104-.494 1.104-1.103v-19.442c0-.608-.493-1.103-1.104-1.103h-4.363v-2.828c0-.607.493-1.103 1.102-1.103h30.318l.008.001.008-.001h14.236c.607 0 1.102.495 1.102 1.103v2.828h-4.365c-.608 0-1.102.494-1.102 1.103v19.442c0 .608.493 1.103 1.102 1.103h4.365v2.828a1.105 1.105 0 0 1-1.102 1.102zm-45.672-23.373h3.263v17.239h-3.263v-17.239zm4.624-9.807c0-.03.024-.055.055-.055h3.172c.028 0 .054.024.054.055v1.47h-3.28v-1.47h-.001zm13.397-1.52a.609.609 0 0 1 .57-.398h9.588a.61.61 0 0 1 .571.398l1.099 2.99h-12.926l1.098-2.99zm28.752 28.566h-3.263v-17.239h3.263v17.239zm-1.101-25.576h-13.476l-1.376-3.749a2.821 2.821 0 0 0-2.641-1.843h-9.587c-1.174 0-2.234.74-2.64 1.843l-1.377 3.749h-4.578v-1.47a2.15 2.15 0 0 0-2.147-2.148h-3.172a2.152 2.152 0 0 0-2.148 2.148v1.47h-1.429a3.307 3.307 0 0 0-3.305 3.305v27.304a3.306 3.306 0 0 0 3.305 3.304h44.57a3.308 3.308 0 0 0 3.305-3.304v-27.304a3.308 3.308 0 0 0-3.304-3.305z"/><path fill="#1FBFE9" d="M241.23 248.601a4.058 4.058 0 0 0-4.053 4.054.991.991 0 1 0 1.984 0c0-1.143.929-2.07 2.068-2.07a.99.99 0 0 0 .992-.992.99.99 0 0 0-.991-.992zm160.897 4.997a.945.945 0 0 1-.945.945H290.947a.945.945 0 0 1 0-1.889h110.234c.523 0 .946.423.946.944zm-209.666 0a.946.946 0 0 1-.945.945H81.281a.944.944 0 1 1 0-1.889h110.234c.522 0 .946.423.946.944z"/></svg>