<?xml version="1.0" encoding="UTF-8"?>
<svg width="22px" height="35px" viewBox="0 0 22 35" version="1.1" xmlns="http://www.w3.org/2000/svg" xmlns:xlink="http://www.w3.org/1999/xlink">
    <!-- Generator: Sketch 41.2 (35397) - http://www.bohemiancoding.com/sketch -->
    <title>Shape</title>
    <desc>Created with Sketch.</desc>
    <defs></defs>
    <g id="Page-1" stroke="none" stroke-width="1" fill="none" fill-rule="evenodd">
        <path d="M22,24.2 C22,26 21.6,27.6 20.9,28.9 C20.2,30.2 19.2,31.3 17.9,32.1 C16.7,32.9 15.3,33.6 13.7,34 C12.1,34.4 10.5,34.6 8.9,34.6 C8.3,34.6 7.6,34.6 6.8,34.5 C6,34.4 5.2,34.3 4.4,34.2 C3.6,34.1 2.8,33.9 2.1,33.7 C1.3,33.5 0.7,33.3 -1.77635684e-15,33 C0.2,31.7 0.4,30.5 0.6,29.2 C0.8,28 1.1,26.7 1.5,25.3 C2.6,25.9 3.9,26.3 5.3,26.6 C6.7,27 7.9,27.2 9,27.2 C10.3,27.2 11.2,26.9 11.9,26.4 C12.6,25.9 12.8,25 12.8,23.9 C12.8,23.2 12.7,22.6 12.5,22.2 C12.3,21.7 12,21.4 11.7,21.2 C11.4,21 10.9,20.8 10.5,20.7 C10,20.6 9.5,20.6 8.9,20.6 L3.4,20.6 L3.4,13 L8.4,13 C9.9,13 10.8,12.8 11.3,12.3 C11.8,11.8 12,11.1 12,10 C12,8.3 10.8,7.5 8.5,7.5 C7.6,7.5 6.5,7.6 5.4,7.8 C4.3,8 3.1,8.4 2,8.9 C1.7,7.6 1.5,6.4 1.3,5 C1.1,3.8 1,2.5 0.9,1.3 C2.5,0.8 4.1,0.5 5.5,0.3 C7,0.1 8.5,0 9.9,0 C11.4,0 12.8,0.2 14.1,0.5 C15.4,0.8 16.6,1.3 17.6,2 C18.6,2.7 19.4,3.6 20,4.8 C20.6,5.9 21,7.2 21,8.9 C21,10.6 20.6,12.1 19.7,13.3 C18.8,14.5 17.7,15.5 16.2,16.3 C18,17 19.4,18 20.5,19.3 C21.5,20.6 22,22.2 22,24.2 Z" id="Shape" fill="#788DA0"></path>
    </g>
</svg>