<?xml version="1.0" encoding="UTF-8"?>
<svg width="108px" height="107px" viewBox="0 0 108 107" version="1.1" xmlns="http://www.w3.org/2000/svg" xmlns:xlink="http://www.w3.org/1999/xlink">
    <!-- Generator: Sketch 41.2 (35397) - http://www.bohemiancoding.com/sketch -->
    <title>books</title>
    <desc>Created with Sketch.</desc>
    <defs></defs>
    <g id="Page-1" stroke="none" stroke-width="1" fill="none" fill-rule="evenodd">
        <g id="books">
            <path d="M75.8,76.1 C73.8,61.6 66.4,56.4 59.6,54.7 C68,52.4 74.1,44.8 74.1,35.7 C74.1,24.8 65.3,15.9 54.3,15.9 C43.4,15.9 34.5,24.7 34.5,35.7 C34.5,44.3 40,51.6 47.7,54.3 C40.4,55.6 31.5,60.5 29.6,77.2 C29.3,80.1 29.1,83.4 29.3,87.1 L29.3,88 C29.4,90.8 29.5,94.7 29.6,97.4 L75.8,97.4 C75.9,94.4 76,91.3 76.2,88.2 L76.2,88 C76.5,83.4 76.3,79.5 75.8,76.1" id="Shape" fill="#A8C8E1"></path>
            <path d="M55.8,49.1 L53.2,49.1 L53.2,46.2 L55.8,46.2 L55.8,49.1 Z M53.3,41.5 C53.3,39.9 53.4,38.7 53.7,38.1 C54,37.5 54.7,36.6 55.8,35.5 C57.1,34.1 58.1,33 58.7,32 C59.3,31 59.6,29.8 59.6,28.4 C59.6,26.8 59.2,25.6 58.3,24.7 C57.4,23.8 56.2,23.4 54.7,23.4 C53.2,23.4 52,23.8 51.1,24.7 C50.2,25.6 49.7,26.7 49.7,28.2 L47.6,28.2 L47.6,28.1 C47.6,26 48.2,24.4 49.5,23.2 C50.8,22 52.5,21.4 54.6,21.4 C56.8,21.4 58.6,22 59.9,23.3 C61.2,24.6 61.8,26.3 61.8,28.4 C61.8,30.1 61.4,31.6 60.6,32.9 C59.8,34.2 58.6,35.6 57.1,37 C56.3,37.7 55.9,38.3 55.7,38.9 C55.5,39.5 55.5,40.4 55.5,41.6 L53.3,41.5 Z" id="Shape" fill="#FDC300"></path>
            <path d="M55.8,49.1 L55.8,47.9 L54.4,47.9 L54.4,47.5 L54.5,47.5 L54.5,49.2 L55.8,49.1 L55.8,47.9 L55.8,49.1 L57,49.1 L57,46.2 C57,45.5 56.4,45 55.8,45 L53.2,45 C52.9,45 52.6,45.1 52.3,45.4 C52.1,45.6 51.9,45.9 51.9,46.3 L51.9,49.2 C51.9,49.5 52,49.8 52.3,50.1 C52.5,50.3 52.8,50.5 53.2,50.5 L55.8,50.5 C56.5,50.5 57,49.9 57,49.3 L55.8,49.1 Z M53.3,41.5 L54.5,41.5 C54.5,40.7 54.5,40.1 54.6,39.6 C54.7,39.1 54.7,38.7 54.8,38.6 C54.9,38.5 55,38.2 55.3,37.8 C55.6,37.4 56,37 56.6,36.5 L56.7,36.4 C58.1,35 59.1,33.8 59.8,32.7 L59.8,32.7 C60.6,31.5 60.9,30.1 60.9,28.4 L60.9,28.4 L60.9,28.4 C60.9,27.5 60.8,26.6 60.5,25.9 C60.2,25.1 59.8,24.4 59.3,23.9 L59.3,23.9 C58.7,23.3 58.1,22.9 57.3,22.6 C56.5,22.3 55.7,22.2 54.8,22.2 L54.8,22.2 L54.8,22.2 C53.9,22.2 53.1,22.3 52.4,22.6 C51.7,22.9 51,23.3 50.4,23.8 C49.8,24.3 49.4,25 49.1,25.8 C48.8,26.5 48.7,27.4 48.7,28.2 L49.9,28.2 L49.9,27 L47.8,27 L47.8,28.2 L49,27.8 L49,27.7 L47.7,28 L48.9,28 L48.9,27.8 C48.9,26.9 49,26.2 49.3,25.6 C49.6,25 49.9,24.5 50.4,24 C50.9,23.5 51.6,23.1 52.3,22.9 C53,22.7 53.8,22.5 54.7,22.5 L54.7,22.5 L54.7,22.5 C55.7,22.5 56.5,22.6 57.3,22.9 C58,23.2 58.6,23.5 59.1,24 C59.6,24.5 60,25.1 60.2,25.8 C60.5,26.5 60.6,27.3 60.6,28.3 L60.6,28.3 C60.6,29.8 60.2,31 59.6,32.1 C58.8,33.3 57.7,34.6 56.3,36 L57.1,36.9 L56.4,36 C56,36.4 55.6,36.8 55.3,37.2 C55,37.6 54.8,38 54.6,38.5 L54.6,38.5 C54.5,38.9 54.4,39.3 54.4,39.8 C54.4,40.3 54.3,40.8 54.3,41.4 L54.3,41.5 L55.5,41.5 L55.5,40.3 L53.3,40.3 L53.3,41.5 L54.5,41.5 L53.3,41.5 L53.3,42.7 L55.5,42.7 C55.8,42.7 56.1,42.6 56.4,42.3 C56.6,42.1 56.8,41.8 56.8,41.4 L56.8,41.3 C56.8,40.7 56.8,40.3 56.9,39.9 C56.9,39.5 57,39.2 57,39.1 L57,39.1 C57,39 57.1,38.8 57.3,38.6 C57.5,38.4 57.7,38.1 58.1,37.8 L58.1,37.8 C59.7,36.3 60.9,34.9 61.8,33.5 C62.8,32 63.2,30.3 63.2,28.4 L63.2,28.4 C63.2,27.2 63,26.1 62.6,25.1 C62.2,24.1 61.6,23.2 60.9,22.4 C60.1,21.6 59.2,21.1 58.2,20.7 C57.2,20.3 56,20.2 54.8,20.2 L54.8,20.2 L54.8,20.2 C53.6,20.2 52.6,20.4 51.6,20.7 C50.6,21.1 49.7,21.6 48.9,22.3 C48.1,23 47.5,23.8 47.1,24.8 C46.7,25.8 46.5,26.8 46.5,27.9 L46.5,28.1 C46.5,28.2 46.5,28.4 46.6,28.5 L46.6,28.6 C46.8,29.1 47.2,29.4 47.8,29.4 L49.9,29.4 C50.6,29.4 51.1,28.9 51.1,28.2 C51.1,27.6 51.2,27.1 51.4,26.7 C51.6,26.3 51.8,25.9 52.1,25.6 C52.4,25.3 52.8,25.1 53.2,24.9 C53.6,24.7 54.2,24.7 54.8,24.6 L54.8,24.6 L54.8,24.6 C55.5,24.6 56,24.7 56.5,24.9 C56.9,25.1 57.3,25.3 57.6,25.6 L57.6,25.6 C57.9,25.9 58.1,26.3 58.3,26.7 C58.5,27.2 58.6,27.7 58.6,28.4 L58.6,28.4 L58.6,28.4 C58.6,29.7 58.3,30.6 57.9,31.3 C57.3,32.2 56.4,33.3 55.1,34.6 L56,35.5 L55,34.6 C54.4,35.2 53.9,35.7 53.5,36.2 C53.1,36.7 52.8,37.1 52.6,37.7 C52.4,38.2 52.3,38.7 52.2,39.4 C52.1,40 52.1,40.8 52.1,41.6 C52.1,41.9 52.2,42.2 52.5,42.5 C52.7,42.7 53,42.9 53.4,42.9 L53.3,41.5 Z" id="Shape" fill="#FDC300"></path>
            <path d="M38.1,69.6 L50.5,69.6 L50.5,82.5 L42,82.5 C42.2,78.2 40.4,73.3 38.1,69.6" id="Shape" fill="#DEE5ED"></path>
            <path d="M2.5,69.6 L38.1,69.6 C40.5,73.4 42.2,78.2 42,82.5 L2.5,82.5 L2.5,69.6 Z" id="Shape" fill="#FFFFFF"></path>
            <rect id="Rectangle-path" fill="#D2EBFC" x="50.5" y="72" width="2.8" height="0.7"></rect>
            <path d="M50.5,72 L39.5,72 C39.6,72.2 39.7,72.5 39.8,72.7 L50.5,72.7 L50.5,72 Z" id="Shape" fill="#B2D2E6"></path>
            <path d="M39.4,72 L2.4,72 L2.4,72.7 L39.7,72.7 C39.7,72.4 39.6,72.2 39.4,72" id="Shape" fill="#D2EBFC"></path>
            <rect id="Rectangle-path" fill="#D2EBFC" x="50.5" y="74.4" width="2.8" height="0.7"></rect>
            <path d="M50.5,74.5 L40.6,74.5 C40.7,74.7 40.8,75 40.8,75.2 L50.5,75.2 L50.5,74.5 Z" id="Shape" fill="#B2D2E6"></path>
            <path d="M40.5,74.5 L2.5,74.5 L2.5,75.2 L40.8,75.2 C40.7,74.9 40.6,74.7 40.5,74.5" id="Shape" fill="#D2EBFC"></path>
            <rect id="Rectangle-path" fill="#D2EBFC" x="50.5" y="76.9" width="2.8" height="0.7"></rect>
            <path d="M50.5,76.9 L41.4,76.9 C41.5,77.1 41.5,77.4 41.6,77.6 L50.6,77.6 L50.6,76.9 L50.5,76.9 Z" id="Shape" fill="#B2D2E6"></path>
            <path d="M41.3,76.9 L2.5,76.9 L2.5,77.6 L41.5,77.6 C41.4,77.4 41.4,77.1 41.3,76.9" id="Shape" fill="#D2EBFC"></path>
            <rect id="Rectangle-path" fill="#D2EBFC" x="50.5" y="79.4" width="2.8" height="0.7"></rect>
            <path d="M50.5,79.4 L41.9,79.4 C41.9,79.6 42,79.9 42,80.1 L50.5,80.1 L50.5,79.4 Z" id="Shape" fill="#B2D2E6"></path>
            <path d="M41.8,79.4 L2.5,79.4 L2.5,80.1 L41.9,80.1 C41.9,79.8 41.9,79.6 41.8,79.4" id="Shape" fill="#D2EBFC"></path>
            <path d="M48.9,75.4 C48.9,68.8 45,65.8 41,65.8 L53.1,65.8 C57.4,71.1 55.2,79.8 51.7,86.3 L41,86.3 C45,86.3 48.9,83.5 48.9,75.4" id="Shape" fill="#F9B100"></path>
            <path d="M53.1,65.8 L90.3,65.8 C94.3,65.8 97.5,69 97.5,73 L97.5,79 C97.5,83 94.3,86.2 90.3,86.2 L51.8,86.2 C55.2,79.7 57.4,71.1 53.1,65.8" id="Shape" fill="#FFD700"></path>
            <path d="M0,84.4 C0,83.4 0.8,82.5 1.9,82.5 L48.6,82.5 C49.6,82.5 50.5,83.3 50.5,84.4 C50.5,85.4 49.7,86.3 48.6,86.3 L1.9,86.3 C0.8,86.3 0,85.4 0,84.4" id="Shape" fill="#F9B100"></path>
            <path d="M0,67.7 C0,66.7 0.8,65.8 1.9,65.8 L48.6,65.8 C49.6,65.8 50.5,66.6 50.5,67.7 C50.5,68.7 49.7,69.6 48.6,69.6 L1.9,69.6 C0.8,69.6 0,68.7 0,67.7" id="Shape" fill="#F9B100"></path>
            <path d="M47.7,90 L60,90 L60,103 L51.6,103 C51.8,98.7 50,93.8 47.7,90" id="Shape" fill="#DEE5ED"></path>
            <path d="M12.1,90 L47.7,90 C50.1,93.8 51.8,98.6 51.6,102.9 L12.1,102.9 L12.1,90 Z" id="Shape" fill="#FFFFFF"></path>
            <rect id="Rectangle-path" fill="#D2EBFC" x="60" y="92.5" width="2.8" height="0.7"></rect>
            <path d="M60,92.5 L49,92.5 C49.1,92.7 49.2,93 49.3,93.2 L60,93.2 L60,92.5 Z" id="Shape" fill="#B2D2E6"></path>
            <path d="M49,92.5 L12,92.5 L12,93.2 L49.3,93.2 C49.2,92.9 49.1,92.7 49,92.5" id="Shape" fill="#D2EBFC"></path>
            <rect id="Rectangle-path" fill="#D2EBFC" x="60" y="94.9" width="2.8" height="0.7"></rect>
            <path d="M60,94.9 L50.1,94.9 C50.2,95.1 50.3,95.4 50.3,95.6 L60,95.6 L60,94.9 Z" id="Shape" fill="#B2D2E6"></path>
            <path d="M50.1,94.9 L12.1,94.9 L12.1,95.6 L50.4,95.6 C50.3,95.4 50.2,95.2 50.1,94.9" id="Shape" fill="#D2EBFC"></path>
            <rect id="Rectangle-path" fill="#32B9C7" x="60" y="97.4" width="2.8" height="0.7"></rect>
            <path d="M60,97.4 L50.9,97.4 C51,97.6 51,97.9 51.1,98.1 L60.1,98.1 L60.1,97.4 L60,97.4 Z" id="Shape" fill="#B2D2E6"></path>
            <path d="M50.9,97.4 L12.1,97.4 L12.1,98.1 L51.1,98.1 C51,97.9 51,97.6 50.9,97.4" id="Shape" fill="#D2EBFC"></path>
            <rect id="Rectangle-path" fill="#32B9C7" x="60" y="99.9" width="2.8" height="0.7"></rect>
            <path d="M60,99.9 L51.4,99.9 C51.4,100.1 51.5,100.4 51.5,100.6 L60,100.6 L60,99.9 Z" id="Shape" fill="#B2D2E6"></path>
            <path d="M51.4,99.9 L12.1,99.9 L12.1,100.6 L51.5,100.6 C51.5,100.3 51.5,100.1 51.4,99.9" id="Shape" fill="#D2EBFC"></path>
            <path d="M99.9,86.3 L62.7,86.3 L58.1,86.3 L50.5,86.3 L11.5,86.3 C10.5,86.3 9.6,87.1 9.6,88.2 C9.6,89.2 10.4,90.1 11.5,90.1 L57.1,90.1 C58,91.6 58.5,93.5 58.5,95.9 C58.5,99 57.9,101.3 57,103 L11.5,103 C10.5,103 9.6,103.8 9.6,104.9 C9.6,105.9 10.4,106.8 11.5,106.8 L50.6,106.8 L58.2,106.8 L61.4,106.8 L99.9,106.8 C103.9,106.8 107.1,103.6 107.1,99.6 L107.1,93.6 C107.1,89.5 103.9,86.3 99.9,86.3" id="Shape" fill="#312E2B"></path>
            <path d="M44.7,9.4 C45.4,11.1 48,10.1 47.4,8.4 L45.4,3 C44.7,1.3 42.1,2.3 42.7,4 L44.7,9.4 Z" id="Shape" fill="#FDC300"></path>
            <path d="M74.8,54.1 C73.6,52.7 71.4,54.6 72.6,56 L76.4,60.3 C77.6,61.7 79.8,59.8 78.5,58.4 L74.8,54.1 Z" id="Shape" fill="#FDC300"></path>
            <path d="M36.6,14.8 C37.8,16.2 40,14.3 38.7,12.9 L34.9,8.6 C33.7,7.2 31.5,9.1 32.7,10.5 L36.6,14.8 Z" id="Shape" fill="#FDC300"></path>
            <path d="M86.1,47.6 L81,45.1 C79.3,44.3 78.1,46.9 79.8,47.7 L85,50.2 C86.6,50.9 87.8,48.4 86.1,47.6" id="Shape" fill="#FDC300"></path>
            <path d="M25.3,21.4 L30.5,23.9 C32.2,24.7 33.4,22.1 31.7,21.3 L26.5,18.8 C24.9,18 23.6,20.6 25.3,21.4" id="Shape" fill="#FDC300"></path>
            <path d="M88.8,34.6 L83.1,34.3 C81.3,34.2 81.1,37.1 83,37.2 L88.7,37.5 C90.5,37.6 90.7,34.7 88.8,34.6" id="Shape" fill="#FDC300"></path>
            <path d="M28.4,31.7 L22.7,31.4 C20.9,31.3 20.7,34.2 22.6,34.3 L28.3,34.6 C30.1,34.6 30.3,31.8 28.4,31.7" id="Shape" fill="#FDC300"></path>
            <path d="M81.9,26.4 L87.3,24.4 C89,23.8 88,21.1 86.3,21.7 L80.9,23.7 C79.2,24.3 80.2,27 81.9,26.4" id="Shape" fill="#FDC300"></path>
            <path d="M29.5,42.6 L24.1,44.6 C22.4,45.2 23.4,47.9 25.1,47.3 L30.5,45.3 C32.2,44.6 31.2,41.9 29.5,42.6" id="Shape" fill="#FDC300"></path>
            <path d="M76.7,16.8 L80.9,12.9 C82.2,11.6 80.3,9.5 78.9,10.8 L74.7,14.7 C73.4,16 75.3,18.1 76.7,16.8" id="Shape" fill="#FDC300"></path>
            <path d="M34.8,52.1 L30.6,56 C29.3,57.3 31.2,59.4 32.6,58.1 L36.8,54.2 C38.1,53 36.1,50.9 34.8,52.1" id="Shape" fill="#FDC300"></path>
            <path d="M58.2,7.2 L58.4,1.5 C58.5,-0.3 55.6,-0.5 55.5,1.4 L55.3,7.1 C55.3,8.9 58.2,9 58.2,7.2" id="Shape" fill="#FDC300"></path>
            <path d="M68.1,10 L70.4,4.8 C71.1,3.1 68.5,2 67.8,3.6 L65.5,8.8 C64.7,10.5 67.4,11.7 68.1,10" id="Shape" fill="#FDC300"></path>
        </g>
    </g>
</svg>