<?xml version="1.0" encoding="utf-8"?>
<!-- Generator: Adobe Illustrator 17.0.0, SVG Export Plug-In . SVG Version: 6.00 Build 0)  -->
<!DOCTYPE svg PUBLIC "-//W3C//DTD SVG 1.1//EN" "http://www.w3.org/Graphics/SVG/1.1/DTD/svg11.dtd">
<svg version="1.1" id="Camada_1" xmlns="http://www.w3.org/2000/svg" xmlns:xlink="http://www.w3.org/1999/xlink" x="0px" y="0px"
	 width="35.7px" height="34.8px" viewBox="0 0 35.7 34.8" enable-background="new 0 0 35.7 34.8" xml:space="preserve">
<path fill="#788DA0" d="M12.9,19.2c0-0.4-0.4-0.8-0.8-0.8H9.2c-0.5,0-0.8,0.4-0.8,0.8v2.8c0,0.4,0.4,0.8,0.8,0.8h2.9
	c0.5,0,0.8-0.4,0.8-0.8V19.2z"/>
<path fill="#788DA0" d="M20.2,19.2c0-0.4-0.4-0.8-0.8-0.8h-2.9c-0.5,0-0.8,0.4-0.8,0.8v2.8c0,0.4,0.4,0.8,0.8,0.8h2.9
	c0.5,0,0.8-0.4,0.8-0.8V19.2z"/>
<path fill="#788DA0" d="M27.4,19.2c0-0.4-0.4-0.8-0.8-0.8h-2.9c-0.5,0-0.8,0.4-0.8,0.8v2.8c0,0.4,0.4,0.8,0.8,0.8h2.9
	c0.5,0,0.8-0.4,0.8-0.8V19.2z"/>
<path fill="#788DA0" d="M12.9,26.1c0-0.4-0.4-0.8-0.8-0.8H9.2c-0.5,0-0.8,0.4-0.8,0.8v2.8c0,0.4,0.4,0.8,0.8,0.8h2.9
	c0.5,0,0.8-0.4,0.8-0.8V26.1z"/>
<path fill="#788DA0" d="M20.2,26.1c0-0.4-0.4-0.8-0.8-0.8h-2.9c-0.5,0-0.8,0.4-0.8,0.8v2.8c0,0.4,0.4,0.8,0.8,0.8h2.9
	c0.5,0,0.8-0.4,0.8-0.8V26.1z"/>
<path fill="#788DA0" d="M27.4,26.1c0-0.4-0.4-0.8-0.8-0.8h-2.9c-0.5,0-0.8,0.4-0.8,0.8v2.8c0,0.4,0.4,0.8,0.8,0.8h2.9
	c0.5,0,0.8-0.4,0.8-0.8V26.1z"/>
<path fill="#788DA0" d="M31.5,30.1c0,0.7-0.6,1.3-1.4,1.3H5.6c-0.8,0-1.4-0.6-1.4-1.3V17.4c0-0.7,0.6-1.3,1.4-1.3h24.5
	c0.8,0,1.4,0.6,1.4,1.3V30.1z M32.6,3.9v4.2c0,1.9-1.6,3.4-3.6,3.4h-2.3c-2,0-3.6-1.5-3.6-3.4V3.9H12.7v4.2c0,1.9-1.6,3.4-3.6,3.4
	H6.8c-2,0-3.6-1.5-3.6-3.4V3.9C1.4,3.9,0,5.3,0,7v24.6c0,1.7,1.5,3.1,3.3,3.1h29.2c1.8,0,3.3-1.4,3.3-3.1V7
	C35.7,5.3,34.3,3.9,32.6,3.9"/>
<path fill="#788DA0" d="M6.8,9.3h2.3c0.7,0,1.2-0.5,1.2-1.2V1.2C10.3,0.5,9.7,0,9.1,0H6.8C6.1,0,5.6,0.5,5.6,1.2v6.9
	C5.6,8.7,6.1,9.3,6.8,9.3"/>
<path fill="#788DA0" d="M26.6,9.3h2.3c0.7,0,1.2-0.5,1.2-1.2V1.2c0-0.7-0.6-1.2-1.2-1.2h-2.3c-0.7,0-1.2,0.5-1.2,1.2v6.9
	C25.4,8.7,25.9,9.3,26.6,9.3"/>
</svg>
