<?xml version="1.0" encoding="utf-8"?>
<!-- Generator: Adobe Illustrator 17.0.0, SVG Export Plug-In . SVG Version: 6.00 Build 0)  -->
<!DOCTYPE svg PUBLIC "-//W3C//DTD SVG 1.1//EN" "http://www.w3.org/Graphics/SVG/1.1/DTD/svg11.dtd">
<svg version="1.1" id="Camada_1" xmlns="http://www.w3.org/2000/svg" xmlns:xlink="http://www.w3.org/1999/xlink" x="0px" y="0px"
	 width="318.4px" height="527.7px" viewBox="0 0 318.4 527.7" enable-background="new 0 0 318.4 527.7" xml:space="preserve">
<path fill="#EBB797" d="M22.6,117c2.5-3.3,8.5-17,8.1-18.8c-0.5-2.1-6.7,5.7-6.1,3.5c4.4-19.5,4.5-29,3.1-27.4
	C20.3,82.8,15.8,85,14.3,91.3c-1.6,6.7-2.6,17.1-2.9,23.5c-0.3,6.7,0.8,6.8,4,7.3C18.8,122.7,18.6,122.4,22.6,117"/>
<path fill="#23201D" d="M76.9,513.3c-4.6,15.4,5.6,14.5,10.9,14.3c8.9-0.3,13,0.5,12.2-7c-1-9.4-8.6-28.9-14.1-27.3
	C80.4,494.8,79.9,503.2,76.9,513.3"/>
<path fill="#EBB797" d="M80.9,504.5c-3,11.9,3.9,11.5,7.5,11.5c6,0,8.8,0.8,8.2-5.1c-0.7-7.3-6-22.8-9.7-21.8
	C83.1,490.2,82.8,496.8,80.9,504.5"/>
<path fill="#23201D" d="M75.7,513.2c-1.5-10.1-0.7-18.4-6-20c-5.3-1.6-15.8,18-18.2,27.3c-1.9,7.6,2.3,6.7,11.1,7
	C67.9,527.8,78,528.6,75.7,513.2"/>
<path fill="#EBB797" d="M73,504.5c-0.8-7.8-0.1-14.3-3.7-15.4c-3.5-1.1-11.2,14.4-13,21.8c-1.5,5.9,1.4,5.1,7.4,5.1
	C67.5,516.1,74.3,516.4,73,504.5"/>
<path fill="#FFEB9F" d="M57.9,139.7C28.1,64,60.8,8.7,90.5,25.7c25.9-13.8,37.7,15.9,37.7,35c0,30.9-13.7,52.4-31.6,67.7
	C89.7,134.3,72.5,144.9,57.9,139.7"/>
<path fill="#EBB797" d="M77.1,423.6c2.9,44.3,4.1,79.6,9.5,79.6c5.3,0,9.5-62.6,14.7-101.2c5.2-38.6-0.5-39-8.2-38.5
	S73.7,372,77.1,423.6"/>
<path fill="#EBB797" d="M50.5,409.9C67,485.8,60.9,499.1,68.6,499c7.6-0.2,4.8-44.1,5.4-89.6c0.6-41.9-19.7-61.2-27.3-61
	C39,348.5,41.5,368.9,50.5,409.9"/>
<path fill="#D98E62" d="M91.5,378.9c4.1-0.3,8.6,1.4,11.5,4.1c0.1,0,0.1,0,0.2,0c0.9-19.6-4-19.8-10.1-19.3
	c-5,0.4-11.7,3.8-14.8,20.2C81,380.6,87.3,379,91.5,378.9"/>
<path fill="#D98E62" d="M71.5,384.4c-5.5-24.6-19-36.2-24.9-36.1c-6.1,0.1-5.7,13-0.9,38.8C52.6,378.7,62.6,379.1,71.5,384.4"/>
<path fill="#A29F9D" d="M110.1,304.2c5.7-58.4-20.5-79-44.9-79c-16.7,0-24.7,14.6-30,40.1c-6.3,30.1,3.5,83.1,8.7,111.9l59.2-1.6
	C104.4,355.1,107.6,330.1,110.1,304.2"/>
<path fill="#A29F9D" d="M102.4,150.3c-3.3-23.7-0.1-32.4,6.4-33.3c6.5-0.9,16.3,6.1,17.2,30c1.3,32.7,0.8,54.9-3.8,59.3
	C117.5,210.9,105.7,174,102.4,150.3"/>
<path fill="#A29F9D" d="M65.4,130.4c-4.6-4.7-13.5-2-30.5,14.8c-7.4,7.3-15.9,17.5-22.6,26.6c3.9-13.6,7.6-30.3,9.3-41.3
	c0.5-3.1,0.8-5.8,0.9-8.1L10,120.3c-0.4,1.3-0.7,2.7-1.1,4.3c-4.6,19-10.9,58.8-8.3,68c-0.1,1,0.3,1.7,1.1,1.8
	c0.2,0.1,0.4,0.1,0.6,0.1c6.8,0.2,24.6-12.5,49.2-32.4C70.2,147.1,70,135.1,65.4,130.4"/>
<path fill="#54504F" d="M58.9,128.4c-8.4,6.5-15.9,13.9-21.1,23.4c-3.8,7.1-6.4,14.6-7.7,22.6c-0.3,1.6-0.5,3.3-0.7,5
	c6.5-4.8,14-10.7,22.2-17.3c18.6-15.1,18.4-27.1,13.8-31.8C63.8,128.7,61.7,128,58.9,128.4"/>
<path fill="#A29F9D" d="M85.9,117.4c16.9-2.1,26.2-1.2,31.4,7.5c3.8,6.3,6.7,16.9,2.9,32.8c-2.7,11.3-26.4,42-20.3,86.4
	c2.1,15.6-25.8,4.2-33.6,4.2c-13.4,0-19.1,41.8-28.3,5.8c22.9-60.6-1-77.4,5.2-100.7c3.9-14.6,12.7-27.1,20-30.2
	C68,121.1,76.1,118.6,85.9,117.4"/>
<polygon fill="#EDEDED" points="11.2,116.2 22.4,118.2 22.5,122.4 10,120.3 "/>
<path fill="#EDEDED" d="M67.4,121.6c-7.6,10.8-3.9,26.8-0.1,26.8c9.1,0,21-27.3,35.8-31.7c0,0-8-2.6-20.9,0
	C71.5,118.9,67.4,121.6,67.4,121.6"/>
<path fill="#EBB797" d="M93.9,94.2v22.2c0,0-6.3,3.5-10.1,3.5c-3.8,0-3.7-0.3-3.7-2.8V94.2H93.9z"/>
<path fill="#EBB797" d="M60.8,62.6c0,19.6,14.3,41.9,21.6,41.9c6.9,0,23.4-16.3,27.2-35.5c2.8-14.2-5.4-8.5-5.4-8.5
	c-2.5-12.9-11.1-10-17.9-21.5C71.3,46.1,81.8,46.1,60.8,62.6"/>
<path fill="#FFFFFF" d="M71.1,82c0,2.2,4,9.3,8.3,9.3s11-6.7,11-8.9c0,0-4.7,2-12.4,2C72.9,84.4,71.1,82,71.1,82"/>
<path fill="#472816" d="M87,64c0,2.7,1.2,4.9,2.7,4.9c1.5,0,2.7-2.2,2.7-4.9s-1.2-4.9-2.7-4.9C88.2,59.1,87,61.3,87,64"/>
<path fill="#472816" d="M68.4,64c0,2.7,1.2,4.9,2.7,4.9c1.5,0,2.7-2.2,2.7-4.9s-1.2-4.9-2.7-4.9C69.6,59.1,68.4,61.3,68.4,64"/>
<path fill="#EBB797" d="M115.6,273.1c-1.9,4.3-5.2,18.3-4.3,20.1l8-4.4c3.9,7.9,9.9,19.4,10.8,17.5c7.7-16.2,0.7-19.7-1.7-33.4
	c-1.3-7.5-2.4-7.3-6.2-7.2C118.5,265.9,118.8,266.2,115.6,273.1"/>
<path fill="#A29F9D" d="M113.7,257.6c-1.8-21.8,0-67.1,6.5-67.3c6.6-0.2,10.6,45,9.9,66.9c-0.1,4.3-0.4,7.7-0.9,10.3l-14.2,0.2
	C114.5,265.1,114,261.8,113.7,257.6"/>
<polygon fill="#EDEDED" points="115.6,273.1 128.5,272.9 129.2,267.5 115,267.7 "/>
<path fill="#6D6968" d="M109.5,181.8c-1.1,2.6-4.8,12.8-7.3,21.4c0,0,2.1-13.1,0.9-21.5c-1.2-8.9-2.1-16.7-2.1-30.9
	C101.1,150.8,104.6,166.1,109.5,181.8"/>
<path fill="#EBB797" d="M279.4,97c4.2-5.2,10.7-22.1,18.6-14.4c9.8,9.5,5.6,26.9-1.2,37.3l-15.2,19.5l-12.3-8l7.1-10.9
	c1.1-2.1-0.8-7.6-1.6-14.1C274,100,279.4,97,279.4,97"/>
<path fill="#3B3735" d="M103.4,135.6c13.3-28.4,23.3-35,31.6-30.2c8.3,4.8,7,17.6-1.4,47.5c-4.7,16.6-13.4,32.4-19.2,41.1
	c-12.5,18.4-22.4,18.9-28.2,19.3C77.2,214,90,164,103.4,135.6"/>
<path fill="#3B3735" d="M114.5,227.3c-26.1-7.2-33.4-14.5-30.9-22.1c2.5-7.5,2.6-16.9,49.4-2.3c75.7,23.6,43,26.4,45.1,33.4
	C180.4,243.6,140.6,234.4,114.5,227.3"/>
<path fill="#12100B" d="M133,202.9c-2.6-0.8-5-1.5-7.3-2.2c-0.8,6.5-3.4,13-7.6,18.9c-1.7,2.4-3.5,4.8-5.2,7.2
	c0.5,0.1,1,0.3,1.6,0.4c26.1,7.2,65.9,16.3,63.7,9.1C176,229.3,208.7,226.5,133,202.9"/>
<polygon fill="#6D6968" points="152.9,515.7 130.3,515.7 133.6,500.9 156.2,500.9 "/>
<path fill="#3B3735" d="M139.4,510.1c-8,0-18.5-1.4-24.2,5.2c-2.1,2.4-2,7.9-2,11.9H159c0-13.8-4.9-17-4.9-17
	C151.2,513.2,146.4,510.1,139.4,510.1"/>
<polygon fill="#6D6968" points="188.5,515.3 211.1,515.3 212.3,500.4 189.7,500.4 "/>
<path fill="#3B3735" d="M203.7,509.6c10.8,0,17.1,3.5,17.1,17H183c0-13,6-17,6-17C191,512.7,196.7,509.6,203.7,509.6"/>
<path fill="#3B3735" d="M209.4,248.9c-7.5,0-13-3.9-17.2,16.5h-5.8c1.6-20.4-38.7,3.9-39.8,11.6c-5.2,36.2-18.1,193.5-18.1,229.9
	h28.3c0-35.5,23.3-189.7,23.9-192.5h6.4c-0.3,5.5,2.5,144.5-1,192.5h28.3c1.6-21.2,12.3-148.1,11.4-214.7
	C225.3,244.8,214.5,248.9,209.4,248.9"/>
<path fill="#12100B" d="M165.2,302.4c31.8-1.5,40.8-0.3,60.7,3.7c2-60.6-5.7-57.2-16.6-57.2c-7.5,0-13-3.9-17.2,16.5h-5.8
	c1.6-20.4-38.7,3.9-39.8,11.6c-0.8,5.6-2.2,18-3.3,28.6C150.4,304.3,158.2,302.7,165.2,302.4"/>
<rect x="156.7" y="64.6" fill="#EBB797" width="28.4" height="32.8"/>
<rect x="267.2" y="126.1" transform="matrix(0.8032 0.5957 -0.5957 0.8032 133.8299 -138.1316)" fill="#EDEDED" width="17.6" height="14.8"/>
<path fill="#3B3735" d="M268.9,128.2c-13.6,13.4-31.8,31.6-33,33.5c-0.2-0.9-11.3-40.7-14-44.4c-5.5-7.8-16.4-15.9-43.5-20.5
	c-8.3-1.4-15.5-6.2-30.9-2c-25.5,6.5-30.7,11.3-27.8,28.1c3.9,22.6,20.3,125.4,15.7,169.3h98.4c0-14.4-0.7-51.3-0.6-80.7
	c0.7-0.1,1.4-0.3,2.1-0.8c5.7-3.9,42.7-54.6,50.2-69.6L268.9,128.2z"/>
<path fill="#EBB797" d="M194.7,42.7c0,26.1-11.6,41.4-24.6,41.4c-12.5,0-26.2-17.6-26.2-42.6c0-18.8,1.6-31.2,27.8-31.2
	C195.2,10.2,194.7,23.9,194.7,42.7"/>
<path fill="#EDEDED" d="M203,161.4c1.1-46.8-15.3-68.8-16.8-70.9l-5,5.1c-5.9-2.2-22.2-6.6-28.9-8l-4.8,7.2
	c14.9,0.6,34.4,35,44.5,71.7C195.5,164.4,199.1,162.6,203,161.4"/>
<path fill="#166BB3" d="M188.2,112.6c0,0,0.1-4-0.1-6.4c-0.9-1.9-2.8-4.1-5.5-4.8c-1.1,2.1-3.1,5-4.2,7c1.9,2.7,5.5,4.8,5.5,4.8
	c0.5,7.8-1.5,25.4,0.1,29.4c3,7.6,5.8,15.7,8,23.9c5,17.5,7.3,44.3,7.3,44.3s3.8-37,3.8-49.4c0.2-7.6-0.1-14.5-0.7-20.8
	C201.8,136,196,120.5,188.2,112.6"/>
<path fill="#825A24" d="M195.4,41.1c0,17-4.6-7.3-5.2-18.7c-0.4-7.3-13.8,6.8-34.2,4.2c1.3-7.4-7-5.7-7.1,1.9
	c-0.1,10.7-2.2,18.9-2.2,18.9c-3.7,2.5-7-6.2-7-17.6c0-18.8,2.9-20.1,10.3-21.7c0,0,12.2-14.1,38.5-4.9
	C198.5,6.6,195.4,23.9,195.4,41.1"/>
<path fill="#EBB797" d="M149.7,50.7c0.8,4.8-0.4,9-2.7,9.3c-2.3,0.4-4.8-3.2-5.6-7.9c-0.8-4.8,0.4-9,2.7-9.3
	C146.4,42.3,148.9,45.9,149.7,50.7"/>
<path fill="#EBB797" d="M188.5,50.6c-0.3,4.8,1.4,8.9,3.8,9c2.3,0.1,4.5-3.7,4.7-8.5c0.3-4.8-1.4-8.9-3.8-9
	C190.9,41.9,188.8,45.8,188.5,50.6"/>
<path fill="#472816" d="M158.2,44.2c0,2.6,1.2,4.8,2.7,4.8c1.5,0,2.7-2.1,2.7-4.8c0-2.6-1.2-4.8-2.7-4.8
	C159.4,39.4,158.2,41.5,158.2,44.2"/>
<path fill="#472816" d="M178.3,44.2c0,2.6,1.2,4.8,2.7,4.8c1.5,0,2.7-2.1,2.7-4.8c0-2.6-1.2-4.8-2.7-4.8
	C179.5,39.4,178.3,41.5,178.3,44.2"/>
<path fill="#FFFFFF" d="M171.7,72c4.3,0,12.8-8.7,12.8-10.8c0,0-13.3,3.9-20.8,3.9C158.6,65.1,167.4,72,171.7,72"/>
<path fill="#3B3735" d="M292.8,120.6c-0.6,2-1.8,2.8-2.6,1.9l-15.8-18.3c-0.6-0.7-0.7-2.8-0.2-4.5l21.2-71.2
	c0.6-1.9,1.7-3.2,2.5-2.8l19.5,9.9c1,0.5,1.2,2.7,0.5,4.9L292.8,120.6z"/>
<polygon fill="#3AAAE1" points="312.9,46.7 294.6,35.7 277,94.7 292.7,111.4 "/>
<path fill="#F7F8F8" d="M284.5,108.5c0.4-1.3,0.3-2.9-0.2-3.4c-0.5-0.6-1.2,0.1-1.7,1.4c-0.4,1.3-0.3,2.9,0.2,3.4
	C283.4,110.5,284.1,109.9,284.5,108.5"/>
<path fill="#EBB797" d="M283.6,115.3c0,5.7-2.5,2.5-4.6,2.5c-2.2,0-4.2-10.3-4.2-13c0-5.7,1.2-8.7,3.4-6.8
	C279.8,99.6,283.6,109.6,283.6,115.3"/>
<path fill="#12100B" d="M247.2,196.7c-10.8,16.6-14,14.7-14,14.7c-0.7-16.1-7.3-58.4-7.3-58.4C239.5,200.6,247.2,196.7,247.2,196.7"
	/>
</svg>
