<?xml version="1.0" encoding="UTF-8"?>
<svg width="540px" height="108px" viewBox="0 0 540 108" version="1.1" xmlns="http://www.w3.org/2000/svg" xmlns:xlink="http://www.w3.org/1999/xlink">
    <!-- Generator: Sketch 41.2 (35397) - http://www.bohemiancoding.com/sketch -->
    <title>Sem título-1</title>
    <desc>Created with Sketch.</desc>
    <defs></defs>
    <g id="Page-1" stroke="none" stroke-width="1" fill="none" fill-rule="evenodd">
        <g id="Sem-título-1" transform="translate(0.000000, 2.000000)">
            <path d="M332.2,26.1 L356.7,26.1" id="Shape" stroke="#A8C8E1"></path>
            <circle id="Oval" stroke="#A8C8E1" cx="358.7" cy="26.1" r="2"></circle>
            <path d="M332.2,93 L356.7,93" id="Shape" stroke="#A8C8E1"></path>
            <circle id="Oval" stroke="#A8C8E1" cx="358.7" cy="93" r="2"></circle>
            <rect id="Rectangle-path" fill="#A8C8E1" x="279.8" y="18.4" width="56.2" height="15.6"></rect>
            <rect id="Rectangle-path" fill="#A8C8E1" x="255" y="85.2" width="81" height="15.6"></rect>
            <path d="M117.1,53.5 L175,53.5" id="Shape" stroke="#A8C8E1"></path>
            <g id="Group" transform="translate(0.000000, 21.000000)" fill="#DDDCDF">
                <path d="M43.2,60.8 C43.1,63.6 42.8,66.1 42.4,68.5 L1,68.5 L0.1,56.2 C4.7,52.3 8.5,48.8 11.3,45.5 C14.2,42.3 16.5,39.3 18.2,36.5 C19.9,33.8 21.1,31.2 21.7,28.9 C22.3,26.6 22.7,24.4 22.7,22.4 C22.7,17.6 20.1,15.2 15,15.2 C13.1,15.2 11.2,15.5 9.3,16.1 C7.4,16.7 5.5,17.5 3.7,18.5 C3,16 2.4,13.3 1.8,10.6 C1.2,7.9 0.9,5.4 0.7,3.2 C3.2,2.2 6,1.4 9.1,0.9 C12.2,0.4 15.1,0.1 17.9,0.1 C21.2,0.1 24.3,0.5 27.2,1.2 C30.1,2 32.6,3.2 34.7,4.9 C36.8,6.6 38.4,8.8 39.6,11.4 C40.8,14 41.4,17.2 41.4,20.9 C41.4,25.3 40.2,30.1 37.8,35.4 C35.4,40.7 31.3,46.7 25.6,53.4 L43.5,53.4 C43.4,55.6 43.4,58 43.2,60.8 Z" id="Shape"></path>
                <path d="M48.2,24.3 C48.2,20.4 48.7,16.9 49.8,13.9 C50.9,10.9 52.4,8.4 54.4,6.3 C56.4,4.2 58.8,2.7 61.6,1.7 C64.4,0.7 67.5,0.2 71,0.2 C74.5,0.2 77.7,0.7 80.5,1.7 C83.3,2.7 85.7,4.5 87.6,6.8 C89.5,9.2 91,12.4 92,16.4 C93,20.4 93.6,25.4 93.6,31.3 C93.6,37.9 93,43.6 91.7,48.4 C90.5,53.2 88.7,57.2 86.3,60.3 C83.9,63.4 81.1,65.8 77.7,67.3 C74.3,68.8 70.5,69.5 66.2,69.5 C65.3,69.5 64.2,69.5 62.9,69.4 C61.6,69.3 60.3,69.2 59,69 C57.7,68.8 56.4,68.7 55.1,68.5 C53.8,68.3 52.7,68.1 51.8,67.8 C52,65.6 52.3,63.1 52.7,60.4 C53.1,57.7 53.5,55 54.1,52.5 C56,53 58.1,53.5 60.5,53.8 C62.8,54.2 64.7,54.4 66.3,54.4 C67.6,54.4 68.9,54.2 70,53.8 C71.1,53.4 72.1,52.8 73,51.9 C73.9,51 74.6,49.6 75.2,47.9 C75.8,46.2 76.2,44 76.4,41.3 L76,41.3 C74.9,42.8 73.5,43.9 71.6,44.4 C69.8,44.9 68,45.2 66.4,45.2 C63.9,45.2 61.5,44.8 59.3,44.1 C57.1,43.4 55.1,42.2 53.5,40.5 C51.9,38.8 50.6,36.7 49.6,34 C48.7,31.3 48.2,28.1 48.2,24.3 Z M64.6,23.9 C64.6,27.4 65.2,29.7 66.3,31 C67.4,32.2 69,32.8 70.9,32.8 C72.8,32.8 74.3,32.1 75.3,30.6 C76.3,29.1 76.8,26.7 76.8,23.4 C76.8,21.5 76.7,19.9 76.4,18.6 C76.1,17.3 75.8,16.4 75.3,15.6 C74.8,14.9 74.2,14.4 73.5,14.2 C72.8,13.9 72,13.8 71,13.8 C68.9,13.8 67.3,14.6 66.2,16.2 C65.1,17.7 64.6,20.3 64.6,23.9 Z" id="Shape"></path>
                <path d="M143,48.6 C143,52.3 142.2,55.4 140.8,58.1 C139.3,60.7 137.3,62.9 134.8,64.6 C132.3,66.3 129.5,67.6 126.4,68.4 C123.3,69.2 120.1,69.6 116.8,69.6 C115.5,69.6 114.1,69.5 112.6,69.4 C111,69.3 109.5,69.1 107.8,68.8 C106.2,68.5 104.7,68.2 103.2,67.8 C101.7,67.4 100.3,66.9 99.1,66.4 C99.4,63.9 99.8,61.4 100.3,58.9 C100.8,56.4 101.4,53.8 102.2,51.1 C104.5,52.2 107,53.1 109.7,53.7 C112.5,54.3 114.9,54.6 117.1,54.6 C119.7,54.6 121.6,54.1 122.8,53 C124,51.9 124.6,50.2 124.6,47.9 C124.6,46.5 124.4,45.4 124.1,44.4 C123.7,43.5 123.2,42.8 122.5,42.3 C121.8,41.8 121,41.5 120,41.3 C119,41.1 118,41.1 116.9,41.1 L106,41.1 L106,26.2 L115.9,26.2 C118.8,26.2 120.8,25.7 121.7,24.7 C122.7,23.7 123.2,22.2 123.2,20.2 C123.2,16.8 120.9,15.1 116.2,15.1 C114.3,15.1 112.3,15.3 110,15.7 C107.7,16.1 105.4,16.8 103.1,17.7 C102.6,15.2 102.1,12.7 101.7,10.1 C101.3,7.5 101.1,5 100.9,2.6 C104.2,1.6 107.3,0.9 110.2,0.5 C113.1,0.1 116,0 118.8,0 C121.8,0 124.6,0.3 127.3,0.9 C130,1.5 132.3,2.6 134.3,4 C136.3,5.4 137.9,7.3 139.2,9.5 C140.4,11.7 141,14.5 141,17.6 C141,21.1 140.1,24 138.4,26.5 C136.7,29 134.3,31 131.4,32.5 C135,33.8 137.9,35.8 140,38.5 C142,41.2 143,44.6 143,48.6 Z" id="Shape"></path>
            </g>
            <path d="M224.9,27.6 C227.8,24.2 229.8,21.2 231,18.6 C232.2,15.9 232.8,13.5 232.8,11.3 C232.8,9.4 232.5,7.8 231.9,6.5 C231.3,5.2 230.5,4.1 229.4,3.3 C228.4,2.5 227.1,1.8 225.7,1.5 C224.3,1.1 222.7,0.9 221.1,0.9 C219.7,0.9 218.2,1 216.7,1.3 C215.2,1.6 213.8,1.9 212.5,2.4 C212.6,3.5 212.7,4.7 213,6.1 C213.3,7.5 213.6,8.8 213.9,10.1 C214.8,9.6 215.7,9.2 216.7,8.9 C217.7,8.6 218.6,8.5 219.6,8.5 C222.2,8.5 223.5,9.7 223.5,12.1 C223.5,13.1 223.3,14.2 223,15.3 C222.7,16.5 222.1,17.7 221.2,19.1 C220.3,20.5 219.2,22 217.8,23.6 C216.3,25.2 214.5,27 212.2,28.9 L212.6,35.1 L233.4,35.1 C233.6,33.9 233.7,32.7 233.8,31.3 C233.9,29.9 233.9,28.7 233.9,27.7 L224.9,27.7 L224.9,27.6 Z" id="Shape" stroke="#FFFFFF" stroke-width="4"></path>
            <path d="M237.4,35.1 L259,35.1 C259.1,34.6 259.2,34 259.3,33.3 C259.4,32.7 259.4,32 259.5,31.3 C259.6,30.6 259.6,30 259.6,29.3 L259.6,27.5 L253.9,27.5 L253.9,1.4 L246.4,1.4 L237.6,3.2 C237.6,4.3 237.7,5.5 237.8,6.7 C237.9,8 238.1,9.1 238.3,9.9 C239.3,9.8 240.5,9.7 241.8,9.5 C243.1,9.3 244.3,9.2 245.4,9.1 L245.4,27.5 L237.3,27.5 L237.3,35.1 L237.4,35.1 Z" id="Shape" stroke="#FFFFFF" stroke-width="4"></path>
            <path d="M282.5,19.3 C281.8,18 280.9,17 279.8,16.2 C278.7,15.4 277.4,14.9 275.9,14.5 C274.4,14.2 272.9,14 271.4,13.9 C271.5,13 271.6,12.1 271.6,11.3 C271.7,10.5 271.7,9.7 271.8,8.8 L282.3,8.8 C282.5,7.6 282.6,6.4 282.7,5.1 C282.8,3.8 282.8,2.5 282.8,1.4 L264.6,1.4 C264.2,4.3 263.8,7.5 263.5,11 C263.2,14.5 263,17.9 263,21.4 C263.5,21.3 264,21.3 264.6,21.2 C265.2,21.2 265.9,21.1 266.6,21.1 C267.3,21.1 267.9,21 268.6,21 L270.2,21 C271.8,21 272.9,21.3 273.6,21.8 C274.3,22.3 274.6,23.2 274.6,24.5 C274.6,25.6 274.3,26.5 273.7,27.2 C273.1,27.8 272.2,28.1 271.1,28.1 C270,28.1 268.9,28 267.6,27.7 C266.3,27.4 265.1,27.1 264,26.6 C263.7,27.9 263.4,29.2 263.1,30.5 C262.9,31.8 262.6,33 262.5,34.1 C263.9,34.6 265.3,35 266.8,35.2 C268.3,35.4 269.6,35.6 270.7,35.6 C272.5,35.6 274.2,35.3 275.7,34.8 C277.2,34.3 278.6,33.5 279.7,32.5 C280.8,31.5 281.8,30.3 282.4,28.9 C283,27.5 283.4,25.9 283.4,24.2 C283.5,22.2 283.2,20.6 282.5,19.3 Z" id="Shape" stroke="#FFFFFF" stroke-width="4"></path>
            <g id="Group" transform="translate(212.000000, 1.000000)" fill="#DDDCDF">
                <path d="M21.8,30.3 C21.8,31.7 21.6,33 21.4,34.1 L0.6,34.1 L0.1,28 C2.4,26.1 4.3,24.3 5.7,22.7 C7.2,21.1 8.3,19.6 9.2,18.2 C10.1,16.8 10.6,15.6 11,14.4 C11.3,13.2 11.5,12.2 11.5,11.2 C11.5,8.8 10.2,7.6 7.6,7.6 C6.7,7.6 5.7,7.7 4.7,8 C3.7,8.3 2.8,8.7 1.9,9.2 C1.6,7.9 1.3,6.6 1,5.2 C0.7,3.8 0.5,2.6 0.5,1.5 C1.8,1 3.2,0.6 4.7,0.4 C6.2,0.1 7.7,-7.10542736e-15 9.1,-7.10542736e-15 C10.8,-7.10542736e-15 12.3,0.2 13.7,0.6 C15.1,1 16.4,1.6 17.4,2.5 C18.4,3.4 19.3,4.4 19.9,5.7 C20.5,7 20.8,8.6 20.8,10.5 C20.8,12.7 20.2,15.1 19,17.8 C17.8,20.4 15.7,23.5 12.9,26.8 L21.9,26.8 C21.9,27.7 21.9,28.9 21.8,30.3 Z" id="Shape"></path>
                <path d="M25.4,34.1 L25.4,26.6 L33.4,26.6 L33.4,8.1 C32.3,8.2 31.1,8.3 29.8,8.5 C28.5,8.7 27.4,8.8 26.3,8.9 C26.1,8 25.9,6.9 25.8,5.7 C25.7,4.4 25.6,3.2 25.6,2.1 L34.4,0.3 L41.9,0.3 L41.9,26.5 L47.6,26.5 L47.6,28.3 C47.6,29 47.6,29.6 47.5,30.3 C47.5,31 47.4,31.6 47.3,32.3 C47.2,32.9 47.1,33.5 47,34.1 L25.4,34.1 L25.4,34.1 Z" id="Shape"></path>
                <path d="M71.5,23.1 C71.5,24.8 71.2,26.4 70.5,27.8 C69.8,29.2 69,30.4 67.8,31.4 C66.6,32.4 65.3,33.2 63.8,33.7 C62.3,34.3 60.6,34.5 58.8,34.5 C57.6,34.5 56.3,34.4 54.9,34.1 C53.5,33.8 52,33.5 50.6,33 C50.8,31.9 51,30.7 51.2,29.4 C51.4,28.1 51.7,26.7 52.1,25.4 C53.3,25.9 54.5,26.2 55.7,26.5 C56.9,26.8 58.1,26.9 59.2,26.9 C60.4,26.9 61.2,26.6 61.8,25.9 C62.4,25.3 62.7,24.4 62.7,23.3 C62.7,22.1 62.4,21.2 61.7,20.6 C61,20.1 59.9,19.8 58.3,19.8 L56.7,19.8 C56.1,19.8 55.4,19.8 54.7,19.9 C54,19.9 53.4,20 52.7,20 C52.1,20 51.5,20.1 51.1,20.1 C51.2,16.7 51.3,13.2 51.6,9.7 C51.9,6.2 52.2,3 52.7,0.1 L70.9,0.1 C70.9,1.3 70.8,2.5 70.7,3.8 C70.6,5.1 70.5,6.4 70.3,7.5 L59.8,7.5 C59.7,8.4 59.7,9.2 59.6,10 C59.5,10.8 59.5,11.6 59.4,12.6 C61,12.6 62.5,12.8 64,13.1 C65.5,13.4 66.8,14 67.9,14.8 C69,15.6 69.9,16.6 70.6,17.9 C71.2,19.6 71.5,21.2 71.5,23.1 Z" id="Shape"></path>
            </g>
            <path d="M233.7,68.8 L212,68.8 C212,70 212,71.2 212.1,72.5 C212.2,73.8 212.2,75 212.4,76.3 L224.6,76.3 L211.8,101.7 C212.4,101.9 213,102.1 213.7,102.2 C214.4,102.4 215.2,102.5 215.9,102.6 C216.7,102.7 217.4,102.8 218.1,102.9 C218.8,103 219.5,103 220.1,103.1 C221.4,100.9 222.7,98.6 223.9,96.2 C225.1,93.8 226.4,91.5 227.5,89.1 C228.6,86.7 229.7,84.4 230.8,82.1 C231.9,79.8 232.8,77.6 233.7,75.6 L233.7,68.8 Z" id="Shape" stroke="#FFFFFF" stroke-width="4"></path>
            <path d="M257.8,87.9 C256.9,86.6 255.6,85.3 254,84.3 C255.5,83.5 256.7,82.5 257.5,81.3 C258.3,80.1 258.7,78.8 258.7,77.2 C258.7,74.3 257.7,72.1 255.8,70.6 C253.9,69.1 251.2,68.4 247.7,68.4 C246.1,68.4 244.6,68.6 243.2,69 C241.8,69.4 240.7,70 239.7,70.8 C238.7,71.6 238,72.6 237.4,73.8 C236.9,75 236.6,76.3 236.6,77.8 C236.6,79.3 237,80.8 237.7,82 C238.5,83.3 239.5,84.4 241,85.2 C239.2,86.3 237.9,87.5 237.2,88.9 C236.5,90.3 236.1,91.8 236.1,93.4 C236.1,95 236.4,96.5 236.9,97.7 C237.4,98.9 238.2,99.9 239.1,100.7 C240.1,101.5 241.2,102 242.6,102.4 C244,102.8 245.5,103 247.1,103 C251,103 254,102.1 256,100.3 C258,98.5 259,96 259,92.8 C259.2,90.9 258.7,89.3 257.8,87.9 Z M249.9,95.2 C249.4,95.8 248.7,96.2 247.6,96.2 C246.5,96.2 245.8,95.9 245.4,95.3 C245,94.7 244.8,93.8 244.8,92.5 C244.8,91.4 245,90.5 245.4,89.6 C245.8,88.7 246.4,88.1 247.2,87.8 C249.4,88.6 250.6,90.1 250.6,92.4 C250.5,93.6 250.3,94.6 249.9,95.2 Z M249.5,80.3 C249.1,81.1 248.5,81.6 247.9,81.9 C246,81.1 245,79.8 245,77.8 C245,76.8 245.2,76.1 245.7,75.7 C246.2,75.3 246.8,75.1 247.5,75.1 C248.3,75.1 248.9,75.3 249.4,75.7 C249.9,76.1 250.1,76.9 250.1,77.9 C250.2,78.7 250,79.5 249.5,80.3 Z" id="Shape" stroke="#FFFFFF" stroke-width="4"></path>
            <g id="Group" transform="translate(211.000000, 68.000000)" fill="#DDDCDF">
                <path d="M22.7,7.5 C21.8,9.6 20.8,11.7 19.8,14 C18.8,16.3 17.7,18.6 16.5,21 C15.3,23.4 14.1,25.7 12.9,28.1 C11.7,30.5 10.4,32.8 9.1,35 C8.5,35 7.8,34.9 7.1,34.8 C6.4,34.7 5.7,34.6 4.9,34.5 C4.1,34.4 3.4,34.3 2.7,34.1 C2,34 1.4,33.8 0.8,33.6 L13.6,8.2 L1.4,8.2 C1.3,7 1.2,5.7 1.1,4.4 C1.1,3.1 1,1.9 1,0.7 L22.8,0.7 L22.8,7.5 L22.7,7.5 Z" id="Shape"></path>
                <path d="M48.2,24.8 C48.2,28 47.2,30.5 45.2,32.3 C43.2,34.1 40.2,35 36.3,35 C34.6,35 33.1,34.8 31.7,34.4 C30.3,34 29.2,33.4 28.2,32.7 C27.2,32 26.5,30.9 26,29.7 C25.5,28.5 25.2,27.1 25.2,25.4 C25.2,23.8 25.6,22.3 26.3,20.9 C27,19.5 28.3,18.3 30.1,17.2 C28.7,16.3 27.6,15.2 26.8,14 C26,12.8 25.7,11.3 25.7,9.8 C25.7,8.3 26,6.9 26.5,5.8 C27,4.6 27.8,3.6 28.8,2.8 C29.8,2 31,1.4 32.3,1 C33.7,0.6 35.2,0.4 36.8,0.4 C40.2,0.4 42.9,1.1 44.9,2.6 C46.9,4.1 47.8,6.3 47.8,9.2 C47.8,10.8 47.4,12.2 46.6,13.3 C45.8,14.5 44.6,15.5 43.1,16.3 C44.7,17.4 46,18.6 46.9,19.9 C47.7,21.3 48.2,22.9 48.2,24.8 Z M39.5,24.4 C39.5,22.1 38.4,20.6 36.1,19.8 C35.3,20.2 34.7,20.8 34.3,21.6 C33.9,22.4 33.7,23.4 33.7,24.5 C33.7,25.8 33.9,26.7 34.3,27.3 C34.7,27.9 35.5,28.2 36.5,28.2 C37.6,28.2 38.3,27.9 38.8,27.2 C39.3,26.6 39.5,25.6 39.5,24.4 Z M39.2,9.9 C39.2,8.9 39,8.1 38.5,7.7 C38,7.3 37.4,7 36.6,7 C35.8,7 35.2,7.2 34.7,7.7 C34.2,8.2 34,8.8 34,9.8 C34,11.8 34.9,13.2 36.9,14 C37.6,13.7 38.1,13.1 38.5,12.3 C39,11.5 39.2,10.7 39.2,9.9 Z" id="Shape"></path>
            </g>
            <path d="M174,17 L198.5,17" id="Shape" stroke="#A8C8E1"></path>
            <circle id="Oval" stroke="#A8C8E1" cx="200.5" cy="17" r="2"></circle>
            <path d="M174,91 L198.5,91" id="Shape" stroke="#A8C8E1"></path>
            <circle id="Oval" stroke="#A8C8E1" cx="200.5" cy="91" r="2"></circle>
            <path d="M174.5,16.5 L174.5,91.5" id="Shape" stroke="#A8C8E1"></path>
            <g id="Group" transform="translate(297.000000, 21.000000)" fill="#FFFFFF">
                <path d="M7.2,9.8 C7,9.9 6.8,10 6.6,10.1 C6.4,10.2 6.1,10.3 5.9,10.3 C5.6,10.4 5.4,10.4 5.1,10.4 L4.4,10.4 C3,10.4 1.9,10 1.2,9.2 C0.5,8.4 0.1,7.2 0.1,5.6 C0.1,4.8 0.2,4 0.4,3.4 C0.6,2.8 0.9,2.3 1.3,1.9 C1.7,1.5 2.1,1.2 2.6,1 C3.1,0.8 3.7,0.7 4.2,0.7 L4.9,0.7 C5.2,0.7 5.4,0.8 5.7,0.8 C5.9,0.8 6.2,0.9 6.4,1 C6.6,1.1 6.8,1.1 7,1.2 L7,1.7 C7,1.9 7,2.1 6.9,2.3 C6.9,2.5 6.8,2.7 6.8,2.9 C6.8,3.1 6.7,3.3 6.7,3.4 C6.3,3.2 5.9,3.1 5.5,3 C5.1,2.9 4.8,2.8 4.4,2.8 C4.2,2.8 3.9,2.8 3.7,2.9 C3.5,3 3.3,3.1 3.2,3.3 C3.1,3.5 2.9,3.8 2.9,4.1 C2.9,4.4 2.8,4.9 2.8,5.4 C2.8,5.9 2.8,6.4 2.9,6.7 C3,7 3.1,7.3 3.2,7.5 C3.3,7.7 3.5,7.9 3.7,7.9 C3.9,7.9 4.2,8 4.5,8 C4.9,8 5.3,7.9 5.7,7.8 C6.1,7.6 6.5,7.5 6.8,7.2 C6.8,7.3 6.9,7.5 6.9,7.7 C6.9,7.9 7,8.1 7,8.3 C7,8.5 7.1,8.7 7.1,8.9 C7.2,9.4 7.2,9.6 7.2,9.8 Z" id="Shape"></path>
                <polygon id="Shape" points="8.8 10.3 8.8 0.9 11.3 0.9 11.3 10.3"></polygon>
                <path d="M21.3,5.6 C21.3,6.4 21.2,7.1 21,7.7 C20.8,8.3 20.5,8.8 20.1,9.2 C19.7,9.6 19.3,9.9 18.8,10.1 C18.3,10.3 17.7,10.4 17.1,10.4 C16.5,10.4 15.9,10.3 15.4,10.1 C14.9,9.9 14.4,9.6 14.1,9.2 C13.8,8.8 13.5,8.3 13.3,7.7 C13.1,7.1 13,6.4 13,5.5 C13,4.7 13.1,4 13.3,3.4 C13.5,2.8 13.8,2.3 14.2,1.9 C14.6,1.5 15,1.2 15.5,1 C16,0.8 16.6,0.7 17.2,0.7 C17.8,0.7 18.4,0.8 18.9,1 C19.4,1.2 19.9,1.5 20.2,1.9 C20.6,2.3 20.8,2.8 21,3.4 C21.2,4.1 21.3,4.8 21.3,5.6 Z M18.7,5.6 C18.7,5 18.7,4.6 18.6,4.2 C18.5,3.8 18.4,3.5 18.3,3.3 C18.2,3.1 18,2.9 17.8,2.8 C17.6,2.7 17.4,2.7 17.1,2.7 C16.8,2.7 16.6,2.7 16.4,2.8 C16.2,2.9 16.1,3 15.9,3.3 C15.8,3.5 15.7,3.8 15.6,4.2 C15.5,4.6 15.5,5 15.5,5.6 C15.5,6.1 15.5,6.6 15.6,6.9 C15.7,7.2 15.8,7.5 15.9,7.8 C16,8 16.2,8.2 16.4,8.3 C16.6,8.4 16.8,8.4 17.1,8.4 C17.4,8.4 17.6,8.4 17.8,8.3 C18,8.2 18.1,8.1 18.3,7.8 C18.5,7.5 18.5,7.3 18.6,6.9 C18.6,6.6 18.7,6.2 18.7,5.6 Z" id="Shape"></path>
                <path d="M28,8 C28,8.4 27.9,8.8 27.8,9.1 C27.7,9.4 27.4,9.7 27.2,9.9 C26.9,10.1 26.6,10.3 26.2,10.4 C25.8,10.5 25.4,10.6 25,10.6 C24.5,10.6 24.1,10.6 23.6,10.5 C23.2,10.4 22.8,10.2 22.4,10 C22.5,9.7 22.5,9.3 22.6,9 C22.7,8.6 22.8,8.3 22.9,8 C23.1,8.1 23.3,8.2 23.5,8.3 C23.7,8.4 23.9,8.4 24.1,8.5 C24.3,8.6 24.5,8.6 24.7,8.6 L25.2,8.6 C25.5,8.6 25.6,8.5 25.6,8.2 C25.6,8.1 25.5,8 25.4,7.9 C25.2,7.8 25.1,7.8 24.8,7.7 C24.6,7.6 24.3,7.6 24,7.5 C23.7,7.4 23.5,7.3 23.3,7.1 C23.1,6.9 22.9,6.7 22.7,6.5 C22.5,6.2 22.5,5.9 22.5,5.5 C22.5,5.1 22.6,4.7 22.8,4.4 C23,4.1 23.2,3.8 23.5,3.6 C23.8,3.4 24.1,3.2 24.5,3.1 C24.9,3 25.3,2.9 25.7,2.9 C26,2.9 26.3,2.9 26.6,3 C26.9,3.1 27.3,3.1 27.7,3.2 C27.7,3.5 27.6,3.8 27.6,4.2 C27.5,4.6 27.5,4.9 27.4,5.2 C27.2,5.2 27.1,5.1 26.9,5.1 C26.7,5.1 26.5,5 26.3,5 C26.1,5 25.9,4.9 25.7,4.9 L25.2,4.9 C24.9,4.9 24.8,5 24.8,5.3 C24.8,5.4 24.9,5.5 25,5.6 C25.2,5.7 25.3,5.7 25.6,5.8 C25.9,5.9 26.1,5.9 26.3,6 C26.6,6.1 26.8,6.2 27.1,6.4 C27.3,6.6 27.5,6.8 27.7,7.1 C27.9,7.3 28,7.6 28,8 Z" id="Shape"></path>
            </g>
            <g id="Group" transform="translate(268.000000, 87.000000)" fill="#FFFFFF">
                <polygon id="Shape" points="0.3 11.2 0.3 1.8 2.8 1.8 2.8 11.2"></polygon>
                <path d="M8.8,11.2 L8.8,6.4 C8.8,6.2 8.8,6 8.7,5.9 C8.6,5.8 8.4,5.7 8.1,5.7 C7.9,5.7 7.8,5.7 7.6,5.8 C7.4,5.8 7.3,5.9 7.1,6 L7.1,11.2 L4.8,11.2 L4.8,4 C5.1,4 5.5,3.9 5.9,3.9 L7.1,3.9 L7.1,4.6 L7.2,4.6 C7.5,4.3 7.9,4.1 8.2,3.9 C8.5,3.8 8.8,3.7 9.2,3.7 C9.5,3.7 9.8,3.7 10,3.8 C10.2,3.9 10.5,4 10.6,4.2 C10.8,4.4 10.9,4.6 11,4.9 C11.1,5.2 11.2,5.5 11.2,5.9 L11.2,11.1 L8.8,11.1 L8.8,11.2 Z" id="Shape"></path>
                <path d="M20.2,10.6 C20.1,10.8 20,10.9 19.9,11 C19.8,11.1 19.6,11.2 19.4,11.2 C19.2,11.2 19,11.3 18.8,11.3 C18.5,11.3 18.2,11.2 17.9,11.1 C17.6,11 17.4,10.8 17.2,10.4 L17.1,10.4 C16.8,10.8 16.5,11 16.1,11.1 C15.7,11.2 15.4,11.3 15,11.3 C14.1,11.3 13.5,11 13.1,10.4 C12.7,9.8 12.4,8.9 12.4,7.7 C12.4,6.4 12.7,5.4 13.3,4.7 C13.9,4 14.7,3.7 15.6,3.7 L15.8,3.7 L16.1,3.7 L16.4,3.7 L16.7,3.7 L16.7,1 C17,1 17.4,0.9 17.8,0.9 L19,0.9 L19,8.9 C19,9.1 19.1,9.2 19.3,9.2 L20.2,9.2 L20.2,10 C20.4,10.2 20.3,10.4 20.2,10.6 Z M16.9,5.8 C16.8,5.8 16.7,5.7 16.5,5.7 L16.1,5.7 C15.9,5.7 15.7,5.7 15.6,5.8 C15.5,5.9 15.3,6 15.3,6.1 C15.3,6.2 15.2,6.4 15.1,6.7 C15.1,6.9 15,7.3 15,7.6 L15,8.5 C15,8.7 15.1,8.9 15.2,9.1 C15.3,9.2 15.4,9.3 15.5,9.4 C15.6,9.5 15.8,9.5 15.9,9.5 L16.4,9.5 C16.5,9.5 16.7,9.4 16.8,9.4 L16.8,5.8 L16.9,5.8 Z" id="Shape"></path>
                <path d="M25.3,11.2 L25.3,10.6 L25.2,10.6 C24.9,10.9 24.6,11 24.3,11.2 C24,11.3 23.7,11.4 23.3,11.4 C22.7,11.4 22.2,11.2 21.8,10.9 C21.4,10.5 21.3,10 21.3,9.2 L21.3,4 C21.6,4 22,3.9 22.4,3.9 L23.6,3.9 L23.6,8.7 C23.6,8.9 23.6,9.1 23.7,9.2 C23.8,9.3 24,9.3 24.3,9.3 C24.4,9.3 24.6,9.3 24.8,9.2 C25,9.2 25.2,9.1 25.3,9 L25.3,4 C25.6,4 26,3.9 26.4,3.9 L27.6,3.9 L27.6,11.3 L25.3,11.3 L25.3,11.2 Z M23.8,3.1 L24.3,3.1 L24.8,3.1 L25.3,3.1 C25.6,2.8 25.8,2.5 26,2.1 C26.2,1.7 26.4,1.3 26.5,0.9 L24,0.9 L23.3,3 C23.5,3.1 23.6,3.1 23.8,3.1 Z" id="Shape"></path>
                <path d="M34.6,8.9 C34.6,9.3 34.5,9.7 34.4,10 C34.3,10.3 34,10.6 33.8,10.8 C33.5,11 33.2,11.2 32.8,11.3 C32.4,11.4 32,11.5 31.6,11.5 C31.1,11.5 30.7,11.5 30.2,11.4 C29.8,11.3 29.4,11.1 29,10.9 C29.1,10.6 29.1,10.2 29.2,9.9 C29.3,9.6 29.4,9.2 29.5,8.9 C29.7,9 29.9,9.1 30.1,9.2 C30.3,9.3 30.5,9.3 30.7,9.4 C30.9,9.5 31.1,9.5 31.3,9.5 L31.8,9.5 C32.1,9.5 32.2,9.4 32.2,9.1 C32.2,9 32.1,8.9 32,8.8 C31.8,8.7 31.7,8.7 31.4,8.6 C31.1,8.5 30.9,8.5 30.7,8.4 C30.4,8.3 30.2,8.2 30,8 C29.8,7.8 29.6,7.6 29.4,7.4 C29.2,7.1 29.2,6.8 29.2,6.4 C29.2,6 29.3,5.6 29.5,5.3 C29.7,5 29.9,4.7 30.2,4.5 C30.5,4.3 30.8,4.1 31.2,4 C31.6,3.9 32,3.8 32.4,3.8 C32.7,3.8 33,3.8 33.3,3.9 C33.7,3.9 34,4 34.4,4.1 C34.4,4.4 34.3,4.7 34.3,5.1 C34.2,5.5 34.2,5.8 34.1,6.1 C33.9,6.1 33.8,6 33.6,6 C33.4,6 33.2,5.9 33,5.9 C32.8,5.9 32.6,5.8 32.4,5.8 L31.9,5.8 C31.6,5.8 31.5,5.9 31.5,6.2 C31.5,6.3 31.6,6.4 31.7,6.5 C31.9,6.6 32,6.6 32.3,6.7 C32.5,6.8 32.8,6.8 33,6.9 C33.3,7 33.5,7.1 33.7,7.3 C33.9,7.5 34.1,7.7 34.3,8 C34.5,8.1 34.6,8.5 34.6,8.9 Z" id="Shape"></path>
                <path d="M40.6,11 C40.5,11 40.4,11.1 40.2,11.1 C40,11.1 39.9,11.2 39.7,11.2 C39.5,11.2 39.4,11.3 39.2,11.3 L38.8,11.3 C37.9,11.3 37.2,11.1 36.8,10.6 C36.4,10.2 36.1,9.5 36.1,8.6 L36.1,5.8 L35.3,5.8 L35.3,3.9 L36.1,3.9 L36.1,2.5 C36.4,2.4 36.8,2.4 37.2,2.3 C37.6,2.2 38,2.2 38.4,2.1 L38.4,3.9 L40.2,3.9 L40.2,4.9 C40.2,5.2 40.2,5.5 40.1,5.9 L38.4,5.9 L38.4,8.7 C38.4,9 38.5,9.1 38.6,9.2 C38.7,9.3 38.9,9.3 39.1,9.3 C39.2,9.3 39.4,9.3 39.7,9.2 C39.9,9.1 40.1,9 40.3,8.9 C40.4,9.2 40.4,9.5 40.5,9.9 C40.6,10.3 40.6,10.7 40.6,11 Z" id="Shape"></path>
                <path d="M46.3,3.8 C46.3,4.1 46.3,4.5 46.2,4.9 C46.2,5.3 46.1,5.7 46.1,6.1 C45.8,6 45.5,6 45.2,6 C44.8,6 44.4,6.1 44.1,6.2 L44.1,11.1 L41.8,11.1 L41.8,4 C42.1,4 42.5,3.9 42.9,3.9 L44.1,3.9 L44.1,4.8 L44.2,4.8 C44.4,4.6 44.5,4.4 44.6,4.3 C44.7,4.2 44.9,4.1 45,4 C45.1,3.9 45.2,3.9 45.3,3.9 L45.6,3.9 L45.9,3.9 C46.1,3.8 46.2,3.8 46.3,3.8 Z" id="Shape"></path>
                <path d="M49.8,2 C49.8,2.3 49.7,2.6 49.5,2.8 C49.3,3 49,3.2 48.5,3.2 C48.1,3.2 47.8,3.1 47.6,2.8 C47.4,2.6 47.3,2.3 47.3,2 C47.3,1.7 47.4,1.4 47.6,1.2 C47.8,0.9 48.1,0.8 48.6,0.8 C49,0.8 49.3,0.9 49.6,1.2 C49.7,1.4 49.8,1.7 49.8,2 Z M47.4,11.2 L47.4,3.9 L49.7,3.9 L49.7,11.2 L47.4,11.2 Z" id="Shape"></path>
                <path d="M57.4,11.3 C57,11.3 56.7,11.2 56.5,11.1 C56.3,11 56,10.7 55.9,10.4 L55.8,10.4 C55.5,10.8 55.2,11 54.9,11.1 C54.6,11.2 54.3,11.3 53.9,11.3 C52.1,11.3 51.2,10.1 51.2,7.7 C51.2,7.1 51.3,6.5 51.4,6 C51.5,5.5 51.8,5.1 52.1,4.8 C52.4,4.5 52.7,4.2 53.1,4 C53.5,3.8 53.9,3.7 54.4,3.7 L55,3.7 C55.2,3.7 55.4,3.8 55.6,3.8 C55.8,3.7 55.9,3.7 56.1,3.7 L56.8,3.7 L57.2,3.7 L57.6,3.7 L57.6,8.7 C57.6,8.9 57.7,9 57.9,9 L58.8,9 L58.8,9.8 C58.8,10.1 58.8,10.3 58.7,10.5 C58.6,10.7 58.5,10.8 58.4,10.9 C58.3,11 58.1,11.1 57.9,11.1 C57.8,11.3 57.6,11.3 57.4,11.3 Z M55.4,5.8 C55.2,5.7 55,5.7 54.7,5.7 C54.5,5.7 54.3,5.7 54.2,5.8 C54.1,5.9 53.9,6 53.9,6.1 C53.9,6.2 53.8,6.4 53.7,6.7 C53.7,6.9 53.6,7.2 53.6,7.6 L53.6,8.5 C53.6,8.7 53.7,8.9 53.8,9.1 C53.9,9.2 54,9.3 54.1,9.4 C54.2,9.5 54.4,9.5 54.5,9.5 L55,9.5 C55.1,9.5 55.3,9.4 55.4,9.4 L55.4,5.8 L55.4,5.8 Z" id="Shape"></path>
            </g>
            <g id="Group" transform="translate(374.000000, 20.000000)" fill="#F39200">
                <path d="M5.8,8.7 C5.8,9.2 5.7,9.6 5.6,10 C5.4,10.4 5.2,10.7 4.9,10.9 C4.6,11.1 4.3,11.3 3.9,11.4 C3.5,11.5 3.1,11.6 2.7,11.6 C2.4,11.6 2,11.6 1.6,11.5 C1.2,11.4 0.9,11.3 0.6,11.2 C0.6,11.1 0.6,10.9 0.7,10.8 C0.7,10.7 0.7,10.6 0.8,10.5 C1.1,10.7 1.4,10.8 1.7,10.8 C2,10.9 2.4,10.9 2.8,10.9 C3.5,10.9 4.1,10.7 4.5,10.4 C4.9,10.1 5.1,9.5 5.1,8.8 C5.1,8.1 4.9,7.6 4.6,7.3 C4.2,7 3.8,6.9 3.1,6.9 L1.6,6.9 L1.6,6.2 L3,6.2 C3.4,6.2 3.6,6.1 3.9,6 C4.2,5.9 4.3,5.7 4.5,5.6 C4.6,5.4 4.7,5.2 4.8,5 C4.9,4.8 4.9,4.5 4.9,4.2 C4.9,3.7 4.7,3.3 4.4,3 C4.1,2.7 3.6,2.6 3,2.6 C2.6,2.6 2.3,2.6 2,2.7 C1.7,2.8 1.4,2.9 1.1,3 C1.1,2.9 1,2.8 1,2.7 C1,2.6 1,2.5 0.9,2.3 C1.3,2.2 1.6,2.1 1.9,2 C2.2,1.9 2.6,1.9 2.9,1.9 C3.3,1.9 3.6,1.9 3.9,2 C4.2,2.1 4.5,2.2 4.7,2.4 C4.9,2.6 5.1,2.8 5.3,3.1 C5.4,3.4 5.5,3.7 5.5,4.2 C5.5,4.8 5.4,5.2 5.2,5.6 C5,6 4.6,6.2 4.2,6.4 L4.2,6.5 C4.7,6.7 5.1,6.9 5.4,7.3 C5.7,7.6 5.8,8.1 5.8,8.7 Z" id="Shape"></path>
                <path d="M13.4,6.6 C13.4,8.3 13.2,9.5 12.7,10.3 C12.2,11.1 11.5,11.4 10.6,11.4 C10.2,11.4 9.8,11.3 9.4,11.2 C9,11.1 8.7,10.8 8.5,10.4 C8.3,10 8.1,9.5 7.9,8.9 C7.8,8.3 7.7,7.5 7.7,6.5 C7.7,5.6 7.8,4.8 7.9,4.2 C8,3.6 8.2,3.1 8.5,2.7 C8.8,2.3 9.1,2.1 9.4,1.9 C9.8,1.7 10.1,1.7 10.6,1.7 C11.1,1.7 11.5,1.8 11.8,1.9 C12.2,2.1 12.4,2.3 12.7,2.7 C12.9,3.1 13.1,3.6 13.3,4.2 C13.5,4.8 13.4,5.7 13.4,6.6 Z M12.6,6.6 C12.6,5.1 12.4,4.1 12.1,3.4 C11.8,2.7 11.2,2.4 10.5,2.4 C10.1,2.4 9.8,2.5 9.5,2.6 C9.2,2.7 9,3 8.8,3.3 C8.6,3.6 8.5,4.1 8.4,4.6 C8.3,5.1 8.3,5.8 8.3,6.6 C8.3,7.4 8.3,8 8.4,8.6 C8.5,9.1 8.6,9.6 8.8,9.9 C9,10.2 9.2,10.5 9.5,10.6 C9.8,10.7 10.1,10.8 10.5,10.8 C10.9,10.8 11.2,10.7 11.4,10.6 C11.6,10.5 11.9,10.2 12.1,9.9 C12.3,9.6 12.4,9.1 12.5,8.6 C12.6,8 12.6,7.4 12.6,6.6 Z" id="Shape"></path>
                <path d="M18.8,4.4 C18.8,5.2 18.6,5.9 18.3,6.3 C18,6.8 17.4,7 16.7,7 C16,7 15.5,6.8 15.1,6.3 C14.7,5.9 14.5,5.2 14.5,4.3 C14.5,3.4 14.7,2.8 15.1,2.3 C15.5,1.8 16,1.6 16.6,1.6 C17.3,1.6 17.8,1.8 18.2,2.3 C18.6,2.9 18.8,3.5 18.8,4.4 Z M18.1,4.4 C18.1,3.8 18,3.2 17.8,2.9 C17.6,2.5 17.2,2.3 16.7,2.3 C16.2,2.3 15.8,2.5 15.6,2.8 C15.4,3.2 15.3,3.7 15.3,4.4 C15.3,5.1 15.4,5.6 15.6,6 C15.8,6.3 16.2,6.5 16.7,6.5 C17.2,6.5 17.6,6.3 17.8,6 C18,5.6 18.1,5.1 18.1,4.4 Z M18,11.5 C17.9,11.5 17.8,11.5 17.7,11.4 C17.6,11.4 17.5,11.3 17.4,11.3 L21.1,1.9 L21.5,1.9 C21.7,1.9 21.7,1.9 21.8,2 L18,11.5 Z M24.6,8.8 C24.6,9.6 24.4,10.3 24.1,10.7 C23.8,11.2 23.2,11.4 22.5,11.4 C21.8,11.4 21.3,11.2 20.9,10.7 C20.5,10.3 20.3,9.6 20.3,8.7 C20.3,7.8 20.5,7.2 20.9,6.7 C21.3,6.2 21.8,6 22.4,6 C23.1,6 23.6,6.2 24,6.7 C24.4,7.3 24.6,7.9 24.6,8.8 Z M23.9,8.8 C23.9,8.2 23.8,7.6 23.6,7.3 C23.4,6.9 23,6.7 22.5,6.7 C22,6.7 21.6,6.9 21.4,7.2 C21.2,7.6 21.1,8.1 21.1,8.8 C21.1,9.5 21.2,10 21.4,10.4 C21.6,10.7 22,10.9 22.5,10.9 C23,10.9 23.4,10.7 23.6,10.4 C23.8,10 23.9,9.5 23.9,8.8 Z" id="Shape"></path>
                <path d="M34.4,10.3 C34.4,10.5 34.4,10.6 34.5,10.7 C34.6,10.8 34.7,10.8 34.8,10.8 L35.6,10.8 L35.6,11 C35.6,11.4 35.4,11.5 35,11.5 C34.7,11.5 34.4,11.5 34.2,11.4 C34,11.3 33.8,11.1 33.6,10.8 L33.6,10.8 C33.3,11 32.9,11.2 32.6,11.3 C32.3,11.4 31.9,11.5 31.5,11.5 C31.1,11.5 30.8,11.4 30.5,11.3 C30.2,11.2 29.9,11 29.7,10.7 C29.5,10.4 29.3,10 29.2,9.6 C29.1,9.2 29,8.6 29,7.9 C29,7.2 29.1,6.6 29.2,6.1 C29.3,5.6 29.6,5.2 29.8,4.9 C30.1,4.6 30.4,4.3 30.8,4.2 C31.2,4.1 31.6,4 32.1,4 C32.3,4 32.6,4 32.8,4.1 C33,4.1 33.3,4.2 33.5,4.3 C33.6,4.2 33.7,4.2 33.7,4.2 L34,4.2 L34.2,4.2 L34.2,10.3 L34.4,10.3 Z M33.6,4.8 C33.4,4.7 33.1,4.6 32.8,4.6 L32.1,4.6 C31.7,4.6 31.4,4.6 31.1,4.7 C30.8,4.8 30.6,5 30.4,5.2 C30.2,5.4 30,5.8 29.9,6.2 C29.8,6.6 29.7,7.1 29.7,7.8 C29.7,8.4 29.7,8.9 29.8,9.3 C29.9,9.7 30,10 30.2,10.2 C30.4,10.4 30.6,10.6 30.8,10.7 C31,10.8 31.3,10.8 31.6,10.8 C31.9,10.8 32.3,10.7 32.6,10.6 C32.9,10.5 33.2,10.3 33.5,10.1 L33.5,4.8 L33.6,4.8 Z" id="Shape"></path>
                <path d="M48.6,11.3 L48.6,6 C48.6,5.6 48.5,5.2 48.3,5 C48.1,4.7 47.7,4.6 47.2,4.6 L46.6,4.6 C46.4,4.6 46.3,4.7 46.1,4.7 C45.9,4.8 45.8,4.8 45.6,4.9 C45.5,5 45.3,5.1 45.1,5.2 L45.1,11.2 L44.4,11.2 L44.4,6 C44.4,5.6 44.3,5.2 44.1,5 C43.9,4.7 43.5,4.6 43,4.6 C42.6,4.6 42.3,4.7 42,4.8 C41.7,4.9 41.4,5.1 41.1,5.4 L41.1,11.4 L40.4,11.4 L40.4,4.1 L40.8,4.1 L41.2,4.1 L41.2,4.8 L41.2,4.8 C41.5,4.5 41.8,4.3 42.1,4.2 C42.4,4.1 42.8,4 43.1,4 C43.5,4 43.8,4.1 44.2,4.2 C44.5,4.4 44.8,4.6 44.9,5 C45.3,4.6 45.7,4.4 46.1,4.2 C46.5,4 46.9,4 47.3,4 C47.6,4 47.8,4 48.1,4.1 C48.3,4.2 48.6,4.3 48.7,4.5 C48.8,4.7 49,4.9 49.1,5.2 C49.2,5.5 49.3,5.8 49.3,6.3 L49.3,11.6 L48.6,11.6 L48.6,11.3 Z" id="Shape"></path>
                <path d="M57.2,10.3 C57.2,10.5 57.2,10.6 57.3,10.7 C57.4,10.8 57.5,10.8 57.6,10.8 L58.4,10.8 L58.4,11 C58.4,11.4 58.2,11.5 57.8,11.5 C57.5,11.5 57.2,11.5 57,11.4 C56.8,11.3 56.6,11.1 56.4,10.8 L56.4,10.8 C56.1,11 55.7,11.2 55.4,11.3 C55.1,11.4 54.7,11.5 54.3,11.5 C53.9,11.5 53.6,11.4 53.3,11.3 C53,11.2 52.7,11 52.5,10.7 C52.3,10.4 52.1,10 52,9.6 C51.9,9.2 51.8,8.6 51.8,7.9 C51.8,7.2 51.9,6.6 52,6.1 C52.1,5.6 52.4,5.2 52.6,4.9 C52.9,4.6 53.2,4.3 53.6,4.2 C54,4.1 54.4,4 54.9,4 C55.1,4 55.4,4 55.6,4.1 C55.8,4.1 56.1,4.2 56.3,4.3 C56.4,4.2 56.5,4.2 56.5,4.2 L56.8,4.2 L57,4.2 L57,10.3 L57.2,10.3 Z M56.4,4.8 C56.2,4.7 55.9,4.6 55.6,4.6 L54.9,4.6 C54.5,4.6 54.2,4.6 53.9,4.7 C53.6,4.8 53.4,5 53.2,5.2 C53,5.4 52.8,5.8 52.7,6.2 C52.6,6.6 52.5,7.1 52.5,7.8 C52.5,8.4 52.5,8.9 52.6,9.3 C52.7,9.7 52.8,10 53,10.2 C53.2,10.4 53.4,10.6 53.6,10.7 C53.8,10.8 54.1,10.8 54.4,10.8 C54.7,10.8 55.1,10.7 55.4,10.6 C55.7,10.5 56,10.3 56.3,10.1 L56.3,4.8 L56.4,4.8 Z" id="Shape"></path>
                <path d="M61.2,1.9 C61.2,2.1 61.2,2.2 61.1,2.3 C61,2.4 60.9,2.4 60.7,2.4 C60.5,2.4 60.4,2.4 60.3,2.3 C60.2,2.2 60.2,2.1 60.2,1.9 C60.2,1.8 60.2,1.6 60.3,1.5 C60.4,1.4 60.5,1.3 60.7,1.3 C60.9,1.3 61,1.4 61.1,1.5 C61.2,1.6 61.2,1.8 61.2,1.9 Z M60.3,11.3 L60.3,4 L61,4 L61,11.3 L60.3,11.3 Z" id="Shape"></path>
                <path d="M67.9,9.5 C67.9,9.8 67.8,10.1 67.7,10.4 C67.6,10.7 67.4,10.9 67.2,11 C67,11.2 66.7,11.3 66.4,11.4 C66.1,11.5 65.8,11.5 65.4,11.5 C65.1,11.5 64.7,11.5 64.4,11.4 C64,11.3 63.7,11.2 63.5,11.1 C63.5,11 63.6,10.9 63.6,10.7 C63.6,10.6 63.7,10.5 63.7,10.4 C64,10.5 64.3,10.7 64.6,10.7 C64.9,10.8 65.3,10.8 65.6,10.8 C66.2,10.8 66.5,10.7 66.8,10.5 C67,10.3 67.2,10 67.2,9.6 C67.2,9.3 67.1,9 66.9,8.8 C66.7,8.6 66.5,8.4 66.2,8.3 C65.9,8.1 65.7,8 65.3,7.9 C65,7.8 64.7,7.6 64.4,7.5 C64.1,7.3 63.9,7.1 63.7,6.9 C63.5,6.7 63.4,6.4 63.4,6.1 C63.4,5.8 63.5,5.5 63.6,5.2 C63.7,4.9 63.9,4.7 64.1,4.5 C64.3,4.3 64.6,4.2 64.9,4.1 C65.2,4 65.5,4 65.9,4 L66.7,4 C67,4 67.3,4.1 67.6,4.2 L67.6,4.6 C67.6,4.8 67.5,4.9 67.5,5 C67.2,4.9 67,4.8 66.7,4.8 C66.4,4.8 66.1,4.7 65.8,4.7 C65.3,4.7 65,4.8 64.7,5 C64.4,5.2 64.3,5.5 64.3,6 C64.3,6.3 64.4,6.5 64.6,6.6 C64.8,6.8 65,6.9 65.3,7.1 C65.6,7.2 65.8,7.4 66.2,7.5 C66.5,7.6 66.8,7.8 67.1,8 C67.4,8.2 67.6,8.4 67.8,8.7 C67.8,8.8 67.9,9.1 67.9,9.5 Z" id="Shape"></path>
                <path d="M78.7,11.5 L78.3,11.5 C78.2,11.5 78.1,11.5 77.9,11.4 C77.7,11.3 77.7,11.3 77.6,11.2 C77.5,11.1 77.4,11 77.3,10.8 L77.2,10.8 C76.8,11.1 76.5,11.3 76.2,11.4 C75.9,11.5 75.5,11.6 75.1,11.6 C74.7,11.6 74.4,11.5 74.1,11.4 C73.8,11.3 73.5,11.1 73.3,10.8 C73.1,10.5 72.9,10.1 72.8,9.7 C72.7,9.3 72.6,8.7 72.6,8 C72.6,7.3 72.7,6.7 72.8,6.1 C72.9,5.6 73.2,5.2 73.4,4.9 C73.7,4.6 74,4.3 74.4,4.2 C74.8,4.1 75.2,4 75.7,4 C75.9,4 76.2,4 76.5,4.1 C76.8,4.2 77,4.2 77.3,4.3 L77.3,1 C77.4,1 77.5,1 77.7,0.9 L78.1,0.9 L78.1,10.3 C78.1,10.5 78.1,10.6 78.2,10.7 C78.3,10.8 78.4,10.8 78.5,10.8 L79.3,10.8 L79.3,11 C79.4,11.3 79.2,11.5 78.7,11.5 Z M77.4,4.9 C77.2,4.8 76.9,4.7 76.6,4.7 C76.3,4.6 76,4.6 75.8,4.6 C75.4,4.6 75.1,4.6 74.8,4.7 C74.5,4.8 74.3,5 74.1,5.2 C73.9,5.4 73.7,5.8 73.6,6.2 C73.5,6.6 73.4,7.1 73.4,7.8 C73.4,8.4 73.4,8.9 73.5,9.3 C73.6,9.7 73.7,10 73.9,10.2 C74.1,10.4 74.3,10.6 74.5,10.7 C74.7,10.8 75,10.8 75.3,10.8 C75.6,10.8 75.9,10.8 76.3,10.7 C76.6,10.6 77,10.4 77.4,10.2 L77.4,4.9 L77.4,4.9 Z" id="Shape"></path>
                <path d="M86.7,7.7 C86.7,8.4 86.6,8.9 86.5,9.4 C86.3,9.9 86.1,10.3 85.9,10.6 C85.7,10.9 85.3,11.1 84.9,11.3 C84.5,11.4 84.1,11.5 83.7,11.5 C83.3,11.5 82.8,11.4 82.5,11.3 C82.1,11.2 81.8,10.9 81.6,10.6 C81.4,10.3 81.2,9.9 81,9.4 C80.9,8.9 80.8,8.3 80.8,7.7 C80.8,7.1 80.9,6.5 81,6.1 C81.1,5.6 81.3,5.2 81.6,4.9 C81.9,4.6 82.2,4.3 82.5,4.2 C82.9,4 83.3,4 83.7,4 C84.1,4 84.5,4.1 84.9,4.2 C85.3,4.3 85.6,4.5 85.8,4.9 C86.1,5.2 86.3,5.6 86.4,6.1 C86.7,6.4 86.7,7 86.7,7.7 Z M85.9,7.7 C85.9,7.1 85.8,6.6 85.7,6.2 C85.6,5.8 85.5,5.5 85.3,5.2 C85.1,5 84.9,4.8 84.6,4.7 C84.3,4.6 84,4.6 83.7,4.6 C83.4,4.6 83.1,4.6 82.9,4.7 C82.7,4.8 82.4,4.9 82.2,5.2 C82,5.4 81.8,5.7 81.7,6.1 C81.6,6.5 81.5,7 81.5,7.7 C81.5,8.3 81.5,8.8 81.6,9.2 C81.7,9.6 81.8,9.9 82,10.2 C82.2,10.4 82.4,10.6 82.7,10.7 C83,10.8 83.3,10.8 83.6,10.8 C83.9,10.8 84.2,10.8 84.5,10.7 C84.8,10.6 85,10.4 85.2,10.2 C85.4,10 85.5,9.6 85.6,9.2 C85.9,8.8 85.9,8.3 85.9,7.7 Z" id="Shape"></path>
                <path d="M96.3,14.2 L96.3,10.7 L96.3,10.7 C95.9,11 95.6,11.2 95.2,11.3 C94.9,11.4 94.5,11.5 94.1,11.5 C93.7,11.5 93.4,11.4 93.1,11.3 C92.8,11.2 92.5,11 92.3,10.7 C92.1,10.4 91.9,10 91.8,9.6 C91.7,9.2 91.6,8.6 91.6,7.9 C91.6,7.2 91.7,6.6 91.8,6.1 C91.9,5.6 92.2,5.2 92.4,4.9 C92.7,4.6 93,4.3 93.4,4.2 C93.8,4.1 94.2,4 94.7,4 C95.1,4 95.4,4 95.8,4.1 C96.2,4.2 96.6,4.4 96.9,4.6 L96.9,14.3 L96.3,14.3 L96.3,14.2 Z M96.3,4.9 C96.1,4.8 95.9,4.7 95.6,4.7 C95.3,4.7 95,4.6 94.7,4.6 C94.3,4.6 94,4.7 93.7,4.8 C93.4,4.9 93.2,5.1 93,5.3 C92.8,5.5 92.6,5.9 92.5,6.3 C92.4,6.7 92.3,7.2 92.3,7.8 C92.3,8.4 92.3,8.9 92.4,9.3 C92.5,9.7 92.6,10 92.8,10.2 C93,10.4 93.2,10.6 93.4,10.7 C93.6,10.8 93.9,10.8 94.2,10.8 C94.5,10.8 94.9,10.7 95.2,10.6 C95.5,10.5 95.9,10.3 96.2,10.1 L96.2,4.9 L96.3,4.9 Z" id="Shape"></path>
                <path d="M104.4,11.3 L104.4,10.7 L104.4,10.7 C104,10.9 103.7,11.1 103.3,11.3 C102.9,11.5 102.5,11.5 102.1,11.5 C101.8,11.5 101.6,11.5 101.3,11.4 C101.1,11.3 100.9,11.2 100.7,11 C100.5,10.8 100.4,10.6 100.3,10.3 C100.2,10 100.1,9.7 100.1,9.3 L100.1,4.1 L100.5,4.1 L100.9,4.1 L100.9,9.5 C100.9,9.9 101,10.3 101.2,10.5 C101.4,10.8 101.7,10.9 102.2,10.9 C102.7,10.9 103.1,10.8 103.4,10.7 C103.7,10.6 104.1,10.4 104.4,10.2 L104.4,4.2 L104.8,4.2 L105.2,4.2 L105.2,11.5 L104.4,11.5 L104.4,11.3 Z" id="Shape"></path>
                <path d="M113,6.6 L113,7.1 L113,7.6 L108.5,7.6 L108.5,7.7 C108.5,8.2 108.5,8.6 108.6,9 C108.7,9.4 108.8,9.7 109,10 C109.2,10.3 109.4,10.4 109.7,10.6 C110,10.7 110.4,10.8 110.8,10.8 C111.1,10.8 111.5,10.8 111.8,10.7 C112.1,10.6 112.4,10.5 112.6,10.4 C112.6,10.5 112.7,10.6 112.7,10.7 C112.7,10.8 112.8,10.9 112.8,11 C112.6,11.2 112.2,11.3 111.9,11.4 C111.5,11.5 111.1,11.5 110.8,11.5 C109.8,11.5 109,11.2 108.4,10.6 C107.8,10 107.6,9.1 107.6,7.8 C107.6,7.1 107.7,6.5 107.8,6 C107.9,5.5 108.1,5.1 108.4,4.8 C108.7,4.5 109,4.3 109.3,4.1 C109.6,4 110,3.9 110.4,3.9 C111.2,3.9 111.8,4.1 112.2,4.6 C112.8,5 113,5.7 113,6.6 Z M110.5,4.5 C109.9,4.5 109.4,4.7 109.1,5.1 C108.7,5.5 108.5,6.1 108.5,7.1 L112.3,7.1 L112.3,6.9 L112.3,6.7 C112.3,6 112.1,5.4 111.8,5.1 C111.5,4.7 111,4.5 110.5,4.5 Z" id="Shape"></path>
                <path d="M123.1,6.6 L123.1,7.1 L123.1,7.6 L118.6,7.6 L118.6,7.7 C118.6,8.2 118.6,8.6 118.7,9 C118.8,9.4 118.9,9.7 119.1,10 C119.3,10.3 119.5,10.4 119.8,10.6 C120.1,10.7 120.5,10.8 120.9,10.8 C121.2,10.8 121.6,10.8 121.9,10.7 C122.2,10.6 122.5,10.5 122.7,10.4 C122.7,10.5 122.8,10.6 122.8,10.7 C122.8,10.8 122.9,10.9 122.9,11 C122.7,11.2 122.3,11.3 122,11.4 C121.6,11.5 121.2,11.5 120.9,11.5 C119.9,11.5 119.1,11.2 118.5,10.6 C117.9,10 117.7,9.1 117.7,7.8 C117.7,7.1 117.8,6.5 117.9,6 C118,5.5 118.2,5.1 118.5,4.8 C118.8,4.5 119.1,4.3 119.4,4.1 C119.7,4 120.1,3.9 120.5,3.9 C121.3,3.9 121.9,4.1 122.3,4.6 C122.9,5 123.1,5.7 123.1,6.6 Z M120.5,4.5 C119.9,4.5 119.4,4.7 119.1,5.1 C118.7,5.5 118.5,6.1 118.5,7.1 L122.3,7.1 L122.3,6.9 L122.3,6.7 C122.3,6 122.1,5.4 121.8,5.1 C121.5,4.7 121.1,4.5 120.5,4.5 Z" id="Shape"></path>
                <path d="M133.7,11.3 L133.7,6 C133.7,5.6 133.6,5.2 133.4,5 C133.2,4.7 132.8,4.6 132.3,4.6 L131.7,4.6 C131.5,4.6 131.4,4.7 131.2,4.7 C131,4.8 130.9,4.8 130.7,4.9 C130.6,5 130.4,5.1 130.2,5.2 L130.2,11.2 L129.5,11.2 L129.5,6 C129.5,5.6 129.4,5.2 129.2,5 C129,4.7 128.6,4.6 128.1,4.6 C127.7,4.6 127.4,4.7 127.1,4.8 C126.8,4.9 126.5,5.1 126.2,5.4 L126.2,11.4 L125.5,11.4 L125.5,4.1 L125.9,4.1 L126.3,4.1 L126.3,4.8 L126.3,4.8 C126.6,4.5 126.9,4.3 127.2,4.2 C127.5,4.1 127.9,4 128.2,4 C128.6,4 128.9,4.1 129.3,4.2 C129.6,4.4 129.9,4.6 130,5 C130.4,4.6 130.8,4.4 131.2,4.2 C131.6,4 132,4 132.4,4 C132.7,4 132.9,4 133.2,4.1 C133.4,4.2 133.7,4.3 133.8,4.5 C133.9,4.7 134.1,4.9 134.2,5.2 C134.3,5.5 134.4,5.8 134.4,6.3 L134.4,11.6 L133.7,11.6 L133.7,11.3 Z" id="Shape"></path>
                <path d="M145.2,10.7 C145.2,10.9 145.2,11.1 145.1,11.4 L139.7,11.4 L139.6,10.7 C140.4,10.1 141.1,9.5 141.7,8.9 C142.2,8.3 142.7,7.8 143,7.2 C143.3,6.7 143.5,6.2 143.7,5.7 C143.8,5.2 143.9,4.8 143.9,4.5 C143.9,3.8 143.7,3.3 143.4,2.9 C143.1,2.5 142.6,2.3 142,2.3 C141.6,2.3 141.2,2.3 140.9,2.4 C140.6,2.5 140.3,2.6 140,2.7 C140,2.6 139.9,2.5 139.9,2.4 L139.9,2.1 C140.6,1.8 141.3,1.7 142,1.7 C142.9,1.7 143.6,2 144.1,2.5 C144.6,3 144.8,3.7 144.8,4.6 C144.8,5 144.7,5.4 144.6,5.8 C144.5,6.2 144.3,6.8 143.9,7.3 C143.6,7.8 143.2,8.4 142.7,8.9 C142.2,9.4 141.6,10 140.8,10.6 L145.2,10.6 L145.2,10.7 Z" id="Shape"></path>
                <path d="M152.2,6.6 C152.2,8.3 152,9.5 151.5,10.3 C151,11.1 150.3,11.4 149.4,11.4 C149,11.4 148.6,11.3 148.2,11.2 C147.8,11.1 147.5,10.8 147.3,10.4 C147.1,10 146.9,9.5 146.7,8.9 C146.6,8.3 146.5,7.5 146.5,6.5 C146.5,5.6 146.6,4.8 146.7,4.2 C146.8,3.6 147,3.1 147.3,2.7 C147.6,2.3 147.9,2.1 148.2,1.9 C148.6,1.7 148.9,1.7 149.4,1.7 C149.9,1.7 150.3,1.8 150.6,1.9 C151,2.1 151.2,2.3 151.5,2.7 C151.7,3.1 151.9,3.6 152.1,4.2 C152.3,4.8 152.2,5.7 152.2,6.6 Z M151.4,6.6 C151.4,5.1 151.2,4.1 150.9,3.4 C150.6,2.7 150,2.4 149.3,2.4 C148.9,2.4 148.6,2.5 148.3,2.6 C148,2.7 147.8,3 147.6,3.3 C147.4,3.6 147.3,4.1 147.2,4.6 C147.1,5.1 147.1,5.8 147.1,6.6 C147.1,7.4 147.1,8 147.2,8.6 C147.3,9.1 147.4,9.6 147.6,9.9 C147.8,10.2 148,10.5 148.3,10.6 C148.6,10.7 148.9,10.8 149.3,10.8 C149.7,10.8 150,10.7 150.2,10.6 C150.4,10.5 150.7,10.2 150.9,9.9 C151.1,9.6 151.2,9.1 151.3,8.6 C151.4,8 151.4,7.4 151.4,6.6 Z" id="Shape"></path>
                <path d="M153.9,11.3 L153.9,10.6 L156.6,10.6 L156.6,2.5 L154.1,2.9 C154.1,2.8 154,2.7 154,2.5 L154,2.2 L156.7,1.7 L157.5,1.7 L157.5,10.5 L159.6,10.5 L159.6,10.8 C159.6,10.9 159.6,11 159.5,11.1 L153.9,11.1 L153.9,11.3 Z" id="Shape"></path>
                <path d="M166,8.3 C166,8.8 165.9,9.3 165.8,9.7 C165.7,10.1 165.5,10.4 165.3,10.7 C165.1,11 164.8,11.2 164.5,11.3 C164.2,11.4 163.8,11.5 163.5,11.5 C162.6,11.5 161.9,11.2 161.4,10.5 C160.9,9.8 160.7,8.7 160.7,7.2 C160.7,5.4 161,4.1 161.6,3.2 C162.2,2.3 163,1.9 164.1,1.9 L164.9,1.9 C165.2,1.9 165.4,2 165.6,2.1 L165.6,2.4 C165.6,2.5 165.6,2.7 165.5,2.8 C165.3,2.7 165.1,2.7 164.8,2.6 C164.5,2.6 164.3,2.5 164,2.5 C163.1,2.5 162.5,2.8 162,3.5 C161.6,4.2 161.3,5.2 161.2,6.7 L161.2,6.7 C161.5,6.3 161.8,6 162.1,5.8 C162.5,5.6 162.8,5.5 163.3,5.5 C163.7,5.5 164,5.6 164.3,5.7 C164.6,5.8 164.9,6 165.1,6.2 C165.3,6.4 165.5,6.7 165.6,7.1 C165.9,7.3 166,7.8 166,8.3 Z M165.2,8.3 C165.2,7.9 165.2,7.5 165.1,7.3 C165,7 164.9,6.8 164.7,6.6 C164.5,6.4 164.3,6.3 164.1,6.2 C163.9,6.1 163.6,6.1 163.4,6.1 C162.7,6.1 162.3,6.3 161.9,6.6 C161.5,6.9 161.4,7.5 161.4,8.4 C161.4,9.2 161.6,9.8 161.9,10.2 C162.2,10.6 162.7,10.9 163.3,10.9 C163.9,10.9 164.4,10.7 164.7,10.3 C165.1,9.8 165.2,9.2 165.2,8.3 Z" id="Shape"></path>
            </g>
            <g id="Group" transform="translate(374.000000, 87.000000)" fill="#F39200">
                <path d="M6.4,10.5 C6.4,10.7 6.4,10.9 6.3,11.2 L0.9,11.2 L0.8,10.5 C1.6,9.9 2.3,9.3 2.9,8.7 C3.4,8.1 3.9,7.6 4.2,7 C4.5,6.5 4.7,6 4.9,5.5 C5,5 5.1,4.6 5.1,4.3 C5.1,3.6 4.9,3.1 4.6,2.7 C4.3,2.3 3.8,2.1 3.2,2.1 C2.8,2.1 2.4,2.1 2.1,2.2 C1.7,2.3 1.5,2.4 1.2,2.5 C1.2,2.4 1.1,2.3 1.1,2.2 L1.1,1.9 C1.8,1.6 2.5,1.5 3.2,1.5 C4.1,1.5 4.8,1.8 5.3,2.3 C5.8,2.8 6,3.5 6,4.4 C6,4.8 5.9,5.2 5.8,5.6 C5.7,6 5.5,6.6 5.1,7.1 C4.8,7.6 4.4,8.2 3.9,8.7 C3.4,9.2 2.8,9.8 2,10.4 L6.4,10.4 L6.4,10.5 Z" id="Shape"></path>
                <path d="M13.1,8.6 C13.1,9.5 12.8,10.2 12.3,10.6 C11.8,11.1 11,11.3 10.1,11.3 L9.7,11.3 C9.5,11.3 9.4,11.3 9.2,11.2 C9,11.2 8.8,11.1 8.7,11.1 C8.5,11.1 8.4,11 8.2,11 C8.2,10.8 8.3,10.5 8.4,10.3 C8.6,10.4 8.9,10.5 9.2,10.6 C9.5,10.7 9.8,10.7 10.1,10.7 C10.9,10.7 11.5,10.5 11.9,10.2 C12.3,9.9 12.4,9.3 12.4,8.6 C12.4,7.9 12.1,7.4 11.6,7.1 C11.1,6.8 10.3,6.6 9.3,6.6 L8.7,6.6 L8.2,6.6 C8.2,6.2 8.2,5.8 8.3,5.4 C8.3,5 8.4,4.5 8.4,4.1 C8.4,3.7 8.5,3.3 8.5,2.9 C8.5,2.5 8.6,2.2 8.6,1.9 L12.9,1.9 L12.9,2.2 C12.9,2.3 12.9,2.4 12.8,2.5 L9.1,2.5 L8.8,5.9 L9,5.9 C9.6,5.9 10.1,5.9 10.6,6 C11.1,6.1 11.5,6.2 11.9,6.5 C12.3,6.7 12.5,7 12.7,7.4 C13,7.6 13.1,8.1 13.1,8.6 Z" id="Shape"></path>
                <path d="M18.8,4.3 C18.8,5.1 18.6,5.8 18.3,6.2 C18,6.6 17.4,6.9 16.7,6.9 C16,6.9 15.5,6.7 15.1,6.2 C14.7,5.7 14.5,5.1 14.5,4.2 C14.5,3.3 14.7,2.7 15.1,2.2 C15.5,1.7 16,1.5 16.6,1.5 C17.3,1.5 17.8,1.7 18.2,2.2 C18.6,2.7 18.8,3.4 18.8,4.3 Z M18.1,4.3 C18.1,3.7 18,3.1 17.8,2.8 C17.6,2.4 17.2,2.2 16.7,2.2 C16.2,2.2 15.8,2.4 15.6,2.7 C15.4,3.1 15.3,3.6 15.3,4.3 C15.3,5 15.4,5.5 15.6,5.9 C15.8,6.2 16.2,6.4 16.7,6.4 C17.2,6.4 17.6,6.2 17.8,5.9 C18,5.5 18.1,5 18.1,4.3 Z M18,11.3 C17.9,11.3 17.8,11.3 17.7,11.2 C17.6,11.2 17.5,11.1 17.4,11.1 L21.1,1.7 L21.5,1.7 C21.6,1.7 21.7,1.7 21.8,1.8 L18,11.3 Z M24.6,8.7 C24.6,9.5 24.4,10.2 24.1,10.6 C23.8,11.1 23.2,11.3 22.5,11.3 C21.8,11.3 21.3,11.1 20.9,10.6 C20.5,10.2 20.3,9.5 20.3,8.6 C20.3,7.7 20.5,7.1 20.9,6.6 C21.3,6.1 21.8,5.9 22.4,5.9 C23.1,5.9 23.6,6.1 24,6.6 C24.4,7.1 24.6,7.8 24.6,8.7 Z M23.9,8.7 C23.9,8.1 23.8,7.5 23.6,7.2 C23.4,6.8 23,6.6 22.5,6.6 C22,6.6 21.6,6.8 21.4,7.1 C21.2,7.5 21.1,8 21.1,8.7 C21.1,9.4 21.2,9.9 21.4,10.3 C21.6,10.6 22,10.8 22.5,10.8 C23,10.8 23.4,10.6 23.6,10.3 C23.8,9.9 23.9,9.4 23.9,8.7 Z" id="Shape"></path>
                <path d="M34.4,10.2 C34.4,10.4 34.4,10.5 34.5,10.5 C34.6,10.6 34.7,10.6 34.8,10.6 L35.6,10.6 L35.6,10.8 C35.6,11.2 35.4,11.3 35,11.3 C34.7,11.3 34.4,11.3 34.2,11.2 C34,11.1 33.8,10.9 33.6,10.6 L33.6,10.6 C33.3,10.8 32.9,11 32.6,11.1 C32.3,11.2 31.9,11.3 31.5,11.3 C31.1,11.3 30.8,11.2 30.5,11.1 C30.2,11 29.9,10.8 29.7,10.5 C29.5,10.2 29.3,9.8 29.2,9.4 C29.1,9 29,8.4 29,7.7 C29,7 29.1,6.4 29.2,5.9 C29.3,5.4 29.6,5 29.8,4.7 C30.1,4.4 30.4,4.1 30.8,4 C31.2,3.9 31.6,3.8 32.1,3.8 C32.3,3.8 32.6,3.8 32.8,3.9 C33,3.9 33.3,4 33.5,4.1 C33.6,4 33.7,4 33.7,4 L34,4 L34.2,4 L34.2,10.2 L34.4,10.2 Z M33.6,4.7 C33.4,4.6 33.1,4.5 32.8,4.5 L32.1,4.5 C31.7,4.5 31.4,4.5 31.1,4.6 C30.8,4.7 30.6,4.9 30.4,5.1 C30.2,5.3 30,5.7 29.9,6.1 C29.8,6.5 29.7,7 29.7,7.7 C29.7,8.3 29.7,8.8 29.8,9.2 C29.9,9.6 30,9.9 30.2,10.1 C30.4,10.3 30.6,10.5 30.8,10.6 C31,10.7 31.3,10.7 31.6,10.7 C31.9,10.7 32.3,10.6 32.6,10.5 C32.9,10.4 33.2,10.2 33.5,10 L33.5,4.7 L33.6,4.7 Z" id="Shape"></path>
                <path d="M48.6,11.2 L48.6,5.9 C48.6,5.5 48.5,5.1 48.3,4.9 C48.1,4.6 47.7,4.5 47.2,4.5 L46.6,4.5 C46.4,4.5 46.3,4.6 46.1,4.6 C45.9,4.7 45.8,4.7 45.6,4.8 C45.4,4.9 45.3,5 45.1,5.1 L45.1,11.1 L44.4,11.1 L44.4,5.8 C44.4,5.4 44.3,5 44.1,4.8 C43.9,4.6 43.5,4.4 43,4.4 C42.6,4.4 42.3,4.5 42,4.6 C41.7,4.7 41.4,4.9 41.1,5.2 L41.1,11.2 L40.4,11.2 L40.4,3.9 L40.8,3.9 L41.2,3.9 L41.2,4.6 L41.2,4.6 C41.5,4.3 41.8,4.1 42.1,4 C42.4,3.9 42.8,3.8 43.1,3.8 C43.5,3.8 43.8,3.9 44.2,4 C44.6,4.1 44.8,4.4 44.9,4.8 C45.3,4.4 45.7,4.2 46.1,4 C46.5,3.8 46.9,3.8 47.3,3.8 C47.6,3.8 47.8,3.8 48.1,3.9 C48.3,4 48.6,4.1 48.7,4.2 C48.8,4.3 49,4.6 49.1,4.9 C49.2,5.2 49.3,5.5 49.3,6 L49.3,11.3 L48.6,11.3 L48.6,11.2 Z" id="Shape"></path>
                <path d="M57.2,10.2 C57.2,10.4 57.2,10.5 57.3,10.5 C57.4,10.6 57.5,10.6 57.6,10.6 L58.4,10.6 L58.4,10.8 C58.4,11.2 58.2,11.3 57.8,11.3 C57.5,11.3 57.2,11.3 57,11.2 C56.8,11.1 56.6,10.9 56.4,10.6 L56.4,10.6 C56.1,10.8 55.7,11 55.4,11.1 C55.1,11.2 54.7,11.3 54.3,11.3 C53.9,11.3 53.6,11.2 53.3,11.1 C53,11 52.7,10.8 52.5,10.5 C52.3,10.2 52.1,9.8 52,9.4 C51.9,9 51.8,8.4 51.8,7.7 C51.8,7 51.9,6.4 52,5.9 C52.1,5.4 52.4,5 52.6,4.7 C52.9,4.4 53.2,4.1 53.6,4 C54,3.9 54.4,3.8 54.9,3.8 C55.1,3.8 55.4,3.8 55.6,3.9 C55.8,3.9 56.1,4 56.3,4.1 C56.4,4 56.5,4 56.5,4 L56.8,4 L57,4 L57,10.2 L57.2,10.2 Z M56.4,4.7 C56.2,4.6 55.9,4.5 55.6,4.5 L54.9,4.5 C54.5,4.5 54.2,4.5 53.9,4.6 C53.6,4.7 53.4,4.9 53.2,5.1 C53,5.3 52.8,5.7 52.7,6.1 C52.6,6.5 52.5,7 52.5,7.7 C52.5,8.3 52.5,8.8 52.6,9.2 C52.7,9.6 52.8,9.9 53,10.1 C53.2,10.3 53.4,10.5 53.6,10.6 C53.8,10.7 54.1,10.7 54.4,10.7 C54.7,10.7 55.1,10.6 55.4,10.5 C55.7,10.4 56,10.2 56.3,10 L56.3,4.7 L56.4,4.7 Z" id="Shape"></path>
                <path d="M61.2,1.8 C61.2,2 61.2,2.1 61.1,2.2 C61,2.3 60.9,2.3 60.7,2.3 C60.5,2.3 60.4,2.3 60.3,2.2 C60.2,2.1 60.2,2 60.2,1.8 C60.2,1.7 60.2,1.5 60.3,1.4 C60.4,1.3 60.5,1.2 60.7,1.2 C60.9,1.2 61,1.3 61.1,1.4 C61.2,1.5 61.2,1.6 61.2,1.8 Z M60.3,11.2 L60.3,3.9 L61,3.9 L61,11.2 L60.3,11.2 Z" id="Shape"></path>
                <path d="M67.9,9.3 C67.9,9.6 67.8,9.9 67.7,10.2 C67.6,10.5 67.4,10.7 67.2,10.8 C67,11 66.7,11.1 66.4,11.2 C66.1,11.3 65.8,11.3 65.4,11.3 C65.1,11.3 64.7,11.3 64.4,11.2 C64,11.1 63.7,11 63.5,10.9 C63.5,10.8 63.6,10.7 63.6,10.6 C63.6,10.5 63.7,10.4 63.7,10.3 C64,10.4 64.3,10.6 64.6,10.6 C64.9,10.7 65.3,10.7 65.6,10.7 C66.2,10.7 66.5,10.6 66.8,10.4 C67.1,10.2 67.2,9.9 67.2,9.5 C67.2,9.2 67.1,8.9 66.9,8.7 C66.7,8.5 66.5,8.3 66.2,8.2 C65.9,8 65.7,7.9 65.3,7.8 C65,7.7 64.7,7.5 64.4,7.4 C64.1,7.2 63.9,7 63.7,6.8 C63.5,6.6 63.4,6.3 63.4,6 C63.4,5.7 63.5,5.4 63.6,5.1 C63.7,4.8 63.9,4.6 64.1,4.4 C64.3,4.2 64.6,4.1 64.9,4 C65.2,3.9 65.5,3.9 65.9,3.9 L66.7,3.9 C67,3.9 67.3,4 67.6,4.1 L67.6,4.5 C67.6,4.6 67.5,4.8 67.5,4.9 C67.2,4.8 67,4.7 66.7,4.7 C66.4,4.7 66.1,4.6 65.8,4.6 C65.3,4.6 65,4.7 64.7,4.9 C64.4,5.1 64.3,5.4 64.3,5.9 C64.3,6.2 64.4,6.4 64.6,6.5 C64.8,6.7 65,6.8 65.3,7 C65.6,7.1 65.8,7.3 66.2,7.4 C66.5,7.5 66.8,7.7 67.1,7.9 C67.4,8.1 67.6,8.3 67.8,8.6 C67.8,8.6 67.9,8.9 67.9,9.3 Z" id="Shape"></path>
                <path d="M78.7,11.3 L78.3,11.3 C78.2,11.3 78.1,11.3 77.9,11.2 C77.7,11.1 77.7,11.1 77.6,11 C77.5,10.9 77.4,10.8 77.3,10.6 L77.2,10.6 C76.8,10.9 76.5,11.1 76.2,11.2 C75.9,11.3 75.5,11.4 75.1,11.4 C74.7,11.4 74.4,11.3 74.1,11.2 C73.8,11.1 73.5,10.9 73.3,10.6 C73.1,10.3 72.9,9.9 72.8,9.5 C72.7,9.1 72.6,8.5 72.6,7.8 C72.6,7.1 72.7,6.5 72.8,5.9 C72.9,5.4 73.2,5 73.4,4.7 C73.7,4.4 74,4.1 74.4,4 C74.8,3.9 75.2,3.8 75.7,3.8 C75.9,3.8 76.2,3.8 76.5,3.9 C76.8,4 77,4 77.3,4.1 L77.3,0.9 C77.4,0.9 77.5,0.9 77.7,0.8 L78.1,0.8 L78.1,10.2 C78.1,10.4 78.1,10.5 78.2,10.5 C78.3,10.6 78.4,10.6 78.5,10.6 L79.3,10.6 L79.3,10.8 C79.4,11.2 79.2,11.3 78.7,11.3 Z M77.4,4.8 C77.2,4.7 76.9,4.6 76.6,4.6 C76.3,4.5 76,4.5 75.8,4.5 C75.4,4.5 75.1,4.5 74.8,4.6 C74.5,4.7 74.3,4.9 74.1,5.1 C73.9,5.3 73.7,5.7 73.6,6.1 C73.5,6.5 73.4,7 73.4,7.7 C73.4,8.3 73.4,8.8 73.5,9.2 C73.6,9.6 73.7,9.9 73.9,10.1 C74.1,10.3 74.3,10.5 74.5,10.6 C74.7,10.7 75,10.7 75.3,10.7 C75.6,10.7 75.9,10.7 76.3,10.6 C76.6,10.5 77,10.3 77.4,10.1 L77.4,4.8 L77.4,4.8 Z" id="Shape"></path>
                <path d="M86.7,7.6 C86.7,8.3 86.6,8.8 86.5,9.3 C86.3,9.8 86.1,10.2 85.9,10.5 C85.7,10.8 85.3,11 84.9,11.2 C84.5,11.4 84.1,11.4 83.7,11.4 C83.3,11.4 82.8,11.3 82.5,11.2 C82.2,11.1 81.8,10.8 81.6,10.5 C81.4,10.2 81.2,9.8 81,9.3 C80.9,8.8 80.8,8.2 80.8,7.6 C80.8,7 80.9,6.4 81,6 C81.1,5.5 81.3,5.1 81.6,4.8 C81.9,4.5 82.2,4.2 82.5,4.1 C82.9,3.9 83.3,3.9 83.7,3.9 C84.1,3.9 84.5,4 84.9,4.1 C85.3,4.2 85.6,4.4 85.8,4.8 C86.1,5.1 86.3,5.5 86.4,6 C86.7,6.3 86.7,6.9 86.7,7.6 Z M85.9,7.6 C85.9,7 85.8,6.5 85.7,6.1 C85.6,5.7 85.5,5.4 85.3,5.1 C85.1,4.9 84.9,4.7 84.6,4.6 C84.3,4.5 84,4.5 83.7,4.5 C83.4,4.5 83.1,4.5 82.9,4.6 C82.6,4.7 82.4,4.8 82.2,5.1 C82,5.3 81.8,5.6 81.7,6 C81.6,6.4 81.5,6.9 81.5,7.6 C81.5,8.2 81.5,8.7 81.6,9.1 C81.7,9.5 81.8,9.8 82,10.1 C82.2,10.3 82.4,10.5 82.7,10.6 C83,10.7 83.3,10.7 83.6,10.7 C83.9,10.7 84.2,10.7 84.5,10.6 C84.8,10.5 85,10.3 85.2,10.1 C85.4,9.9 85.5,9.5 85.6,9.1 C85.9,8.7 85.9,8.2 85.9,7.6 Z" id="Shape"></path>
                <path d="M96.3,14.1 L96.3,10.6 L96.3,10.6 C95.9,10.9 95.6,11.1 95.2,11.2 C94.9,11.3 94.5,11.4 94.1,11.4 C93.7,11.4 93.4,11.3 93.1,11.2 C92.8,11.1 92.5,10.9 92.3,10.6 C92.1,10.3 91.9,9.9 91.8,9.5 C91.7,9.1 91.6,8.5 91.6,7.8 C91.6,7.1 91.7,6.5 91.8,6 C91.9,5.5 92.2,5.1 92.4,4.8 C92.7,4.5 93,4.2 93.4,4.1 C93.8,4 94.2,3.9 94.7,3.9 C95.1,3.9 95.4,3.9 95.8,4 C96.2,4.1 96.6,4.3 96.9,4.5 L96.9,14.2 L96.3,14.2 L96.3,14.1 Z M96.3,4.8 C96.1,4.7 95.9,4.6 95.6,4.6 C95.3,4.6 95,4.5 94.7,4.5 C94.3,4.5 94,4.6 93.7,4.7 C93.4,4.8 93.2,5 93,5.2 C92.8,5.4 92.6,5.8 92.5,6.2 C92.4,6.6 92.3,7.1 92.3,7.7 C92.3,8.3 92.3,8.8 92.4,9.2 C92.5,9.6 92.6,9.9 92.8,10.1 C93,10.3 93.2,10.5 93.4,10.6 C93.6,10.7 93.9,10.7 94.2,10.7 C94.5,10.7 94.9,10.6 95.2,10.5 C95.5,10.4 95.9,10.2 96.2,10 L96.2,4.8 L96.3,4.8 Z" id="Shape"></path>
                <path d="M104.4,11.2 L104.4,10.6 L104.4,10.6 C104,10.8 103.7,11 103.3,11.2 C102.9,11.4 102.5,11.4 102.1,11.4 C101.8,11.4 101.6,11.4 101.3,11.3 C101.1,11.2 100.9,11.1 100.7,10.9 C100.5,10.7 100.4,10.5 100.3,10.2 C100.2,9.9 100.1,9.6 100.1,9.2 L100.1,4 L100.5,4 L100.9,4 L100.9,9.4 C100.9,9.8 101,10.2 101.2,10.4 C101.4,10.7 101.7,10.8 102.2,10.8 C102.7,10.8 103.1,10.7 103.4,10.6 C103.7,10.5 104.1,10.3 104.4,10.1 L104.4,4.1 L104.8,4.1 L105.2,4.1 L105.2,11.4 L104.4,11.4 L104.4,11.2 Z" id="Shape"></path>
                <path d="M113,6.5 L113,7 L113,7.5 L108.5,7.5 L108.5,7.6 C108.5,8.1 108.5,8.5 108.6,8.9 C108.7,9.3 108.8,9.6 109,9.9 C109.2,10.2 109.4,10.3 109.7,10.5 C110,10.6 110.4,10.7 110.8,10.7 C111.1,10.7 111.5,10.7 111.8,10.6 C112.1,10.5 112.4,10.4 112.6,10.3 C112.6,10.4 112.7,10.5 112.7,10.6 C112.7,10.7 112.8,10.8 112.8,10.9 C112.6,11.1 112.2,11.2 111.9,11.3 C111.5,11.4 111.1,11.4 110.8,11.4 C109.8,11.4 109,11.1 108.4,10.5 C107.9,9.9 107.6,9 107.6,7.7 C107.6,7 107.7,6.4 107.8,5.9 C107.9,5.4 108.1,5 108.4,4.7 C108.7,4.4 109,4.2 109.3,4 C109.6,3.9 110,3.8 110.4,3.8 C111.2,3.8 111.8,4 112.2,4.5 C112.8,4.9 113,5.6 113,6.5 Z M110.5,4.4 C109.9,4.4 109.4,4.6 109.1,5 C108.7,5.4 108.5,6 108.5,7 L112.3,7 L112.3,6.8 L112.3,6.6 C112.3,5.9 112.1,5.3 111.8,5 C111.5,4.5 111,4.4 110.5,4.4 Z" id="Shape"></path>
                <path d="M123.1,6.5 L123.1,7 L123.1,7.5 L118.6,7.5 L118.6,7.6 C118.6,8.1 118.6,8.5 118.7,8.9 C118.8,9.3 118.9,9.6 119.1,9.9 C119.3,10.2 119.5,10.3 119.8,10.5 C120.1,10.6 120.5,10.7 120.9,10.7 C121.2,10.7 121.6,10.7 121.9,10.6 C122.2,10.5 122.5,10.4 122.7,10.3 C122.7,10.4 122.8,10.5 122.8,10.6 C122.8,10.7 122.9,10.8 122.9,10.9 C122.7,11.1 122.3,11.2 122,11.3 C121.6,11.4 121.2,11.4 120.9,11.4 C119.9,11.4 119.1,11.1 118.5,10.5 C118,9.9 117.7,9 117.7,7.7 C117.7,7 117.8,6.4 117.9,5.9 C118,5.4 118.2,5 118.5,4.7 C118.8,4.4 119.1,4.2 119.4,4 C119.7,3.9 120.1,3.8 120.5,3.8 C121.3,3.8 121.9,4 122.3,4.5 C122.9,4.9 123.1,5.6 123.1,6.5 Z M120.5,4.4 C119.9,4.4 119.4,4.6 119.1,5 C118.7,5.4 118.5,6 118.5,7 L122.3,7 L122.3,6.8 L122.3,6.6 C122.3,5.9 122.1,5.3 121.8,5 C121.5,4.5 121.1,4.4 120.5,4.4 Z" id="Shape"></path>
                <path d="M133.7,11.2 L133.7,5.9 C133.7,5.5 133.6,5.1 133.4,4.9 C133.2,4.6 132.8,4.5 132.3,4.5 L131.7,4.5 C131.5,4.5 131.4,4.6 131.2,4.6 C131,4.7 130.9,4.7 130.7,4.8 C130.5,4.9 130.4,5 130.2,5.1 L130.2,11.1 L129.5,11.1 L129.5,5.8 C129.5,5.4 129.4,5 129.2,4.8 C129,4.6 128.6,4.4 128.1,4.4 C127.7,4.4 127.4,4.5 127.1,4.6 C126.8,4.7 126.5,4.9 126.2,5.2 L126.2,11.2 L125.5,11.2 L125.5,3.9 L125.9,3.9 L126.3,3.9 L126.3,4.6 L126.3,4.6 C126.6,4.3 126.9,4.1 127.2,4 C127.5,3.9 127.9,3.8 128.2,3.8 C128.6,3.8 128.9,3.9 129.3,4 C129.7,4.1 129.9,4.4 130,4.8 C130.4,4.4 130.8,4.2 131.2,4 C131.6,3.8 132,3.8 132.4,3.8 C132.7,3.8 132.9,3.8 133.2,3.9 C133.4,4 133.7,4.1 133.8,4.2 C133.9,4.3 134.1,4.6 134.2,4.9 C134.3,5.2 134.4,5.5 134.4,6 L134.4,11.3 L133.7,11.3 L133.7,11.2 Z" id="Shape"></path>
                <path d="M145.2,10.5 C145.2,10.7 145.2,10.9 145.1,11.2 L139.7,11.2 L139.6,10.5 C140.4,9.9 141.1,9.3 141.7,8.7 C142.2,8.1 142.7,7.6 143,7 C143.3,6.5 143.5,6 143.7,5.5 C143.8,5 143.9,4.6 143.9,4.3 C143.9,3.6 143.7,3.1 143.4,2.7 C143.1,2.3 142.6,2.1 142,2.1 C141.6,2.1 141.2,2.1 140.9,2.2 C140.5,2.3 140.3,2.4 140,2.5 C140,2.4 139.9,2.3 139.9,2.2 L139.9,1.9 C140.6,1.6 141.3,1.5 142,1.5 C142.9,1.5 143.6,1.8 144.1,2.3 C144.6,2.8 144.8,3.5 144.8,4.4 C144.8,4.8 144.7,5.2 144.6,5.6 C144.5,6 144.3,6.6 143.9,7.1 C143.6,7.6 143.2,8.2 142.7,8.7 C142.2,9.2 141.6,9.8 140.8,10.4 L145.2,10.4 L145.2,10.5 Z" id="Shape"></path>
                <path d="M152.2,6.5 C152.2,8.2 152,9.4 151.5,10.2 C151,11 150.3,11.3 149.4,11.3 C149,11.3 148.6,11.2 148.2,11.1 C147.8,11 147.5,10.7 147.3,10.3 C147.1,9.9 146.9,9.4 146.7,8.8 C146.6,8.2 146.5,7.4 146.5,6.4 C146.5,5.5 146.6,4.7 146.7,4.1 C146.8,3.5 147,3 147.3,2.6 C147.6,2.2 147.9,2 148.2,1.8 C148.6,1.6 148.9,1.6 149.4,1.6 C149.9,1.6 150.3,1.7 150.6,1.8 C151,2 151.2,2.2 151.5,2.6 C151.7,3 151.9,3.5 152.1,4.1 C152.3,4.7 152.2,5.6 152.2,6.5 Z M151.4,6.5 C151.4,5 151.2,4 150.9,3.3 C150.6,2.6 150,2.3 149.3,2.3 C148.9,2.3 148.6,2.4 148.3,2.5 C148,2.6 147.8,2.9 147.6,3.2 C147.4,3.5 147.3,4 147.2,4.5 C147.1,5 147.1,5.7 147.1,6.5 C147.1,7.3 147.1,7.9 147.2,8.5 C147.3,9 147.4,9.5 147.6,9.8 C147.8,10.1 148,10.4 148.3,10.5 C148.6,10.6 148.9,10.7 149.3,10.7 C149.7,10.7 150,10.6 150.2,10.5 C150.4,10.4 150.7,10.1 150.9,9.8 C151.1,9.5 151.2,9 151.3,8.5 C151.4,7.9 151.4,7.2 151.4,6.5 Z" id="Shape"></path>
                <path d="M153.9,11.2 L153.9,10.5 L156.6,10.5 L156.6,2.4 L154.1,2.8 C154.1,2.7 154,2.6 154,2.4 L154,2.1 L156.7,1.6 L157.5,1.6 L157.5,10.4 L159.6,10.4 L159.6,10.7 C159.6,10.8 159.6,10.9 159.5,11 L153.9,11 L153.9,11.2 Z" id="Shape"></path>
                <path d="M166,8.1 C166,8.6 165.9,9.1 165.8,9.5 C165.7,9.9 165.5,10.2 165.3,10.5 C165.1,10.8 164.8,11 164.5,11.1 C164.2,11.2 163.8,11.3 163.5,11.3 C162.6,11.3 161.9,11 161.4,10.3 C160.9,9.6 160.7,8.5 160.7,7 C160.7,5.2 161,3.9 161.6,3 C162.2,2.1 163,1.7 164.1,1.7 L164.9,1.7 C165.2,1.7 165.4,1.8 165.6,1.9 L165.6,2.2 C165.6,2.3 165.6,2.5 165.5,2.6 C165.3,2.5 165.1,2.5 164.8,2.4 C164.5,2.4 164.3,2.3 164,2.3 C163.1,2.3 162.5,2.6 162,3.3 C161.6,4 161.3,5 161.2,6.5 L161.2,6.5 C161.5,6.1 161.8,5.8 162.1,5.6 C162.5,5.4 162.8,5.3 163.3,5.3 C163.7,5.3 164,5.4 164.3,5.5 C164.6,5.6 164.9,5.8 165.1,6 C165.3,6.2 165.5,6.5 165.6,6.9 C165.9,7.2 166,7.6 166,8.1 Z M165.2,8.1 C165.2,7.7 165.2,7.3 165.1,7.1 C165,6.8 164.9,6.6 164.7,6.4 C164.5,6.2 164.3,6.1 164.1,6 C163.9,5.9 163.6,5.9 163.4,5.9 C162.7,5.9 162.3,6.1 161.9,6.4 C161.5,6.7 161.4,7.3 161.4,8.2 C161.4,9 161.6,9.5 161.9,10 C162.2,10.5 162.7,10.7 163.3,10.7 C163.9,10.7 164.4,10.5 164.7,10.1 C165.1,9.7 165.2,9 165.2,8.1 Z" id="Shape"></path>
            </g>
        </g>
    </g>
</svg>