<?xml version="1.0" encoding="utf-8"?>
<!-- Generator: Adobe Illustrator 17.0.0, SVG Export Plug-In . SVG Version: 6.00 Build 0)  -->
<!DOCTYPE svg PUBLIC "-//W3C//DTD SVG 1.1//EN" "http://www.w3.org/Graphics/SVG/1.1/DTD/svg11.dtd">
<svg version="1.1" id="Camada_1" xmlns="http://www.w3.org/2000/svg" xmlns:xlink="http://www.w3.org/1999/xlink" x="0px" y="0px"
	 width="349.1px" height="520.1px" viewBox="0 0 349.1 520.1" enable-background="new 0 0 349.1 520.1" xml:space="preserve">
<path fill="#5D4022" d="M61.4,318.6c-0.8,0.9-2.2,0.9-3,0.1l-57.7-53c-0.9-0.8-0.9-2.2-0.1-3L35,225.3c0.8-0.9,2.2-0.9,3-0.1
	l57.7,53c0.9,0.8,0.9,2.2,0.1,3L61.4,318.6z"/>
<path fill="#946432" d="M64.4,318.3c-0.8,0.9-2.2,0.9-3,0.1l-57.7-53c-0.9-0.8-0.9-2.2-0.1-3L38,224.9c0.8-0.9,2.2-0.9,3-0.1
	l57.7,53c0.9,0.8,0.9,2.2,0.1,3L64.4,318.3z"/>
<path fill="#EBB797" d="M81.8,245.4c-3.4,1.3-18,10-18.5,11.5c-0.6,1.7,12-1,12.6,0.1l6.5,6c2.5-3.2,5-6.1,7.9-10.2
	c3.3-4.7,1.2-5.7-0.9-7.7C87.3,243,87.2,243.3,81.8,245.4"/>
<path fill="#12100B" d="M86.8,238.3c12.8-17,43.5-50.4,48.5-48c5,2.4-21.4,37.8-36.1,53.9c-2.1,2.3-3.9,4.2-5.6,5.8l-9.4-8.2
	C85,240.8,85.8,239.6,86.8,238.3"/>
<path fill="#472816" d="M167.4,82.5c-1.3,17.1-12,24,3.9,38.6c9.8,9.1,33.6,42.2,51,30.8c0,0-15.4-12.3-11-88.7
	c1.1-18.3-12.1-31-20.3-31C180,32.3,169.5,54.8,167.4,82.5"/>
<path fill="#23201D" d="M191.9,505.8c-0.7,15.2,9.1,14.4,14.3,14.1c8.7-0.3,12.9,0.5,10.3-7c-3.3-9.2-15.7-28.5-20.7-27
	C190.8,487.6,192.4,495.9,191.9,505.8"/>
<path fill="#EBB797" d="M193.6,497.2c0,11.7,6.7,11.4,10.2,11.4c5.9,0,8.9,0.8,6.8-5.1c-2.5-7.2-11.6-22.5-15-21.5
	C192.3,483.1,193.6,489.6,193.6,497.2"/>
<path fill="#23201D" d="M148.4,486.1c3.7,1.5,4.3,8.4,4.3,11c0,6.5-2.2,5.9-5,22.7c-0.7,0-1.1,0-2.1,0c1.4-7.1,0.2-12.9,0.2-12.9
	s-5.6,12.9-9.9,12.9c0,0-1.7,0.3-8.2,0.3c-5,0-10.8-4.3-9.4-6.2c1.8-2.4,4.5-2.7,8.9-7.4C136.3,496.4,145.9,485,148.4,486.1"/>
<path fill="#EBB797" d="M206.2,279.1c-1.4,4.7-2.4,23.3-1.2,25c1.5,2.1,7.7-11.2,9.4-9c4.1,5.2,21,21.9,20.1,19.9
	c-8.2-17.5-10-24.1-14.6-38c-2.5-7.5-3.7-7.2-7.7-6.5C208.2,271.2,208.5,271.5,206.2,279.1"/>
<path fill="#EBB797" d="M130.1,503.7c3.6-5.9,16.1-22.7,18.2-21.7c0,0,3,2.5,3,10.6c0,7.5-13.4,14.4-16.7,15.5
	C130.7,509.4,127.5,507.8,130.1,503.7"/>
<path fill="#EBB797" d="M169.8,417.4c13.9,43.7,23.9,78.6,29.2,78.6c5.2,0-6.2-61.8-10.6-99.8c-4.4-38-10.2-38.5-17.7-38
	C163.1,358.8,153.6,366.4,169.8,417.4"/>
<path fill="#EBB797" d="M130.2,403.9c14.2,74.9,7.9,88.1,15.4,87.9c7.5-0.2,6-43.5,7.8-88.4c1.7-41.3-17.7-60.4-25.3-60.2
	C120.6,343.3,122.6,363.4,130.2,403.9"/>
<path fill="#D98E62" d="M175.1,374.8c-5.1-0.4-12,1.3-13.9,5.8c-1.7-18.3,4.3-21.9,9.4-22.3c6.5-0.5,11.6-0.2,15.8,24.1
	C184.1,377,178.2,375,175.1,374.8"/>
<path fill="#D98E62" d="M136.4,374c-6-0.1-8.7,2.5-10.4,5.9c-3.9-24.5-3.7-36.7,2.2-36.9c6-0.1,19.3,11.7,23.8,37
	C148.4,376.1,139.1,374.1,136.4,374"/>
<path fill="#182F4F" d="M102.3,301.3c-8-49.5,18.2-79.8,42.2-79.8c16.5,0,26.2,14.4,34.8,39.6c10.1,29.7,3.3,85,4.3,108.8h-59
	C118.8,354.7,106.4,327,102.3,301.3"/>
<path fill="#182F4F" d="M178.1,152.1c-4.2-24.7-1-33.8,6-34.9c7-1.1,17.7,5.9,19.4,30.9c2.3,34.1,2.3,57.3-2.5,62
	C196,214.9,182.3,176.8,178.1,152.1"/>
<path fill="#182F4F" d="M162.3,115.2c28.7-3.5,42.8,2.4,33.9,39.7c-2.7,11.2-26.6,49.7-34.2,68.8c-5.8,14.4-11.3,20.6-19.1,20.6
	c-16,0-18.8-24.2-27.9-59.7c-6.8-19.8-4.1-22.6-2.6-25.9c9.2-19.1,19.5-33.7,27.4-37.9C144.5,118.5,152.6,116.4,162.3,115.2"/>
<path fill="#182F4F" d="M201.8,263.4c-5.1-22.3-10-69.4-3-70.5c7-1.1,18,45,20.5,67.7c0.5,4.4,0.7,8,0.6,10.8l-15.1,2.2
	C203.7,271,202.8,267.7,201.8,263.4"/>
<polygon fill="#EDEDED" points="206.2,279.1 219.9,277 219.9,271.4 204.7,273.7 "/>
<polygon fill="#EDEDED" points="81.8,245.4 90.3,252.7 93.6,250.1 84.2,241.9 "/>
<path fill="#166BB3" d="M139.9,120.9c-7.2,12.5-7.2,37.9-7.2,37.9c5.8-18.4,32.2-39.9,46.9-44.2c0,0-9-1.4-20.9,0
	C146.4,115.9,139.9,120.9,139.9,120.9"/>
<path fill="#EBB797" d="M170.2,92.3v21.9c0,0-6.2,3.4-10,3.4s-3.7-0.3-3.7-2.7V92.3H170.2z"/>
<path fill="#EBB797" d="M137.6,61.1c0,19.4,14.1,41.3,21.3,41.3c6.8,0,30.3-22,30.3-41.3s-11.5-28.8-25.8-28.8
	C149.1,32.3,137.6,41.7,137.6,61.1"/>
<path fill="#472816" d="M159.1,38.2c-4.8,0-6.6-3-10.4-0.8c-3.7,2.1-9.7,8.6-10.8,18.8c-0.2-1.3-0.3-2.6-0.3-3.8
	c0-19.4,14.2-30.3,30.3-30.3s30.3,10.8,30.3,30.2c0,9.9-7.9,20.6-14.4,28.6c3.2-6.2,6.3-15.8,0.1-13.5c0,0,8-21.3-4.4-29.8
	C174.8,34.3,165.2,38.2,159.1,38.2"/>
<path fill="#FFFFFF" d="M147.7,80.2c0,2.2,3.9,9.2,8.2,9.2c4.3,0,10.9-6.6,10.9-8.7c0,0-4.7,1.9-12.3,1.9
	C149.5,82.6,147.7,80.2,147.7,80.2"/>
<path fill="#472816" d="M163.3,62.5c0,2.7,1.2,4.8,2.7,4.8c1.5,0,2.7-2.2,2.7-4.8c0-2.7-1.2-4.8-2.7-4.8
	C164.5,57.7,163.3,59.9,163.3,62.5"/>
<path fill="#472816" d="M145,62.5c0,2.7,1.2,4.8,2.7,4.8s2.7-2.2,2.7-4.8c0-2.7-1.2-4.8-2.7-4.8S145,59.9,145,62.5"/>
<path fill="#12100B" d="M184.9,179.1c-1.1,2.6-6.5,12-10.5,19.6c0,0,1.2-9.9,0-18.2c-1.2-8.7,2.2-17.9,2.2-32
	C176.6,148.4,180.1,163.6,184.9,179.1"/>
<polygon fill="#6D6968" points="229.1,507.9 206.9,507.9 210.2,493.3 232.4,493.3 "/>
<path fill="#3B3735" d="M215.9,502.4c-7.8,0-18.2-1.3-23.9,5.1c-2,2.3-2,7.8-2,11.7h45.1c0-13.6-4.8-16.8-4.8-16.8
	C227.5,505.4,222.8,502.4,215.9,502.4"/>
<polygon fill="#6D6968" points="280.8,507.4 303.1,507.4 304.2,492.8 282,492.8 "/>
<path fill="#3B3735" d="M295.8,501.9c10.7,0,16.8,3.5,16.8,16.8h-37.2c0-12.9,5.9-16.8,5.9-16.8C283.2,505,288.8,501.9,295.8,501.9"
	/>
<path fill="#3B3735" d="M311,245.2c-7.3,0-12.8-3.9-16.9,16.2h-5.7c1.6-20.1-5.8-16.2-13.5-16.2c-11.7,0-22.9-11.5-34.8,82.2
	c-5.1,40-24.5,124.5-34.9,171.9H233c7.9-35.7,48.4-184.1,49.8-189.6h6.3c-0.3,5.5-7.1,142.3-10.6,189.6h27.9
	c2.6-35.7,10.1-132.5,16.3-171.7C337.5,232.5,323.2,245.2,311,245.2"/>
<path fill="#12100B" d="M311,245.2c-7.3,0-12.8-3.9-16.9,16.2h-5.7c1.6-20.1-5.8-16.2-13.5-16.2c-10.3,0-20.4-9-30.8,54.1h82.6
	C334.3,235.2,321.8,245.2,311,245.2"/>
<rect x="259.1" y="63.6" fill="#EBB797" width="27.9" height="32.3"/>
<path fill="#3B3735" d="M341.8,152.3c-3.1-9.6-12-27.6-18.6-36.8c-5.4-7.7-16.1-15.7-42.8-20.2c-8.2-1.4-15.2-6.1-30.4-1.9
	c-25.1,6.4-28.3,7.8-32.1,24.2c-4.5,19.4-7.2,61.3-3.8,74.5c0.3,7.6,12,12.3,29,10.3c2.8,23.1,4.6,42.2,0,85.4H335
	c0-16-0.8-60.3-0.5-90.4c1.7,0,7.8-1.9,9.4-3.1C351.1,189.3,351.1,181.4,341.8,152.3"/>
<path fill="#12100B" d="M258,156.2c2.8,2.3-14.1-0.1-14-2.9c0.3-6.8,0-24.2,0-24.2C251,149.2,253.9,152.8,258,156.2"/>
<path fill="#12100B" d="M334.5,197.3c0,0-20.4-2.5-35.6-7.6c-15.7,7.4-55.8,12.6-55.8,12.6c0.2,2.7,1.8,18.6,2.2,22.3
	c0,0,35-21.6,58.2-25.6c14.7-2.6,26.4,4,30.9,8.3C334.4,207.3,334.5,200.7,334.5,197.3"/>
<path fill="#EBB797" d="M296.5,42c0,25.7-11.4,40.7-24.2,40.7c-12.3,0-25.8-17.3-25.8-42c0-18.6,1.6-30.8,27.4-30.8
	C297,10,296.5,23.5,296.5,42"/>
<path fill="#EDEDED" d="M249.1,167.8c8.6,3.1,18.5,5.4,18.5,5.4c4.6-6,2.6-13.5,2.6-13.5c-5.8-2.3-9.5-1.3-17.1-1.3L249.1,167.8z"/>
<path fill="#EBB797" d="M243.1,166.3c8,3.7,18.5,5.4,18.5,5.4c4.6-6,2.6-13.5,2.6-13.5c-4.5-3.3-12.7-4.9-20.3-4.9L243.1,166.3z"/>
<path fill="#EDEDED" d="M304.7,158.9c1-46.1-15.1-67.8-16.6-69.8l-4.9,5c-5.8-2.2-21.9-6.5-28.5-7.9l-4.7,7.1
	c14.7,0.6,33.8,34.5,43.8,70.6C297.3,161.9,300.9,160.2,304.7,158.9"/>
<path fill="#C11E22" d="M290.1,110.9c0,0,0.1-3.9-0.1-6.3c-0.9-1.8-2.8-4-5.5-4.7c-1.1,2-3.1,4.9-4.1,6.9c1.9,2.7,5.4,4.7,5.4,4.7
	c0.5,7.7-1.5,25,0.1,29c3,7.5,5.7,15.4,7.9,23.5c3.5-2.1,7.1-3.8,10.9-5c0.2-7.5-0.1-14.3-0.7-20.5
	C303.6,133.9,297.8,118.6,290.1,110.9"/>
<path fill="#EBB797" d="M320.5,161.3c-1,6.6-11.8,6.8-11.8,6.8c-4.4-5.4-14.9-4.1-14.9-4.1c3.3-4.8,39.9-18.4,33.9-13.8
	c-2.3,1.8-4.3,4-4.9,5.6C322.5,156.6,323.1,156.8,320.5,161.3"/>
<path fill="#472816" d="M297.2,40.4c0,16.8-5.1-1.5-5.1-14.6c0-6.9-14.5-4.8-19-4.8c-3,0-21.6-0.6-21.7,6.9
	c-0.1,10.6-2.2,18.7-2.2,18.7c-3.6,2.4-6.9-6.1-6.9-17.3c0-18.6,21.1-29.3,42.5-29.3c0,0,0.8,7.2,3.8,8.5
	C298.2,12.7,297.2,23.5,297.2,40.4"/>
<path fill="#EBB797" d="M252.2,49.9c0.8,4.7-0.4,8.8-2.7,9.2c-2.3,0.4-4.8-3.1-5.6-7.8c-0.8-4.7,0.4-8.8,2.7-9.2
	C248.9,41.7,251.4,45.2,252.2,49.9"/>
<path fill="#EBB797" d="M290.4,49.8c-0.3,4.8,1.4,8.7,3.7,8.9c2.3,0.1,4.4-3.6,4.6-8.4c0.3-4.8-1.4-8.7-3.7-8.9
	C292.7,41.3,290.7,45.1,290.4,49.8"/>
<path fill="#472816" d="M260.5,43.5c0,2.6,1.2,4.7,2.6,4.7c1.4,0,2.6-2.1,2.6-4.7c0-2.6-1.2-4.7-2.6-4.7
	C261.7,38.8,260.5,40.9,260.5,43.5"/>
<path fill="#472816" d="M280.4,43.5c0,2.6,1.2,4.7,2.6,4.7c1.4,0,2.6-2.1,2.6-4.7c0-2.6-1.2-4.7-2.6-4.7
	C281.6,38.8,280.4,40.9,280.4,43.5"/>
<path fill="#FFFFFF" d="M273.9,70.9c4.2,0,12.6-8.5,12.6-10.6c0,0-13.1,3.8-20.5,3.8C261,64.1,269.7,70.9,273.9,70.9"/>
</svg>
