<?xml version="1.0" encoding="utf-8"?>
<!-- Generator: Adobe Illustrator 17.0.0, SVG Export Plug-In . SVG Version: 6.00 Build 0)  -->
<!DOCTYPE svg PUBLIC "-//W3C//DTD SVG 1.1//EN" "http://www.w3.org/Graphics/SVG/1.1/DTD/svg11.dtd">
<svg version="1.1" id="Camada_1" xmlns="http://www.w3.org/2000/svg" xmlns:xlink="http://www.w3.org/1999/xlink" x="0px" y="0px"
	 width="39.3px" height="26.2px" viewBox="0 0 39.3 26.2" enable-background="new 0 0 39.3 26.2" xml:space="preserve">
<path fill="#788DA0" d="M22.2,19.3c-0.7,0.4-1.6,0.5-2.5,0.5s-1.8-0.2-2.5-0.5L5.7,13.6c0,0-1-0.5-1,0.7V20c0,3,6.7,6.3,15,6.3
	c8.3,0,15-3.2,15-6.3v-6c0-0.9-0.7-0.5-0.7-0.5L22.2,19.3z"/>
<path fill="#788DA0" d="M38.6,9c0.9-0.4,0.9-1.2,0-1.6L21.2,0.3c-0.9-0.4-2.3-0.4-3.2,0L0.7,7.4c-0.9,0.4-0.9,1.2,0,1.6l17.4,8.7
	c0.9,0.4,2.3,0.4,3.2,0"/>
<path fill="#788DA0" d="M37.9,22v-9.6c0,0,0-0.5-0.3-0.3c-0.3,0.1-0.9,0.4-1.1,0.6c-0.3,0.2-0.2,0.6-0.2,0.6V22
	c0,0.1-0.1,0.2-0.2,0.2c-0.6,0.3-1,0.8-1,1.4c0,0.9,0.9,1.7,2,1.7s2-0.7,2-1.7c0-0.6-0.4-1.1-1-1.4C38,22.2,37.9,22.1,37.9,22"/>
</svg>
