<?xml version="1.0" encoding="utf-8"?>
<!-- Generator: Adobe Illustrator 17.0.0, SVG Export Plug-In . SVG Version: 6.00 Build 0)  -->
<!DOCTYPE svg PUBLIC "-//W3C//DTD SVG 1.1//EN" "http://www.w3.org/Graphics/SVG/1.1/DTD/svg11.dtd">
<svg version="1.1" id="Camada_1" xmlns="http://www.w3.org/2000/svg" xmlns:xlink="http://www.w3.org/1999/xlink" x="0px" y="0px"
	 width="38.8px" height="30.6px" viewBox="0 0 38.8 30.6" enable-background="new 0 0 38.8 30.6" xml:space="preserve">
<path fill="#788DA0" d="M31.4,1.6c0,0.9-0.7,1.6-1.6,1.6c-0.9,0-1.6-0.7-1.6-1.6C28.2,0.7,29,0,29.8,0C30.7,0,31.4,0.7,31.4,1.6"/>
<path fill="#788DA0" d="M10.3,11.1c0,0.9-0.7,1.6-1.6,1.6c-0.9,0-1.6-0.7-1.6-1.6c0-0.9,0.7-1.6,1.6-1.6
	C9.6,9.5,10.3,10.2,10.3,11.1"/>
<path fill="#788DA0" d="M5.2,14.8c0,0.9-0.7,1.6-1.6,1.6c-0.9,0-1.6-0.7-1.6-1.6c0-0.9,0.7-1.6,1.6-1.6C4.5,13.2,5.2,13.9,5.2,14.8"
	/>
<path fill="#788DA0" d="M7.6,22.2C7.2,21.8,5.9,21,5.8,21c-0.1-0.1-0.1-0.2-0.1-0.2s-0.3-2-0.3-2.2c0-0.1,0.2-0.1,0.2-0.1
	c1.4,0.3,3,0.1,3.1,0c0.2,0,0.4-0.1,0.5-0.3c0.1-0.2,0.2-0.4,0.1-0.6C9.1,16.8,9,15.8,9,15.6c0-0.1,0.1-0.3,0.3-0.6
	c0,0,0.1-0.1,0.1,0c0,0.1,1.2,2.9,1.5,3.3c0,0,0,0,0,0.1c0,0.1,0.1,0.1,0.1,0.2c0.4,0.7,0.9,1.7,0.8,2.6l-0.3,3c0,0.1-0.1,0.7-0.1,1
	l-2.6,1.2C8.8,25.7,8.6,23.2,7.6,22.2 M11.9,14c0.3,0,0.6,0,1-0.2c0.8-0.4,2.4-1.1,2.4-1.1c0.3-0.1,0.5-0.5,0.4-0.8
	c1.4-0.7,6.8-3.2,6.9-3.3c0.1,0,4.8-0.7,4.8-0.7c0,0,0.1,0,0.1-0.1c0,0,0-0.1,0-0.1l-0.1-0.4c0.1,0,0.1,0,0.2-0.1l2.2-1.4
	c0,0,0.1,0,0.1-0.1c0.1-0.1,0.2-0.1,0.3,0.1c0.1,0.1,0.6,1.3,0.9,2c0.1,0.3,0,0.4,0,0.4c0,0-0.1,0.1-0.1,0.1c-1,1.2-1.4,2.2-1.3,3
	c0.2,1.3,1.5,4,1.7,4.3c0,0,0,0.1,0.1,0.1l-18.2,8.6l0.3-2.9c0.1-1-0.2-1.8-0.5-2.6c-0.1-0.2,0.1-0.2,0.2-0.2c1.9,0.5,2.9,2.4,3,2.5
	c0.2,0.4,0.8,0.6,1.2,0.4c0.4-0.2,0.6-0.8,0.4-1.2c0,0-0.5-1.1-1.6-2c-0.8-0.8-1.6-1.2-2.6-1.4h0c0,0-0.4-0.1-0.6-0.1
	c0,0-0.2-0.1-0.3-0.2c-0.4-0.6-1.1-2.4-1.2-2.5C11.7,14,11.8,14,11.9,14 M26.6,5.9l0.1,0.2c-0.2,0.2-0.3,0.6-0.1,0.9
	c0.1,0.2,0.3,0.3,0.4,0.3l0.1,0.2l-3.5,0.6L26.6,5.9z M32.5,9.7c0.3,1,0.8,1.6,1.4,1.9c0.9,0.4,2.4,1.4,2.9,1.7L33.1,15
	c-0.5-1-1.4-3.1-1.6-3.9c0,0,0-0.4,0.7-1.4C32.4,9.5,32.5,9.7,32.5,9.7 M38.8,12.7c-0.1-0.2-0.3-0.2-0.5-0.2l-0.7,0.3
	c0,0,0-0.1,0.1-0.1c0.3-0.4,0.2-1-0.3-1.2c-0.1,0-1.6-1-2.8-1.6c-0.3-0.1-0.7-1.2-0.8-2.2c0-0.1-0.1-0.4-0.2-0.8
	c-0.2-0.4-1.3-3-1.3-3c0-0.1-0.1-0.3-0.2-0.4c0,0,0,0,0,0c-0.2-0.3-0.7-0.5-1-0.2L27,5.9l-0.1-0.3c0,0,0-0.1-0.1-0.1
	c0,0-0.1,0-0.1,0c-3.9,2.7-3.9,2.7-4.2,2.9c-0.2,0.1-5.6,2.7-6.9,3.3c-0.2-0.3-0.6-0.5-1-0.3c-0.1,0-1.6,0.8-2.4,1.1
	c-0.2,0.1-0.4,0.1-0.7,0c-0.5-0.1-1.3,0.1-2,0.4c-1.1,0.6-1.7,1.6-1.9,2.3c-0.1,0.4,0,1.3,0.1,2c-0.7,0-1.6-0.1-2.4-0.3
	c-0.7-0.3-1.9-0.3-3,0.2c-0.7,0.4-2,1.6-2.3,3.2c-0.1,0.4,0.2,0.8,0.6,0.8c0,0,0.1,0,0.1,0c0.4,0,0.7-0.3,0.7-0.6
	c0.1-0.7,0.6-1.3,1-1.8c0.1-0.1,0.2,0,0.2,0c0.2,0.7,0.6,2.4,0.7,2.9c0.1,0.5,0.5,2.6-2.1,4.4c-0.4,0.3-0.5,0.9-0.2,1.3
	c0.2,0.2,0.4,0.4,0.7,0.4c0.2,0,0.4-0.1,0.5-0.2c2-1.4,2.6-3.2,2.8-4.5c0-0.2,0.2-0.1,0.3-0.1c0.4,0.2,0.7,0.4,0.9,0.6
	c0.3,0.3,0.7,2.5,0.7,3.8l-5.6,2.6c-0.2,0.1-0.2,0.3-0.2,0.5c0.1,0.1,0.2,0.2,0.3,0.2c0.1,0,0.1,0,0.2,0l36.8-17.4
	C38.8,13.1,38.9,12.8,38.8,12.7"/>
</svg>
