<?xml version="1.0" encoding="UTF-8"?>
<svg width="94px" height="98px" viewBox="0 0 94 98" version="1.1" xmlns="http://www.w3.org/2000/svg" xmlns:xlink="http://www.w3.org/1999/xlink">
    <!-- Generator: Sketch 41.2 (35397) - http://www.bohemiancoding.com/sketch -->
    <title>Sem título-3</title>
    <desc>Created with Sketch.</desc>
    <defs></defs>
    <g id="Page-1" stroke="none" stroke-width="1" fill="none" fill-rule="evenodd">
        <g id="Sem-título-3" transform="translate(-1.000000, 0.000000)">
            <path d="M2.8,51.9 L2.8,51.9 C2.8,52 2.8,52 2.8,51.9 C2.8,52 2.8,52 2.8,51.9 L2.8,51.9 Z M3.8,51.7 C3.7,51.6 3.7,51.6 3.8,51.7 L3.8,51.6 C3.7,51.6 3.7,51.6 3.8,51.7 L3.8,51.7 Z M13.5,74.1 L13.5,74.9 L13.2,74.1 L13.5,74.1 Z M70.9,59.1 L71.2,15.2 C71.2,14.1 70.3,13.3 69.3,13.2 L15.9,12.8 C14.8,12.8 14,13.7 13.9,14.7 L13.9,16.5 L12.8,16.5 C12.4,16.5 12,16.8 12,17.3 C12,17.7 12.3,18.1 12.8,18.1 L13.9,18.1 L13.9,22.1 L12.8,22.1 C12.4,22.1 12,22.4 12,22.9 C12,23.3 12.3,23.7 12.8,23.7 L13.9,23.7 L13.9,27.7 L12.8,27.7 C12.4,27.7 12,28 12,28.5 C12,28.9 12.3,29.3 12.8,29.3 L13.9,29.3 L13.9,33.3 L12.8,33.3 C12.4,33.3 12,33.6 12,34.1 C12,34.5 12.3,34.9 12.8,34.9 L13.9,34.9 L13.9,38.9 L12.8,38.9 C12.4,38.9 12,39.2 12,39.7 C12,40.1 12.3,40.5 12.8,40.5 L13.9,40.5 L13.9,44.5 L12.8,44.5 C12.4,44.5 12,44.8 12,45.3 C12,45.7 12.3,46.1 12.8,46.1 L13.9,46.1 L13.9,50.1 L12.8,50.1 C12.4,50.1 12,50.4 12,50.9 C12,51.3 12.3,51.7 12.8,51.7 L13.9,51.7 L13.9,55.7 L12.8,55.7 C12.4,55.7 12,56 12,56.5 C12,56.9 12.3,57.3 12.8,57.3 L13.9,57.3 L13.9,61.3 L12.8,61.3 C12.4,61.3 12,61.6 12,62.1 C12,62.5 12.3,62.9 12.8,62.9 L13.9,62.9 L13.9,66.9 L12.8,66.9 C12.4,66.9 12,67.2 12,67.7 C12,68.1 12.3,68.5 12.8,68.5 L13.9,68.5 L13.9,72.5 L13,72.5 L4.7,51.3 L4.7,51.2 L4.7,51.2 L2.9,49.4 L2.1,48.6 L2,49.8 L1.8,52.3 L1.8,52.3 L1.8,52.4 L11.6,78.7 L11.6,78.9 C11.6,79.2 11.7,79.4 12,79.6 L18.2,96.4 L19.2,96 L20.2,95.6 L21.2,95.2 L16.9,84 L52.6,84.2 L52.9,88.8 C53,90 54,90.8 55.2,90.8 L70.9,89.7 C72.1,89.6 72.9,88.6 72.9,87.4 L70.9,59.1 Z" id="Shape" fill="#3DA796"></path>
            <polyline id="Shape" fill="#3DA796" points="21.9 97.4 21.6 96.6 21.1 95.1 18.2 96.2 18.7 97.7"></polyline>
            <path d="M68,84.1 L14.6,83.7 C13.5,83.7 12.7,82.8 12.7,81.7 L13.1,14.6 C13.1,13.5 14,12.7 15.1,12.7 L68.5,13.1 C69.6,13.1 70.4,14 70.4,15.1 L70,82.2 C69.9,83.2 69,84.1 68,84.1" id="Shape" fill="#3F4D65"></path>
            <path d="M66.7,26.3 L64.4,26.3 L64.5,14.7 L66.8,14.7 C67.9,14.7 68.8,15.6 68.7,16.7 L68.6,24.3 C68.7,25.4 67.8,26.3 66.7,26.3" id="Shape" fill="#2BB093"></path>
            <path d="M66.5,66.1 L64.2,66.1 L64.3,54.5 L66.6,54.5 C67.7,54.5 68.6,55.4 68.5,56.5 L68.4,64.1 C68.4,65.3 67.6,66.2 66.5,66.1" id="Shape" fill="#E14131"></path>
            <path d="M66.4,78.2 L64.1,78.2 L64.2,66.6 L66.5,66.6 C67.6,66.6 68.5,67.5 68.4,68.6 L68.3,76.2 C68.4,77.3 67.5,78.2 66.4,78.2" id="Shape" fill="#F2C400"></path>
            <rect id="Rectangle-path" fill="#2BB093" transform="translate(65.124212, 48.598291) rotate(180.392708) translate(-65.124212, -48.598291) " x="63.7741802" y="14.7974974" width="2.70006342" height="67.6015879"></rect>
            <rect id="Rectangle-path" fill="#FDFEFF" transform="translate(39.300511, 48.451165) rotate(0.379470) translate(-39.300511, -48.451165) " x="13.2999407" y="14.6004222" width="52.0011405" height="67.7014848"></rect>
            <path d="M15,18 L12,18 C11.6,18 11.2,17.6 11.2,17.2 C11.2,16.8 11.6,16.4 12,16.4 L15.1,16.4 C15.5,16.4 15.9,16.8 15.9,17.2 C15.8,17.7 15.5,18 15,18" id="Shape" fill="#3F4D65"></path>
            <path d="M15,23.6 L11.9,23.6 C11.5,23.6 11.1,23.2 11.1,22.8 C11.1,22.4 11.5,22 11.9,22 L15,22 C15.4,22 15.8,22.4 15.8,22.8 C15.8,23.3 15.4,23.6 15,23.6" id="Shape" fill="#3F4D65"></path>
            <path d="M15,29.2 L11.9,29.2 C11.5,29.2 11.1,28.8 11.1,28.4 C11.1,28 11.5,27.6 11.9,27.6 L15,27.6 C15.4,27.6 15.8,28 15.8,28.4 C15.8,28.8 15.4,29.2 15,29.2" id="Shape" fill="#3F4D65"></path>
            <path d="M14.9,34.8 L11.8,34.8 C11.4,34.8 11,34.4 11,34 C11,33.6 11.4,33.2 11.8,33.2 L14.9,33.2 C15.3,33.2 15.7,33.6 15.7,34 C15.7,34.4 15.4,34.8 14.9,34.8" id="Shape" fill="#3F4D65"></path>
            <path d="M14.9,40.4 L11.8,40.4 C11.4,40.4 11,40 11,39.6 C11,39.2 11.4,38.8 11.8,38.8 L14.9,38.8 C15.3,38.8 15.7,39.2 15.7,39.6 C15.7,40 15.3,40.4 14.9,40.4" id="Shape" fill="#3F4D65"></path>
            <path d="M14.9,45.9 L11.8,45.9 C11.4,45.9 11,45.5 11,45.1 C11,44.7 11.4,44.3 11.8,44.3 L14.9,44.3 C15.3,44.3 15.7,44.7 15.7,45.1 C15.7,45.6 15.3,45.9 14.9,45.9" id="Shape" fill="#3F4D65"></path>
            <path d="M14.8,51.5 L11.7,51.5 C11.3,51.5 10.9,51.1 10.9,50.7 C10.9,50.3 11.3,49.9 11.7,49.9 L14.8,49.9 C15.2,49.9 15.6,50.3 15.6,50.7 C15.6,51.2 15.3,51.5 14.8,51.5" id="Shape" fill="#3F4D65"></path>
            <path d="M14.8,57.1 L11.7,57.1 C11.3,57.1 10.9,56.7 10.9,56.3 C10.9,55.9 11.3,55.5 11.7,55.5 L14.8,55.5 C15.2,55.5 15.6,55.9 15.6,56.3 C15.6,56.8 15.2,57.1 14.8,57.1" id="Shape" fill="#3F4D65"></path>
            <path d="M14.8,62.7 L11.7,62.7 C11.3,62.7 10.9,62.3 10.9,61.9 C10.9,61.5 11.3,61.1 11.7,61.1 L14.8,61.1 C15.2,61.1 15.6,61.5 15.6,61.9 C15.5,62.3 15.2,62.7 14.8,62.7" id="Shape" fill="#3F4D65"></path>
            <path d="M14.7,68.3 L11.6,68.3 C11.2,68.3 10.8,67.9 10.8,67.5 C10.8,67.1 11.2,66.7 11.6,66.7 L14.7,66.7 C15.1,66.7 15.5,67.1 15.5,67.5 C15.5,67.9 15.1,68.3 14.7,68.3" id="Shape" fill="#3F4D65"></path>
            <path d="M14.7,73.9 L11.6,73.9 C11.2,73.9 10.8,73.5 10.8,73.1 C10.8,72.7 11.2,72.3 11.6,72.3 L14.7,72.3 C15.1,72.3 15.5,72.7 15.5,73.1 C15.5,73.5 15.1,73.9 14.7,73.9" id="Shape" fill="#3F4D65"></path>
            <path d="M14.6,79.4 L11.5,79.4 C11.1,79.4 10.7,79 10.7,78.6 C10.7,78.2 11.1,77.8 11.5,77.8 L14.6,77.8 C15,77.8 15.4,78.2 15.4,78.6 C15.4,79.1 15.1,79.4 14.6,79.4" id="Shape" fill="#3F4D65"></path>
            <path d="M20.9,30.5 L28.1,30.5 L28.1,23.3 L20.9,23.3 L20.9,30.5 Z M28.6,31.2 L20.3,31.1 L20.4,22.8 L28.7,22.9 L28.6,31.2 Z" id="Shape" fill="#3F4D65"></path>
            <path d="M29.3,23.1 L29.5,25.5 C29.5,25.5 26.1,27 25.2,29.3 C25.2,29.3 23.5,27.4 22.1,27 L23.9,26 L25,27.7 C25,27.6 26.7,24.3 29.3,23.1" id="Shape" fill="#E14131"></path>
            <path d="M20.8,42.8 L28,42.8 L28,35.6 L20.8,35.6 L20.8,42.8 Z M28.5,43.4 L20.2,43.3 L20.3,35 L28.6,35.1 L28.5,43.4 Z" id="Shape" fill="#3F4D65"></path>
            <path d="M29.2,35.4 L29.4,37.8 C29.4,37.8 26,39.3 25.1,41.6 C25.1,41.6 23.4,39.7 22,39.3 L23.8,38.3 L24.9,40 C24.9,39.8 26.7,36.6 29.2,35.4" id="Shape" fill="#E14131"></path>
            <path d="M20.7,55 L27.9,55 L27.9,47.8 L20.7,47.8 L20.7,55 Z M28.4,55.6 L20.1,55.5 L20.2,47.2 L28.5,47.3 L28.4,55.6 Z" id="Shape" fill="#3F4D65"></path>
            <path d="M29.1,47.6 L29.3,50 C29.3,50 25.9,51.5 25,53.8 C25,53.8 23.3,51.9 21.9,51.5 L23.7,50.5 L24.8,52.2 C24.8,52 26.6,48.8 29.1,47.6" id="Shape" fill="#E14131"></path>
            <path d="M20.6,67.2 L27.8,67.2 L27.8,60 L20.6,60 L20.6,67.2 Z M28.4,67.8 L20,67.8 L20.1,59.5 L28.4,59.6 L28.4,67.8 Z" id="Shape" fill="#3F4D65"></path>
            <path d="M29,59.8 L29.2,62.2 C29.2,62.2 25.8,63.7 24.9,66 C24.9,66 23.2,64.1 21.8,63.7 L23.6,62.7 L24.7,64.4 C24.8,64.3 26.5,61 29,59.8" id="Shape" fill="#E14131"></path>
            <rect id="Rectangle-path" fill="#CFE0ED" x="32" y="23.8" width="28.7" height="0.9"></rect>
            <rect id="Rectangle-path" fill="#CFE0ED" x="32" y="26.7" width="28.7" height="0.9"></rect>
            <rect id="Rectangle-path" fill="#CFE0ED" x="32" y="29.6" width="19.8" height="0.9"></rect>
            <rect id="Rectangle-path" fill="#CFE0ED" x="32" y="35.9" width="28.7" height="0.9"></rect>
            <rect id="Rectangle-path" fill="#CFE0ED" x="32" y="38.9" width="28.7" height="0.9"></rect>
            <rect id="Rectangle-path" fill="#CFE0ED" x="32" y="41.8" width="19.8" height="0.9"></rect>
            <rect id="Rectangle-path" fill="#CFE0ED" x="32" y="47.9" width="28.7" height="0.9"></rect>
            <rect id="Rectangle-path" fill="#CFE0ED" x="32" y="50.8" width="28.7" height="0.9"></rect>
            <rect id="Rectangle-path" fill="#CFE0ED" x="32" y="53.7" width="19.8" height="0.9"></rect>
            <rect id="Rectangle-path" fill="#CFE0ED" x="32" y="60.2" width="28.7" height="0.9"></rect>
            <rect id="Rectangle-path" fill="#CFE0ED" x="32" y="63.2" width="28.7" height="0.9"></rect>
            <rect id="Rectangle-path" fill="#CFE0ED" x="32" y="66.1" width="19.8" height="0.9"></rect>
            <path d="M70.4,89.4 L54.1,90.6 C53.1,90.7 52.2,89.9 52.1,88.9 L50,58.3 C49.9,57.3 50.7,56.4 51.7,56.3 L68,55.1 C69,55 69.9,55.8 70,56.8 L72.2,87.4 C72.2,88.5 71.4,89.4 70.4,89.4" id="Shape" fill="#3F4D65"></path>
            <rect id="Rectangle-path" fill="#CEEBFB" transform="translate(60.992907, 71.694429) rotate(-4.093503) translate(-60.992907, -71.694429) " x="51.8933529" y="57.6951151" width="18.199108" height="27.9986278"></rect>
            <rect id="Rectangle-path" fill="#8ECBE3" transform="translate(61.300324, 76.546805) rotate(-4.093503) translate(-61.300324, -76.546805) " x="52.20077" y="67.2972581" width="18.199108" height="18.4990933"></rect>
            <rect id="Rectangle-path" fill="#70B6E5" transform="translate(61.600127, 81.098460) rotate(-4.093503) translate(-61.600127, -81.098460) " x="52.5005729" y="76.3986908" width="18.199108" height="9.39953932"></rect>
            <path d="M65.8,56.5 C65.8,56.7 65.6,57 65.4,57 C65.2,57 64.9,56.8 64.9,56.6 C64.9,56.4 65.1,56.1 65.3,56.1 C65.5,56 65.7,56.2 65.8,56.5" id="Shape" fill="#FFFFFF"></path>
            <path d="M61.9,57 L58.4,57.3 C58.3,57.3 58.2,57.2 58.2,57.1 C58.2,57 58.3,56.9 58.4,56.9 L61.9,56.6 C62,56.6 62.1,56.7 62.1,56.8 C62.1,56.9 62,57 61.9,57" id="Shape" fill="#FFFFFF"></path>
            <path d="M63.2,88.3 L61.1,88.4 C60.6,88.4 60.2,88.1 60.2,87.6 C60.2,87.1 60.5,86.7 61,86.7 L63.1,86.6 C63.6,86.6 64,86.9 64,87.4 C64,87.8 63.7,88.2 63.2,88.3 Z" id="Shape" stroke="#FFFFFF" stroke-width="0.15"></path>
            <polygon id="Shape" fill="#FEEAD5" points="1 52.1 1.2 49.5 1.3 48.4 2.1 49.2 3.9 51"></polygon>
            <path d="M3.3,50.8 L3.3,50.8 C3.6,50.7 3.9,50.8 4,51.1 L20.3,95 L19.3,95.4 L3,51.4 C2.9,51.2 3,50.9 3.3,50.8" id="Shape" fill="#FECE4F"></path>
            <path d="M2.3,51.1 L2.3,51.1 C2.6,51 2.9,51.1 3,51.4 L19.4,95.3 L18.4,95.7 L2,51.8 C1.9,51.5 2,51.2 2.3,51.1" id="Shape" fill="#F9BB00"></path>
            <path d="M1.3,51.5 L1.3,51.5 C1.6,51.4 1.9,51.5 2,51.8 L18.4,95.7 L17.4,96.1 L1,52.2 C0.9,51.9 1.1,51.6 1.3,51.5" id="Shape" fill="#F18900"></path>
            <polyline id="Shape" fill="#9DA8A7" points="17.9 97.5 20.8 96.5 20.3 95 17.4 96.1 17.9 97.5"></polyline>
            <polyline id="Shape" fill="#DC318A" points="21.1 97.2 20.8 96.4 17.9 97.5"></polyline>
            <path d="M1.2,49.5 L1.3,48.3 L2.1,49.1 C2,49.2 1.8,49.3 1.7,49.4 C1.5,49.5 1.3,49.5 1.2,49.5" id="Shape" fill="#3F4D65"></path>
            <path d="M93.5,22.5 C94.6,19.6 94.8,16.3 94,13 C91.9,4.1 82.9,-1.5 74,0.7 C65.1,2.8 59.5,11.8 61.7,20.7 C62.1,22.5 62.9,24.2 63.8,25.7 C67.2,31.9 74.4,35.3 81.6,33.6 C85.8,32.6 89.2,30 91.4,26.6 C92.5,26.8 93.6,26.2 94.1,25.2 C94.4,24.3 94.2,23.2 93.5,22.5" id="Shape" fill="#3DA796"></path>
            <path d="M93.2,12.8 C95.3,21.7 89.8,30.7 80.9,32.8 C72,34.9 63,29.4 60.9,20.5 C58.8,11.6 64.3,2.6 73.2,0.5 C82.1,-1.7 91.1,3.8 93.2,12.8" id="Shape" fill="#FAFCFD"></path>
            <path d="M92.6,14.1 C94.7,22.7 89.3,31.4 80.7,33.4 C72.1,35.5 63.4,30.1 61.4,21.5 C59.3,12.9 64.7,4.2 73.3,2.2 C81.9,0.2 90.6,5.5 92.6,14.1" id="Shape" fill="#BEBDBF"></path>
            <path d="M92.9,12.9 C95,21.6 89.6,30.4 80.8,32.5 C72.1,34.6 63.3,29.2 61.2,20.4 C59.1,11.7 64.5,2.9 73.3,0.8 C82,-1.3 90.8,4.1 92.9,12.9" id="Shape" fill="#E6EAEA"></path>
            <path d="M90.1,14.2 C91.7,20.9 87.6,27.6 80.9,29.2 C74.2,30.8 67.5,26.7 65.9,20 C64.3,13.3 68.4,6.6 75.1,5 C81.8,3.4 88.5,7.5 90.1,14.2" id="Shape" fill="#DBDDE3"></path>
            <path d="M90,26.3 L83.9,23.6 L85.9,19.1 L92,21.8 C93.2,22.3 93.8,23.8 93.3,25 C92.7,26.3 91.2,26.8 90,26.3" id="Shape" fill="#F3F6F6"></path>
            <path d="M88.8,13.7 C90.4,20.4 86.2,27.2 79.5,28.8 C72.8,30.4 66,26.2 64.4,19.5 C62.8,12.8 67,6 73.7,4.4 C80.4,2.8 87.2,7 88.8,13.7" id="Shape" fill="#FAFCFD"></path>
            <path d="M87.1,14.1 C88.5,19.9 84.9,25.6 79.2,27 C73.4,28.4 67.7,24.8 66.3,19.1 C64.9,13.3 68.5,7.6 74.2,6.2 C79.9,4.8 85.7,8.4 87.1,14.1" id="Shape" fill="#9B5C1B"></path>
            <path d="M86.8,14.2 C88.1,19.8 84.7,25.5 79,26.8 C73.4,28.1 67.7,24.7 66.4,19 C65.1,13.4 68.5,7.7 74.2,6.4 C79.8,5.1 85.5,8.6 86.8,14.2" id="Shape" fill="#774B18"></path>
            <path d="M82.5,9.6 C82.4,9.6 82.2,9.8 82.3,9.9 C82.3,9.9 82.3,9.9 82.3,10 C82.3,10.1 82.5,10.2 82.6,10.2 C82.8,10.2 82.8,10 82.8,9.9 C82.8,9.9 82.8,9.9 82.8,9.8 C82.8,9.6 82.7,9.5 82.5,9.6" id="Shape" fill="#9B5C1B"></path>
            <path d="M84.7,10.9 C84.5,10.9 84.4,11.1 84.4,11.3 C84.4,11.5 84.6,11.6 84.8,11.6 C85,11.6 85.1,11.4 85.1,11.2 C85.1,10.9 84.9,10.8 84.7,10.9" id="Shape" fill="#9B5C1B"></path>
            <path d="M85.8,12.7 C85.5,12.8 85.3,13.1 85.4,13.3 C85.5,13.6 85.8,13.8 86,13.7 C86.3,13.6 86.5,13.3 86.4,13.1 C86.4,12.8 86.1,12.6 85.8,12.7" id="Shape" fill="#9B5C1B"></path>
            <path d="M86.9,15.3 L86.9,15.3 C86.8,15 86.3,15.1 86.4,15.4 C86.4,15.4 86.4,15.4 86.4,15.5 C86.4,15.7 86.6,15.8 86.7,15.8 C86.9,15.7 87,15.5 86.9,15.3" id="Shape" fill="#9B5C1B"></path>
            <path d="M86.7,14.1 C86.4,14.2 86.5,14.6 86.8,14.5 C87.1,14.4 87,14 86.7,14.1" id="Shape" fill="#9B5C1B"></path>
            <path d="M84.5,12.3 L84.5,12.3 C84.3,12.3 84.2,12.4 84.2,12.6 C84.2,12.8 84.4,12.8 84.5,12.8 L84.6,12.8 C84.8,12.6 84.7,12.3 84.5,12.3" id="Shape" fill="#9B5C1B"></path>
            <path d="M83.9,10.6 C83.7,10.6 83.8,10.9 84,10.8 C84.1,10.7 84,10.5 83.9,10.6" id="Shape" fill="#9B5C1B"></path>
            <path d="M83.4,9.1 C83.2,9.1 83.3,9.5 83.5,9.4 C83.6,9.4 83.6,9.1 83.4,9.1" id="Shape" fill="#9B5C1B"></path>
            <path d="M81.7,8 C81.2,8.1 81.4,8.9 81.9,8.8 C82.4,8.6 82.2,7.9 81.7,8" id="Shape" fill="#9B5C1B"></path>
            <path d="M84.1,9.4 C84,9.4 84,9.6 84.1,9.6 C84.2,9.6 84.2,9.4 84.1,9.4" id="Shape" fill="#9B5C1B"></path>
            <path d="M86.5,16.2 C86.2,16.3 86.3,16.7 86.6,16.6 C86.9,16.5 86.8,16.1 86.5,16.2" id="Shape" fill="#9B5C1B"></path>
            <path d="M86.7,18.1 C86.5,18.1 86.4,18.3 86.5,18.5 C86.5,18.7 86.7,18.8 86.9,18.7 C87.1,18.7 87.2,18.5 87.1,18.3 C87.1,18.2 86.9,18 86.7,18.1" id="Shape" fill="#9B5C1B"></path>
            <path d="M85.7,15.4 C85.3,15.5 85.4,16.2 85.9,16.1 C86.3,16 86.1,15.3 85.7,15.4" id="Shape" fill="#9B5C1B"></path>
            <path d="M85,14 L85,14 C85.1,14.3 85.5,14.2 85.4,14 C85.4,14 85.4,14 85.4,13.9 C85.3,13.6 84.9,13.7 85,14" id="Shape" fill="#9B5C1B"></path>
            <path d="M85.6,11.7 C85.4,11.7 85.5,12 85.7,12 C85.8,12 85.7,11.7 85.6,11.7" id="Shape" fill="#9B5C1B"></path>
            <path d="M86.6,19.3 C86.4,19.3 86.5,19.7 86.7,19.6 C86.9,19.6 86.8,19.3 86.6,19.3" id="Shape" fill="#9B5C1B"></path>
            <path d="M85.8,20.5 C85.6,20.6 85.7,20.9 85.9,20.9 C86.1,20.8 86,20.4 85.8,20.5" id="Shape" fill="#9B5C1B"></path>
            <path d="M85.8,19.4 L85.8,19.4 C85.9,19.7 86.3,19.6 86.2,19.4 C86.2,19.4 86.2,19.4 86.2,19.3 C86.1,19 85.7,19.1 85.8,19.4" id="Shape" fill="#9B5C1B"></path>
            <path d="M85.8,17 C85.6,17.1 85.6,17.4 85.9,17.4 C86.1,17.4 86.1,17 85.8,17" id="Shape" fill="#9B5C1B"></path>
            <path d="M86.4,16.8 C85.9,16.9 86.1,17.6 86.6,17.5 C87,17.4 86.9,16.7 86.4,16.8" id="Shape" fill="#9B5C1B"></path>
        </g>
    </g>
</svg>