<?xml version="1.0" encoding="utf-8"?>
<!-- Generator: Adobe Illustrator 17.0.0, SVG Export Plug-In . SVG Version: 6.00 Build 0)  -->
<!DOCTYPE svg PUBLIC "-//W3C//DTD SVG 1.1//EN" "http://www.w3.org/Graphics/SVG/1.1/DTD/svg11.dtd">
<svg version="1.1" id="Camada_1" xmlns="http://www.w3.org/2000/svg" xmlns:xlink="http://www.w3.org/1999/xlink" x="0px" y="0px"
	 width="30.4px" height="30.4px" viewBox="0 0 30.4 30.4" enable-background="new 0 0 30.4 30.4" xml:space="preserve">
<path fill="#788DA0" d="M11.6,18.8c-3.6-3.6-3.6-9.3,0-12.9c3.6-3.6,9.3-3.6,12.9,0c3.6,3.6,3.6,9.3,0,12.9
	C21,22.4,15.2,22.4,11.6,18.8 M26.8,21.1c4.8-4.8,4.8-12.6,0-17.5C22-1.2,14.2-1.2,9.4,3.6C5.3,7.7,4.7,13.8,7.5,18.5
	c0,0,0.2,0.3-0.1,0.6l-6.3,6.3c-1.3,1.3-1.6,3-0.4,4.1l0.2,0.2C2,30.9,3.7,30.6,5,29.3l6.3-6.3c0.3-0.3,0.6-0.1,0.6-0.1
	C16.7,25.8,22.7,25.2,26.8,21.1"/>
<path fill="#788DA0" d="M12.4,11.6c-0.2,0-0.3,0-0.5-0.1c-0.6-0.3-1-1-0.7-1.7c1.7-4.1,6.4-6,10.5-4.3c0.6,0.3,1,1,0.7,1.7
	c-0.3,0.6-1,1-1.7,0.7c-2.8-1.2-6,0.1-7.2,2.9C13.4,11.3,12.9,11.6,12.4,11.6"/>
</svg>
