<?xml version="1.0" encoding="UTF-8"?>
<svg width="30px" height="30px" viewBox="0 0 30 30" version="1.1" xmlns="http://www.w3.org/2000/svg" xmlns:xlink="http://www.w3.org/1999/xlink">
    <!-- Generator: Sketch 41.2 (35397) - http://www.bohemiancoding.com/sketch -->
    <title>Sem título-10</title>
    <desc>Created with Sketch.</desc>
    <defs></defs>
    <g id="Page-1" stroke="none" stroke-width="1" fill="none" fill-rule="evenodd">
        <g id="Sem-título-10">
            <path d="M2.2,26.1 C4.1,24.1 6,22.3 7.9,20.4 C8.3,20.8 8.8,21.2 9.1,21.5 C7.1,23.5 5.3,25.3 3.5,27.1 C3,26.8 2.5,26.4 2.2,26.1 M17.2,1.7 C23,1.7 27.7,6.4 27.8,12.2 C27.8,18 22.9,22.9 17.1,22.9 C11.3,22.8 6.6,18 6.6,12.2 C6.6,6.4 11.4,1.6 17.2,1.7 M10.7,22.6 C16.9,26.2 23.5,24.1 27,19.7 C30.6,14.9 30.3,8.3 26.2,3.9 C22.2,-0.4 15.5,-1.2 10.5,2.1 C6,5 2.8,11.6 6.8,18.8 L0.8,24.8 C-0.2,25.8 -0.2,26 0.8,27 C1.3,27.5 1.9,28.1 2.4,28.6 C3.5,29.6 3.6,29.6 4.7,28.6 C6.7,26.6 8.7,24.6 10.7,22.6" id="Shape" fill="#9A9697"></path>
            <path d="M8.2,12.3 C8.3,12.4 8.6,13 9,13 C9.7,13.2 9.9,12.6 9.9,11.9 C10.2,8 13,5.2 17,4.9 C17.6,4.8 18.2,4.7 18,4 C17.9,3.7 17.3,3.3 16.9,3.3 C12.5,3.2 8.1,7.5 8.2,12.3" id="Shape" fill="#9A9697"></path>
            <polygon id="Shape" fill="#DEDC00" points="21.1 11.1 17.5 11.1 17.5 7.3 15.7 7.3 15.7 11.1 12.1 11.1 12.1 12.8 15.7 12.8 15.7 16.5 17.5 16.5 17.5 12.8 21.1 12.8"></polygon>
        </g>
    </g>
</svg>