<?xml version="1.0" encoding="UTF-8"?>
<svg width="117px" height="184px" viewBox="0 0 117 184" version="1.1" xmlns="http://www.w3.org/2000/svg" xmlns:xlink="http://www.w3.org/1999/xlink">
    <!-- Generator: Sketch 41.2 (35397) - http://www.bohemiancoding.com/sketch -->
    <title>Page 1</title>
    <desc>Created with Sketch.</desc>
    <defs>
        <polygon id="path-1" points="1.35525272e-20 0.129236493 1.35525272e-20 48.153 84.2577 48.153 84.2577 0.129236493 0 0.129236493"></polygon>
    </defs>
    <g id="Page-1" stroke="none" stroke-width="1" fill="none" fill-rule="evenodd">
        <g>
            <g id="Group-3" transform="translate(0.000000, 25.142000)">
                <mask id="mask-2" fill="white">
                    <use xlink:href="#path-1"></use>
                </mask>
                <g id="Clip-2"></g>
                <path d="M65.8267,7.908 C59.1617,-0.647 46.9287,-2.484 38.3037,4.092 L27.6067,12.242 C24.3527,14.723 19.6067,14.127 17.1377,10.861 C13.0557,5.468 5.3747,4.42 -0.0003,8.516 L-0.0003,21.189 L-0.0003,21.33 C0.0357,28.428 5.9487,34.099 13.0477,34.099 L17.0147,34.099 L17.0147,38.184 C17.0147,43.657 21.4917,48.143 26.9637,48.153 C28.3397,37.429 38.1487,29.851 48.8727,31.227 L62.2097,32.939 C66.2707,33.461 70.0807,30.57 70.5877,26.509 C71.3417,20.449 76.4107,15.99 82.3197,15.812 C83.4027,15.779 84.2577,14.881 84.2577,13.798 C84.2577,12.324 82.7497,11.385 81.3937,11.959 C76.0107,14.238 69.5757,12.72 65.8267,7.908" id="Fill-1" fill="#C93435" mask="url(#mask-2)"></path>
            </g>
            <path d="M82.3223,40.9543 C83.4033,40.9213 84.2583,40.0233 84.2583,38.9393 C84.2583,37.4663 82.7503,36.5263 81.3943,37.1023 C76.0113,39.3803 69.5763,37.8623 65.8273,33.0503 C65.4833,32.6083 65.1153,32.1953 64.7423,31.7893 L38.7573,57.7743 C41.8453,56.4633 45.3053,55.9113 48.8733,56.3703 L62.2103,58.0813 C66.2713,58.6023 70.0813,55.7123 70.5883,51.6503 C71.3423,45.5913 76.4113,41.1323 82.3223,40.9543" id="Fill-4" fill="#AC2531"></path>
            <path d="M92.8975,161.4782 L92.7845,170.2772 C92.7675,171.6872 91.5185,172.8142 90.0035,172.7962 C88.4845,172.7732 87.2665,171.6172 87.2885,170.2082 L87.3995,161.4082 L92.8975,161.4782 Z" id="Fill-6" fill="#659540"></path>
            <path d="M86.2324,166.3532 L87.2384,89.7342 C87.2654,87.6162 89.1364,85.9212 91.4204,85.9482 C93.7044,85.9802 95.5344,87.7222 95.5064,89.8412 L94.5034,166.3592 L86.2324,166.3532 Z" id="Fill-8" fill="#28272B"></path>
            <path d="M81.6133,83.153 C88.9783,83.153 94.9543,89.83 94.9543,98.066 L94.9543,101.109 L68.2693,101.109 L68.2693,98.066 C68.2693,89.83 74.2413,83.153 81.6133,83.153" id="Fill-10" fill="#10121F"></path>
            <path d="M72.4863,162.1794 L72.0083,171.0744 C71.9263,172.4994 70.6113,173.5814 69.0753,173.4884 C67.5373,173.3944 66.3573,172.1734 66.4393,170.7574 L66.9143,161.8964 L72.4863,162.1794 Z" id="Fill-12" fill="#659540"></path>
            <path d="M65.71,165.7771 C67.064,139.7711 67.963,115.7461 68.568,89.6811 C68.614,87.5741 70.5,85.9061 72.782,85.9481 C75.066,85.9921 76.883,87.7481 76.837,89.8641 C76.231,115.9221 75.332,139.8941 73.98,165.9551 L65.71,165.7771 Z" id="Fill-14" fill="#28272B"></path>
            <path d="M99.5586,171.7707 C98.1106,171.7707 96.9206,170.6727 96.7696,169.2647 C96.7656,169.2647 96.7656,168.8117 96.7656,168.8117 C96.7656,167.8957 96.0216,167.1477 95.1016,167.1477 L94.1026,167.1477 C93.4566,167.1477 92.9306,167.6707 92.9306,168.3197 L92.9306,168.6377 C92.8706,169.6827 92.0126,170.5207 90.9546,170.5207 L88.1346,170.5207 C87.1346,170.5207 86.3246,171.3297 86.3246,172.3297 L86.3246,176.4247 L97.8406,176.4247 L102.2306,176.4247 L106.6206,176.4247 L106.6206,175.4717 L106.6206,175.3567 C106.6206,173.3757 105.0126,171.7707 103.0346,171.7707 L99.5586,171.7707 Z" id="Fill-16" fill="#10121F"></path>
            <path d="M78.9839,171.7375 C77.5279,171.7375 76.3269,170.6325 76.1759,169.2165 C76.1739,169.2165 76.1739,168.7575 76.1739,168.7575 C76.1739,167.8335 75.4219,167.0835 74.4979,167.0835 L72.5799,167.0835 C71.9289,167.0835 71.4009,167.6105 71.4009,168.2625 L71.4009,168.5855 C71.3379,169.6355 70.4749,170.4795 69.4099,170.4795 L66.5689,170.4795 C65.5629,170.4795 64.7459,171.2965 64.7459,172.2995 L64.7459,176.4245 L74.5209,176.4245 L78.9399,176.4245 L83.3609,176.4245 L83.3609,175.4645 L83.3609,175.3485 C83.3609,173.3545 81.7439,171.7375 79.7509,171.7375 L78.9839,171.7375 Z" id="Fill-18" fill="#28272B"></path>
            <path d="M105.3794,55.4401 C103.9904,50.4861 101.9784,46.0111 99.8284,41.6421 C98.8734,39.7261 96.6774,38.9461 94.9754,39.8561 C93.2684,40.7691 92.6584,42.9571 93.5574,44.7571 C95.5944,48.8801 97.4584,53.1051 98.6244,57.2931 L105.3794,55.4401 Z" id="Fill-20" fill="#10121F"></path>
            <path d="M85.2007,35.2727 L87.8137,37.9827 C91.3127,38.3167 94.8627,38.9237 98.1717,39.7817 L97.1127,55.0557 L97.1127,94.2787 L66.3397,94.2787 L66.3417,55.0557 L65.2887,39.7817 C70.5437,38.4157 76.4167,37.6857 81.7287,37.6857 L85.2007,35.2727 Z" id="Fill-22" fill="#EDE6DB"></path>
            <path d="M81.7271,22.9084 C79.8081,22.9084 78.2511,24.4654 78.2511,26.3844 L78.2511,38.0134 L83.7871,41.4874 L85.2011,38.0134 L85.2011,26.3844 C85.2011,24.4654 83.6461,22.9084 81.7271,22.9084" id="Fill-24" fill="#EEA080"></path>
            <path d="M95.7368,8.4343 L95.7368,23.5333 C95.4138,27.1643 93.6898,30.5093 91.1148,32.7973 C90.7268,32.8783 84.9368,32.7973 84.8488,32.7973 C78.4478,32.7973 73.2548,27.6063 73.2548,21.2013 L73.2548,8.4343 L95.7368,8.4343 Z" id="Fill-26" fill="#EEA080"></path>
            <path d="M72.0654,17.2087 C70.2784,17.2087 68.8284,18.6587 68.8284,20.4417 C68.8284,22.2317 70.2784,23.6777 72.0654,23.6777 L77.3294,23.6777 L77.1344,17.2087 L72.0654,17.2087 Z" id="Fill-28" fill="#EEA080"></path>
            <path d="M99.0811,0.0002 L80.4611,0.0002 C77.4481,0.0002 74.7811,1.4502 73.1061,3.6872 C72.4551,2.8122 71.4201,2.2352 70.2441,2.2352 C69.8631,2.2352 69.4961,2.2992 69.1521,2.4082 L70.1731,3.4302 C70.8121,4.0682 71.3341,5.3292 71.3341,6.2332 L71.3341,8.1862 C71.3321,8.2122 71.3251,8.2352 71.3231,8.2612 L71.3231,17.2342 L72.6101,17.2342 L72.6101,19.5462 C72.6101,20.6092 73.4731,21.4712 74.5351,21.4712 C75.6001,21.4712 76.4591,20.6092 76.4591,19.5462 L76.4591,18.1552 C76.7171,16.7052 77.9801,15.6022 79.5061,15.5992 L79.5061,11.7892 C79.7641,10.3422 81.0251,9.2422 82.5501,9.2402 L82.5501,9.2202 L95.7451,9.2202 C97.8701,9.2202 99.6171,7.6042 99.8231,5.5302 L96.4641,5.5302 C97.9011,4.0772 98.8651,2.1512 99.0811,0.0002" id="Fill-30" fill="#10121F"></path>
            <path d="M84.6563,24.5334 C84.6563,26.5984 86.3283,28.2714 88.3943,28.2714 C90.4583,28.2714 92.1303,26.5984 92.1303,24.5334 L84.6563,24.5334 Z" id="Fill-32" fill="#F4E5E1"></path>
            <path d="M92.9038,16.114 C92.9038,16.541 92.5578,16.887 92.1308,16.887 C91.7008,16.887 91.3548,16.541 91.3548,16.114 C91.3548,15.687 91.7008,15.342 92.1308,15.342 C92.5578,15.342 92.9038,15.687 92.9038,16.114" id="Fill-34" fill="#10121F"></path>
            <path d="M84.6626,16.114 C84.6626,16.541 84.3166,16.887 83.8876,16.887 C83.4596,16.887 83.1136,16.541 83.1136,16.114 C83.1136,15.687 83.4596,15.342 83.8876,15.342 C84.3166,15.342 84.6626,15.687 84.6626,16.114" id="Fill-36" fill="#10121F"></path>
            <polygon id="Fill-38" fill="#EDE6DB" points="79.8579 45.5437 75.1329 37.9977 78.0579 35.2727 83.7869 41.4867"></polygon>
            <polygon id="Fill-40" fill="#D7CEB7" points="79.8579 45.5437 83.8459 41.5567 87.8309 45.5437"></polygon>
            <path d="M75.1558,38.0358 L87.8558,58.3478 L87.8558,37.9878 C91.3428,38.3208 94.8778,38.9258 98.1718,39.7818 L98.0798,55.0568 L98.0778,97.0658 L65.3768,97.0658 L66.3428,79.4098 L65.3788,55.0568 L65.2888,39.7818 C68.4398,38.9618 71.8138,38.3768 75.1558,38.0358" id="Fill-42" fill="#28272B"></path>
            <path d="M86.6367,62.1003 C86.6367,62.7753 87.1817,63.3253 87.8577,63.3253 C88.5307,63.3253 89.0757,62.7753 89.0757,62.1003 C89.0757,61.4263 88.5307,60.8803 87.8577,60.8803 C87.1817,60.8803 86.6367,61.4263 86.6367,62.1003" id="Fill-44" fill="#888D8A"></path>
            <polygon id="Fill-46" fill="#AC2531" points="86.1646 46.4011 87.8306 52.0381 87.8556 58.3471 84.0646 52.2851 84.6246 46.4511 81.3916 43.9591 83.7886 41.7641 86.1796 43.9561"></polygon>
            <path d="M100.4141,64.6462 C101.4341,64.1622 101.7341,63.4372 101.4891,62.4882 L101.3381,61.9242 C101.0891,60.9772 100.1851,59.9732 99.3311,59.6962 L97.1791,58.9992 C96.3241,58.7222 95.0521,58.9372 94.3541,59.4842 L93.0051,60.5372 C92.7761,60.7142 92.1581,61.0002 91.4231,61.3072 L93.7151,67.1662 C94.5931,67.1722 95.8861,67.2272 97.4641,66.5832 C99.0411,65.9412 99.3931,65.1302 100.4141,64.6462" id="Fill-48" fill="#EEA080"></path>
            <path d="M98.0879,65.9812 C99.6909,65.8282 99.9109,61.4642 98.6239,57.2922 L101.7509,55.2712 L105.3799,55.4402 C106.0419,57.9312 106.5889,60.5512 106.4549,63.5852 C106.5179,66.4332 104.6899,70.8462 100.9919,72.3532 C94.1359,74.6832 89.3019,72.4132 84.5289,71.0402 C80.9829,69.7702 77.6099,68.2752 74.3159,66.6772 L77.1629,60.2652 C84.4239,63.7992 93.0299,67.4042 98.0879,65.9812" id="Fill-50" fill="#10121F"></path>
            <path d="M74.313,58.8542 C75.229,59.3142 76.184,59.7892 77.163,60.2642 L74.315,66.6762 C73.24,66.1542 72.169,65.6212 71.107,65.0812 L74.313,58.8542 Z" id="Fill-52" fill="#EDE6DB"></path>
            <path d="M90.8687,61.3522 C83.4787,64.2902 74.0557,67.1762 68.9297,64.4512 C64.4037,61.9442 66.4257,51.7932 69.5437,44.7752 C70.2977,42.9772 69.6027,40.8552 67.8697,39.9872 C66.1447,39.1242 63.9447,40.0252 63.0857,42.0692 C61.3337,46.2892 59.8947,50.6972 59.3897,55.5752 C58.8617,60.0632 59.5487,66.9892 65.2737,70.4232 C76.3917,75.3312 85.1587,70.5232 93.4627,67.8582 L90.8687,61.3522 Z" id="Fill-54" fill="#28272B"></path>
            <path d="M96.0322,62.905 C95.2442,61.141 93.4042,60.278 90.8692,61.352 L93.4632,67.859 C96.4992,66.642 96.8222,64.673 96.0322,62.905" id="Fill-56" fill="#EDE6DB"></path>
            <path d="M72.3081,62.5876 L71.1811,64.6976 C70.3071,64.6036 69.0521,64.3166 68.4171,63.6976 L68.1691,63.4536 C67.5371,62.8366 66.3591,62.0586 65.5571,61.7216 L64.8211,61.4126 C64.0161,61.0786 63.6521,60.0586 64.0081,59.1466 L64.2241,58.6036 C64.5801,57.6906 65.5961,56.7986 66.4791,56.6236 L68.6971,56.1836 C69.5781,56.0096 70.8161,56.3716 71.4451,56.9956 L72.6621,58.1976 C72.8671,58.4006 73.4481,58.7576 74.1411,59.1486 L72.3081,62.5876 Z" id="Fill-58" fill="#EEA080"></path>
            <path d="M67.0239,81.9323 C67.0239,83.1193 67.9839,84.0803 69.1719,84.0803 L77.3369,84.0803 C78.5229,84.0803 79.4849,83.1193 79.4849,81.9323 C79.4849,80.7463 78.5229,79.7863 77.3369,79.7863 L69.1719,79.7863 C67.9839,79.7863 67.0239,80.7463 67.0239,81.9323" id="Fill-60" fill="#10121F"></path>
            <path d="M67.0239,79.7849 C67.0239,80.9709 67.9839,81.9319 69.1719,81.9319 L77.3369,81.9319 C78.5229,81.9319 79.4849,80.9709 79.4849,79.7849 C79.4849,78.5979 78.5229,77.6369 77.3369,77.6369 L69.1719,77.6369 C67.9839,77.6369 67.0239,78.5979 67.0239,79.7849" id="Fill-62" fill="#28272B"></path>
            <polygon id="Fill-64" fill="#10121F" points="88.0337 97.3024 82.3677 97.3024 88.0337 80.8574"></polygon>
            <path d="M98.1699,39.8186 L98.1719,39.7816 C94.8769,38.9266 91.3429,38.3216 87.8559,37.9876 L87.8559,45.5386 L98.1699,39.8186 Z" id="Fill-66" fill="#C93435"></path>
            <path d="M75.1558,38.0358 C71.8868,38.3688 68.5908,38.9398 65.4998,39.7308 L80.0068,45.7938 L75.1558,38.0358 Z" id="Fill-68" fill="#C93435"></path>
            <path d="M101.8091,182.675 L98.3561,182.675 M93.6851,182.675 L63.7671,182.675 M116.6861,176.751 L105.7091,176.751 L103.4521,176.751 L49.1141,176.751 M112.2231,179.605 L77.8041,179.605 M72.6661,179.605 L53.9371,179.605" id="Stroke-70" stroke="#10121F" stroke-width="0.934" stroke-linecap="round"></path>
        </g>
    </g>
</svg>