<?xml version="1.0" encoding="utf-8"?>
<!-- Generator: Adobe Illustrator 17.0.0, SVG Export Plug-In . SVG Version: 6.00 Build 0)  -->
<!DOCTYPE svg PUBLIC "-//W3C//DTD SVG 1.1//EN" "http://www.w3.org/Graphics/SVG/1.1/DTD/svg11.dtd">
<svg version="1.1" id="Camada_1" xmlns="http://www.w3.org/2000/svg" xmlns:xlink="http://www.w3.org/1999/xlink" x="0px" y="0px"
	 width="32.4px" height="25.1px" viewBox="0 0 32.4 25.1" enable-background="new 0 0 32.4 25.1" xml:space="preserve">
<path fill="#788DA0" d="M10.3,23.5l0.8-1h7.4l0.8,1H10.3z M17.1,24.6h-4.4c-0.2,0-0.3-0.1-0.3-0.3c0-0.2,0.1-0.3,0.3-0.3h4.4
	c0.2,0,0.3,0.1,0.3,0.3C17.4,24.5,17.2,24.6,17.1,24.6 M27,19.1v-4.2h-1.6v3.4c0,0.5-0.4,1-1,1H5.3c-0.5,0-1-0.4-1-1V6.7
	c0-0.5,0.4-1,1-1h11v-1H3.9c-0.6,0-1.1,0.5-1.1,1.1v14.3L0,23.5c0,0.9,0.7,1.7,1.7,1.7h26.5c0.9,0,1.7-0.7,1.7-1.7L27,20.2V19.1z"/>
<rect x="13.1" y="12.9" fill="#788DA0" width="2.3" height="2.3"/>
<rect x="14.5" y="9.7" fill="#788DA0" width="2.3" height="2.3"/>
<rect x="16.8" y="12.6" fill="#788DA0" width="2.3" height="2.3"/>
<rect x="18.6" y="8.8" fill="#788DA0" width="2.7" height="2.7"/>
<rect x="22.5" y="0.4" fill="#788DA0" width="2.7" height="2.7"/>
<rect x="17.5" y="5.3" fill="#788DA0" width="2.7" height="2.7"/>
<rect x="21.8" y="4.2" fill="#788DA0" width="3.9" height="3.9"/>
<rect x="24.7" y="8.9" fill="#788DA0" width="4.7" height="4.7"/>
<rect x="26.5" y="0" fill="#788DA0" width="5.9" height="5.9"/>
<rect x="21.1" y="11.8" fill="#788DA0" width="2.7" height="2.7"/>
</svg>
