<?xml version="1.0" encoding="utf-8"?>
<!-- Generator: Adobe Illustrator 17.0.0, SVG Export Plug-In . SVG Version: 6.00 Build 0)  -->
<!DOCTYPE svg PUBLIC "-//W3C//DTD SVG 1.1//EN" "http://www.w3.org/Graphics/SVG/1.1/DTD/svg11.dtd">
<svg version="1.1" id="Camada_1" xmlns="http://www.w3.org/2000/svg" xmlns:xlink="http://www.w3.org/1999/xlink" x="0px" y="0px"
	 width="37.3px" height="34.8px" viewBox="0 0 37.3 34.8" enable-background="new 0 0 37.3 34.8" xml:space="preserve">
<path fill="#788DA0" d="M18.7,16.7c2.2,0,4.1-0.8,5.7-2.5c1.6-1.6,2.4-3.6,2.4-5.9c0-2.3-0.8-4.3-2.4-5.9C22.8,0.8,20.9,0,18.7,0
	s-4.2,0.8-5.7,2.4c-1.6,1.6-2.4,3.6-2.4,5.9c0,2.3,0.8,4.3,2.4,5.9C14.5,15.9,16.4,16.7,18.7,16.7 M31.2,13.3l-8.6,9.1v12.3h0.1v0h7
	v-5.3l7.2-9.8c0.3-0.4,0.5-0.8,0.5-1.3v-15c0-1.2-0.9-2.1-2.1-2.1c-1.1,0-2.1,1-2.1,2.1V12c0.5,0.1,1,0.3,1.3,0.7
	c1.1,1.1,1.1,2.9,0.1,4.1L30.7,21l-0.5-0.5l3.9-4.1c0.8-0.8,0.8-2.2,0-3c-0.2-0.2-0.5-0.4-0.9-0.5c-0.3-0.1-0.7-0.1-1,0
	C31.8,12.9,31.4,13.1,31.2,13.3 M6.2,13.3l8.6,9.1v12.3h-0.1v0h-7v-5.3l-7.2-9.8C0.2,19.3,0,18.9,0,18.4v-15c0-1.2,0.9-2.1,2.1-2.1
	c1.1,0,2.1,1,2.1,2.1V12c-0.5,0.1-1,0.3-1.3,0.7c-1.1,1.1-1.1,2.9-0.1,4.1L6.6,21l0.5-0.5l-3.9-4.1c-0.8-0.8-0.8-2.2,0-3
	c0.2-0.2,0.5-0.4,0.9-0.5c0.3-0.1,0.7-0.1,1,0C5.6,12.9,5.9,13.1,6.2,13.3"/>
</svg>
