<?xml version="1.0" encoding="utf-8"?>
<!-- Generator: Adobe Illustrator 17.0.0, SVG Export Plug-In . SVG Version: 6.00 Build 0)  -->
<!DOCTYPE svg PUBLIC "-//W3C//DTD SVG 1.1//EN" "http://www.w3.org/Graphics/SVG/1.1/DTD/svg11.dtd">
<svg version="1.1" id="Camada_1" xmlns="http://www.w3.org/2000/svg" xmlns:xlink="http://www.w3.org/1999/xlink" x="0px" y="0px"
	 width="35.7px" height="30.1px" viewBox="0 0 35.7 30.1" enable-background="new 0 0 35.7 30.1" xml:space="preserve">
<path fill="#788DA0" d="M27.8,5.5c0.7,0,1.4-0.2,2.1-0.5l5.9-3.3V0l-6.7,3.7C28.6,4,28,4.2,27.4,4.2l-8.8-0.1
	c-0.4-0.2-0.8-0.3-0.9-0.3c-2.8-0.6-4.9-0.4-6.4,0C10.2,4.1,9,4,8,3.5L0,0v14l0.8,0.4c1.2,0.6,2.2,1.6,2.8,2.8l-0.5,0.4
	c-1.3,0.9-1.5,2.6-0.7,3.8c0.5,0.6,1.1,1,1.9,1.1c0.1,0,0.2,0,0.3,0c0.3,0,0.5,0,0.8,0c0,0.6,0.2,1.1,0.5,1.6c0.5,0.7,1.3,1,2.1,1
	c0.2,0,0.4,0,0.6,0c-0.1,0.6,0.1,1.3,0.5,1.8c0.5,0.6,1.1,1,1.9,1.1c0.1,0,0.2,0,0.3,0c0.7,0,1.3-0.1,1.8-0.5l0.3-0.2
	c0.1,0.4,0.2,0.7,0.4,1.1c0.4,0.5,0.9,0.8,1.6,0.9c0.1,0,0.2,0,0.3,0c0.5,0,1.1-0.1,1.5-0.4h0l0.3,0.4c0.6,0.8,1.8,1,2.6,0.4
	c0.7-0.5,1-1.4,0.7-2.2l0.1,0.1c0.5,0.8,1.6,1.1,2.5,0.8c1-0.4,1.4-1.4,1.1-2.3c0.7,0.7,1.8,0.9,2.7,0.3l0,0
	c0.8-0.6,1.1-1.6,0.6-2.5c0.7,0.6,1.9,0.7,2.7,0.2c1-0.7,1.2-2,0.5-2.9l-1-1.4l2.3-2.5c0.6-0.7,1.3-1.2,2.1-1.7l1.1-0.6v-1.7
	l-1.5,0.8c-0.9,0.5-1.7,1.1-2.3,1.8l-2.4,2.7c-0.7-0.6-1.9-0.7-2.7-0.2c-1,0.7-1.2,2-0.5,2.9l0,0.1h0c-0.7-0.5-1.6-0.5-2.4,0l0,0
	c-0.7,0.4-1,1.2-0.8,1.9l-0.2,0.2c-0.7-0.3-1.5-0.3-2.1,0.1c-0.6,0.4-0.9,1.1-0.9,1.8l-0.6,0.4c-0.5-0.1-1,0-1.4,0.3
	c-0.5,0.4-0.8,0.9-0.8,1.5l-0.3,0.2C16.3,28,16,28.1,15.8,28c-0.3-0.1-0.5-0.2-0.7-0.4c-0.2-0.2-0.2-0.5-0.2-0.7
	c0.1-0.3,0.2-0.5,0.4-0.7l3.5-2.5c0.2-0.1,0.3-0.3,0.3-0.5c0-0.4-0.3-0.7-0.7-0.7c-0.2,0-0.3,0-0.4,0.1l-5.6,3.9
	c-0.3,0.2-0.7,0.3-1.1,0.2c-0.4-0.1-0.7-0.3-1-0.6c-0.5-0.6-0.3-1.5,0.3-1.9l6.7-4.5c0.1-0.1,0.2-0.3,0.2-0.5c0-0.4-0.3-0.7-0.7-0.7
	c-0.2,0-0.4,0.1-0.5,0.2l-6.5,4.5c-0.2,0.1-0.3,0.2-0.4,0.3c-0.8,0.5-1.9,0.4-2.4-0.2c-0.4-0.6-0.3-1.3,0.2-1.8l0.7-0.4l7.2-4.7
	c0.2-0.1,0.3-0.3,0.3-0.5c0-0.2-0.1-0.5-0.3-0.6c-0.3-0.2-0.5-0.2-0.8,0l-7.8,5c-0.1,0.1-0.1,0.1-0.2,0.2L5.7,21
	c-0.6,0.4-1.5,0.3-2-0.3c-0.5-0.6-0.3-1.5,0.3-1.9L18.6,8.4c1.2,0.7,2,2,2,2c1.4,4.3,3.2,4.3,4.3,3.8c0.6-0.3,0.8-0.9,0.6-1.5
	c-0.6-1.7-0.9-4.9-0.9-4.9C24.3,7,23,6.2,21.6,5.4l4.7,0.1L27.8,5.5z"/>
</svg>
