<?xml version="1.0" encoding="UTF-8"?>
<svg width="26px" height="80px" viewBox="0 0 26 80" version="1.1" xmlns="http://www.w3.org/2000/svg" xmlns:xlink="http://www.w3.org/1999/xlink">
    <!-- Generator: Sketch 41.2 (35397) - http://www.bohemiancoding.com/sketch -->
    <title>Group 2</title>
    <desc>Created with Sketch.</desc>
    <defs></defs>
    <g id="Page-1" stroke="none" stroke-width="1" fill="none" fill-rule="evenodd">
        <g id="Group-2">
            <rect id="Rectangle-path" fill="#EA582F" x="12" y="1" width="1.6" height="6.6"></rect>
            <path d="M14.2999878,1.5 C14.2999878,2.30769231 13.6076801,3 12.7999878,3 C11.9922955,3 11.2999878,2.30769231 11.2999878,1.5 C11.2999878,0.692307692 11.9922955,0 12.7999878,0 C13.6076801,0 14.2999878,0.692307692 14.2999878,1.5" id="Shape" fill="#36424B"></path>
            <g id="Group" transform="translate(0.000000, 6.000000)">
                <polygon id="Shape" fill="#BC3218" points="0.5 35.0799999 0.5 54.7386663 6.57999992 48.6586664 6.57999992 29"></polygon>
                <path d="M12.7726027,0 C12.7726027,0 6.08219178,7.90684932 6.08219178,13.6849315 L6.08219178,49.0630137 L12.7726027,49.0630137 L12.7726027,0 Z" id="Shape" fill="#E73F16"></path>
                <path d="M16.7260274,56.969863 C16.7260274,59.3013699 12.4684932,73.6958904 12.4684932,73.6958904 C12.4684932,73.6958904 8.10958904,59.4027397 8.10958904,56.969863 C8.10958904,54.6383562 10.0356164,52.7123288 12.3671233,52.7123288 C14.8,52.7123288 16.7260274,54.6383562 16.7260274,56.969863" id="Shape" fill="#00707C"></path>
                <path d="M13.9890411,57.6794521 C13.9890411,58.6931507 12.0630137,65.0794521 12.0630137,65.0794521 C12.0630137,65.0794521 10.1369863,58.6931507 10.1369863,57.6794521 C10.1369863,56.6657534 10.9479452,55.7534247 12.0630137,55.7534247 C13.1780822,55.8547945 13.9890411,56.6657534 13.9890411,57.6794521" id="Shape" fill="#16B5C8"></path>
                <path d="M19.4630137,29.3972603 L19.4630137,13.6849315 C19.4630137,8.00821918 12.7726027,0 12.7726027,0 L12.7726027,48.9616438 L9.12328767,48.9616438 L9.12328767,50.9890411 L16.4219178,50.9890411 L16.4219178,48.9616438 L19.3616438,48.9616438 L25.4438356,55.0438356 L25.4438356,35.3780822 L19.4630137,29.3972603 Z" id="Shape" fill="#BC3218"></path>
                <path d="M16.4979452,22.2760274 C16.3965753,22.1746575 16.2952055,21.9719178 16.1938356,21.8705479 C14.0650685,19.7417808 10.719863,19.7417808 8.69246575,21.8705479 C6.56369863,23.9993151 6.56369863,27.3445205 8.69246575,29.3719178 C10.8212329,31.5006849 14.1664384,31.5006849 16.1938356,29.3719178 C16.3965753,29.1691781 16.4979452,29.0678082 16.5993151,28.8650685 C18.119863,27.040411 18.119863,24.2020548 16.4979452,22.2760274" id="Shape" fill="#36424B"></path>
                <path d="M13.1780822,26.3561644 C12.7726027,26.7616438 11.9616438,26.7616438 11.5561644,26.3561644 C11.0493151,25.9506849 11.0493151,25.139726 11.5561644,24.7342466 C12.0630137,24.2273973 12.7726027,24.3287671 13.1780822,24.7342466 C13.5835616,25.2410959 13.5835616,25.9506849 13.1780822,26.3561644 L13.1780822,26.3561644 Z M15.1041096,23.6191781 L14.2931507,22.8082192 L13.6849315,23.4164384 C13.4821918,23.3150685 13.1780822,23.2136986 12.9753425,23.1123288 L12.9753425,22.3013699 L11.7589041,22.3013699 L11.7589041,23.1123288 C11.5561644,23.2136986 11.2520548,23.3150685 11.0493151,23.4164384 L10.4410959,22.8082192 L9.63013699,23.6191781 L10.2383562,24.2273973 C10.1369863,24.430137 10.0356164,24.7342466 9.93424658,24.9369863 L9.12328767,24.9369863 L9.12328767,26.1534247 L9.93424658,26.1534247 C10.0356164,26.3561644 10.1369863,26.660274 10.2383562,26.8630137 L9.63013699,27.4712329 L10.4410959,28.2821918 L11.0493151,27.6739726 C11.2520548,27.7753425 11.5561644,27.8767123 11.7589041,27.9780822 L11.7589041,28.7890411 L12.9753425,28.7890411 L12.9753425,27.9780822 C13.1780822,27.8767123 13.4821918,27.7753425 13.6849315,27.6739726 L14.2931507,28.2821918 L15.1041096,27.4712329 L14.4958904,26.8630137 C14.5972603,26.660274 14.6986301,26.3561644 14.8,26.1534247 L15.6109589,26.1534247 L15.6109589,24.9369863 L14.8,24.9369863 C14.6986301,24.7342466 14.5972603,24.430137 14.4958904,24.2273973 L15.1041096,23.6191781 Z" id="Shape" fill="#FDFEFF"></path>
            </g>
        </g>
    </g>
</svg>