<?xml version="1.0" encoding="UTF-8"?>
<svg width="13px" height="39px" viewBox="0 0 13 39" version="1.1" xmlns="http://www.w3.org/2000/svg" xmlns:xlink="http://www.w3.org/1999/xlink">
    <!-- Generator: Sketch 41.2 (35397) - http://www.bohemiancoding.com/sketch -->
    <title>Sem título-6</title>
    <desc>Created with Sketch.</desc>
    <defs></defs>
    <g id="Page-1" stroke="none" stroke-width="1" fill="none" fill-rule="evenodd">
        <g id="Sem-título-6">
            <rect id="Rectangle-path" fill="#8F8C8A" x="5.8" y="0.6" width="0.8" height="3.3"></rect>
            <path d="M6.2,2.9 C6.2,2.9 3,6.7 3,9.6 L3,26.8 L6.2,26.8 L6.2,2.9 Z" id="Shape" fill="#D3D1D1"></path>
            <path d="M8.3,30.5 C8.3,31.7 6.2,38.7 6.2,38.7 C6.2,38.7 4.1,31.7 4.1,30.5 C4.1,29.3 5,28.4 6.2,28.4 C7.4,28.4 8.3,29.3 8.3,30.5" id="Shape" fill="#36424B"></path>
            <path d="M7.1,30.9 C7.1,31.4 6.2,34.5 6.2,34.5 C6.2,34.5 5.3,31.4 5.3,30.9 C5.3,30.4 5.7,30 6.2,30 C6.7,30 7.1,30.4 7.1,30.9" id="Shape" fill="#00707C"></path>
            <polygon id="Shape" fill="#8F8C8A" points="0 20.2 0 29.8 3 26.8 3 17.2"></polygon>
            <path d="M9.4,17.2 L9.4,9.6 C9.4,6.9 6.2,2.9 6.2,2.9 L6.2,26.8 L4.4,26.8 L4.4,27.8 L8,27.8 L8,26.8 L9.5,26.8 L12.5,29.8 L12.5,20.2 L9.4,17.2 Z" id="Shape" fill="#8F8C8A"></path>
            <path d="M6.8,0.6 C6.8,0.9 6.5,1.2 6.2,1.2 C5.9,1.3 5.6,1 5.6,0.6 C5.6,0.3 5.9,0 6.2,0 C6.6,0 6.8,0.3 6.8,0.6" id="Shape" fill="#36424B"></path>
            <path d="M8.2,13.7 C8.1,13.6 8.1,13.6 8,13.5 C7,12.5 5.3,12.5 4.3,13.5 C3.3,14.5 3.3,16.2 4.3,17.2 C5.3,18.2 7,18.2 8,17.2 C8.1,17.1 8.1,17 8.2,17 C9,16 9,14.6 8.2,13.7" id="Shape" fill="#36424B"></path>
            <path d="M6.6,15.7 C6.4,15.9 6,15.9 5.8,15.7 C5.6,15.5 5.6,15.1 5.8,14.9 C6,14.7 6.4,14.7 6.6,14.9 C6.9,15.1 6.9,15.5 6.6,15.7 L6.6,15.7 Z M7.6,14.4 L7.2,14 L6.9,14.3 C6.8,14.2 6.7,14.2 6.6,14.2 L6.6,13.8 L6,13.8 L6,14.2 C5.9,14.2 5.8,14.3 5.7,14.3 L5.3,14 L4.9,14.4 L5.2,14.7 C5.1,14.8 5.1,14.9 5,15 L4.6,15 L4.6,15.6 L5,15.6 C5,15.7 5.1,15.8 5.1,16 L4.8,16.3 L5.2,16.7 L5.5,16.4 C5.6,16.5 5.7,16.5 5.9,16.5 L5.9,16.9 L6.5,16.9 L6.5,16.5 C6.6,16.5 6.7,16.4 6.8,16.4 L7.1,16.7 L7.5,16.3 L7.3,16 C7.4,15.9 7.4,15.8 7.4,15.6 L7.8,15.6 L7.8,15 L7.4,15 C7.4,14.9 7.3,14.8 7.3,14.6 L7.6,14.4 Z" id="Shape" fill="#C03F18"></path>
        </g>
    </g>
</svg>