<?xml version="1.0" encoding="UTF-8"?>
<svg width="13px" height="41px" viewBox="0 0 13 41" version="1.1" xmlns="http://www.w3.org/2000/svg" xmlns:xlink="http://www.w3.org/1999/xlink">
    <!-- Generator: Sketch 41.2 (35397) - http://www.bohemiancoding.com/sketch -->
    <title>Sem título-4</title>
    <desc>Created with Sketch.</desc>
    <defs></defs>
    <g id="Page-1" stroke="none" stroke-width="1" fill="none" fill-rule="evenodd">
        <g id="Sem-título-4">
            <rect id="Rectangle-path" fill="#00707C" x="6.1" y="0.7" width="0.8" height="3.4"></rect>
            <path d="M6.5,3.1 C6.5,3.1 3.1,7.1 3.1,10 L3.1,27.9 L6.5,27.9 L6.5,3.1 Z" id="Shape" fill="#16B5C8"></path>
            <path d="M6.5,40.2 C6.5,40.2 4.3,32.9 4.3,31.7 C4.3,30.5 5.3,29.5 6.5,29.5 C7.7,29.5 8.7,30.5 8.7,31.7" id="Shape" fill="#C03F18"></path>
            <path d="M8.6,31.7 C8.6,32.9 6.4,40.2 6.4,40.2" id="Shape" fill="#C03F18"></path>
            <path d="M7.4,32.2 C7.4,32.7 6.4,35.9 6.4,35.9 C6.4,35.9 5.4,32.7 5.4,32.2 C5.4,31.7 5.8,31.2 6.4,31.2 C7,31.2 7.4,31.7 7.4,32.2" id="Shape" fill="#EA582F"></path>
            <polygon id="Shape" fill="#00707C" points="0 21 0 31 3.1 27.9 3.1 18"></polygon>
            <path d="M9.8,18 L9.8,10 C9.8,7.1 6.4,3.1 6.4,3.1 L6.4,28 L4.6,28 L4.6,29 L8.3,29 L8.3,28 L9.8,28 L12.9,31.1 L12.9,21 L9.8,18 Z" id="Shape" fill="#00707C"></path>
            <path d="M7.1,0.7 C7.1,1.1 6.8,1.4 6.4,1.4 C6.1,1.3 5.8,1 5.8,0.7 C5.8,0.3 6.1,0 6.5,0 C6.8,0 7.1,0.3 7.1,0.7" id="Shape" fill="#C03F18"></path>
            <path d="M8.6,14.3 L8.4,14.1 C7.3,13 5.6,13 4.6,14.1 C3.5,15.2 3.5,16.9 4.6,17.9 C5.7,19 7.4,19 8.4,17.9 C8.5,17.8 8.6,17.7 8.6,17.7 C9.4,16.6 9.4,15.2 8.6,14.3" id="Shape" fill="#C03F18"></path>
            <path d="M6.9,16.4 C6.7,16.6 6.3,16.6 6.1,16.4 C5.9,16.2 5.9,15.8 6.1,15.6 C6.3,15.4 6.7,15.4 6.9,15.6 C7.1,15.8 7.1,16.1 6.9,16.4 L6.9,16.4 Z M7.9,15 L7.5,14.6 L7.2,14.9 C7.1,14.8 7,14.8 6.8,14.8 L6.8,14.4 L6.2,14.4 L6.2,14.8 C6.1,14.8 6,14.9 5.8,15 L5.5,14.7 L5.1,15 L5.4,15.3 C5.3,15.4 5.3,15.5 5.2,15.7 L4.8,15.7 L4.8,16.3 L5.2,16.3 C5.2,16.4 5.3,16.5 5.4,16.7 L5.1,17 L5.5,17.4 L5.8,17 C5.9,17.1 6,17.1 6.2,17.2 L6.2,17.6 L6.8,17.6 L6.8,17.2 C6.9,17.2 7,17.1 7.2,17 L7.5,17.3 L7.9,16.9 L7.6,16.6 C7.7,16.5 7.7,16.4 7.8,16.2 L8.2,16.2 L8.2,15.6 L7.8,15.6 C7.8,15.5 7.7,15.4 7.6,15.2 L7.9,15 Z" id="Shape" fill="#FDFEFF"></path>
        </g>
    </g>
</svg>