<?xml version="1.0" encoding="utf-8"?>
<!-- Generator: Adobe Illustrator 17.0.0, SVG Export Plug-In . SVG Version: 6.00 Build 0)  -->
<!DOCTYPE svg PUBLIC "-//W3C//DTD SVG 1.1//EN" "http://www.w3.org/Graphics/SVG/1.1/DTD/svg11.dtd">
<svg version="1.1" id="Camada_1" xmlns="http://www.w3.org/2000/svg" xmlns:xlink="http://www.w3.org/1999/xlink" x="0px" y="0px"
	 width="37.6px" height="34.8px" viewBox="0 0 37.6 34.8" enable-background="new 0 0 37.6 34.8" xml:space="preserve">
<path fill="#788DA0" d="M37.5,14.7c-0.1-0.3-0.4-0.5-0.7-0.5h-2.3C33,6.1,25.9,0,17.4,0C7.8,0,0,7.8,0,17.4C0,27,7.8,34.8,17.4,34.8
	c6.2,0,12-3.3,15.1-8.7c0.4-0.8,0.2-1.7-0.6-2.2c-0.8-0.4-1.7-0.2-2.2,0.6c-2.5,4.4-7.3,7.1-12.3,7.1c-7.8,0-14.2-6.4-14.2-14.2
	c0-7.8,6.4-14.2,14.2-14.2c6.8,0,12.4,4.7,13.9,11.1h-2.3c-0.3,0-0.6,0.2-0.7,0.5c-0.1,0.3-0.1,0.6,0.1,0.8l4,4.7
	c0.1,0.2,0.4,0.3,0.6,0.3c0.2,0,0.5-0.1,0.6-0.3l4-4.7C37.6,15.3,37.7,15,37.5,14.7"/>
<path fill="#788DA0" d="M17.4,18.6c-0.7,0-1.2-0.5-1.2-1.2c0-0.7,0.5-1.2,1.2-1.2c0.7,0,1.2,0.5,1.2,1.2C18.6,18,18,18.6,17.4,18.6
	 M17.4,3.9c-0.9,0-1.6,0.7-1.6,1.6v9.6c-0.7,0.5-1.2,1.3-1.2,2.3c0,1.5,1.2,2.8,2.8,2.8c0.4,0,0.8-0.1,1.2-0.3l5.5,3.2
	c0.2,0.1,0.5,0.2,0.8,0.2c0.5,0,1.1-0.3,1.4-0.8c0.4-0.8,0.2-1.7-0.6-2.2l-5.5-3.2c-0.1-0.8-0.5-1.6-1.2-2V5.5
	C19,4.7,18.3,3.9,17.4,3.9"/>
</svg>
