<?xml version="1.0" encoding="UTF-8"?>
<svg width="87px" height="65px" viewBox="0 0 87 65" version="1.1" xmlns="http://www.w3.org/2000/svg" xmlns:xlink="http://www.w3.org/1999/xlink">
    <!-- Generator: Sketch 41.2 (35397) - http://www.bohemiancoding.com/sketch -->
    <title>Sem título-7</title>
    <desc>Created with Sketch.</desc>
    <defs></defs>
    <g id="Page-1" stroke="none" stroke-width="1" fill="none" fill-rule="evenodd">
        <g id="Sem-título-7">
            <rect id="Rectangle-path" fill="#F9B900" transform="translate(42.551363, 52.851613) rotate(0.471839) translate(-42.551363, -52.851613) " x="38.3012186" y="43.7013031" width="8.50028823" height="18.3006205"></rect>
            <path d="M60.5,64.5 C60.5,59.8 56.7,55.9 52,55.9 L33,55.7 C28.3,55.7 24.4,59.5 24.4,64.2 C39.1,64.3 42.7,64.3 60.5,64.5" id="Shape" fill="#FCD300"></path>
            <path d="M0,5.6 L27.5,5.8 L27.5,9.9 C27.5,9.9 11,9.9 5.4,9.7 C5.4,15 12.8,29.1 28.3,29.9 L28.3,34.3 C23.2,34.3 0.1,29.4 0,5.6" id="Shape" fill="#F9B900"></path>
            <path d="M86.6,6.4 L59.1,6.1 L59.1,10.2 C59.1,10.2 75.6,10.4 81.2,10.4 C81.2,15.7 73.5,29.7 57.9,30.2 L57.9,34.6 C62.9,34.7 86,30.1 86.6,6.4" id="Shape" fill="#F9B900"></path>
            <path d="M43,0.2 L16.3,0 C16.1,29.3 25.3,44.9 42.6,45.1 C60.6,45.3 69.4,29.7 69.7,0.5 L43,0.2 Z" id="Shape" fill="#F9B900"></path>
            <path d="M16.2,5.8 C16,35 29.6,45 42.6,45.1 C55.6,45.2 69.4,35.5 69.6,6.3 L16.2,5.8 Z" id="Shape" fill="#FCD300"></path>
            <path d="M34.6,20.9 C34.6,20.9 33.9,13.1 42.7,13.1 C50.4,13.2 51.2,18.7 51.2,19.8 C51.1,27 45.4,24.2 45.4,29.9 L40.6,29.9 C40.7,23.2 46,23.7 46,20.2 C46,18.8 45.2,17 42.9,16.9 C40.3,16.9 39.2,19 39.1,20.9 L34.6,20.9" id="Shape" fill="#FEEE5D"></path>
            <rect id="Rectangle-path" fill="#FEEE5D" transform="translate(42.751749, 34.651462) rotate(0.478944) translate(-42.751749, -34.651462) " x="40.2016595" y="32.0013695" width="5.10017819" height="5.30018518"></rect>
            <path d="M0,5.6 C0.1,19.8 8.4,27.3 16.1,31 C8.4,27.3 0.1,19.8 0,5.6 L0,5.6 Z M5.3,9.8 L5.3,9.8 L5.3,9.8 C7.7,9.9 12.1,9.9 16.3,9.9 L16.3,9.9 C12.1,9.9 7.7,9.8 5.3,9.8 L5.3,9.8 Z M5.4,10.4 C5.8,14.9 10.5,23.9 19.7,28 L19.7,28 C10.5,23.9 5.8,14.9 5.4,10.4 L5.4,10.4 Z M38.3,49.1 L38.2,55.7 L38.3,49.1 Z M24.4,64.2 L24.4,64.2 C32.5,64.3 37.2,64.3 42.8,64.4 C37.2,64.3 32.5,64.2 24.4,64.2 L24.4,64.2 Z" id="Shape" fill="#E6E5E3"></path>
            <path d="M38.4,44.7 L38.4,49.1 L38.3,55.7 L42.9,55.7 L43,45.1 L42.9,45.1 L42.6,45.1 L42.6,45.1 L42.6,45.1 L42.6,45.1 C41.1,45 39.7,44.9 38.4,44.7" id="Shape" fill="#DFAF01"></path>
            <path d="M33,55.7 C28.3,55.7 24.5,59.5 24.4,64.2 C32.5,64.3 37.2,64.3 42.8,64.4 L42.9,55.8 L38.3,55.8 L33,55.7 L33,55.7" id="Shape" fill="#DFC000"></path>
            <path d="M0,5.6 C0.1,19.8 8.4,27.3 16.1,31 L16.1,31 L16.1,31 C18.3,32.1 20.5,32.8 22.4,33.3 C21.4,31.7 20.5,29.9 19.7,27.9 C10.5,23.9 5.8,14.8 5.4,10.3 L5.4,10.3 L5.4,10.3 L5.4,10.3 L5.4,10.3 L5.4,9.8 L5.4,9.8 L5.4,9.8 L5.4,9.8 L5.4,9.8 L5.4,9.8 L5.4,9.8 L5.4,9.8 L5.4,9.8 L5.4,9.8 C7.8,9.9 12.2,9.9 16.4,9.9 C16.3,8.6 16.3,7.2 16.3,5.8 L0,5.6" id="Shape" fill="#DFAF01"></path>
            <path d="M16.3,0 C16.3,2 16.3,3.9 16.4,5.8 L43.3,6 L43.3,0.2 L43,0.2 L16.3,0 Z M32.2,42.6 C34.1,43.6 36.1,44.3 38.4,44.6 L38.4,44.6 C39.8,44.8 41.2,45 42.6,45 C39.1,45 35.5,44.3 32.2,42.6 L32.2,42.6 Z M42.6,45.1 L42.6,45.1 L42.9,45.1 L43,45.1 L42.9,45.1 L42.6,45.1 L42.6,45.1 Z" id="Shape" fill="#DFAF01"></path>
            <path d="M16.2,5.8 L16.2,5.8 C16.2,7.2 16.2,8.6 16.3,9.9 L16.3,9.9 C16.6,17.2 17.8,23.2 19.7,28 L19.7,28 L19.7,28 C20.5,30 21.4,31.8 22.4,33.4 L22.4,33.4 C24.8,37.4 27.9,40.2 31.2,42.1 C31.3,42.1 31.3,42.2 31.4,42.2 C31.6,42.3 31.8,42.4 32,42.6 C32.1,42.6 32.2,42.7 32.2,42.7 C35.5,44.3 39.1,45.1 42.6,45.1 L42.6,45.1 L42.6,45.1 L42.6,45.1 L42.8,45.1 L42.9,45.1 L43,37.4 L40.1,37.4 L40.1,32.1 L43,32.1 L43,30 L40.4,30 C40.4,26.7 41.7,25.2 43,24 L43.1,17 L42.8,17 L42.8,17 C40.2,17 39.1,19.1 39.1,21 L34.5,21 C34.5,21 33.8,13.2 42.5,13.2 L42.6,13.2 L43.2,13.2 L43.3,6 L16.4,5.8 L16.2,5.8 Z" id="Shape" fill="#DFC000"></path>
            <path d="M42.5,13.1 C33.8,13.1 34.5,20.9 34.5,20.9 L39.1,20.9 C39.1,19 40.2,16.9 42.8,16.9 L42.8,16.9 L43.1,16.9 L43.1,13.1 L42.5,13.1 C42.6,13.1 42.6,13.1 42.5,13.1 L42.5,13.1 Z M43.1,24 C41.8,25.1 40.5,26.7 40.5,30 L43.1,30 L43.1,24 Z" id="Shape" fill="#E3D768"></path>
            <rect id="Rectangle-path" fill="#E3D768" transform="translate(41.581691, 34.624340) rotate(-89.523224) translate(-41.581691, -34.624340) " x="38.9315988" y="33.1742899" width="5.3001835" height="2.90010041"></rect>
        </g>
    </g>
</svg>