<?xml version="1.0" encoding="UTF-8"?>
<svg width="117px" height="111px" viewBox="0 0 117 111" version="1.1" xmlns="http://www.w3.org/2000/svg" xmlns:xlink="http://www.w3.org/1999/xlink">
    <!-- Generator: Sketch 41.2 (35397) - http://www.bohemiancoding.com/sketch -->
    <title>weight</title>
    <desc>Created with Sketch.</desc>
    <defs></defs>
    <g id="Page-1" stroke="none" stroke-width="1" fill="none" fill-rule="evenodd">
        <g id="weight" transform="translate(0.000000, 2.000000)">
            <circle id="Oval" stroke="#99C1DA" stroke-width="4.405" cx="58.353" cy="8.353" r="8.15"></circle>
            <polygon id="Shape" fill="#99C1DA" points="9.857 40.336 7.17 57.488 109.536 57.488 106.848 40.336"></polygon>
            <path d="M112.626,77.208 L4.081,77.208 L0.051,102.927 C0.051,102.927 -0.861,108.751 5.035,108.751 L111.672,108.751 C111.671,108.751 117.567,108.751 116.655,102.927 L112.626,77.208 Z" id="Shape" fill="#D4D4D7"></path>
            <path d="M96.802,13.845 L19.903,13.845 C19.903,13.845 14.007,13.845 13.095,19.67 L9.857,40.961 L106.848,40.961 L103.61,19.67 C103.61,19.67 102.698,13.845 96.802,13.845" id="Shape" fill="#99C1DA"></path>
            <polygon id="Shape" fill="#99C1DA" points="4.091 77.139 112.614 77.139 108.349 49.913 8.357 49.913"></polygon>
            <path d="M53.4387761,44.2153869 C53.0931906,45.0089537 52.7188119,45.847306 52.3156288,46.730469 C51.9124456,47.613632 51.4900697,48.5095811 51.0484881,49.418343 C50.6069066,50.3271049 50.1461328,51.2358533 49.6661529,52.1446152 C49.1861731,53.0533771 48.6966009,53.9365269 48.1974218,54.794091 C47.9670314,54.7812915 47.7142458,54.7588928 47.4390573,54.7268941 C47.1638689,54.6948955 46.8822849,54.6564977 46.594297,54.6116995 C46.306309,54.5669014 46.0279248,54.5189042 45.7591361,54.4677063 C45.4903474,54.4165084 45.2407616,54.3525121 45.0103712,54.2757153 L49.9061417,44.5225725 L45.2215613,44.5225725 C45.1703634,44.0489923 45.1351654,43.5690196 45.1159662,43.08264 C45.0967671,42.5962604 45.0871676,42.1226873 45.0871676,41.6619066 L53.4387761,41.6619066 L53.4387761,44.2153869 Z M63.2687153,48.1128042 C63.2687153,49.3415527 63.1631213,50.3814936 62.9519302,51.232658 C62.740739,52.0838223 62.4431559,52.774983 62.059172,53.3061608 C61.6751881,53.8373385 61.2080147,54.2181168 60.6576377,54.4485072 C60.1072607,54.6788976 59.4864961,54.794091 58.795325,54.794091 C58.1425523,54.794091 57.5409866,54.7012963 56.9906096,54.515704 C56.4402326,54.3301118 55.9666596,53.9877313 55.5698762,53.4885522 C55.1730928,52.9893731 54.8659103,52.3078119 54.6483194,51.443848 C54.4307285,50.5798842 54.3219347,49.4695474 54.3219347,48.1128042 C54.3219347,46.8200583 54.4371281,45.7481193 54.6675185,44.896955 C54.8979089,44.0457906 55.211491,43.3642294 55.6082744,42.8522508 C56.0050578,42.3402722 56.4786308,41.9818926 57.0290078,41.7771012 C57.5793848,41.5723098 58.1681513,41.4699156 58.795325,41.4699156 C59.4736966,41.4699156 60.0880616,41.56911 60.6384386,41.7675016 C61.1888156,41.9658933 61.6591888,42.3146735 62.0495724,42.8138526 C62.4399561,43.3130317 62.740739,43.9913931 62.9519302,44.8489572 C63.1631213,45.7065213 63.2687153,46.7944594 63.2687153,48.1128042 L63.2687153,48.1128042 Z M59.9088728,48.1128042 C59.9088728,47.2424406 59.8864741,46.5480801 59.841676,46.0297019 C59.7968778,45.5113236 59.7264818,45.1177459 59.6304858,44.8489572 C59.5344899,44.5801685 59.4192964,44.4041785 59.284902,44.320982 C59.1505077,44.2377854 58.987317,44.1961878 58.795325,44.1961878 C58.6161325,44.1961878 58.4561416,44.2377854 58.3153475,44.320982 C58.1745534,44.4041785 58.0561601,44.5833683 57.9601641,44.8585567 C57.8641682,45.1337452 57.7937722,45.5273228 57.7489741,46.0393014 C57.7041759,46.55128 57.6817772,47.2424406 57.6817772,48.1128042 C57.6817772,48.9319699 57.6977763,49.6007319 57.7297749,50.1191101 C57.7617736,50.6374884 57.8193703,51.0406655 57.9025668,51.3286535 C57.9857634,51.6166414 58.1009568,51.8118303 58.2481506,51.914226 C58.3953445,52.0166217 58.5777341,52.0678188 58.795325,52.0678188 C59.0129159,52.0678188 59.1921057,52.0102221 59.3328998,51.8950269 C59.4736939,51.7798317 59.5856875,51.5750434 59.6688841,51.2806557 C59.7520806,50.986268 59.8128771,50.583091 59.8512755,50.0711124 C59.8896739,49.5591338 59.9088728,48.906371 59.9088728,48.1128042 L59.9088728,48.1128042 Z M70.6795679,45.1369437 C70.6795679,46.3144944 70.3819848,47.2136432 69.7868098,47.8344173 C69.1916347,48.4551913 68.3884804,48.7655736 67.3773227,48.7655736 C66.8909431,48.7655736 66.4429685,48.6983774 66.0333857,48.5639831 C65.6238029,48.4295887 65.2686231,48.2184007 64.9678356,47.9304128 C64.6670482,47.6424248 64.4334615,47.2680461 64.2670685,46.8072654 C64.1006755,46.3464847 64.0174802,45.7897164 64.0174802,45.1369437 C64.0174802,44.484171 64.1038753,43.9242029 64.276668,43.4570224 C64.4494608,42.989842 64.6894472,42.6090637 64.9966343,42.314676 C65.3038214,42.0202883 65.6622011,41.8059005 66.0717839,41.6715061 C66.4813667,41.5371118 66.916542,41.4699156 67.3773227,41.4699156 C68.3756809,41.4699156 69.1756354,41.7578992 69.7772102,42.3338751 C70.378785,42.909851 70.6795679,43.8441978 70.6795679,45.1369437 L70.6795679,45.1369437 Z M68.0300921,45.1369437 C68.0300921,44.484171 67.9884945,44.0329967 67.905298,43.7834072 C67.8221014,43.5338176 67.6461114,43.4090247 67.3773227,43.4090247 C67.2493281,43.4090247 67.1373344,43.4314234 67.0413384,43.4762215 C66.9453425,43.5210197 66.8717467,43.6074148 66.8205488,43.7354094 C66.7693509,43.863404 66.7309531,44.039394 66.7053542,44.2633846 C66.6797553,44.4873753 66.666956,44.7785587 66.666956,45.1369437 C66.666956,45.4825292 66.6797553,45.767313 66.7053542,45.9913036 C66.7309531,46.2152943 66.7693509,46.3880844 66.8205488,46.5096793 C66.8717467,46.6312743 66.9453425,46.7144695 67.0413384,46.7592676 C67.1373344,46.8040658 67.2493281,46.8264645 67.3773227,46.8264645 C67.6461114,46.8264645 67.8221014,46.7112711 67.905298,46.4808807 C67.9884945,46.2504903 68.0300921,45.8025158 68.0300921,45.1369437 L68.0300921,45.1369437 Z M69.7004138,54.8324892 C69.4060261,54.7812913 69.1308418,54.7108953 68.8748525,54.6212991 C68.6188632,54.5317029 68.3436789,54.4293087 68.0492912,54.3141135 L73.1178536,41.4699156 C73.3994418,41.4699156 73.7002247,41.4955141 74.0202113,41.546712 C74.3401979,41.5979099 74.6345812,41.6555066 74.9033699,41.7195039 L69.7004138,54.8324892 Z M78.8391854,51.1654611 C78.8391854,52.3430118 78.5416023,53.2421606 77.9464272,53.8629346 C77.3512522,54.4837087 76.5480979,54.794091 75.5369402,54.794091 C75.0505606,54.794091 74.602586,54.7268948 74.1930032,54.5925005 C73.7834204,54.4581061 73.4282406,54.2469181 73.1274532,53.9589302 C72.8266657,53.6709422 72.593079,53.2965635 72.426686,52.8357828 C72.260293,52.3750021 72.1770977,51.8182338 72.1770977,51.1654611 C72.1770977,50.5126884 72.2634928,49.9527203 72.4362856,49.4855399 C72.6090783,49.0183594 72.8490647,48.6375811 73.1562518,48.3431934 C73.4634389,48.0488057 73.8218186,47.8344179 74.2314014,47.7000235 C74.6409842,47.5656292 75.0761595,47.498433 75.5369402,47.498433 C76.5352984,47.498433 77.3352529,47.7864166 77.9368277,48.3623925 C78.5384025,48.9383684 78.8391854,49.8727152 78.8391854,51.1654611 L78.8391854,51.1654611 Z M76.1897096,51.1654611 C76.1897096,50.5126884 76.148112,50.0615141 76.0649155,49.8119246 C75.9817189,49.562335 75.8057289,49.4375421 75.5369402,49.4375421 C75.4089456,49.4375421 75.2969519,49.4599408 75.200956,49.504739 C75.10496,49.5495371 75.0313642,49.6359322 74.9801663,49.7639268 C74.9289684,49.8919214 74.8905706,50.0679114 74.8649717,50.2919021 C74.8393728,50.5158927 74.8265735,50.8070761 74.8265735,51.1654611 C74.8265735,51.5110466 74.8393728,51.7958304 74.8649717,52.0198211 C74.8905706,52.2438117 74.9289684,52.4166018 74.9801663,52.5381967 C75.0313642,52.6597917 75.10496,52.7429869 75.200956,52.787785 C75.2969519,52.8325832 75.4089456,52.8549819 75.5369402,52.8549819 C75.8057289,52.8549819 75.9817189,52.7397885 76.0649155,52.5093981 C76.148112,52.2790077 76.1897096,51.8310332 76.1897096,51.1654611 L76.1897096,51.1654611 Z" id="70%" fill="#000000"></path>
            <path d="M53.419577,95.4884791 C53.419577,96.1924496 53.2755852,96.7972152 52.9875973,97.3027941 C52.6996093,97.8083729 52.318831,98.2243492 51.8452508,98.5507355 C51.3716706,98.8771219 50.8341012,99.1171082 50.2325264,99.2707018 C49.6309516,99.4242954 49.0165865,99.501091 48.3894128,99.501091 C48.146223,99.501091 47.8742385,99.4882917 47.5734511,99.4626928 C47.2726636,99.4370939 46.9686809,99.3986961 46.6614938,99.3474982 C46.3543067,99.2963003 46.0567236,99.232304 45.7687357,99.1555072 C45.4807477,99.0787104 45.2151628,98.9891155 44.971973,98.8867198 C45.0359703,98.4003402 45.112766,97.9171676 45.2023622,97.4371877 C45.2919584,96.9572079 45.4135515,96.4612361 45.5671451,95.9492575 C46.0023269,96.1668484 46.4854994,96.3332389 47.0166771,96.4484341 C47.5478549,96.5636293 48.0182282,96.621226 48.427811,96.621226 C48.9269901,96.621226 49.2917693,96.5188318 49.5221597,96.3140404 C49.7525501,96.109249 49.8677435,95.7828675 49.8677435,95.3348863 C49.8677435,95.0660976 49.8325455,94.8453101 49.7621484,94.6725173 C49.6917514,94.4997246 49.5893572,94.3653322 49.4549629,94.2693363 C49.3205685,94.1733403 49.1605776,94.1093439 48.9749853,94.0773453 C48.7893931,94.0453466 48.5878046,94.0293475 48.3702137,94.0293475 L46.2775118,94.0293475 L46.2775118,91.1878807 L48.1782227,91.1878807 C48.7413991,91.1878807 49.1157778,91.095086 49.3013701,90.9094937 C49.4869623,90.7239015 49.579757,90.4327181 49.579757,90.0359347 C49.579757,89.383162 49.1317825,89.0567806 48.23582,89.0567806 C47.877435,89.0567806 47.4806576,89.0983782 47.0454758,89.1815747 C46.610294,89.2647713 46.1687191,89.3959638 45.7207379,89.5751563 C45.6183422,89.1015761 45.5319471,88.6152038 45.46155,88.1160247 C45.391153,87.6168456 45.3431557,87.1368729 45.3175568,86.6760922 C45.9447305,86.4841002 46.5398967,86.3529077 47.1030731,86.2825107 C47.6662495,86.2121136 48.2166182,86.1769156 48.7541957,86.1769156 C49.3301716,86.1769156 49.8741406,86.2377121 50.3861192,86.359307 C50.8980978,86.480902 51.3492721,86.6792907 51.7396557,86.9544791 C52.1300394,87.2296676 52.4404217,87.5816476 52.6708121,88.0104296 C52.9012025,88.4392117 53.0163959,88.960782 53.0163959,89.5751563 C53.0163959,90.2407284 52.8500054,90.810296 52.5172193,91.2838762 C52.1844332,91.7574564 51.7364587,92.1414345 51.1732823,92.4358222 C51.8644534,92.6918115 52.4116222,93.0725898 52.8148054,93.5781687 C53.2179885,94.0837475 53.419577,94.7205113 53.419577,95.4884791 L53.419577,95.4884791 Z M63.2687153,92.8198042 C63.2687153,94.0485527 63.1631213,95.0884936 62.9519302,95.9396579 C62.740739,96.7908223 62.4431559,97.481983 62.059172,98.0131607 C61.6751881,98.5443385 61.2080147,98.9251168 60.6576377,99.1555072 C60.1072607,99.3858976 59.4864961,99.501091 58.795325,99.501091 C58.1425523,99.501091 57.5409866,99.4082963 56.9906096,99.2227041 C56.4402326,99.0371118 55.9666596,98.6947313 55.5698762,98.1955522 C55.1730928,97.6963731 54.8659103,97.0148119 54.6483194,96.1508481 C54.4307285,95.2868842 54.3219347,94.1765474 54.3219347,92.8198042 C54.3219347,91.5270583 54.4371281,90.4551193 54.6675185,89.603955 C54.8979089,88.7527906 55.211491,88.0712294 55.6082744,87.5592508 C56.0050578,87.0472722 56.4786308,86.6888926 57.0290078,86.4841012 C57.5793848,86.2793098 58.1681513,86.1769156 58.795325,86.1769156 C59.4736966,86.1769156 60.0880616,86.27611 60.6384386,86.4745017 C61.1888156,86.6728933 61.6591888,87.0216735 62.0495724,87.5208526 C62.4399561,88.0200317 62.740739,88.6983931 62.9519302,89.5559572 C63.1631213,90.4135213 63.2687153,91.5014594 63.2687153,92.8198042 L63.2687153,92.8198042 Z M59.9088728,92.8198042 C59.9088728,91.9494406 59.8864741,91.2550801 59.841676,90.7367019 C59.7968778,90.2183236 59.7264818,89.8247459 59.6304858,89.5559572 C59.5344899,89.2871685 59.4192964,89.1111785 59.284902,89.0279819 C59.1505077,88.9447854 58.987317,88.9031878 58.795325,88.9031878 C58.6161325,88.9031878 58.4561416,88.9447854 58.3153475,89.0279819 C58.1745534,89.1111785 58.0561601,89.2903683 57.9601641,89.5655567 C57.8641682,89.8407452 57.7937722,90.2343228 57.7489741,90.7463014 C57.7041759,91.25828 57.6817772,91.9494406 57.6817772,92.8198042 C57.6817772,93.6389699 57.6977763,94.3077319 57.7297749,94.8261102 C57.7617736,95.3444884 57.8193703,95.7476655 57.9025668,96.0356534 C57.9857634,96.3236414 58.1009568,96.5188303 58.2481506,96.621226 C58.3953445,96.7236217 58.5777341,96.7748188 58.795325,96.7748188 C59.0129159,96.7748188 59.1921057,96.7172221 59.3328998,96.6020269 C59.4736939,96.4868317 59.5856875,96.2820434 59.6688841,95.9876557 C59.7520806,95.693268 59.8128771,95.290091 59.8512755,94.7781124 C59.8896739,94.2661338 59.9088728,93.613371 59.9088728,92.8198042 L59.9088728,92.8198042 Z M70.6795679,89.8439437 C70.6795679,91.0214944 70.3819848,91.9206432 69.7868098,92.5414172 C69.1916347,93.1621913 68.3884804,93.4725736 67.3773227,93.4725736 C66.8909431,93.4725736 66.4429685,93.4053774 66.0333857,93.270983 C65.6238029,93.1365887 65.2686231,92.9254007 64.9678356,92.6374127 C64.6670482,92.3494248 64.4334615,91.9750461 64.2670685,91.5142654 C64.1006755,91.0534847 64.0174802,90.4967164 64.0174802,89.8439437 C64.0174802,89.191171 64.1038753,88.6312029 64.276668,88.1640225 C64.4494608,87.696842 64.6894472,87.3160637 64.9966343,87.021676 C65.3038214,86.7272883 65.6622011,86.5129005 66.0717839,86.3785061 C66.4813667,86.2441118 66.916542,86.1769156 67.3773227,86.1769156 C68.3756809,86.1769156 69.1756354,86.4648992 69.7772102,87.0408751 C70.378785,87.616851 70.6795679,88.5511978 70.6795679,89.8439437 L70.6795679,89.8439437 Z M68.0300921,89.8439437 C68.0300921,89.191171 67.9884945,88.7399967 67.905298,88.4904072 C67.8221014,88.2408176 67.6461114,88.1160247 67.3773227,88.1160247 C67.2493281,88.1160247 67.1373344,88.1384234 67.0413384,88.1832215 C66.9453425,88.2280197 66.8717467,88.3144148 66.8205488,88.4424094 C66.7693509,88.570404 66.7309531,88.746394 66.7053542,88.9703846 C66.6797553,89.1943753 66.666956,89.4855587 66.666956,89.8439437 C66.666956,90.1895292 66.6797553,90.474313 66.7053542,90.6983036 C66.7309531,90.9222943 66.7693509,91.0950844 66.8205488,91.2166794 C66.8717467,91.3382743 66.9453425,91.4214695 67.0413384,91.4662677 C67.1373344,91.5110658 67.2493281,91.5334645 67.3773227,91.5334645 C67.6461114,91.5334645 67.8221014,91.4182711 67.905298,91.1878807 C67.9884945,90.9574903 68.0300921,90.5095158 68.0300921,89.8439437 L68.0300921,89.8439437 Z M69.7004138,99.5394892 C69.4060261,99.4882913 69.1308418,99.4178953 68.8748525,99.3282991 C68.6188632,99.2387029 68.3436789,99.1363087 68.0492912,99.0211135 L73.1178536,86.1769156 C73.3994418,86.1769156 73.7002247,86.2025141 74.0202113,86.253712 C74.3401979,86.3049099 74.6345812,86.3625066 74.9033699,86.4265039 L69.7004138,99.5394892 Z M78.8391854,95.8724611 C78.8391854,97.0500118 78.5416023,97.9491606 77.9464272,98.5699346 C77.3512522,99.1907087 76.5480979,99.501091 75.5369402,99.501091 C75.0505606,99.501091 74.602586,99.4338948 74.1930032,99.2995004 C73.7834204,99.1651061 73.4282406,98.9539181 73.1274532,98.6659302 C72.8266657,98.3779422 72.593079,98.0035635 72.426686,97.5427828 C72.260293,97.0820021 72.1770977,96.5252338 72.1770977,95.8724611 C72.1770977,95.2196884 72.2634928,94.6597203 72.4362856,94.1925399 C72.6090783,93.7253594 72.8490647,93.3445811 73.1562518,93.0501934 C73.4634389,92.7558057 73.8218186,92.5414179 74.2314014,92.4070236 C74.6409842,92.2726292 75.0761595,92.205433 75.5369402,92.205433 C76.5352984,92.205433 77.3352529,92.4934166 77.9368277,93.0693925 C78.5384025,93.6453684 78.8391854,94.5797152 78.8391854,95.8724611 L78.8391854,95.8724611 Z M76.1897096,95.8724611 C76.1897096,95.2196884 76.148112,94.7685141 76.0649155,94.5189246 C75.9817189,94.269335 75.8057289,94.1445421 75.5369402,94.1445421 C75.4089456,94.1445421 75.2969519,94.1669408 75.200956,94.2117389 C75.10496,94.2565371 75.0313642,94.3429322 74.9801663,94.4709268 C74.9289684,94.5989214 74.8905706,94.7749114 74.8649717,94.998902 C74.8393728,95.2228927 74.8265735,95.5140761 74.8265735,95.8724611 C74.8265735,96.2180466 74.8393728,96.5028304 74.8649717,96.726821 C74.8905706,96.9508117 74.9289684,97.1236018 74.9801663,97.2451968 C75.0313642,97.3667917 75.10496,97.4499869 75.200956,97.4947851 C75.2969519,97.5395832 75.4089456,97.5619819 75.5369402,97.5619819 C75.8057289,97.5619819 75.9817189,97.4467885 76.0649155,97.2163981 C76.148112,96.9860077 76.1897096,96.5380332 76.1897096,95.8724611 L76.1897096,95.8724611 Z" id="30%" fill="#000000"></path>
        </g>
    </g>
</svg>