<?xml version="1.0" encoding="UTF-8"?>
<svg width="97px" height="177px" viewBox="0 0 97 177" version="1.1" xmlns="http://www.w3.org/2000/svg" xmlns:xlink="http://www.w3.org/1999/xlink">
    <!-- Generator: Sketch 41.2 (35397) - http://www.bohemiancoding.com/sketch -->
    <title>Page 1</title>
    <desc>Created with Sketch.</desc>
    <defs>
        <polygon id="path-1" points="68.256 39.4686 68.256 0.804119948 0.4185 0.804119948 0.4185 39.4686 68.256 39.4686"></polygon>
        <polygon id="path-3" points="0 176.894 96.256 176.894 96.256 0 0 0"></polygon>
    </defs>
    <g id="Page-1" stroke="none" stroke-width="1" fill="none" fill-rule="evenodd">
        <g>
            <g id="Group-3" transform="translate(28.000000, 21.894000)">
                <mask id="mask-2" fill="white">
                    <use xlink:href="#path-1"></use>
                </mask>
                <g id="Clip-2"></g>
                <path d="M15.2575,7.0666 C20.6235,0.1786 30.4745,-1.2994 37.4165,3.9946 L46.0285,10.5566 C48.6505,12.5536 52.4705,12.0736 54.4575,9.4446 C57.7445,5.1016 63.9295,4.2576 68.2565,7.5556 L68.2565,17.7596 L68.2565,17.8726 C68.2285,23.5876 63.4665,28.1546 57.7505,28.1546 L54.5585,28.1546 L54.5585,31.4426 C54.5585,35.8486 50.9525,39.4616 46.5475,39.4686 C45.4395,30.8356 37.5415,24.7336 28.9075,25.8406 L18.1695,27.2196 C14.9005,27.6396 11.8325,25.3116 11.4245,22.0426 C10.8185,17.1646 6.7365,13.5746 1.9785,13.4306 C1.1075,13.4046 0.4185,12.6806 0.4185,11.8076 C0.4185,10.6226 1.6325,9.8666 2.7245,10.3286 C7.0585,12.1646 12.2395,10.9406 15.2575,7.0666" id="Fill-1" fill="#DEC22C" mask="url(#mask-2)"></path>
            </g>
            <path d="M29.9772,35.3249 C29.1072,35.2989 28.4182,34.5749 28.4182,33.7029 C28.4182,32.5159 29.6322,31.7599 30.7242,32.2219 C35.0582,34.0569 40.2402,32.8359 43.2572,28.9609 C43.5362,28.6049 43.8322,28.2729 44.1302,27.9459 L65.0532,48.8669 C62.5662,47.8119 59.7802,47.3669 56.9082,47.7359 L46.1692,49.1139 C42.9002,49.5339 39.8352,47.2069 39.4232,43.9349 C38.8172,39.0569 34.7362,35.4679 29.9772,35.3249" id="Fill-4" fill="#F1A746"></path>
            <path d="M42.6696,176.338 L35.5386,176.338 M32.5216,176.338 L13.0716,176.338 M54.2416,170.27 L45.7026,170.27 M43.9466,170.27 L1.6716,170.27 M50.7766,173.194 L27.3686,173.194 L24.3296,173.194 L17.3276,173.194 M15.6466,173.194 L5.4266,173.194" id="Stroke-6" stroke="#10121F" stroke-width="1.112" stroke-linecap="round"></path>
            <g id="Group-10" transform="translate(0.000000, 38.894000)" fill="#1C3241">
                <path d="M6.0602,4.7502 C6.3732,4.9292 6.7692,4.8232 6.9522,4.5172 C7.1292,4.2072 7.0252,3.8112 6.7162,3.6302 L0.9722,0.2652 C0.6652,0.0842 0.2672,0.1872 0.0862,0.4962 C-0.0898,0.8052 0.0112,1.2012 0.3202,1.3832 L6.0602,4.7502 Z" id="Fill-8"></path>
            </g>
            <path d="M3.6013,41.4108 L2.3553,42.8438 C1.9763,43.4608 1.7283,44.5648 1.9623,45.2498 L2.5923,46.7938 C2.8263,47.4798 2.9163,51.1398 2.9163,51.1398 L6.3493,50.9638 C6.3493,50.9638 6.7753,49.6428 7.3633,47.5498 C7.5583,46.8538 8.8633,45.1808 8.5823,43.8638 C8.4633,43.2908 8.0443,43.3088 7.4433,42.7258 C7.3343,41.1408 5.3513,39.3478 3.6013,41.4108" id="Fill-11" fill="#EEA080"></path>
            <path d="M7.6804,52.0622 C8.3554,59.5702 15.8334,66.9622 17.4174,61.1592 C19.2394,54.5562 17.1914,45.6142 16.3804,37.1732 C16.1564,35.1412 17.5164,33.2892 19.1654,33.3652 C20.8484,33.4362 22.1804,34.7502 22.3774,36.5852 C22.9664,44.9072 25.6564,53.1372 23.0924,63.1952 C22.3884,65.7282 19.5314,68.9212 16.2014,69.1382 C12.9064,69.6052 9.6594,67.9142 8.0234,66.0562 C4.2794,62.3182 2.5734,57.7262 1.7344,53.0832 L7.6804,52.0622 Z" id="Fill-13" fill="#10121F"></path>
            <path d="M1.2643,48.5788 L7.2923,47.8948 C7.4553,49.2838 7.3283,50.7058 7.6803,52.0618 L1.7343,53.0838 C1.3253,51.3678 1.4213,50.3248 1.2643,48.5788" id="Fill-15" fill="#E4E8E3"></path>
            <polygon id="Fill-17" fill="#10121F" points="26.6354 170.1857 28.6704 170.1857 30.3644 163.2407 26.5234 164.4147"></polygon>
            <path d="M22.2849,169.0998 L28.8379,165.2458 C30.4509,164.2778 30.9739,162.1838 30.0079,160.5688 C29.0389,158.9568 26.9429,158.4318 25.3299,159.4028 L12.3109,167.1388 C14.6149,170.2268 18.9199,171.1248 22.2849,169.0998" id="Fill-19" fill="#28272B"></path>
            <path d="M23.8649,164.547 L27.4099,162.461 C28.2849,161.936 28.5699,160.805 28.0439,159.926 C27.5189,159.055 26.3849,158.772 25.5129,159.297 L18.4629,163.485 C19.7089,165.154 22.0429,165.643 23.8649,164.547" id="Fill-21" fill="#EEA080"></path>
            <polygon id="Fill-23" fill="#EEA080" points="21.9001 92.2912 21.9001 164.4302 27.0871 160.0492 27.0871 92.2912"></polygon>
            <mask id="mask-4" fill="white">
                <use xlink:href="#path-3"></use>
            </mask>
            <g id="Clip-26"></g>
            <polygon id="Fill-25" fill="#EB9079" mask="url(#mask-4)" points="21.901 120.348 27.092 120.348 27.092 92.293 21.901 92.293"></polygon>
            <polygon id="Fill-27" fill="#10121F" mask="url(#mask-4)" points="41.947 170.1857 43.978 170.1857 45.673 163.2407 41.83 164.4147"></polygon>
            <path d="M37.5993,169.0998 L44.1463,165.2458 C45.7613,164.2778 46.2853,162.1838 45.3143,160.5688 C44.3453,158.9568 42.2543,158.4318 40.6383,159.4028 L27.6243,167.1388 C29.9223,170.2268 34.2263,171.1248 37.5993,169.0998" id="Fill-28" fill="#28272B" mask="url(#mask-4)"></path>
            <path d="M39.1735,164.547 L42.7215,162.461 C43.5955,161.936 43.8765,160.805 43.3505,159.926 C42.8255,159.055 41.6935,158.772 40.8215,159.297 L33.7735,163.485 C35.0175,165.154 37.3495,165.643 39.1735,164.547" id="Fill-29" fill="#EEA080" mask="url(#mask-4)"></path>
            <polygon id="Fill-30" fill="#EEA080" mask="url(#mask-4)" points="37.2126 92.2912 37.2126 164.4302 42.3996 160.0492 42.3996 92.2912"></polygon>
            <polygon id="Fill-31" fill="#EB9079" mask="url(#mask-4)" points="37.214 120.348 42.401 120.348 42.401 92.293 37.214 92.293"></polygon>
            <path d="M39.2263,32.3043 C42.6383,32.6733 45.9783,33.2933 49.2243,34.1933 L43.8903,70.0223 L21.0833,70.0223 L17.8573,48.2133 L19.1663,33.3653 C21.3943,32.8753 23.6603,32.4973 25.9623,32.2553 L39.2263,32.3043 Z" id="Fill-32" fill="#28272B" mask="url(#mask-4)"></path>
            <polygon id="Fill-33" fill="#28272B" mask="url(#mask-4)" points="19.0231 115.0412 46.4551 115.0412 48.4231 74.8462 17.0521 74.8462"></polygon>
            <path d="M32.3806,59.2965 L33.5156,59.2965 C42.8866,59.2965 50.4846,66.8925 50.4846,76.2635 L50.4846,87.8205 L15.4176,87.8205 L15.4176,76.2635 C15.4176,66.8925 23.0156,59.2965 32.3806,59.2965" id="Fill-34" fill="#28272B" mask="url(#mask-4)"></path>
            <polygon id="Fill-35" fill="#10121F" mask="url(#mask-4)" points="39.2263 32.3043 40.5193 39.4683 28.1813 53.7153 22.4273 39.4683 25.9623 32.2553"></polygon>
            <polygon id="Fill-36" fill="#10121F" mask="url(#mask-4)" points="17.8981 91.5802 17.7081 87.8182 47.7691 87.8182 47.5821 91.5802"></polygon>
            <polygon id="Fill-37" fill="#10121F" mask="url(#mask-4)" points="33.5397 93.4943 38.8967 93.4943 33.5397 76.1623"></polygon>
            <polygon id="Fill-38" fill="#DEC22C" mask="url(#mask-4)" points="35.9284 38.6706 28.1814 53.7156 26.6594 38.9756"></polygon>
            <path d="M25.9626,32.2213 C28.0606,32.0253 30.1776,31.9163 32.3196,31.9163 C34.6566,31.9163 36.9576,32.0383 39.2266,32.2673 L35.9296,38.6703 L29.9586,40.9533 L26.6606,38.9753 L25.9626,32.2213 Z" id="Fill-39" fill="#EEA080" mask="url(#mask-4)"></path>
            <path d="M35.9938,19.7018 C35.9938,22.5868 38.3348,24.9248 41.2228,24.9248 C44.1008,24.9248 46.4388,22.5868 46.4388,19.7018 C46.4388,16.8168 44.1008,14.4798 41.2228,14.4798 C38.3348,14.4798 35.9938,16.8168 35.9938,19.7018" id="Fill-40" fill="#10121F" mask="url(#mask-4)"></path>
            <path d="M32.2302,21.3971 C30.6272,21.5081 29.4232,22.9001 29.5432,24.5041 L30.2412,34.2051 C30.3592,35.8091 31.7522,37.0111 33.3512,36.8961 C34.9552,36.7821 36.1552,35.3901 36.0392,33.7881 L35.3392,24.0831 C35.2222,22.4841 33.8342,21.2791 32.2302,21.3971" id="Fill-41" fill="#EEA080" mask="url(#mask-4)"></path>
            <path d="M39.9372,9.7047 C39.9312,7.9607 39.4862,6.3167 38.6982,4.8857 L38.6902,4.8857 L36.1752,4.8937 L36.1752,4.8957 L25.3782,4.9337 L21.3892,4.9507 C20.6992,6.3847 20.3262,8.0287 20.3332,9.7747 L20.3622,19.6977 C20.3802,29.4117 29.6692,27.7427 29.6692,27.7427 L29.6692,27.7387 C29.7442,27.7397 29.8142,27.7407 29.8902,27.7437 C35.4762,27.7227 39.9852,23.1797 39.9662,17.5937 L39.9372,9.7047 Z" id="Fill-42" fill="#EEA080" mask="url(#mask-4)"></path>
            <path d="M30.195,21.7125 C29.933,23.2395 28.609,24.4005 27.007,24.3915 C25.408,24.3815 24.095,23.2075 23.851,21.6775 L30.195,21.7125 Z" id="Fill-43" fill="#F7F6F4" mask="url(#mask-4)"></path>
            <path d="M26.8181,4.9704 C24.3201,6.2764 21.1461,9.8344 20.3221,12.5874 C18.5681,10.9214 18.6051,8.0194 19.2031,5.8684 C19.8101,3.6924 21.3961,2.7394 23.4391,1.9704 C24.5741,1.5414 25.7341,1.3034 26.9411,1.2164 L26.8181,4.9704 Z" id="Fill-44" fill="#10121F" mask="url(#mask-4)"></path>
            <path d="M38.8669,15.7926 C32.8029,14.4306 27.1879,10.7306 24.3649,5.5406 C23.7829,4.4786 23.1719,3.4616 22.6209,2.3826 C26.6989,0.7376 30.8749,-0.5944 35.3279,0.2726 C40.2199,1.2276 43.9349,5.3366 44.0209,10.3856 C44.0449,11.6456 43.4429,13.9296 42.7339,16.1046 L38.8669,15.7926 Z" id="Fill-45" fill="#28272B" mask="url(#mask-4)"></path>
            <path d="M40.9909,14.1061 C42.5519,14.1011 43.8199,15.3601 43.8239,16.9201 C43.8319,18.4771 42.5729,19.7451 41.0139,19.7491 L36.4239,19.7651 L36.5719,14.1241 L40.9909,14.1061 Z" id="Fill-46" fill="#EEA080" mask="url(#mask-4)"></path>
            <path d="M38.8747,19.8844 C38.8727,20.4744 39.3517,20.9544 39.9367,20.9564 C40.5287,20.9604 41.0097,20.4844 41.0137,19.8944 C41.0157,19.3064 40.5387,18.8244 39.9517,18.8224 C39.3587,18.8194 38.8767,19.2924 38.8747,19.8844" id="Fill-47" fill="#F4E5E1" mask="url(#mask-4)"></path>
            <path d="M41.0095,12.9157 L41.0135,13.9787 C39.4295,14.2127 38.0325,14.5877 38.1135,17.8247 C37.1545,17.8307 36.3725,17.0507 36.3705,16.0887 L36.3655,14.8297 C36.2205,14.0157 35.7145,13.3197 35.0295,12.9157 L41.0095,12.9157 Z" id="Fill-48" fill="#28272B" mask="url(#mask-4)"></path>
            <path d="M27.9597,56.0915 C27.9597,55.5485 28.3957,55.1095 28.9417,55.1095 C29.4827,55.1095 29.9237,55.5485 29.9237,56.0915 C29.9237,56.6335 29.4827,57.0735 28.9417,57.0735 C28.3957,57.0735 27.9597,56.6335 27.9597,56.0915" id="Fill-49" fill="#10121F" mask="url(#mask-4)"></path>
            <path d="M27.9597,65.2272 C27.9597,64.6842 28.3957,64.2452 28.9417,64.2452 C29.4827,64.2452 29.9237,64.6842 29.9237,65.2272 C29.9237,65.7712 29.4827,66.2112 28.9417,66.2112 C28.3957,66.2112 27.9597,65.7712 27.9597,65.2272" id="Fill-50" fill="#10121F" mask="url(#mask-4)"></path>
            <path d="M38.4597,68.4499 C38.0077,70.3849 39.2077,72.3179 41.1457,72.7709 L44.1057,73.4639 C46.0367,73.9129 47.9727,72.7139 48.4237,70.7799 L38.4597,68.4499 Z" id="Fill-51" fill="#10121F" mask="url(#mask-4)"></path>
            <polygon id="Fill-52" fill="#B5B7B5" mask="url(#mask-4)" points="15.402 74.4303 39.246 74.5413 34.774 45.3393 10.935 45.2273"></polygon>
            <polygon id="Fill-53" fill="#CDCDCA" mask="url(#mask-4)" points="15.402 74.487 38.263 74.542 33.791 45.339 10.935 45.282"></polygon>
            <path d="M13.1227,60.1325 C12.7557,60.7545 12.7497,61.7815 13.1097,62.4095 L14.0167,63.9905 C14.3727,64.6195 15.2537,65.2335 15.9687,65.3545 L17.3507,65.5885 C18.0627,65.7085 21.5817,67.4325 21.5817,67.4325 L23.0597,64.3265 C23.0597,64.3265 22.0957,63.3245 20.5317,61.8135 C20.0157,61.3105 19.1717,60.6485 18.4607,60.5265 L18.1757,60.4745 C17.4647,60.3505 16.3637,59.9555 15.7347,59.6005 L15.1567,59.2765 C14.5277,58.9195 13.7087,59.1385 13.3377,59.7605 L13.1227,60.1325 Z" id="Fill-54" fill="#EEA080" mask="url(#mask-4)"></path>
            <path d="M25.1735,63.5954 C32.2045,66.5314 42.5215,67.1244 45.7355,61.8334 C49.0195,55.8684 47.0195,46.4834 45.3615,38.2424 C44.9535,36.2834 45.9465,34.3724 47.5765,34.0604 C49.2185,33.7474 50.8495,35.0344 51.2675,37.0164 C52.6425,45.5774 55.8825,54.8924 50.8685,64.9974 C47.8745,70.2174 41.5935,71.7094 37.0435,71.8194 C32.0935,72.0244 27.3555,70.9044 22.9615,69.2044 L25.1735,63.5954 Z" id="Fill-55" fill="#28272B" mask="url(#mask-4)"></path>
            <path d="M18.0993,66.8961 L21.2033,61.7281 C22.3313,62.3761 23.8043,63.0561 25.1733,63.5951 L22.9623,69.2051 C21.3043,68.5371 19.7983,67.8751 18.0993,66.8961" id="Fill-56" fill="#E4E8E3" mask="url(#mask-4)"></path>
            <path d="M8.5192,45.0045 C8.8312,45.1885 9.2262,45.0805 9.4042,44.7745 C9.5872,44.4635 9.4842,44.0675 9.1742,43.8875 L7.5192,42.9785 C7.2102,42.7955 6.8162,42.8995 6.6322,43.2085 C6.4562,43.5185 6.5592,43.9155 6.8652,44.0965 L8.5192,45.0045 Z" id="Fill-57" fill="#1C3241" mask="url(#mask-4)"></path>
            <path d="M18.9851,45.359 C18.9851,46.317 19.7611,47.092 20.7181,47.092 L25.0621,47.092 C26.0191,47.092 26.7971,46.317 26.7971,45.359 L26.7971,44.852 C26.7971,43.892 26.0191,43.117 25.0621,43.117 L20.7181,43.117 C19.7611,43.117 18.9851,43.892 18.9851,44.852 L18.9851,45.359 Z" id="Fill-58" fill="#90B4B0" mask="url(#mask-4)"></path>
            <path d="M31.2956,15.7213 C31.2956,15.3063 30.9576,14.9703 30.5436,14.9703 C30.1286,14.9703 29.7906,15.3063 29.7906,15.7213 L31.2956,15.7213 Z" id="Fill-59" fill="#10121F" mask="url(#mask-4)"></path>
            <path d="M24.1833,15.7213 C24.1833,15.3063 23.8493,14.9703 23.4273,14.9703 C23.0153,14.9703 22.6773,15.3063 22.6773,15.7213 L24.1833,15.7213 Z" id="Fill-60" fill="#10121F" mask="url(#mask-4)"></path>
            <path d="M20.6452,34.2614 L19.2932,33.3614 C21.9472,32.6724 23.1692,32.4784 25.9762,32.2094 L26.6022,38.2884 L20.6452,34.2614 Z" id="Fill-61" fill="#DEC22C" mask="url(#mask-4)"></path>
            <path d="M39.1931,32.2555 C41.8261,32.5235 44.4791,32.9835 46.9681,33.6205 L35.9941,38.5545 L39.1931,32.2555 Z" id="Fill-62" fill="#DEC22C" mask="url(#mask-4)"></path>
        </g>
    </g>
</svg>