<?xml version="1.0" encoding="utf-8"?>
<!-- Generator: Adobe Illustrator 17.0.0, SVG Export Plug-In . SVG Version: 6.00 Build 0)  -->
<!DOCTYPE svg PUBLIC "-//W3C//DTD SVG 1.1//EN" "http://www.w3.org/Graphics/SVG/1.1/DTD/svg11.dtd">
<svg version="1.1" id="Camada_1" xmlns="http://www.w3.org/2000/svg" xmlns:xlink="http://www.w3.org/1999/xlink" x="0px" y="0px"
	 width="237px" height="238px" viewBox="0 0 237 238" enable-background="new 0 0 237 238" xml:space="preserve">
	<g id="Group" transform="translate(-3.000000, 0.000000)">
		<circle id="Oval" cx="120.48" cy="120" r="21.12"/>
		<path id="Shape" d="M146.88,68.16h-52.8c-7.68,0-14.4,2.4-18.72,6.72s-6.72,11.04-6.72,18.72v52.8c0,7.68,2.4,14.4,7.2,19.2
			c4.8,4.32,11.04,6.72,18.72,6.72h52.32c7.68,0,14.4-2.4,18.72-6.72c4.8-4.32,7.2-11.04,7.2-18.72v-52.8
			c0-7.68-2.4-13.92-6.72-18.72C161.28,70.56,155.04,68.16,146.88,68.16z M120.48,152.64c-18.24,0-32.64-14.88-32.64-32.64
			c0-18.24,14.88-32.64,32.64-32.64s33.12,14.4,33.12,32.64S138.72,152.64,120.48,152.64z M154.56,93.6c-4.32,0-7.68-3.36-7.68-7.68
			s3.36-7.68,7.68-7.68c4.32,0,7.68,3.36,7.68,7.68S158.88,93.6,154.56,93.6z"/>
		<path id="Shape_1_" d="M121.44,0.96C56.16,0.96,3.36,53.76,3.36,119.04s52.8,118.08,118.08,118.08s118.08-52.8,118.08-118.08
			C240,53.76,186.72,0.96,121.44,0.96z M184.32,146.88c0,11.04-3.84,20.64-10.56,27.36s-16.32,10.08-26.88,10.08H94.56
			c-10.56,0-20.16-3.36-26.88-10.08c-7.2-6.72-10.56-16.32-10.56-27.36v-52.8C57.12,72,72,56.64,94.56,56.64h52.8
			c11.04,0,20.16,3.84,26.88,10.56s10.08,15.84,10.08,26.88V146.88z"/>
	</g>
</svg>
