<?xml version="1.0" encoding="utf-8"?>
<!DOCTYPE svg PUBLIC "-//W3C//DTD SVG 1.1//EN" "http://www.w3.org/Graphics/SVG/1.1/DTD/svg11.dtd">
<svg width="250px" height="250px" viewBox="0 0 250 250" version="1.1" xmlns="http://www.w3.org/2000/svg" xmlns:xlink="http://www.w3.org/1999/xlink">
    <g id="Page-1" stroke="none" stroke-width="1" fill="none" fill-rule="evenodd">
        <path d="M125,250 C194.035597,250 250,194.035597 250,125 C250,55.9644029 194.035597,0 125,0 C55.9644029,0 0,55.9644029 0,125 C0,194.035597 55.9644029,250 125,250 Z M125.296923,191.587693 C113.378462,191.587693 102.181538,188.541538 92.44,183.195385 L54.8076925,195.153846 L67.0753846,158.966154 C60.8876925,148.801538 57.3230771,136.881538 57.3230771,124.14 C57.3230771,86.8892308 87.7553846,56.6923075 125.298462,56.6923075 C162.836923,56.6923075 193.269231,86.8892308 193.269231,124.14 C193.269231,161.390769 162.838462,191.587693 125.296923,191.587693 Z M125.296923,67.4338463 C93.7830771,67.4338463 68.1492308,92.8723075 68.1492308,124.14 C68.1492308,136.547693 72.1938463,148.038462 79.0338463,157.387693 L71.8953846,178.446154 L93.8553846,171.466154 C102.88,177.390769 113.689231,180.846154 125.296923,180.846154 C156.806154,180.846154 182.444615,155.409231 182.444615,124.141538 C182.444615,92.8738463 156.806154,67.4338463 125.296923,67.4338463 Z M159.62,139.673846 C159.201538,138.986154 158.090769,138.570769 156.427693,137.744615 C154.76,136.918462 146.566154,132.916923 145.041538,132.367693 C143.512308,131.816923 142.4,131.538462 141.290769,133.193846 C140.181538,134.849231 136.987693,138.570769 136.013846,139.673846 C135.041538,140.778462 134.070769,140.916923 132.404615,140.089231 C130.74,139.263077 125.370769,137.516923 119.004615,131.884615 C114.052308,127.503077 110.707693,122.093846 109.736923,120.436923 C108.764615,118.783077 109.633846,117.889231 110.467693,117.066154 C111.216923,116.324615 112.133846,115.135385 112.967693,114.170769 C113.801538,113.204615 114.078462,112.516923 114.632308,111.412308 C115.189231,110.309231 114.910769,109.344615 114.493846,108.515385 C114.076923,107.689231 110.743077,99.5538463 109.355385,96.2430771 C107.967693,92.9353846 106.581538,93.4861538 105.607693,93.4861538 C104.635385,93.4861538 103.524615,93.3476925 102.413846,93.3476925 C101.303077,93.3476925 99.4969229,93.7615383 97.9692308,95.4153846 C96.4430771,97.0707692 92.14,101.070769 92.14,109.204615 C92.14,117.34 98.1076925,125.2 98.9430771,126.301538 C99.7753846,127.403077 110.466154,144.64 127.403077,151.26 C144.346154,157.878462 144.346154,155.670769 147.401538,155.395385 C150.452308,155.12 157.255385,151.396923 158.647693,147.536923 C160.033846,143.673846 160.033846,140.363077 159.62,139.673846 Z" id="icon-whatsapp" fill="#FFFFFF"></path>
    </g>
</svg>