<?xml version="1.0" encoding="utf-8"?>
<!DOCTYPE svg PUBLIC "-//W3C//DTD SVG 1.1//EN" "http://www.w3.org/Graphics/SVG/1.1/DTD/svg11.dtd">
<svg version="1.1" id="Camada_1" xmlns="http://www.w3.org/2000/svg" xmlns:xlink="http://www.w3.org/1999/xlink" x="0px" y="0px"
	 width="100px" height="100px" viewBox="0 0 100 100" enable-background="new 0 0 100 100" xml:space="preserve">
  <path fill-rule="evenodd" clip-rule="evenodd" fill="#ffffff" d="M99.459,50c0-27.618-22.148-50.015-49.46-50.015
	C22.686-0.015,0.541,22.382,0.541,50c0,27.618,22.145,50.015,49.458,50.015C77.311,100.015,99.459,77.618,99.459,50z M17.767,52.252
	c-0.389-10.642,8.808-20.481,19.341-20.59c5.362-0.472,10.586,1.639,14.643,5.058c-1.666,1.861-3.362,3.693-5.167,5.416
	c-3.587-2.195-7.894-3.891-12.062-2.388c-6.724,1.943-10.808,9.975-8.335,16.641c2.084,6.977,10.449,10.781,17.005,7.864
	c3.392-1.224,5.639-4.391,6.612-7.807c-3.888-0.084-7.779-0.027-11.67-0.142c0-2.333-0.027-4.667,0-7.027
	c6.474,0,12.976-0.027,19.478,0.027c0.418,5.752-0.416,11.891-4.111,16.503c-5.056,6.589-14.396,8.504-21.979,5.921
	C23.465,69.06,17.601,60.838,17.767,52.252z M70.283,43.387h5.779l0.055,5.891l5.807,0.027v5.861l-5.807,0.03l-0.055,5.918h-5.779
	l-0.055-5.891l-5.807-0.058v-5.861l5.807-0.027L70.283,43.387z"/>
  <g></g>
  <g></g>
  <g></g>
  <g></g>
  <g></g>
  <g></g>
</svg>
