<?xml version="1.0" encoding="utf-8"?>
<!DOCTYPE svg PUBLIC "-//W3C//DTD SVG 1.1//EN" "http://www.w3.org/Graphics/SVG/1.1/DTD/svg11.dtd">
<svg version="1.1" id="Camada_1" xmlns="http://www.w3.org/2000/svg" xmlns:xlink="http://www.w3.org/1999/xlink" x="0px" y="0px"
	 width="100px" height="100px" viewBox="0 0 100 100" enable-background="new 0 0 100 100" xml:space="preserve">
  <path fill-rule="evenodd" clip-rule="evenodd" fill="#ffffff" d="M99.438,50C99.438,22.392,77.304,0.005,50,0.005
	C22.698,0.005,0.562,22.392,0.562,50c0,27.605,22.137,49.994,49.438,49.994C77.304,99.994,99.438,77.605,99.438,50z M62.415,51.973
	h-8.804v32.664H40.252V51.973h-6.36v-11.5h6.36V33.03c0-5.305,2.473-13.638,13.471-13.638l9.889,0.056v11.137h-7.166
	c-1.195,0-2.834,0.611-2.834,3.139v6.749h9.971L62.415,51.973z"/>
  <g></g>
  <g></g>
  <g></g>
  <g></g>
  <g></g>
  <g></g>
</svg>
