<?xml version="1.0" encoding="utf-8"?>
<!DOCTYPE svg PUBLIC "-//W3C//DTD SVG 1.1//EN" "http://www.w3.org/Graphics/SVG/1.1/DTD/svg11.dtd">
<svg version="1.1" id="Camada_1" xmlns="http://www.w3.org/2000/svg" xmlns:xlink="http://www.w3.org/1999/xlink" x="0px" y="0px"
	 width="100px" height="100px" viewBox="0 0 100 100" enable-background="new 0 0 100 100" xml:space="preserve">
  <path fill-rule="evenodd" clip-rule="evenodd" fill="#ffffff" d="M99.436,50c0-27.606-22.134-49.991-49.435-49.991
	S0.564,22.394,0.564,50c0,27.606,22.136,49.991,49.437,49.991S99.436,77.606,99.436,50z M80.274,35.947
	c-1.584,2.388-3.586,4.5-5.892,6.167l0.028,1.555c0,15.774-11.885,33.994-33.604,33.994c-6.667,0-12.886-1.973-18.106-5.36
	c0.915,0.11,1.86,0.166,2.804,0.166c5.554,0,10.637-1.916,14.692-5.11c-5.167-0.11-9.555-3.554-11.052-8.304
	c0.721,0.139,1.47,0.223,2.219,0.223c1.085,0,2.14-0.167,3.113-0.443c-5.389-1.084-9.472-5.917-9.472-11.693v-0.167
	c1.585,0.888,3.416,1.444,5.361,1.5c-3.168-2.139-5.25-5.806-5.25-9.943c0-2.194,0.556-4.25,1.583-5.999
	c5.832,7.221,14.554,11.97,24.358,12.471c-0.195-0.861-0.307-1.778-0.307-2.722c0-6.583,5.278-11.943,11.803-11.943
	c3.417,0,6.472,1.444,8.639,3.777c2.693-0.555,5.221-1.527,7.499-2.916c-0.89,2.806-2.75,5.138-5.197,6.61
	C75.886,37.529,78.162,36.891,80.274,35.947z"/>
  <g></g>
  <g></g>
  <g></g>
  <g></g>
  <g></g>
  <g></g>
</svg>
