<?xml version="1.0" encoding="UTF-8"?>
<svg xmlns="http://www.w3.org/2000/svg" version="1" viewBox="0 0 1792 1536"><path fill="#FFF" fill-rule="nonzero" d="M1408 928v320c0 79-28 147-84 204-57 56-125 84-204 84H288c-79 0-147-28-203-84-57-57-85-125-85-204V416c0-79 28-147 85-203 56-57 124-85 203-85h704c9 0 17 3 23 9s9 14 9 23v64c0 9-3 17-9 23s-14 9-23 9H288c-44 0-82 16-113 47s-47 69-47 113v832c0 44 16 82 47 113s69 47 113 47h832c44 0 82-16 113-47s47-69 47-113V928c0-9 3-17 9-23s14-9 23-9h64c9 0 17 3 23 9s9 14 9 23zm384-864v512c0 17-6 32-19 45a62 62 0 0 1-45 19c-17 0-32-6-45-19l-176-176-652 652a32 32 0 0 1-46 0L695 983a32 32 0 0 1 0-46l652-652-176-176a62 62 0 0 1-19-45c0-17 6-32 19-45s28-19 45-19h512c17 0 32 6 45 19s19 28 19 45z"/></svg>