<?xml version="1.0" encoding="UTF-8"?>
<svg width="180px" height="43px" viewBox="0 0 180 43" version="1.1" xmlns="http://www.w3.org/2000/svg" xmlns:xlink="http://www.w3.org/1999/xlink">
    <!-- Generator: Sketch 41.2 (35397) - http://www.bohemiancoding.com/sketch -->
    <title>Group</title>
    <desc>Created with Sketch.</desc>
    <defs></defs>
    <g id="Page-1" stroke="none" stroke-width="1" fill="none" fill-rule="evenodd">
        <g id="Group">
            <path d="M42.4077079,3.19035533 C42.104799,3.46954454 41.7234641,3.64720774 41.2636917,3.72335025 L42.9432049,5.7715736 L42.6186613,6 L40.7849899,3.76142132 L39.4056795,3.76142132 L39.4056795,5.8857868 L39,5.8857868 L39,0 L40.7281947,0 C41.3935125,0 41.9290041,0.14720665 42.3346856,0.441624365 C42.5564582,0.598985558 42.7227851,0.79187703 42.8336714,1.02030457 C42.9445577,1.24873211 43,1.50507472 43,1.7893401 C43,2.36294703 42.8025713,2.82994744 42.4077079,3.19035533 Z M39.4056795,3.38071066 L40.7200811,3.38071066 C41.0067628,3.39086299 41.2690996,3.35533036 41.5070994,3.27411168 C41.7450992,3.19289299 41.9506415,3.07360485 42.1237323,2.91624365 C42.4374593,2.63197827 42.5943205,2.25634751 42.5943205,1.7893401 C42.5943205,1.46954155 42.5240034,1.217006 42.3833671,1.03172589 C42.2427309,0.846445774 42.0723472,0.705584239 41.872211,0.609137056 C41.6720747,0.512689873 41.4665325,0.450507754 41.2555781,0.422588832 C41.0446237,0.394669911 40.868831,0.38071066 40.7281947,0.38071066 L39.4056795,0.38071066 L39.4056795,3.38071066 Z" id="R" fill="#000000"></path>
            <polygon id="E" fill="#000000" points="47 0.388098318 44.3537736 0.388098318 44.3537736 2.6545925 46.9292453 2.6545925 46.9292453 3.04269082 44.3537736 3.04269082 44.3537736 5.61190168 47 5.61190168 47 6 44 6 44 0 47 0"></polygon>
            <polygon id="V" fill="#000000" points="49.5 6 47 0.149625935 47.3248588 0 49.5 5.09476309 51.6751412 0 52 0.149625935"></polygon>
            <polygon id="I" fill="#000000" points="53.386845 6 53 6 53 0 53.386845 0"></polygon>
            <path d="M55.9943295,6 C55.9710039,6 55.9500111,5.99874839 55.9313506,5.99624513 C55.9126901,5.99374188 55.8940299,5.99249027 55.8753695,5.99249027 C55.6840995,5.98748375 55.4939986,5.95994833 55.3050612,5.90988318 C55.1161238,5.85981803 54.935353,5.78472144 54.7627435,5.68459114 C54.5854689,5.58446084 54.4326885,5.46806112 54.3043977,5.33538847 C54.1761068,5.20271583 54.0746419,5.06378712 54,4.91859819 L54.3148941,4.74587429 C54.426857,4.98118049 54.6321193,5.1839413 54.9306871,5.35416281 C55.0753058,5.43927356 55.2292525,5.50435728 55.3925318,5.54941591 C55.555811,5.59447455 55.7190879,5.61700353 55.8823671,5.61700353 L55.8893647,5.61700353 C56.0293184,5.62701656 56.196094,5.61199724 56.3896965,5.57194512 C56.5832991,5.531893 56.7699011,5.45929962 56.9495083,5.35416281 C57.1291155,5.249026 57.2853947,5.11009729 57.4183507,4.93737253 C57.5513066,4.76464776 57.6271137,4.55062246 57.6457742,4.2952902 C57.6690998,3.9898928 57.594459,3.73706759 57.4218495,3.53680699 C57.2818958,3.37659851 57.0859637,3.25268913 56.8340471,3.16507512 C56.5821306,3.07746111 56.2952299,3.03365476 55.9733365,3.03365476 C55.8940295,3.03365476 55.7902321,3.02739671 55.6619412,3.01488042 C55.5336504,3.00236414 55.3971976,2.97733194 55.2525789,2.93978308 C55.1079601,2.90223421 54.9633435,2.84716338 54.8187247,2.77456891 C54.674106,2.70197444 54.545817,2.60309726 54.4338541,2.47793439 C54.2145934,2.21759561 54.1119623,1.89718347 54.1259576,1.51668833 C54.1446181,1.12618017 54.2752396,0.798258367 54.5178259,0.532913077 C54.7370866,0.307619908 55.0123246,0.152420274 55.3435483,0.0673095209 C55.5534787,0.0122378571 55.7715699,-0.00903951199 55.9978283,0.00347677523 C56.2240867,0.0159930625 56.4445104,0.0572961907 56.6591059,0.127387399 C56.8830318,0.202485122 57.0789639,0.303865528 57.2469083,0.431531658 C57.4148527,0.559197788 57.5431416,0.708139371 57.6317789,0.878360878 L57.3238824,1.06610425 C57.2585707,0.93593486 57.1594384,0.822038355 57.0264824,0.724411314 C56.8935265,0.626784274 56.736081,0.547932847 56.5541412,0.487854669 C56.3722015,0.42777649 56.1832669,0.392731412 55.9873318,0.382718382 C55.7913967,0.372705352 55.6047946,0.390227891 55.42752,0.435286525 C55.3435478,0.455312585 55.2490806,0.487854443 55.1441153,0.532913077 C55.0391501,0.577971711 54.9388515,0.643055429 54.8432165,0.728166182 C54.7475815,0.813276935 54.6647768,0.922167 54.5948,1.05483964 C54.5248232,1.18751229 54.4851703,1.34896997 54.47584,1.53921754 C54.4618446,1.81958237 54.5341529,2.04487216 54.6927671,2.21509367 C54.7814044,2.31522397 54.8887006,2.395327 55.0146588,2.45540518 C55.1406171,2.51548336 55.2654073,2.56054132 55.389033,2.59058041 C55.5126587,2.6206195 55.6281187,2.63939365 55.7354165,2.64690342 C55.8427143,2.65441319 55.9220202,2.65816802 55.9733365,2.65816802 C56.3512114,2.65816802 56.6859288,2.71073564 56.9774989,2.81587245 C57.269069,2.92100926 57.5011553,3.0762089 57.6737648,3.28147601 C57.9163511,3.56684736 58.0236473,3.91479492 57.9956566,4.32532914 C57.9769961,4.62572004 57.8813625,4.89857101 57.708753,5.14389023 C57.5734645,5.34915735 57.3845299,5.52438274 57.1419436,5.66957167 C56.9413434,5.78972803 56.7384136,5.8748375 56.5331483,5.92490265 C56.3278829,5.9749678 56.1482785,6 55.9943295,6 Z" id="S" fill="#000000"></path>
            <polygon id="T" fill="#000000" points="64 0 64 0.388098318 61.7079796 0.388098318 61.7079796 6 61.2835314 6 61.2835314 0.388098318 59 0.388098318 59 0"></polygon>
            <path d="M67.6118143,6 L66.4725738,3.77419355 L63.5189873,3.77419355 L62.3797468,6 L62,5.84367246 L64.9957806,0 L68,5.84367246 L67.6118143,6 Z M63.7130802,3.40198511 L66.278481,3.40198511 L64.9957806,0.900744417 L63.7130802,3.40198511 Z" id="A" fill="#000000"></path>
            <path d="M9.2962963,14.2384937 C9.69135802,12.2301255 10.6790123,10.3221757 11.962963,8.91631799 C12.2592593,8.61506276 12.5555556,8.31380753 12.8518519,8.0125523 C14.9259259,6.10460251 17.5925926,5 20.5555556,5 L21.2469136,5 C24.7037037,5.20083682 27.7654321,7.0083682 29.7407407,9.61924686 C29.8395062,9.82008368 29.9382716,9.92050209 30.1358025,10.1213389 C31.9135802,12.832636 33,16.0460251 33,19.5606695 C33,23.0753138 31.9135802,26.3891213 30.1358025,29 C31.3209877,27.0920502 32.1111111,24.8828452 32.1111111,22.4728033 C32.1111111,21.4686192 32.0123457,20.4644351 31.7160494,19.5606695 C30.9259259,16.4476987 28.9506173,13.9372385 26.2839506,12.3305439 C25.8888889,12.1297071 25.4938272,11.9288703 25.0987654,11.7280335 C23.7160494,11.125523 22.1358025,10.7238494 20.4567901,10.7238494 C20.0617284,10.7238494 19.6666667,10.7238494 19.2716049,10.8242678 C17.4938272,11.0251046 15.7160494,11.6276151 14.2345679,12.6317992 C13.1481481,13.334728 12.2592593,14.2384937 11.4691358,15.1422594 C11.2716049,15.4435146 10.9753086,15.7447699 10.8765432,16.0460251 C10.2839506,17.0502092 9.88888889,18.2552301 9.88888889,19.460251 C9.88888889,20.7656904 10.2839506,21.8702929 10.8765432,22.874477 C10.1851852,21.8702929 9.69135802,20.665272 9.39506173,19.460251 C9.19753086,18.6569038 9,17.7531381 9,16.6485356 C9,15.8451883 9.09876543,15.041841 9.2962963,14.2384937" id="Shape" fill="#019544"></path>
            <path d="M21.84689,34.1299213 C24.4593301,32.4566929 26.3684211,29.8976378 26.9712919,26.8464567 C27.0717703,26.4527559 27.1722488,26.0590551 27.1722488,25.5669291 C27.1722488,25.1732283 27.2727273,24.7795276 27.2727273,24.484252 C27.2727273,22.8110236 26.8708134,21.2362205 26.2679426,19.7598425 C25.5645933,18.0866142 24.3588517,16.7086614 23.0526316,15.5275591 C22.0478469,14.7401575 20.8421053,14.0511811 19.6363636,13.5590551 C19.3349282,13.4606299 19.0334928,13.3622047 18.7320574,13.2637795 C18.2296651,13.1653543 17.7272727,13.0669291 17.1244019,13.0669291 C15.1148325,13.0669291 13.3062201,13.9527559 12,15.3307087 C12.8038278,14.3464567 13.8086124,13.4606299 14.8133971,12.8700787 C16.3205742,11.8858268 18.0287081,11.2952756 19.937799,11.0984252 C20.3397129,11.0984252 20.7416268,11 21.1435407,11 C22.8516746,11 24.3588517,11.2952756 25.8660287,11.984252 C26.2679426,12.1811024 26.6698565,12.3779528 27.0717703,12.5748031 C29.784689,14.0511811 31.7942584,16.6102362 32.5980861,19.6614173 C32.7990431,20.5472441 33,21.5314961 33,22.515748 C33,24.8779528 32.2966507,27.0433071 30.9904306,28.9133858 C30.8899522,29.1102362 30.7894737,29.2086614 30.5885167,29.4055118 C27.5741627,33.4409449 22.6507177,36 17.1244019,36 C15.4162679,36 13.708134,35.7047244 12.1004785,35.2125984 C13.2057416,35.507874 14.4114833,35.7047244 15.6172249,35.7047244 C17.8277512,35.9015748 20.0382775,35.2125984 21.84689,34.1299213" id="Shape" fill="#046939"></path>
            <path d="M4.71291411,10.5683761 C5.89363407,7.52136752 8.35346733,5.16239316 11.4036606,3.98290598 C11.6004472,3.88461538 11.7972339,3.88461538 11.9940206,3.78632479 C13.5683138,3.29487179 15.2410005,3 16.9136871,3 C22.2269269,3 27.0482001,5.65384615 30,9.58547009 C28.0321334,6.93162393 24.9819402,5.26068376 21.5381736,5.06410256 L20.8494203,5.06410256 C17.8976204,5.06410256 15.2410005,6.14529915 13.1747405,8.01282051 C12.8795605,8.30769231 12.5843805,8.6025641 12.2892005,8.8974359 C11.0100872,10.3717949 10.0261539,12.1410256 9.63258063,14.1068376 C9.43579396,14.8931624 9.33740063,15.6794872 9.33740063,16.465812 C9.33740063,17.4487179 9.43579396,18.4316239 9.73097396,19.3162393 C10.0261539,20.4957265 10.5181206,21.6752137 11.2068739,22.6581197 C11.4036606,22.9529915 11.6004472,23.2478632 11.8956272,23.542735 C13.0763472,24.9188034 14.8474271,25.8034188 16.9136871,25.8034188 C17.4056537,25.8034188 17.9960137,25.7051282 18.4879804,25.6068376 C17.5040471,25.9017094 16.5201137,26 15.4377871,26 L14.7490338,26 C12.8795605,25.9017094 11.2068739,25.3119658 9.73097396,24.525641 C7.95989401,23.542735 6.58238739,22.0683761 5.59845408,20.3974359 C5.40166742,20.0042735 5.20488076,19.7094017 5.0080941,19.3162393 C4.41773412,17.8418803 4.0241608,16.2692308 4.0241608,14.5982906 C3.92576747,13.2222222 4.12255413,11.8461538 4.71291411,10.5683761" id="Shape" fill="#48AE4D"></path>
            <path d="M4.34831461,29.2995595 C6.37078652,31.0220264 9,32.0352423 11.8314607,32.0352423 C12.2359551,32.0352423 12.6404494,32.0352423 13.0449438,31.9339207 C13.4494382,31.9339207 13.9550562,31.8325991 14.3595506,31.7312775 C16.3820225,31.3259912 18.2022472,30.3127753 19.7191011,28.9955947 C21.0337079,27.7797357 22.1460674,26.2599119 22.752809,24.5374449 C23.258427,23.3215859 23.4606742,22.1057269 23.5617978,20.7885463 L23.5617978,20.2819383 L23.5617978,19.7753304 C23.3595506,17.1409692 21.6404494,14.9118943 19.3146067,14 C20.6292135,14.5066079 21.741573,15.1145374 22.752809,16.0264317 C24.1685393,17.1409692 25.2808989,18.660793 25.988764,20.3832599 C26.5955056,21.9030837 27,23.5242291 27,25.246696 C27,25.6519824 27,26.0572687 26.8988764,26.3612335 C26.8988764,26.7665198 26.7977528,27.2731278 26.6966292,27.6784141 C25.988764,30.8193833 24.1685393,33.5550661 21.5393258,35.1762115 C19.7191011,36.3920705 17.494382,37 15.1685393,37 C13.9550562,37 12.741573,36.7973568 11.6292135,36.4933921 C11.4269663,36.3920705 11.2247191,36.3920705 11.0224719,36.2907489 C4.85393258,33.8590308 0.303370787,27.8810573 0,20.7885463 C0.202247191,24.2334802 1.82022472,27.2731278 4.34831461,29.2995595" id="Shape" fill="#D5DA2F"></path>
            <path d="M0,18.9340659 C0.296137339,12.010989 4.73819742,6.17582418 10.9570815,4 C7.89699571,5.08791209 5.42918455,7.56043956 4.24463519,10.6263736 C3.75107296,11.9120879 3.45493562,13.3956044 3.45493562,14.8791209 C3.45493562,16.5604396 3.84978541,18.1428571 4.44206009,19.6263736 C4.63948498,20.021978 4.83690987,20.4175824 5.03433476,20.7142857 C6.02145923,22.3956044 7.50214592,23.8791209 9.18025751,24.8681319 C10.6609442,25.7582418 12.4377682,26.2527473 14.2145923,26.3516484 L14.9055794,26.3516484 C15.9914163,26.3516484 16.9785408,26.2527473 17.9656652,25.956044 C18.2618026,25.8571429 18.5579399,25.7582418 18.8540773,25.6593407 C21.1244635,24.7692308 22.8025751,22.5934066 23,20.021978 C22.9012876,21.3076923 22.7038627,22.5934066 22.2103004,23.6813187 C21.5193133,25.3626374 20.5321888,26.8461538 19.248927,28.032967 C17.7682403,29.3186813 15.9914163,30.3076923 14.0171674,30.7032967 C13.6223176,30.8021978 13.2274678,30.9010989 12.7339056,30.9010989 C12.3390558,30.9010989 11.944206,31 11.5493562,31 C8.78540773,31 6.21888412,30.010989 4.24463519,28.3296703 C1.77682403,26.3516484 0.197424893,23.3846154 0.0987124464,20.021978 L0.0987124464,19.4285714 C0,19.3296703 0,19.1318681 0,18.9340659" id="Shape" fill="#8FC044"></path>
            <polygon id="Shape" fill="#010202" points="41.04 8 39.96 8 39 8 39 8.89224138 39 30.2068966 39 31 39.96 31 41.04 31 42 31 42 30.2068966 42 8.89224138 42 8"></polygon>
            <polygon id="Shape" fill="#010202" points="43.8172043 8 43 8 43 10.4891775 50.5591398 10.4891775 50.5591398 31 53.3172043 31 53.3172043 10.4891775 60.672043 10.4891775 62 8"></polygon>
            <polygon id="Shape" fill="#010202" points="94.0892857 8 78.8095238 8 78 8 78 8.89224138 78 30.2068966 78 31 78.8095238 31 79.7202381 31 80.6309524 31 80.6309524 30.2068966 80.6309524 21.2844828 92.875 21.2844828 93.7857143 21.2844828 93.7857143 20.3922414 93.7857143 19.5 93.7857143 18.6077586 92.875 18.6077586 80.6309524 18.6077586 80.6309524 10.4784483 94.0892857 10.4784483 95 10.4784483 95 9.68534483 95 8.89224138 95 8"></polygon>
            <path d="M116.977778,14.3692946 C116.364444,12.8755187 115.546667,11.5809129 114.524444,10.5850622 C113.502222,9.48962656 112.275556,8.593361 110.946667,7.99585062 C109.515556,7.39834025 108.084444,7 106.448889,7 C104.813333,7 103.382222,7.29875519 101.951111,7.99585062 C100.622222,8.593361 99.3955556,9.48962656 98.3733333,10.5850622 C97.3511111,11.6804979 96.5333333,12.9751037 95.92,14.4688797 C95.3066667,15.9626556 95,17.4564315 95,19.1493776 C95,20.1452282 95.1022222,21.0414938 95.3066667,21.9377593 C95.5111111,22.8340249 95.8177778,23.6307054 96.2266667,24.526971 L96.4311111,25.0248963 L97.0444444,25.0248963 L97.9644444,25.0248963 L99.3955556,25.0248963 L98.68,23.6307054 C98.3733333,22.93361 98.0666667,22.2365145 97.8622222,21.439834 C97.6577778,20.6431535 97.5555556,19.846473 97.5555556,19.0497925 C97.5555556,17.7551867 97.76,16.4605809 98.2711111,15.3651452 C98.68,14.1701245 99.3955556,13.1742739 100.213333,12.3775934 C101.031111,11.4813278 101.951111,10.8838174 103.075556,10.3858921 C104.097778,9.8879668 105.324444,9.68879668 106.551111,9.68879668 C107.777778,9.68879668 108.902222,9.98755187 109.924444,10.3858921 C110.946667,10.8838174 111.968889,11.5809129 112.786667,12.3775934 C113.604444,13.2738589 114.217778,14.2697095 114.728889,15.3651452 C115.24,16.560166 115.444444,17.7551867 115.444444,19.0497925 C115.444444,20.3443983 115.24,21.6390041 114.728889,22.8340249 C114.217778,24.0290456 113.604444,25.0248963 112.786667,25.8215768 C111.968889,26.7178423 111.048889,27.3153527 109.924444,27.813278 C108.902222,28.3112033 107.777778,28.5103734 106.551111,28.5103734 C105.937778,28.5103734 105.426667,28.4107884 104.915556,28.3112033 L103.791111,28.1120332 L103.791111,29.2074689 L103.791111,30.0041494 L103.791111,30.7012448 L104.506667,30.8008299 C105.12,30.9004149 105.835556,31 106.551111,31 C108.084444,31 109.617778,30.7012448 111.048889,30.0041494 C112.377778,29.406639 113.604444,28.5103734 114.626667,27.4149378 C115.648889,26.3195021 116.466667,25.0248963 117.08,23.6307054 C117.693333,22.1369295 118,20.6431535 118,18.9502075 C117.795556,17.3568465 117.488889,15.7634855 116.977778,14.3692946" id="Shape" fill="#010202"></path>
            <path d="M135.5,29.5762712 L130.4,20.3220339 C131.3,20.1186441 132,19.8135593 132.7,19.4067797 C133.4,18.8983051 134,18.3898305 134.5,17.779661 C135,17.1694915 135.4,16.4576271 135.6,15.6440678 C135.8,14.9322034 135.9,14.1186441 135.9,13.4067797 C135.9,12.5932203 135.8,11.8813559 135.5,11.0677966 C135.2,10.3559322 134.9,9.6440678 134.4,9.03389831 C133.9,8.42372881 133.3,7.91525424 132.5,7.61016949 C131.7,7.20338983 130.8,7 129.8,7 L118.9,7 L118,7 L118,7.91525424 L118,30.0847458 L118,31 L118.9,31 L119.7,31 L120.6,31 L120.6,30.0847458 L120.6,20.4237288 L127.4,20.4237288 L132.7,30.4915254 L132.9,31 L133.4,31 L134.5,31 L136,31 L135.5,29.5762712 Z M120.7,9.6440678 L129.9,9.6440678 C130.4,9.6440678 130.9,9.74576271 131.2,9.84745763 C131.6,9.94915254 131.9,10.1525424 132.2,10.4576271 C132.5,10.7627119 132.7,10.9661017 132.9,11.3728814 C133.1,11.6779661 133.2,12.0847458 133.3,12.4915254 L133.3,12.4915254 L133.3,12.4915254 C133.3,12.5932203 133.4,12.7966102 133.4,13.3050847 C133.4,13.8135593 133.3,14.220339 133.2,14.7288136 C133,15.2372881 132.8,15.6440678 132.5,16.0508475 C132.2,16.4576271 131.8,16.7627119 131.4,17.0677966 C131,17.3728814 130.5,17.5762712 129.9,17.6779661 L120.9,17.6779661 L120.9,9.6440678 L120.7,9.6440678 Z" id="Shape" fill="#010202"></path>
            <path d="M145.787879,28.5789474 L145.181818,28.5789474 C144.272727,28.5789474 143.464646,28.377193 142.858586,28.0745614 C142.151515,27.7719298 141.646465,27.2675439 141.141414,26.7631579 C140.636364,26.2587719 140.333333,25.5526316 140.030303,24.8464912 C139.727273,24.1403509 139.626263,23.3333333 139.626263,22.4254386 L139.626263,8.90789474 L139.626263,8 L138.717172,8 L137.909091,8 L137,8 L137,8.90789474 L137,22.4254386 C137,23.8377193 137.30303,25.1491228 137.707071,26.1578947 C138.212121,27.2675439 138.818182,28.0745614 139.525253,28.8815789 C140.232323,29.5877193 141.141414,30.0921053 142.050505,30.495614 C142.959596,30.8991228 143.969697,31 144.979798,31 C145.383838,31 145.787879,31 146.292929,30.8991228 L147,30.7982456 L147,29.9912281 L147,29.2850877 L147,28.1754386 L145.888889,28.377193 C145.989899,28.4780702 145.888889,28.5789474 145.787879,28.5789474" id="Shape" fill="#010202"></path>
            <path d="M155.042553,8.09865471 L154.297872,8.09865471 L153.340426,8.09865471 L153.340426,8.98654709 L153.340426,22.896861 C153.234043,23.7847534 153.021277,24.573991 152.702128,25.1659193 C152.382979,25.7578475 151.851064,26.3497758 151.319149,26.7443946 L151,27.0403587 L151,27.4349776 L151,28.32287 L151,30 L152.489362,29.0134529 C153.446809,28.4215247 154.191489,27.5336323 154.829787,26.5470852 C155.468085,25.5605381 155.893617,24.3766816 156,22.9955157 L156,22.9955157 L156,22.9955157 L156,22.6008969 L156,22.1076233 L156,21.2197309 L156,8.88789238 L156,8 L155.042553,8 L155.042553,8.09865471 Z" id="Shape" fill="#010202"></path>
            <polygon id="Shape" fill="#010202" points="179.116822 7 177.841121 7 177.252336 7 177.056075 7.5106383 169.5 26.812766 162.042056 7.5106383 161.747664 7 161.158879 7 159.883178 7 159 7 159 7.81702128 159 29.9787234 159 30.7957447 159.883178 30.7957447 160.766355 30.7957447 161.649533 30.7957447 161.649533 29.9787234 161.649533 13.6382979 168.224299 30.4893617 168.420561 31 169.009346 31 169.990654 31 170.579439 31 170.775701 30.4893617 177.448598 13.6382979 177.448598 26.812766 177.448598 27.7319149 178.331776 27.7319149 179.116822 27.7319149 180 27.7319149 180 26.812766 180 7.81702128 180 7"></polygon>
            <ellipse id="Oval" fill="#DFDFE0" cx="17.5" cy="42.5" rx="6.5" ry="0.5"></ellipse>
        </g>
    </g>
</svg>