<?xml version="1.0" encoding="utf-8"?>
<!-- Generator: Adobe Illustrator 21.0.0, SVG Export Plug-In . SVG Version: 6.00 Build 0)  -->
<svg version="1.1" id="Capa_1" xmlns="http://www.w3.org/2000/svg" xmlns:xlink="http://www.w3.org/1999/xlink" x="0px" y="0px"
	 viewBox="0 0 269.1 297" style="enable-background:new 0 0 269.1 297;" xml:space="preserve">
<g>
	<path d="M144.4,28.1v-8.4h19.5c5.4,0,9.8-4.4,9.8-9.8S169.3,0,163.9,0h-58.7c-5.4,0-9.8,4.4-9.8,9.8c0,5.4,4.4,9.8,9.8,9.8h19.5
		v8.4C55.1,33.1,0,91.4,0,162.4C0,236.6,60.4,297,134.5,297s134.5-60.4,134.5-134.6C269.1,91.4,214,33.1,144.4,28.1z M124.8,75.2
		c0.5,5,4.7,8.9,9.8,8.9s9.3-3.9,9.8-8.9c43.7,4.9,77.8,42.1,77.8,87.2c0,48.4-39.3,87.7-87.5,87.7S47,210.7,47,162.4
		C47,117.3,81.1,80.1,124.8,75.2z M134.5,277.4c-63.4,0-114.9-51.6-114.9-115c0-60.1,46.3-109.6,105.1-114.6v7.7
		c-54.5,5-97.3,51-97.3,106.9c0,59.2,48.1,107.4,107.2,107.4s107.2-48.2,107.2-107.4c0-55.9-42.8-101.9-97.3-106.9v-7.7
		c58.8,5,105.1,54.5,105.1,114.6C249.4,225.8,197.9,277.4,134.5,277.4z"/>
	<path d="M89.8,217.2c1.7,0,3.5-0.5,5.1-1.4l40.6-24.5c7.3-0.2,14.2-3.2,19.4-8.5c5.4-5.4,8.1-12.4,8.4-19.5l24.4-40.9
		c2.3-3.9,1.7-8.8-1.5-12c-3.2-3.2-8.1-3.8-12-1.4l-40.6,24.5c-7.3,0.2-14.2,3.2-19.4,8.5c-5.3,5.4-8.1,12.4-8.4,19.5l-24.4,40.9
		c-2.3,3.9-1.7,8.8,1.5,12C84.8,216.2,87.3,217.2,89.8,217.2z M128.1,155.8c1.7-1.7,4-2.7,6.4-2.7s4.7,1,6.4,2.7
		c3.6,3.6,3.6,9.5,0,13.2c-1.7,1.7-4,2.7-6.4,2.7c-2.4,0-4.7-1-6.4-2.7C124.5,165.3,124.5,159.4,128.1,155.8z"/>
</g>
</svg>
