<svg xmlns="http://www.w3.org/2000/svg" width="170" height="53.938" viewBox="0 0 170 53.938"><path d="M50.806 30.362c0-7.924-6.446-14.37-14.369-14.37s-14.369 6.446-14.369 14.37c0 7.921 6.446 14.367 14.369 14.367l14.424-.002v-.48c0-1.619-.013-4.289-.028-6.955-.014-2.661-.027-5.318-.027-6.93zm27.986-10.665a14.2 14.2 0 0 0-9.623-3.714c-7.922 0-14.37 6.446-14.37 14.37 0 7.922 6.447 14.366 14.37 14.366h14.424v-.48c0-1.626-.015-4.304-.029-6.978l-.021-4.411h.05V7.905h-4.801v11.792zm24.217-3.714c-7.899 0-14.327 6.429-14.327 14.33 0 7.9 6.428 14.331 14.327 14.331 7.902 0 14.331-6.431 14.331-14.331 0-7.901-6.428-14.33-14.331-14.33zM170 29.933V15.697h-28.61v13.755l.036.289c-.02.285-.036.569-.036.858 0 7.901 6.429 14.331 14.331 14.331 4.479 0 8.618-2.049 11.359-5.617l-.67-.676a9.095 9.095 0 0 1-5.55 1.876c-5.068 0-9.19-4.123-9.19-9.189 0-.458.035-.926.108-1.392H170v.001zM8.433 48.293H0v5.645h14.077V6.786H8.433v41.507zm0-42.647h5.644V.002H8.433v5.644zm114.043 21.421v18.175h6.576V27.067a5.11 5.11 0 0 1 5.104-5.105h2.88v-6.578h-2.88c-6.441 0-11.68 5.241-11.68 11.683zM23.029 0h-5.04v10.423l5.04-4.334V0z" fill="#FFF"/></svg>