<svg xmlns="http://www.w3.org/2000/svg" width="130" height="138.157" viewBox="0 0 130 138.157"><g fill="#FFF"><path d="M111.799 110.714c0 3.983-2.541 6.222-6.447 6.222h-3.096v4.311c0 .779-.252 1.054-1.059 1.054h-2.844c-.807 0-1.085-.274-1.085-1.054v-15.771c0-.781.278-1.057 1.085-1.057h6.951c3.929-.001 6.495 2.294 6.495 6.295m-5.158-.027c0-1.104-.708-1.862-1.892-1.862h-2.493v3.705h2.493c1.184-.001 1.892-.731 1.892-1.843m15.627-6.645c4.963 0 7.732 2.692 7.732 7.046v4.539c0 4.354-2.77 7.048-7.732 7.048-4.984 0-7.756-2.693-7.756-7.048v-4.539c0-4.354 2.772-7.046 7.756-7.046m0 4.406c-1.76 0-2.771.829-2.771 2.419v4.982c0 1.592 1.012 2.422 2.771 2.422 1.737 0 2.744-.83 2.744-2.422v-4.982c0-1.59-1.007-2.419-2.744-2.419m-17.01 27.656h-6.123v-3.971h5.146c.459 0 .744-.294.744-.761v-.312c0-.458-.294-.747-.744-.747h-5.146v-3.821h5.885c.461 0 .761-.29.761-.742v-.311c0-.47-.291-.764-.761-.764h-6.989c-.472 0-.761.294-.761.764v11.715c0 .469.289.765.761.765h7.228c.463 0 .761-.3.761-.765v-.309c-.001-.441-.308-.741-.762-.741m12.188-2.33l-.338-.124a.915.915 0 0 0-.285-.051c-.209 0-.5.092-.694.54-.411 1.362-1.103 2.207-3.269 2.207-2.118 0-3.282-1.046-3.282-2.942v-4.229c0-1.913 1.134-2.92 3.282-2.92 1.913 0 2.761.554 3.236 2.132a.704.704 0 0 0 .688.518c.069 0 .146-.012.29-.042l.354-.119c.416-.188.578-.518.453-.938-.686-2.297-2.281-3.368-5.021-3.368-3.225 0-5.148 1.778-5.148 4.753v4.196c0 2.99 1.924 4.771 5.148 4.771 2.746 0 4.354-1.089 5.053-3.433a.745.745 0 0 0-.027-.587.706.706 0 0 0-.44-.364m7.42-9.336c-3.229 0-5.158 1.785-5.158 4.772v4.177c0 2.99 1.929 4.771 5.158 4.771 3.216 0 5.135-1.78 5.135-4.771v-4.177c-.001-2.987-1.919-4.772-5.135-4.772m-3.295 4.772c0-1.936 1.141-2.954 3.295-2.954 2.107 0 3.266 1.047 3.266 2.954v4.177c0 1.907-1.158 2.96-3.266 2.96-2.154 0-3.295-1.022-3.295-2.96v-4.177zm-86.647-24.103v2.313c0 .823-.284 1.107-1.108 1.107h-6.791v2.288h5.426c.824 0 1.108.285 1.108 1.083v2.314c0 .823-.284 1.106-1.108 1.106h-5.426v2.471h7.021c.799 0 1.082.254 1.082 1.078v2.343c0 .799-.283 1.077-1.082 1.077H23.039c-.825 0-1.107-.278-1.107-1.077v-16.104c0-.795.282-1.078 1.107-1.078h10.777c.825.001 1.108.284 1.108 1.079m10.985 13.07c1.778 0 2.676-.85 2.676-2.369v-10.699c0-.796.258-1.079 1.079-1.079h2.909c.821 0 1.107.283 1.107 1.079v10.47c0 4.323-2.677 7.098-7.771 7.098-5.068 0-7.742-2.774-7.742-7.098v-10.47c0-.796.257-1.079 1.078-1.079h2.907c.824 0 1.107.283 1.107 1.079v10.699c.001 1.519.875 2.369 2.65 2.369m23.138-14.135c3.877 0 6.297 1.581 7.354 4.406.25.731.074 1.112-.68 1.362l-2.694.957c-.781.225-1.085.1-1.358-.683-.456-1.135-1.211-1.637-2.621-1.637-1.992 0-2.771.855-2.771 2.621v4.583c0 1.76.779 2.619 2.771 2.619 1.41 0 2.217-.556 2.621-1.638.3-.784.601-.956 1.358-.683l2.694.959c.754.249.93.628.68 1.361-1.057 2.819-3.477 4.404-7.354 4.404-4.962 0-7.759-2.694-7.759-7.049v-4.539c0-4.352 2.797-7.043 7.759-7.043m17.583 0c4.962 0 7.733 2.692 7.733 7.046v4.539c0 4.354-2.771 7.048-7.733 7.048-4.988 0-7.757-2.693-7.757-7.048v-4.539c.001-4.354 2.769-7.046 7.757-7.046m0 4.406c-1.763 0-2.774.829-2.774 2.419v4.982c0 1.592 1.012 2.422 2.774 2.422 1.737 0 2.745-.83 2.745-2.422v-4.982c0-1.59-1.007-2.419-2.745-2.419m-69.088-4.445H14.97c-.848 0-1.082.127-1.44.819l-4.244 8.312-4.246-8.337c-.358-.642-.618-.794-1.519-.794H1.104c-.825 0-1.104.256-1.104 1.08v16.155c0 .798.279 1.05 1.104 1.05h2.622c.824 0 1.107-.252 1.107-1.05v-8.454a343.465 343.465 0 0 0 2.316 5.185c.283.566.543.747 1.235.747h1.726c.694 0 .951-.231 1.234-.747 0 0 1.373-2.979 2.316-5.116v8.385c0 .798.256 1.05 1.078 1.05h2.804c.825 0 1.106-.252 1.106-1.05v-16.155c.001-.824-.28-1.08-1.106-1.08m94.209-60.329c-.798-11.733-5.944-22.662-14.486-30.776C88.774 4.832 77.686.255 66.051 0a47.527 47.527 0 0 0-4.233.099c-25.775 1.753-45.321 24.154-43.57 49.933.799 11.729 5.945 22.662 14.487 30.773C41.23 88.87 52.313 93.446 63.95 93.703a48.58 48.58 0 0 0 4.23-.099c12.469-.846 23.872-6.518 32.113-15.956 8.237-9.442 12.306-21.506 11.458-33.974m-37.11 44.941c-2.842.473-4.959-.059-6.248-1.58-1.012-1.195-1.361-2.812-1.457-4.101.025-8.163 2.111-14.469 4.729-19.17.326-.512.775-.971 1.531-.953.277.006.594.082.93.214 1.622.706 3.771 1.391 6.041 1.438 1.474.032 2.845-.213 4.078-.728a.327.327 0 0 0 .192-.392.329.329 0 0 0-.362-.24c-.004 0-.457.057-1.191.042a13.406 13.406 0 0 1-7.34-2.393c-.391-.389-.588-.804-.584-1.242.007-.457.225-.867.42-1.142 5.203-6.19 10.973-8.675 11.033-8.7a.336.336 0 0 0 .185-.419.335.335 0 0 0-.412-.203c-3.04.933-5.66 2.158-7.925 3.583a.32.32 0 0 0-.107.048c-.436.292-.8.439-1.096.433a.631.631 0 0 1-.43-.181c-1.135-5.091 3.605-8.673 3.824-8.834a.333.333 0 0 0-.319-.578c-5.284 2.094-6.231 6.84-6.22 10.02a.34.34 0 0 0-.03.168c.005.021.188 1.93-.981 3.229a.305.305 0 0 0-.062.106c-2.582 2.705-4.414 5.716-5.712 8.729.643-7.916 2.063-17.593 5.106-26.433.494-1.082 1.121-1.289 2.332-1.685 5.085-1.312 6.496-3.854 6.563-3.982a.335.335 0 0 0-.067-.4.339.339 0 0 0-.408-.032 13.615 13.615 0 0 1-6.178 2.198 1.816 1.816 0 0 1-.158.008c-.142-.003-.318-.029-.376-.131-.052-.094-.04-.256.007-.429 1.18-2.754 2.541-5.379 4.125-7.769a.325.325 0 0 0-.057-.429.332.332 0 0 0-.433-.01c-.144.123-2.927 2.494-6.028 8.479-.115.174-.424.505-.65.5-.19-.004-.352-.276-.443-.471-.758-2.295-1.64-6.292-1.082-11.521a.329.329 0 0 0-.243-.356.334.334 0 0 0-.391.188c-.094.214-2.069 4.873-.094 13.474.237 1.404.454 3.689-.221 5.438-.003.004 0 .012-.003.016-2 5.632-3.951 13.545-4.798 24.156-1.115-6.912-2.892-12.637-4.792-17.226 3.218-7.495 1.86-18.764 1.848-18.88a.334.334 0 0 0-.664.051c.197 6.707-.991 11.521-2.005 14.36-.18.312-.364.483-.529.481-.338-.009-.747-.606-.889-.899a.435.435 0 0 0-.08-.099c-3.235-6.226-6.195-9.251-6.25-9.303a.328.328 0 0 0-.433-.033.328.328 0 0 0-.089.426 103.263 103.263 0 0 1 3.621 7.072c.314.761.302 1.187.219 1.416a.55.55 0 0 1-.287.312l-.14.044c-.701.144-1.572.254-2.53.234a9.588 9.588 0 0 1-3.08-.565.33.33 0 0 0-.407.154.336.336 0 0 0 .095.426c.102.073 2.497 1.808 5.404 1.872.085.002.167 0 .248-.007.007 0 .013.007.014.007.004 0 .043-.006.103-.006.012 0 .023 0 .031.002.316-.01 1.102-.028 1.5-.019l.078.003c.305.012.476.203.573.359 3.03 7.574 4.858 15.31 5.806 24.36-1.422-3.128-2.996-5.549-4.426-7.362-3.873-4.906-7.49-6.564-7.643-6.632a.333.333 0 0 0-.408.109.339.339 0 0 0 .035.422c2.783 2.872 4.96 5.681 6.663 8.339.338.641.648 1.607-.014 2.281-.002.009-.002.009-.006.009-1.274 1.264-3.046 1.876-5.288 1.825-2.318-.047-4.294-.819-4.313-.824a.327.327 0 0 0-.409.145.328.328 0 0 0 .089.424c1.547 1.185 3.281 1.805 5.151 1.847 2.269.049 4.311-.749 5.727-1.512.104-.04.373-.131.686-.123.398.01.705.17.94.488 2.64 5.444 3.313 9.874 3.462 12.306.002 1.312-.221 2.935-1.171 4.1-1.251 1.526-3.527 1.903-6.695 1.125-16.96-4.865-29.892-20.079-31.131-38.328-1.608-23.578 16.27-44.065 39.85-45.665a42.423 42.423 0 0 1 3.871-.093c21.948.477 40.307 18.022 41.796 39.94 1.446 21.276-12.97 40.032-33.121 44.674"/><path d="M71.277 10.202a12.75 12.75 0 0 0-1.753-.167c-1.446-.031-2.354.24-2.432.722-.003.035-.006.065-.003.079l-.532 10.373v.009c-.012.1.018.197.09.293.299.414 1.352.831 2.618 1.036.429.069.846.107 1.237.117.496.013 1.661-.021 1.753-.533.124-.431 2.767-9.758 2.82-10.082.119-.78-1.868-1.534-3.798-1.847m2.804 1.866c-.023.141-.461.335-1.57.312a11.67 11.67 0 0 1-1.561-.147c-1.876-.305-2.969-.867-2.924-1.144.023-.138.459-.335 1.576-.313.477.013 1.018.063 1.558.15.829.137 1.595.337 2.155.575.557.231.785.451.766.567M62.639 27.972c-.039-.511-.769-10.109-.834-10.429-.105-.543-1.162-.644-1.781-.659-.713-.016-1.553.064-2.419.234-1.923.374-3.886 1.187-3.735 1.966.009.03.017.057.026.07l3.076 9.924c0 .002 0 .007.002.008.097.394.848.468 1.293.477a7.98 7.98 0 0 0 1.708-.167c1.375-.264 2.772-.854 2.666-1.403l-.002-.021m-1.758-10.073c.052.272-1.02.871-2.882 1.235-.763.148-1.506.22-2.093.206-.786-.017-1.025-.178-1.045-.269-.017-.089.123-.308.747-.596.553-.249 1.313-.478 2.137-.641.761-.146 1.503-.222 2.094-.209.786.021 1.024.182 1.042.274m-9.854 13.94c-.199-.359-4.926-8.864-5.121-9.131-.102-.137-.275-.207-.519-.212-.744-.016-2.112.604-3.477 1.583-1.586 1.142-3.029 2.708-2.567 3.352a.28.28 0 0 0 .05.052l6.947 7.728.002.001c.079.104.209.152.386.156.534.009 1.506-.429 2.474-1.123 1.115-.802 2.122-1.898 1.822-2.405h.003zm-7.913-6.09c-1.092.78-2.201 1.322-2.701 1.309-.063 0-.145-.012-.176-.058-.163-.222.561-1.217 2.104-2.323 1.087-.786 2.2-1.326 2.701-1.315.062.001.141.015.176.059.159.221-.563 1.217-2.104 2.328m-8.823 17.176a.896.896 0 0 0 .074.028l9.856 3.275h.003c.03.011.058.021.086.023.544.073 1.377-1.093 1.923-2.276.581-1.275.913-2.759.387-3.002h-.003c-.479-.289-8.66-5.263-8.957-5.394a.42.42 0 0 0-.127-.035c-.74-.098-1.901 1.536-2.664 3.2-.816 1.784-1.298 3.856-.578 4.181m.522-1.763c.116-.597.374-1.345.724-2.113.777-1.699 1.575-2.556 1.854-2.517l.022.006c.251.115.115 1.338-.673 3.063-.781 1.698-1.579 2.553-1.879 2.511h-.003c-.075-.031-.175-.274-.045-.95m13.259 12.694s0-.005-.003-.005c-.506-.274-8.889-4.858-9.193-4.979a.481.481 0 0 0-.154-.028c-.746-.016-1.814 1.657-2.489 3.318-.734 1.821-1.117 3.908-.384 4.207a.2.2 0 0 0 .073.021l9.994 2.82a.319.319 0 0 0 .115.023c.544.01 1.312-1.183 1.793-2.363.527-1.298.792-2.795.248-3.014m-9.934-.92c-.633 1.564-1.405 2.609-1.729 2.601-.01 0-.021 0-.031-.006-.081-.034-.188-.267-.088-.949.088-.603.311-1.363.625-2.141.633-1.566 1.404-2.608 1.729-2.604.014 0 .022.006.031.006.256.102.175 1.332-.537 3.093m6.575 12.96c-.469-.254-8.896-4.86-9.198-4.981a.509.509 0 0 0-.156-.031c-.745-.018-1.815 1.661-2.488 3.324-.733 1.812-1.12 3.906-.388 4.205.028.008.058.021.078.021l9.994 2.82c.004 0 .006.006.006.006a.56.56 0 0 0 .111.017c.539.012 1.312-1.182 1.789-2.366.526-1.3.793-2.791.252-3.015m-9.936-.917c-.631 1.56-1.406 2.607-1.729 2.6-.012-.002-.024-.002-.033-.006-.254-.104-.174-1.331.538-3.092.631-1.563 1.402-2.608 1.729-2.601.012 0 .023.005.033.008.028.011.053.038.074.09.153.358-.01 1.501-.612 3.001m46.591-38.827c.223-.355 5.386-8.594 5.527-8.895.34-.712-1.36-1.993-3.127-2.835-1.242-.591-2.471-.957-3.279-.975-.482-.011-.781.104-.894.34-.015.025-.022.053-.026.069l-3.416 9.814s0 .004-.003.005a.455.455 0 0 0 .008.308c.169.481 1.065 1.177 2.224 1.727.876.417 1.745.677 2.326.688.356.009.579-.077.66-.246m1.519-9.873c-1.715-.816-2.604-1.663-2.488-1.914.032-.069.184-.108.4-.104.594.014 1.615.333 2.652.826 1.715.814 2.605 1.662 2.486 1.91-.031.072-.18.11-.398.106-.593-.013-1.613-.327-2.652-.824m1.071 18.034a.38.38 0 0 0 .273-.084c.344-.231 8.385-5.706 8.629-5.928.601-.521-.445-2.372-1.727-3.85-1.217-1.406-2.504-2.358-3.201-2.374a.526.526 0 0 0-.368.118.24.24 0 0 0-.048.056l-7.066 7.616h-.004a.424.424 0 0 0-.117.289c-.039.507.502 1.5 1.341 2.47.864.996 1.781 1.676 2.288 1.687m4.115-11.267c.02-.017.055-.027.098-.026.373.007 1.34.684 2.41 1.912 1.246 1.435 1.721 2.568 1.51 2.748-.024.021-.055.025-.102.025-.373-.007-1.339-.677-2.408-1.906-1.241-1.439-1.718-2.571-1.508-2.753m4.47 14.517c-.894-1.792-2.013-3.107-2.671-3.122a.496.496 0 0 0-.218.048c-.02.012-.049.027-.063.038l-8.747 5.605c-.002 0-.004.002-.008.006a.416.416 0 0 0-.182.242c-.166.484.109 1.583.677 2.731.647 1.298 1.437 2.216 1.922 2.227a.426.426 0 0 0 .165-.036c.412-.149 9.539-3.429 9.834-3.575.706-.352.163-2.411-.709-4.164m-2.613-2.125a.144.144 0 0 1 .047-.006c.334.006 1.16.951 1.909 2.461.377.751.652 1.493.789 2.087.132.586.089.9-.015.952a.107.107 0 0 1-.049.012c-.332-.007-1.157-.953-1.91-2.466-.841-1.697-1.015-2.914-.771-3.04m9.836 11.647c-.277-1.838-.98-3.8-1.732-3.816a.356.356 0 0 0-.152.026L87.843 45.95c-.003.007-.003.007-.007.007a.409.409 0 0 0-.252.176c-.305.411-.379 1.538-.187 2.81.203 1.344.703 2.709 1.261 2.721h.048c.413-.015 10.138-.347 10.466-.399.78-.122.889-2.245.594-4.18m-.824 3.168c-.028.047-.061.069-.105.072-.269-.003-.816-1.049-1.099-2.932-.286-1.878-.079-3.09.194-3.133h.009c.275.007.817 1.056 1.103 2.937.239 1.593.132 2.743-.102 3.056m-2.863 6.939c-.025 0-.049-.001-.078.005a.307.307 0 0 0-.074.018l-10.038 2.666c-.003 0-.007 0-.007-.002a.425.425 0 0 0-.255.178c-.301.409-.379 1.54-.185 2.81.204 1.342.701 2.713 1.261 2.725.019 0 .034.002.05-.001.416-.016 10.137-.349 10.461-.403.78-.117.889-2.241.6-4.176-.279-1.839-.987-3.803-1.735-3.82m.907 6.987c-.029.042-.06.065-.106.071-.27-.006-.816-1.05-1.1-2.932-.284-1.877-.077-3.089.193-3.131h.014c.269.006.813 1.052 1.098 2.935.244 1.592.134 2.743-.099 3.057"/></g></svg>