<svg xmlns="http://www.w3.org/2000/svg" width="120" height="120" viewBox="0 0 120 120"><path fill="#FFF" d="M50.069 46.873l3.607-6.121H40.058l3.716 6.356v33.053l-3.716 6.058h13.618l-3.607-5.94zM23.008 27.282V15.439l4.088-5.289H12.363l3.956 5.289v11.843h-7.59v12.705l3.92-6.689h3.67v72.914l3.402 4.065 3.287-4.065V33.298h3.67l3.921 6.689V27.282zm80.66 0V15.439l4.087-5.289H93.022l3.957 5.289v11.843h-7.59v12.705l3.92-6.689h3.67v72.914l3.402 4.065 3.287-4.065V33.298h3.67l3.921 6.689V27.282zM82.266 80.448h-6.567V46.873l3.607-6.121H65.688l3.716 6.356v33.053l-3.716 6.058h20.537V73.693z"/><path fill="#FFF" d="M113.439 120H6.56A6.568 6.568 0 0 1 0 113.439V6.56A6.568 6.568 0 0 1 6.56 0h106.879A6.567 6.567 0 0 1 120 6.56v106.879a6.567 6.567 0 0 1-6.561 6.561zM6.56 1.967A4.599 4.599 0 0 0 1.967 6.56v106.879a4.6 4.6 0 0 0 4.593 4.594h106.879a4.599 4.599 0 0 0 4.593-4.594V6.56a4.598 4.598 0 0 0-4.593-4.593H6.56z"/></svg>